 
 <?xml-stylesheet type="text/css" href="../../../../male-colors.css" ?>
<svg
                style="transform: scale(1.6)"
                width="70"
                height="70"
                id="Layer_1"
                data-name="Layer 1"
                xmlns="http://www.w3.org/2000/svg"
                viewBox="0 0 600 600"
              >
                <g id="svga-group-mustache-single-move">
                  <g id="svga-group-mustache-single">
                    <path
                      id="SvgjsPath5323"
                      class="male mustache"
                      d="M294.6,352.8c3.3.3,3.3,9.6.9,11.1s-51.6-.6-54-2.1,0-3.6,4.5-4.8C250.5,356.1,279,351.3,294.6,352.8Zm14.7,0c-3.3.3-3.3,9.6-.9,11.1s51.6-.6,54-2.1,0-3.6-4.5-4.8c-4.5-.9-33-5.7-48.6-4.2Z"
                    />
                    <path
                      id="SvgjsPath5324"
                      class="male mustache-details"
                      d="M293.4,355.2c-1.5.9-2.7,2.4-4.2,3.6a28.49,28.49,0,0,1-5.1,3c-.6.3-.3,1.2.3.9a15.23,15.23,0,0,0,5.4-2.7c1.5-1.2,3.3-2.4,4.2-3.9.6-.3,0-1.2-.6-.9Zm-3.9,0c-2.4.9-4.5,2.4-6.9,3.3l-7.2,2.7c-.3.3-.3.9.3.9a30.8,30.8,0,0,0,14.4-6C290.7,355.8,290.1,354.9,289.5,355.2Zm-11.4,1.2c-3.3,1.5-6.9,2.7-10.2,4.5-.3.3-.3.9.3.9,3.6-.3,7.5-2.1,10.8-4.2.3-.9-.3-1.5-.9-1.2Zm-13.2.9c-1.5.6-3,1.2-4.2,1.8a17.73,17.73,0,0,0-4.2,1.8c-.6.3-.3,1.2.6.9,3-.3,6.3-2.4,8.7-3.9,0-.3-.3-.9-.9-.6Zm-12.3,1.8-2.7.9c-.3.3,0,.9.3.6l2.7-.9C253.2,359.7,253.2,359.1,252.6,359.1Zm60.9,3.6c-.6-.9-1.8-1.8-2.4-3l-1.8-3.6c-.3-.6-.9-.6-.9,0,0,2.7,1.8,6.3,4.5,7.5.3.3.9-.3.6-.9Zm8.4-.9c-1.5-.6-3.3-.6-4.8-1.5a12.37,12.37,0,0,1-3.9-3c-.3-.6-1.2.3-.9.6,2.1,2.7,5.7,5.4,9.6,5.1a.62.62,0,0,0,0-1.2Zm7.8-1.5c-1.5-1.2-3.3-1.5-4.8-2.4-1.8-.9-3.3-1.5-4.8-2.4-.6-.3-1.2.6-.6,1.2,1.8.9,3.6,2.1,5.4,3a22.74,22.74,0,0,0,4.8,1.8.91.91,0,0,0,0-1.2Zm8.7,1.2c-2.7-1.8-5.7-2.7-8.7-4.5-.6-.3-1.2.6-.6.9,2.7,1.8,5.7,3.6,8.7,4.2.6.3.9-.3.6-.6Zm5.7.3c-2.7-1.5-5.7-3-8.1-5.4-.3-.3-.9,0-.6.6,2.1,3,4.8,5.7,8.4,5.7a.57.57,0,0,0,.3-.9Zm5.1-.9c-1.8-.9-3.3-1.2-4.5-2.7-.3-.3-.9,0-.6.3.9,1.8,2.7,3.6,5.1,3.3.3,0,.6-.6,0-.9Zm7.2-.3a11.64,11.64,0,0,1-3.3-1.8.64.64,0,1,0-.9.9,8.61,8.61,0,0,0,3.9,2.4c.9-.3.9-1.2.3-1.5Zm-108-2.1a11.83,11.83,0,0,0-4.2,1.5c-.3.3,0,.9.3.6a9.3,9.3,0,0,0,3.9-1.8C248.7,358.8,248.7,358.5,248.4,358.5Z"
                    />
                  </g>
                </g>
              </svg>