<?xml-stylesheet type="text/css" href="../../../male-colors.css" ?>
<svg
                style="transform: scale(1.6)"
                width="70"
                height="70"
                id="Layer_1"
                data-name="Layer 1"
                xmlns="http://www.w3.org/2000/svg"
                viewBox="0 0 600 600"
              >
                <g id="svga-group-mustache-single-move">
                  <g id="svga-group-mustache-single">
                    <path
                      id="SvgjsPath4821"
                      class="male mustache"
                      d="M300.6,354c-13.2,0-36.3-10.2-57.3-5.1s-20.1,31.8-20.1,43.8c-.3,12-2.4,45.9,14.1,54.3s15.6-25.8,15.9-34.5-.3-35.1.3-36.9,22.5,1.8,46.8,2.4c26.7.6,46.8-5.1,48.9-5.1s0,35.4,1.5,60.9c.6,10.5,10.8,14.4,17.1,11.1s11.4-12,12.3-26.1,1.2-48.9-6.6-57.9-18.6-12.3-33.6-11.7c-15.3.3-27.9,4.8-39.3,4.8Z"
                    />
                    <path
                      id="SvgjsPath4822"
                      class="male mustache-details"
                      d="M250.5,385.2c.6-13.5,15.9-10.8,25.2-12.3a47.73,47.73,0,0,0,18.6-7.5c.9-.6,0-1.8-.6-1.2-6.9,3.3-13.5,6.3-21,6.9-5.4.6-11.7-.3-16.8,1.8-5.1,2.4-9,7.2-6.3,12.6,0,.6.9.3.9-.3Zm3-1.8c.3-.6-.9-1.2-1.2-.6-1.8,2.7-1.2,5.4-.9,8.4a41,41,0,0,1,.6,8.7,74.31,74.31,0,0,0-.9,8.1.64.64,0,0,0,1.2.3c2.4-3,2.4-7.2,2.4-11.1-.3-4.5-2.7-9.6-1.2-13.8Zm-2.4,27.3c-.3,4.5,0,9-.6,13.5s-2.1,8.7-2.4,13.2c0,.9,1.5,1.5,1.8.6,4.2-7.2,4.2-19.2,2.7-27.3,0-1.2-1.5-.9-1.5,0Zm-26.7-4.5c-.3-7.2,2.4-13.5,2.4-20.4,0-3.3-1.5-6.6-1.5-9.9-.3-5.1,2.1-8.7,5.1-12.6.6-.6-.6-2.1-1.2-1.2-5.4,4.2-6.9,10.2-6.3,16.8.3,4.2,1.5,7.5.6,12-.3,2.7-1.5,5.1-1.8,7.8a11.49,11.49,0,0,0,1.2,8.4A1.07,1.07,0,0,0,224.4,406.2Zm21.9,36.9c-1.2,3.6-6.3,3.3-9,1.8a9.66,9.66,0,0,1-4.5-8.4c0-.9-1.5-1.2-1.5-.3a6.61,6.61,0,0,0-.3,2.4c-3.3-3.9-2.4-9.9-3.6-14.7-.9-3.3-2.1-5.4-1.8-9.3,0-3.3,1.2-6.6,1.5-9.6,0-.6-.9-1.2-1.2-.6-3.3,7.2-2.7,12.9-.6,20.1,1.5,5.4-.6,13.5,5.7,16.5h.6a9.59,9.59,0,0,0,6.6,6.9c3.6,1.2,10.5.3,10.5-4.5C248.7,442.2,246.6,441.9,246.3,443.1Zm-.3-20.4c-1.5,2.4-1.8,5.1-2.1,7.8-.3,4.2,2.1,9-2.1,11.7a1,1,0,0,0,.9,1.8c2.7-.6,3.6-3,3.6-5.4,0-2.1-.6-4.5-.6-6.6a26.26,26.26,0,0,1,1.8-8.4c.3-1.2-.9-1.8-1.5-.9Zm-15.6,5.4c1.8,3.9,4.8,6.9,6,11.1a.77.77,0,0,0,1.5-.3c0-4.2-3.3-6.9-5.1-10.5-2.7-4.8,2.1-9.9-1.2-14.1-.6-.6-1.8-.3-1.5.6,1.2,4.5-1.5,8.7.3,13.2Zm10.8-1.8c-3-5.1,1.5-10.8,2.1-15.9.6-3.6.6-7.5-1.5-10.8-.3-.6-1.5-.3-1.5.3,0,2.7.9,5.7.6,8.4-.3,3.6-1.8,6.3-2.7,9.6-.9,3.6-.9,6.3,1.5,9.3.9.9,2.1,0,1.5-.9Zm-8.7-18c.6.3,1.2-.3.6-.6-5.4-6.9,2.7-15.3-2.1-21.9-.6-.6-1.5-.3-1.2.6.9,5.1-.6,9.3-.6,14.1A8,8,0,0,0,232.5,408.3Zm6-12c.6.6,1.5,0,1.2-.6-2.4-4.2,1.5-7.8,1.8-11.7.3-3.6-1.8-6.6-.9-10.2.3-.6-.6-1.2-1.2-.6-2.7,3.6.3,7.5-.3,11.4C238.5,388.8,235.5,392.1,238.5,396.3Zm9.6,3.3a.6.6,0,1,0-1.2,0,58.26,58.26,0,0,1-.6,7.2,62.36,62.36,0,0,0-.9,6.9c0,.9,1.2,1.2,1.8.3C249,409.8,248.4,404.1,248.1,399.6Zm-12-37.8c0-.6-.6-.9-.9-.6-2.4,1.5-3.9,5.1-4.8,7.8a14.08,14.08,0,0,0-.3,9.9,1.24,1.24,0,0,0,2.4-.6,16.9,16.9,0,0,1,.9-10.2c.9-2.1,2.7-3.9,2.7-6.3Zm-5.7-1.2c6.6-15,21-10.5,33.9-9.6a.92.92,0,0,0,.3-1.8c-11.7-3.9-30.6-2.7-35.4,11.1C228.9,360.9,230.1,361.2,230.4,360.6Zm33.3-8.1a42,42,0,0,1-8.4,1.8,41.41,41.41,0,0,0-6,.9,8.91,8.91,0,0,0-6.3,6.3c-.3.9,1.2,1.2,1.5.3,3-8.7,14.4-3,20.1-8.1.3-.6,0-1.5-.9-1.2Zm-15,15.3c-4.2,2.1-5.4,6.9-5.1,11.4a.75.75,0,0,0,1.5,0,18.08,18.08,0,0,1,1.8-6.9c1.8-3,4.5-2.7,7.5-3.3,3.6-.6,6.6-4.5,10.5-3.9.9.3,1.5-1.2.6-1.5-2.7-.9-4.5,0-6.6,1.5a11.88,11.88,0,0,1-5.7,2.1,10.93,10.93,0,0,0-4.5.6Zm18.6-17.1c3.6.9,7.5,2.1,11.4,2.4-5.4.6-10.5,2.1-14.1,5.1a.64.64,0,0,0,.9.9c8.7-6.9,18.9-1.8,28.5-3.3.9,0,.9-1.5,0-1.8a43.15,43.15,0,0,0-11.1-1.5.57.57,0,0,0-.3-.9c-4.5-1.8-10.2-2.4-15.3-2.7a1.12,1.12,0,0,0,0,1.8ZM300,368.1c.3-.6-.6-1.2-1.2-.6-9,12-24.6,4.2-36.9,6.6a.45.45,0,1,0,0,.9c12-.9,31.2,7.2,38.1-6.9Zm19.2,7.5c-3-.3-6,.6-9,.3-2.7,0-5.4-.6-8.1-.6.6-.6,1.5-1.2,2.1-1.8a.66.66,0,0,0-.9-.9c-1.8.9-3.3,2.1-5.4,2.7a13.55,13.55,0,0,1-6,.3c-.6,0-.6.9-.3,1.2a13.33,13.33,0,0,0,9-.6c0,.3.3.3.3.6,5.1,1.8,13.2,2.4,18.3.3.9-.3.6-1.5,0-1.5Zm17.1-1.5c-11.1,2.7-21.9,0-29.7-8.4a.64.64,0,1,0-.9.9c7.8,9.3,19.2,12.6,30.6,8.1.6,0,.3-.9,0-.6Zm12.9-1.2c-3.3,0-6.6.6-9.9.3-.3,0-.3.6,0,.6a23.4,23.4,0,0,0,10.2,0c.3,0,.3-.9-.3-.9Zm-33.3-9.3c-3.3-.9-6-3.6-8.7-5.4a.64.64,0,1,0-.9.9c3.6,4.5,7.5,7.2,13.5,6.6,5.1-.3,8.7.6,13.5,1.2a9.25,9.25,0,0,0,6.3-1.2.67.67,0,0,0-.6-1.2c-5.4,1.2-9.9-1.2-15-1.2-3,0-5.4.9-8.1.3Zm-32.4.6a47.14,47.14,0,0,0,6.9-2.7.64.64,0,0,0-.3-1.2c-5.1,0-10.8,2.4-15,4.8a.81.81,0,0,0,.6,1.5c2.7-.3,5.1-1.5,7.8-2.4Zm15-2.4a5.88,5.88,0,0,0,3.6-5.7c0-.9-1.2-.9-1.5-.3a22.63,22.63,0,0,1-3,5.1C297,361.5,297.9,362.1,298.5,361.8Zm5.1-5.4a113.54,113.54,0,0,1,47.1-2.7c1.2.3,2.1-1.8.6-2.1a91.22,91.22,0,0,0-48.3,3.3c-.6.6-.3,1.8.6,1.5Zm44.7,6.3c.3.3,1.2,0,.9-.6-3-7.5-16.2-4.8-22.5-4.8a.75.75,0,0,0,0,1.5c7.2.3,16.5-1.5,21.6,3.9Zm8.1,12.9a.64.64,0,0,0,1.2-.3c.3-12-19.8-4.5-25.2-4.2a.45.45,0,1,0,0,.9C341.1,373.2,351,365.7,356.4,375.6Zm-5.4,0c-3.3,4.8-1.2,10.2-1.2,15.6,0,4.5-3.3,9.9.6,13.2.6.6,1.5,0,1.2-.6-.9-4.5.9-8.7.6-13.5s-1.5-9.3,0-14.1c.6-.9-.6-1.2-1.2-.6Zm2.7,59.7a1.09,1.09,0,0,0,1.2-1.8c-3.3-4.2-4.2-7.2-4.2-12.6a34.16,34.16,0,0,1,2.7-14.4c.3-.6-.6-1.2-.9-.6C347.7,413.7,345.3,429.3,353.7,435.3Zm23.7-2.1c-4.2,11.4-20.1,17.1-25.5,3-.3-.9-1.8-.9-1.5.3a13,13,0,0,0,14.7,11.1c3.6-.6,6-2.4,8.4-5.1,2.1-2.4,5.4-5.4,5.1-9C378.3,432.6,377.7,432.6,377.4,433.2Zm.3-28.5c-.9,8.7.6,16.8-4.5,24.6-2.1,3.3-4.2,5.7-2.4,9.3.3.6,1.5.3,1.5-.3-.3-5.7,5.4-10.8,6.9-16.5a42.52,42.52,0,0,0,.3-17.4C379.2,403.8,378,404.1,377.7,404.7Zm-19.2,27.9c1.2,3,4.8,5.7,7.5,7.2.6.3,1.5-.3.9-.9-1.2-1.8-3-2.7-4.2-4.5-2.7-3.3-2.1-6.3-1.8-9.9,0-2.7-.3-5.4-2.7-6.6-.6-.3-.9.3-.6.9,3.6,4.2-.9,9,.9,13.8ZM371.4,402c-3,4.2-.9,7.8-1.2,12.3-.3,4.2-4.8,6.6-3.6,11.4.3.6,1.5.6,1.2-.3-.3-4.5,4.2-6.9,4.8-11.1.3-1.5-.3-2.7-.6-4.2-.6-3,.6-5.4.6-8.1,0-.3-.9-.3-1.2,0Zm5.4-.3c-.3.3.6.6.6.3,3.3-5.1,3.6-10.8,3.3-17.1-.6-6-.9-12.6-3.6-18a.81.81,0,0,0-1.5.6C377.1,379.2,381,390.6,376.8,401.7Zm-21.6-2.1c1.2,5.1,6,8.1,6.3,13.5a.45.45,0,1,0,.9,0c-.6-6.9-7.2-11.4-5.4-18.6.9-3.9,3.3-8.7-.9-11.7a.64.64,0,1,0-.9.9c3,5.7-1.2,10.5,0,15.9Zm9.9-22.5c-.3-.6-1.2-.3-1.2.6.3,2.4,1.5,4.2,2.1,6.6.9,3.3.3,6.3-.6,9.6s-1.5,6.3.3,9.6c.3.9,1.8.3,1.5-.6-2.1-5.1,1.8-9.9,1.8-15a24.47,24.47,0,0,0-3.9-10.8Zm-10.5-14.4c4.5.3,9.9,0,13.5,3.3,2.7,2.4,4.5,8.4,4.5,12,0,4.2-3,8.7.9,12a.57.57,0,0,0,.9-.3c-.3-3.9.9-7.8.9-11.7,0-3.3-1.5-6.9-3-9.9-3.6-6.9-10.8-7.5-17.7-6.9-.9-.3-.9,1.5,0,1.5Zm.3-8.1a12.76,12.76,0,0,1,3.3-.6c2.7-.6,5.4.9,7.5,2.1,4.5,2.7,8.4,6.6,7.8,12.3,0,.9,1.5,1.2,1.5.3.9-6-3-10.8-7.8-14.4-3.3-2.4-10.8-5.7-13.2-.6C354,353.7,354.3,354.6,354.9,354.6Z"
                    />
                  </g>
                </g>
              </svg>