<?xml-stylesheet type="text/css" href="../../../male-colors.css" ?>
<svg
                style="transform: scale(1.6)"
                width="70"
                height="70"
                id="Layer_1"
                data-name="Layer 1"
                xmlns="http://www.w3.org/2000/svg"
                viewBox="0 0 600 600"
              >
                <g id="svga-group-mustache-single-move">
                  <g id="svga-group-mustache-single">
                    <path
                      id="SvgjsPath5264"
                      class="male mustache"
                      d="M301.8,352.5c-17.1.3-59.1-2.1-84,19.2-24.9,21.6,31.8,3.3,31.2,3.6s-5.4,11.4,16.2,2.7c0,0-8.1,12.3,14.1,2.7,0,0-1.5,8.4,13.2-1.5,0,0,.3,9,12.3,2.1.9-.6,4.2,6.3,13.8,0,.6-.3,13.5,6.3,13.2-.3,0,0,9.3,5.4,9.3-1.2,0-.9,18,8.4,13.2-2.4,0,0,28.8,11.4,16.2-2.7,0,0,28.8,10.5,19.5-2.7s-59.4-20.1-88.2-19.5Z"
                    />
                    <path
                      id="SvgjsPath5265"
                      class="male mustache-details"
                      d="M245.7,374.7c-3.9.9-8.1,1.8-12,2.7-3.3.6-15.3,1.8-15-5.1.3-4.5,23.4-12.3,26.4-13.5,18-6,35.4-6,54.3-4.8.6,0,.6-.9.3-.9-14.1-3-28.8-2.1-42.6.9-11.7,2.4-33.3,8.4-41.7,17.7-15.3,17.4,27.6,4.8,30.9,3.9.6.3.3-.9-.6-.9Zm18.6,2.4a38.28,38.28,0,0,1-8.4,2.1c-1.5.3-3.6.9-5.1.3-3.3-1.2-1.8-4.5-.3-6.3.3-.6-.6-1.2-.9-.6-2.7,2.4-3.6,6.9.3,8.4,4.5,1.8,11.1-.9,14.7-3.3.3,0,0-.6-.3-.6Zm108,1.5c-4.5,3-12,.3-16.5-2.1a.42.42,0,0,0-.6,0,7.77,7.77,0,0,0-3.3-2.1.65.65,0,0,0-.6.6c.3.9,2.1,3,2.1,3.9,0,1.5-3,2.1-3.9,2.1a20.65,20.65,0,0,1-3.9-.6c-2.4-.6-3.9-2.1-5.7-3.6-1.5-1.5-3.3-2.1-4.8-3.3-.3-.3-.9,0-.6.6.6,1.2,1.2,1.5,2.4,2.4a4.14,4.14,0,0,1,1.2.9c0,.3-.3.6,0,.9.6,1.5,3.6,3.6-.6,4.2-1.2.3-3.6-.6-4.8-1.2a1,1,0,0,1-.6-.3l-.3-.3c-.3-.3-.3-.3-.6-.3a20.19,20.19,0,0,1-4.5-4.2c-.3-.3-1.2,0-.9.6a47.27,47.27,0,0,0,3.6,4.5,2.87,2.87,0,0,1-2.1.6,17,17,0,0,1-3.9,0c-3.9-.3-5.7-3.6-8.1-6.3-.3-.6-1.2.3-.9.6a39.09,39.09,0,0,1,3,4.5c-2.4,1.2-4.5,2.1-7.2,1.8s-4.5-1.5-6.6-3c-.3-.3-.9.3-.6.6l.6.6c-1.8.9-3,2.4-5.4,2.1s-3.3-2.1-4.2-3.9c.3-.3.3-.6.6-.6a.66.66,0,0,0-.9-.9c-3,2.1-9.3,8.1-13.2,4.2l-.3-.3a54.93,54.93,0,0,0,10.8-7.8c.3-.3,0-.6-.3-.6-3.6,2.1-7.2,4.5-10.8,6.6-3,1.5-16.2,7.2-12.6-1.8.3-.6-.6-.9-.9-.6-3.6,4.2-1.8,8.7,3.9,7.8a30.29,30.29,0,0,0,9.9-3.6.56.56,0,0,0,0,.9c3,3.9,9.6.9,13.2-2.1.3,2.1,2.7,4.2,4.8,4.5,2.4.6,6-.3,7.5-2.7a13,13,0,0,0,6.3,2.7c2.7.3,6.6,0,7.8-2.7A7,7,0,0,0,324,384c2.7.3,6.3,1.2,8.4-1.2a9.31,9.31,0,0,0,6.9,1.8c2.4-.3,3.6-1.8,3.6-3.6a16.26,16.26,0,0,0,9,2.4c2.1,0,4.8-.6,5.4-3a5.11,5.11,0,0,0-.3-2.1c4.5,2.4,15.3,7.2,17.4,1.2-.6-.6-1.5-1.2-2.1-.9Zm15.6-9.9c-5.1-3.3-11.1-5.7-17.4-5.4-.3,0-.3.6,0,.6,3.9.9,8.1,1.5,11.7,3.6,2.1,1.2,10.8,6,7.2,9-1.5,1.2-7.8,0-8.7-.3a43.86,43.86,0,0,1-6-1.5c-3.9-1.2-7.8-2.4-11.7-3.9-.3-.3-.6.6-.3.6,6.3,3.3,12.6,6.3,19.5,7.2,2.7.3,9.6,1.2,11.1-2.4,1.5-3-3.3-6-5.4-7.5Zm-77.1-15a.56.56,0,0,0,0,.9c4.8,6,9,12.6,13.8,18.6.3.6.9,0,.9-.6-3.3-6.9-8.4-13.2-13.5-18.9,3.9.6,7.8.9,11.7,1.5,10.8,3.6,20.4,7.8,29.4,14.7.6.3,1.2-.3.6-.6-6.3-6.9-14.4-10.5-22.8-13.2,7.8.9,15.6,2.1,23.4,2.7,4.5,1.5,8.4,3.9,12.3,6.3.6.3,1.2-.3.6-.9a22.8,22.8,0,0,0-7.8-4.8c1.2,0,2.7.3,3.9.3a.64.64,0,0,0,.3-1.2c-17.1-4.8-37.8-6.6-55.5-6-.3,0-.3.3,0,.3a4.19,4.19,0,0,0,2.7.9ZM273,357.6c.3,0,.3-.6,0-.6a95.52,95.52,0,0,0-31.8,9.6c-.6.3-.3.9.3.9C252,363.6,262.2,360.6,273,357.6Zm15.3-1.5c-10.2,3-21.3,8.7-28.8,16.5-.6.6.3,1.5.6.9,9.3-6,18.3-11.7,28.5-16.5C289.5,356.7,288.9,355.8,288.3,356.1Zm21.6,5.7c3,3.3,5.1,6.9,7.5,10.2.3.6,1.2.3.9-.3a21.48,21.48,0,0,0-7.8-10.8c-.3-.6-1.2.3-.6.9Zm15.3-1.2c-.6-.3-.9.6-.3.9,9.3,4.2,16.8,9.6,24.6,15.9.6.3.9-.3.6-.6-6.3-7.5-15.6-13.2-24.9-16.2Zm-98.4,9.3c-1.5,1.2-3.3,3.6-.9,4.8s6.9.9,9.6,0c.6-.3.6-1.2-.3-1.2a29,29,0,0,1-5.1,0c-2.1-.3-5.4-.3-2.7-3C228,370.5,227.4,369.6,226.8,369.9Zm13.5,5.1c6.3-3.6,12.9-6.3,19.5-9.3.6-.3.3-.9-.3-.9a69.46,69.46,0,0,0-19.8,9C239.1,374.4,239.7,375.6,240.3,375Zm31.2,1.5c-.3-.6-1.2,0-.9.6.9,1.8,3.6,2.7,5.1,1.2.3-.3,0-.9-.3-.6-1.5.3-3,.3-3.9-1.2Zm26.7-17.1c0,5.1-.6,9.9-.6,15a.45.45,0,0,0,.9,0c1.2-4.8.9-10.2.9-15,0-.6-1.2-.6-1.2,0ZM285,367.2a136.25,136.25,0,0,1,11.4-11.4.64.64,0,1,0-.9-.9,42.42,42.42,0,0,0-11.1,12c0,.3.3.6.6.3Zm21.6,2.7c.3-5.1-.6-10.2-.9-15.3a.75.75,0,0,0-1.5,0c.3,5.1.3,10.2,1.2,15.3A.6.6,0,1,0,306.6,369.9Z"
                    />
                  </g>
                </g>
              </svg>