<?xml-stylesheet type="text/css" href="../../../../female-colors.css" ?>
<svg
  width="70"
  height="70"
  style="transform: scale(3.5) translate(-15px, 0)"
  id="Layer_1"
  data-name="Layer 1"
  xmlns="http://www.w3.org/2000/svg"
  viewBox="0 0 600 600"
>
  <g class="hidden" id="svga-group-ears-left-move">
    <g id="svga-group-ears-left">
      <path
        id="SvgjsPath6231"
        class="female skin"
        d="M195.3,303.6s-5.1-14.4-9.6-22.5-10.2-18-18.9-20.4-11.4,11.1-8.1,23.4,12,39.3,14.1,49.8,5.1,23.1,10.2,21.3S203.4,333.9,195.3,303.6Z"
      />
      <path
        id="SvgjsPath6232"
        class="female ear-outline"
        d="M197.7,317.7a77,77,0,0,1-.3,14.4c-1.5,9.3-5.4,18-11.4,23.7l-1.2.9c-.6.3-.9.6-1.5.9a4.78,4.78,0,0,1-3.9-.9,15.53,15.53,0,0,1-4.2-6.6,81.1,81.1,0,0,1-3.6-14.1c-.9-4.5-2.1-9-3.3-13.8l-3.6-13.8c-1.2-4.5-2.4-9-3.9-13.8l-1.5-6.6c-.6-2.4-1.2-4.5-1.8-6.9a29.21,29.21,0,0,1-.6-7.2,29.59,29.59,0,0,1,.9-7.2,13,13,0,0,1,3.3-6,6.29,6.29,0,0,1,6-1.2,20.87,20.87,0,0,1,10.5,6.6,57.59,57.59,0,0,1,7.5,11.4c2.1,4.2,3.9,8.4,5.7,12.9s3.3,8.7,4.8,13.2a114.25,114.25,0,0,1,2.1,14.1ZM183.3,279a69,69,0,0,0-7.5-10.2,19.89,19.89,0,0,0-9.3-6,4.89,4.89,0,0,0-4.5.6,8.52,8.52,0,0,0-3,4.5,28.82,28.82,0,0,0-.6,13.5,56.75,56.75,0,0,0,1.5,6.9,60.47,60.47,0,0,0,2.1,6.9c1.5,4.5,3,9,4.2,13.5,1.5,4.5,3,9,4.2,13.5A103.42,103.42,0,0,1,174,336a84.79,84.79,0,0,0,3.6,13.2c.9,2.1,1.8,3.9,2.7,4.5.6.3.9.6,1.5.3.3,0,.6-.3.9-.6l.9-.9c2.7-2.4,4.8-5.7,6.9-9.3a67.67,67.67,0,0,0,4.5-11.7c2.1-8.4,1.8-18.3-.6-27.6A98.42,98.42,0,0,0,183.3,279Z"
      />
      <path
        id="SvgjsPath6233"
        class="female skin-details"
        d="M161.4,269.7c5.4-2.4,10.2,3.9,13.8,9.3a55.87,55.87,0,0,1,8.4,24.6v.6a5.11,5.11,0,0,0,.3,2.1c0,.6-.6.6-.6,0-.3-1.2-.6-2.4-.9-3.9,0-.3-.3-.6-.6-.9-3.6-1.8-5.1-.9-5.1,2.4a22.84,22.84,0,0,0,.9,6.3c.9,3.3,2.4,6.6,3.6,9.9.3.6-.6,1.2-.9.6-2.7-4.5-7.2-15-4.2-20.4,1.5-2.7,3.9-2.4,5.4-.6-1.5-5.7-3.3-12.3-6.3-17.7-6,12.6-2.7,26.1.3,40.2,0,.6-.6.9-.6.3-3.9-13.2-7.8-30.3,0-41.1-3.3-6.3-7.8-11.1-13.5-10.8-.3.3-.6-.6,0-.9Z"
      />
      <path
        id="SvgjsPath6234"
        class="female skin-details"
        d="M183.3,326.4c.3,3.3,0,6.6-1.5,9-.3.3-.6,0-.3-.3.9-2.7,1.8-5.4,1.5-8.7C182.7,326.1,183,325.8,183.3,326.4Z"
      />
    </g>
  </g>
  <g id="svga-group-ears-right-move">
    <g id="svga-group-ears-right">
      <path
        id="SvgjsPath6235"
        class="female skin"
        d="M404.7,303.6s5.1-14.4,9.6-22.5,10.2-18,18.9-20.4,11.4,11.1,8.1,23.4-12,39.3-14.1,49.8S422.1,357,417,355.2,396.6,333.9,404.7,303.6Z"
      />
      <path
        id="SvgjsPath6236"
        class="female ear-outline"
        d="M404.7,303.6c1.5-4.5,3.3-8.7,4.8-13.2a99.07,99.07,0,0,1,5.7-12.9,50,50,0,0,1,7.5-11.4c3-3.3,6.6-6,10.5-6.6a7.18,7.18,0,0,1,6,1.2,10.8,10.8,0,0,1,3.3,6,29.59,29.59,0,0,1,.9,7.2,58.26,58.26,0,0,1-.6,7.2A46.36,46.36,0,0,1,441,288l-1.8,6.9c-1.2,4.5-2.4,9-3.9,13.8l-3.6,13.8c-1.2,4.5-2.4,9-3.3,13.8a74.78,74.78,0,0,1-3.6,14.1c-.9,2.4-1.8,4.8-4.2,6.6a4.78,4.78,0,0,1-3.9.9c-.6-.3-.9-.6-1.5-.9l-1.2-.9c-6-5.7-9.9-14.4-11.4-23.7a46.39,46.39,0,0,1-.3-14.4,76,76,0,0,1,2.4-14.4Zm.3.3a57.38,57.38,0,0,0-.6,27.6,67.67,67.67,0,0,0,4.5,11.7,31.34,31.34,0,0,0,6.9,9.3l.9.9c.3,0,.6.3.9.6.6.3.9,0,1.5-.3a12.78,12.78,0,0,0,2.7-4.5,84.79,84.79,0,0,0,3.6-13.2c.9-4.8,2.4-9.3,3.6-13.8,1.5-4.5,3-9,4.2-13.5,1.5-4.5,3-9,4.2-13.5.6-2.1,1.5-4.5,2.1-6.9a56.75,56.75,0,0,0,1.5-6.9,29.22,29.22,0,0,0-.6-13.5,9.92,9.92,0,0,0-3-4.5,5.82,5.82,0,0,0-4.5-.6c-3.3.9-6.3,3.3-9.3,6a89.56,89.56,0,0,0-7.5,10.2A173,173,0,0,0,405,303.9Z"
      />
      <path
        id="SvgjsPath6237"
        class="female skin-details"
        d="M438.6,269.7c-5.4-2.4-10.2,3.9-13.8,9.3a55.87,55.87,0,0,0-8.4,24.6v.6a5.11,5.11,0,0,1-.3,2.1c0,.6.6.6.6,0,.3-1.2.6-2.4.9-3.9,0-.3.3-.6.6-.9,3.6-1.8,5.1-.9,5.1,2.4a22.84,22.84,0,0,1-.9,6.3c-.9,3.3-2.4,6.6-3.6,9.9-.3.6.6,1.2.9.6,2.7-4.5,7.2-15,4.2-20.4-1.5-2.7-3.9-2.4-5.4-.6,1.5-5.7,3.3-12.3,6.3-17.7,6,12.6,2.7,26.1-.3,40.2,0,.6.6.9.6.3,3.9-13.2,7.8-30.3,0-41.1,3.3-6.3,7.8-11.1,13.5-10.8.3.3.6-.6,0-.9Z"
      />
      <path
        id="SvgjsPath6238"
        class="female skin-details"
        d="M416.7,326.4c-.3,3.3,0,6.6,1.5,9,.3.3.6,0,.3-.3-.9-2.7-1.8-5.4-1.5-8.7C417.3,326.1,417,325.8,416.7,326.4Z"
      />
    </g>
  </g>
</svg>
