<?xml-stylesheet type="text/css" href="../../../../female-colors.css" ?>
<svg
  width="70"
  height="70"
  style="transform: scale(3.5) translate(-15px, 0)"
  id="Layer_1"
  data-name="Layer 1"
  xmlns="http://www.w3.org/2000/svg"
  viewBox="0 0 600 600"
>
  <g class="hidden" id="svga-group-ears-left-move">
    <g id="svga-group-ears-left">
      <path
        id="SvgjsPath5741"
        class="female skin"
        d="M184.2,282.6s-7.5-13.8-15-16.2-12.3,2.1-11.1,18.6,14.7,65.4,29.7,62.4,2.7-55.2-3.6-64.8Z"
      />
      <path
        id="SvgjsPath5742"
        class="female ear-outline"
        d="M186.9,288c.9,2.1,1.5,4.2,2.4,6.3,1.5,4.2,2.7,8.7,3.9,13.5a111,111,0,0,1,2.7,14.4,63.35,63.35,0,0,1,.6,7.8,67.81,67.81,0,0,1-.3,7.8,23.25,23.25,0,0,1-1.8,6.9,8.44,8.44,0,0,1-3.6,4.2c-2.7,1.5-5.4,1.2-8.1-.3s-5.1-4.5-7.2-7.5a96,96,0,0,1-5.7-11.1,89.72,89.72,0,0,1-4.5-12.6c-1.5-4.2-2.7-8.7-3.9-13.2s-2.4-9.3-3.3-14.1a64.64,64.64,0,0,1-.9-15.3,16.92,16.92,0,0,1,2.1-6.9,7.46,7.46,0,0,1,3.6-3.3c1.2-.6,2.7-.3,3.9-.3a20.83,20.83,0,0,1,3.9,1.5c2.4,1.5,4.8,4.2,7.2,7.2,2.1,3,4.2,6,6.3,9.6a45.13,45.13,0,0,1,2.7,5.4Zm-9.3-14.1c-2.4-2.4-4.5-4.5-6.9-5.4s-4.8-1.2-6.9-.3a5.29,5.29,0,0,0-2.7,2.4c-.9,1.2-1.2,3-1.5,5.1a51.15,51.15,0,0,0,.3,13.5,116.69,116.69,0,0,0,2.7,14.1,115.63,115.63,0,0,0,8.7,24.9,77.83,77.83,0,0,0,5.7,9.9c2.1,2.7,4.2,5.1,6.6,6.3a8,8,0,0,0,3.6.9,6,6,0,0,0,3.3-.9,8.17,8.17,0,0,0,2.4-3,23.27,23.27,0,0,0,1.5-5.4c.6-4.2.3-8.7,0-13.5s-1.2-9.3-1.8-14.1c-.9-4.8-1.8-9.3-3-13.8a43.61,43.61,0,0,0-4.8-12c-2.7-3.3-4.8-6.3-7.2-8.7Z"
      />
      <path
        id="SvgjsPath5743"
        class="female skin-details"
        d="M166.2,276.6c6.6,4.2,12.3,16.2,15.3,27.9v.3c0,.9-.6.9-.6.3-1.2-3.3-2.4-3.3-4.2,0a16.57,16.57,0,0,0,.3,6.6,31.69,31.69,0,0,0,1.8,5.7,60.36,60.36,0,0,0,5.1,8.7c.6.9,0,2.1-.6,1.5-3.9-3-9.6-13.2-8.4-22.2.6-4.2,2.7-6.3,4.5-4.8a63.12,63.12,0,0,0-7.8-15.6c-1.8-2.4-5.7-7.8-7.8-6.9-3.6,1.5-1.5,13.5-1.2,18.6,0,.9-.6.9-.9.3-2.1-8.7-2.4-24.9,4.5-20.4Z"
      />
      <path
        id="SvgjsPath5744"
        class="female skin-details"
        d="M181.8,330c-6.9-2.7-11.7-13.5-14.7-25.5-1.8-7.2-5.1-24,1.5-24,.6,0,.9,1.5.3,1.8-6.3,3.3.6,25.8,2.4,31.2,2.7,7.5,6.3,12.3,10.5,15.3.3.3.3,1.5,0,1.2Z"
      />
    </g>
  </g>
  <g id="svga-group-ears-right-move">
    <g id="svga-group-ears-right">
      <path
        id="SvgjsPath5745"
        class="female skin"
        d="M415.8,282.6s7.5-13.8,15-16.2,12.3,2.1,11.1,18.6c-1.5,16.5-14.7,65.4-29.7,62.4-15.3-2.7-2.7-55.2,3.6-64.8Z"
      />
      <path
        id="SvgjsPath5746"
        class="female ear-outline"
        d="M415.8,282.3a53,53,0,0,1,6.3-9.6,27.37,27.37,0,0,1,7.2-7.2c1.2-.6,2.7-1.5,3.9-1.5a5.85,5.85,0,0,1,3.9.3,7.46,7.46,0,0,1,3.6,3.3,20.79,20.79,0,0,1,2.1,6.9,52,52,0,0,1-.9,15.3c-.9,4.8-2.1,9.6-3.3,14.1s-2.4,9-3.9,13.2-3,8.7-4.5,12.6a96,96,0,0,1-5.7,11.1c-2.1,3.3-4.5,6-7.2,7.5s-5.4,1.8-8.1.3a13,13,0,0,1-3.6-4.2,25.94,25.94,0,0,1-1.8-6.9,67.86,67.86,0,0,1,.3-15.6,102.24,102.24,0,0,1,2.7-14.4c1.2-4.5,2.4-9,3.9-13.5.9-2.1,1.5-4.2,2.4-6.3l2.7-5.4Zm.3.3c-2.1,3.3-3.3,7.8-4.8,12-1.2,4.5-2.1,9-3,13.8a113.27,113.27,0,0,0-1.8,14.1,67.65,67.65,0,0,0,0,13.5,14.27,14.27,0,0,0,1.5,5.4,6.27,6.27,0,0,0,2.4,3,6,6,0,0,0,3.3.9,8,8,0,0,0,3.6-.9c2.4-1.2,4.5-3.6,6.6-6.3a77.83,77.83,0,0,0,5.7-9.9,121.64,121.64,0,0,0,8.7-24.9,106.51,106.51,0,0,0,2.7-14.1,68.65,68.65,0,0,0,.3-13.5,20.6,20.6,0,0,0-1.5-5.1,6.5,6.5,0,0,0-2.7-2.4,9.18,9.18,0,0,0-6.9.3c-2.4.9-4.8,3-6.9,5.4a24.9,24.9,0,0,0-7.2,8.7Z"
      />
      <path
        id="SvgjsPath5747"
        class="female skin-details"
        d="M418.2,330c6.9-2.7,11.7-13.5,14.7-25.5,1.8-7.2,5.1-24-1.5-24-.6,0-.9,1.5-.3,1.8,6.3,3.3-.6,25.8-2.4,31.2-2.7,7.5-6.3,12.3-10.5,15.3-.3.3-.3,1.5,0,1.2Z"
      />
      <path
        id="SvgjsPath5748"
        class="female skin-details"
        d="M433.8,276.6c-6.6,4.2-12.3,16.2-15.3,27.9v.3c0,.9.6.9.6.3,1.2-3.3,2.4-3.3,4.2,0a16.57,16.57,0,0,1-.3,6.6,31.69,31.69,0,0,1-1.8,5.7,60.36,60.36,0,0,1-5.1,8.7c-.6.9,0,2.1.6,1.5,3.9-3,9.6-13.2,8.4-22.2-.6-4.2-2.7-6.3-4.5-4.8a63.12,63.12,0,0,1,7.8-15.6c1.8-2.4,5.7-7.8,7.8-6.9,3.6,1.5,1.5,13.5,1.2,18.6,0,.9.6.9.9.3,2.1-8.7,2.4-24.9-4.5-20.4Z"
      />
    </g>
  </g>
</svg>
