<?xml-stylesheet type="text/css" href="../../../../female-colors.css" ?>
<svg
  width="70"
  height="70"
  style="transform: scale(3.5) translate(-15px, 0)"
  id="Layer_1"
  data-name="Layer 1"
  xmlns="http://www.w3.org/2000/svg"
  viewBox="0 0 600 600"
>
  <g class="hidden" id="svga-group-ears-left-move">
    <g id="svga-group-ears-left">
      <path
        id="SvgjsPath3102"
        class="female skin"
        d="M192.6,288.9A190.39,190.39,0,0,0,176.1,270c-7.5-6.9-9.6-6.6-13.2-2.4s-8.1,25.5-6.9,35.1,9.9,24.6,14.7,33,9.3,18.9,14.4,18c5.4-.9,12.6-12.9,15.9-21.9,3.6-9,1.8-30.9-8.4-42.9Z"
      />
      <path
        id="SvgjsPath3103"
        class="female ear-outline"
        d="M203.7,314.4a58.26,58.26,0,0,1,.6,7.2,29.21,29.21,0,0,1-.6,7.2l-.9,3.6a31.12,31.12,0,0,1-1.2,3c-.9,2.1-1.8,3.9-2.7,6-2.1,3.6-4.2,7.2-7.2,10.2-1.5,1.5-3,3-5.1,3.6a7.29,7.29,0,0,1-3.6,0,10.77,10.77,0,0,1-3-2.1c-3.6-3.6-5.4-7.8-7.5-12s-4.2-8.1-6.3-12.3-4.2-8.4-6-12.6c-.9-2.1-1.8-4.2-2.7-6.6a25.94,25.94,0,0,1-1.8-6.9c-.6-4.8,0-9.6.3-14.1a106.19,106.19,0,0,1,2.4-13.5,56,56,0,0,1,2.1-6.6c.3-.6.6-.9.9-1.5a6.56,6.56,0,0,1,.9-1.5,8.09,8.09,0,0,1,2.4-2.1,6,6,0,0,1,3.3-.9,14.62,14.62,0,0,1,3.3,1.2,62.84,62.84,0,0,1,5.1,4.2c6,6.3,11.1,13.5,16.8,20.4,5.4,7.5,8.7,16.8,10.5,26.1Zm-28.8-43.8c-3-2.4-6.6-5.1-8.7-3.6a5.09,5.09,0,0,0-1.8,1.8c-.3.3-.6.6-.6.9-.3.3-.3.9-.6,1.2a32,32,0,0,0-2.1,5.7c-1.2,3.9-2.4,8.4-3.3,12.6a49.22,49.22,0,0,0-1.2,13.2,52.25,52.25,0,0,0,1.5,6.6l2.7,6.3a93.4,93.4,0,0,0,6.6,12c2.4,3.9,4.8,7.8,6.9,11.7,1.2,2.1,2.1,3.9,3.3,5.7a33.28,33.28,0,0,0,3.6,4.8c1.2,1.2,2.4,1.8,3.6,1.2a11.37,11.37,0,0,0,3.9-3,59.82,59.82,0,0,0,6.6-9.6l2.7-5.4c.3-.9.9-1.8,1.2-2.7l.6-1.2c0-.6.3-.9.3-1.5.9-3.9.9-8.4.9-12.9a53.26,53.26,0,0,0-2.4-13.5,38.06,38.06,0,0,0-6.3-12,112,112,0,0,0-17.4-18.3Z"
      />
      <path
        id="SvgjsPath3104"
        class="female skin-details"
        d="M162.3,307.2c-.6-6.3-1.2-22.2,2.4-27,6-8.1,16.8,18.3,19.5,26.4a1,1,0,0,0,.3.6c.3.9-.3,2.1-1.2,1.8-1.2-.6-2.4-1.8-3.6-2.4-3.3-1.5-4.5,1.2-3.6,5.1,1.2,5.1,3.9,8.1,6.3,12,.3.6,0,1.2-.6.9-4.5-2.7-9.9-12.6-8.7-18.6.9-5.4,5.4-5.1,8.7-2.4a95,95,0,0,0-6.9-13.5c-1.8-2.7-3.3-5.7-6-6-3.3-.6-2.7.9-3.3,5.1-2.4,13.8-.9,29.1,7.2,41.1.3.3,0,.6-.3.3a38.82,38.82,0,0,1-10.2-23.4Z"
      />
    </g>
  </g>
  <g id="svga-group-ears-right-move">
    <g id="svga-group-ears-right">
      <path
        id="SvgjsPath3105"
        class="female skin"
        d="M407.4,288.9A190.39,190.39,0,0,1,423.9,270c7.5-6.9,9.6-6.6,13.2-2.4s8.1,25.5,6.9,35.1-9.9,24.6-14.7,33-9.3,18.9-14.4,18c-5.4-.9-12.6-12.9-15.9-21.9-3.6-9-1.8-30.9,8.4-42.9Z"
      />
      <path
        id="SvgjsPath3106"
        class="female ear-outline"
        d="M407.1,288.9c5.4-6.9,10.5-14.1,16.8-20.4a23.83,23.83,0,0,1,5.1-4.2,6.29,6.29,0,0,1,3.3-1.2,4.29,4.29,0,0,1,3.3.9,17.15,17.15,0,0,1,2.4,2.1,6.56,6.56,0,0,1,.9,1.5c.3.6.6.9.9,1.5a42.48,42.48,0,0,1,2.1,6.6,106.19,106.19,0,0,1,2.4,13.5c.3,4.5.9,9.3.3,14.1a25.94,25.94,0,0,1-1.8,6.9c-.9,2.4-1.8,4.5-2.7,6.6-1.8,4.2-3.9,8.4-6,12.6s-4.2,8.1-6.3,12.3-4.2,8.4-7.5,12a6.86,6.86,0,0,1-3,2.1c-1.2.3-2.7.6-3.6,0-2.1-.6-3.6-2.1-5.1-3.6-3-3-5.1-6.6-7.2-10.2-.9-1.8-1.8-3.9-2.7-6-.3-.9-.9-2.1-1.2-3l-.9-3.6a43.5,43.5,0,0,1,0-14.4c1.5-9.9,4.8-19.2,10.5-26.1Zm.3.3a38.06,38.06,0,0,0-6.3,12,53.26,53.26,0,0,0-2.4,13.5,45.19,45.19,0,0,0,.9,12.9c0,.6.3.9.3,1.5l.6,1.2c.3.9.9,1.8,1.2,2.7l2.7,5.4A45.2,45.2,0,0,0,411,348a17,17,0,0,0,3.9,3c1.2.6,2.4,0,3.6-1.2a33.28,33.28,0,0,0,3.6-4.8,55.73,55.73,0,0,0,3.3-5.7c2.1-3.9,4.8-7.8,6.9-11.7,2.4-3.9,4.5-7.8,6.6-12l2.7-6.3a17.56,17.56,0,0,0,1.5-6.6,48.14,48.14,0,0,0-1.2-13.2,86.27,86.27,0,0,0-3.3-12.6c-.6-2.1-1.5-3.9-2.1-5.7-.3-.3-.3-.9-.6-1.2s-.3-.6-.6-.9l-1.8-1.8c-2.1-1.8-5.4,1.2-8.7,3.6-6,4.8-12,11.4-17.4,18.3Z"
      />
      <path
        id="SvgjsPath3107"
        class="female skin-details"
        d="M437.7,307.2c.6-6.3,1.2-22.2-2.4-27-6-8.1-16.8,18.3-19.5,26.4a1,1,0,0,1-.3.6c-.3.9.3,2.1,1.2,1.8,1.2-.6,2.4-1.8,3.6-2.4,3.3-1.5,4.5,1.2,3.6,5.1-1.2,5.1-3.9,8.1-6.3,12-.3.6,0,1.2.6.9,4.5-2.7,9.9-12.6,8.7-18.6-.9-5.4-5.4-5.1-8.7-2.4a95,95,0,0,1,6.9-13.5c1.8-2.7,3.3-5.7,6-6,3.3-.6,2.7.9,3.3,5.1,2.4,13.8.9,29.1-7.2,41.1-.3.3,0,.6.3.3a38.82,38.82,0,0,0,10.2-23.4Z"
      />
    </g>
  </g>
</svg>
