<?xml-stylesheet type="text/css" href="../../../../female-colors.css" ?>
<svg
  width="70"
  height="70"
  style="transform: scale(3.5) translate(-15px, 0)"
  id="Layer_1"
  data-name="Layer 1"
  xmlns="http://www.w3.org/2000/svg"
  viewBox="0 0 600 600"
>
  <g class="hidden" id="svga-group-ears-left-move">
    <g id="svga-group-ears-left">
      <path
        id="SvgjsPath4810"
        class="female skin"
        d="M190.5,290.7s-9-15.3-13.8-22.2c-5.1-6.9-11.4-14.1-13.8-2.1s-2.4,34.8.9,50.7c3.3,15.6,17.4,31.5,23.4,31.5s10.2-23.7,9.9-31.8-3.3-20.1-6.6-26.1Z"
      />
      <path
        id="SvgjsPath4811"
        class="female ear-outline"
        d="M195.3,288.9c.9,2.1-.6,12.3,0,14.7a72.9,72.9,0,0,1,2.4,14.1,64.61,64.61,0,0,1-1.2,13.5,81.81,81.81,0,0,1-3,12.3,16.68,16.68,0,0,1-2.7,5.1c-.6.6-1.2,1.5-2.1,1.8a2.25,2.25,0,0,1-1.5.3,2.7,2.7,0,0,1-1.5-.3,15.21,15.21,0,0,1-4.8-2.7,13,13,0,0,1-2.1-1.8l-2.1-2.1a60.2,60.2,0,0,1-12.9-23.4l-.9-3.6c-.3-1.2-.3-2.4-.6-3.6-.3-2.4-.6-4.8-.9-6.9-.6-4.5-.6-9.3-.9-13.8a161.47,161.47,0,0,1,.9-27c.3-2.1.9-4.5,2.4-6l.6-.6c.3,0,.3-.3.6-.3.3-.3.9-.3,1.2-.6.3,0,15.9,1.5,18,5.4,2.4,4.2,10.5,23.4,11.1,25.5ZM176.4,270c-2.4-3-5.1-6.3-7.5-7.5-1.2-.6-2.4-.6-3,.6a8.88,8.88,0,0,0-1.8,4.5,81,81,0,0,0-1.8,12.3c-.3,4.2-.6,8.7-.6,13.2a102,102,0,0,0,.9,13.5,55.37,55.37,0,0,0,1.2,6.9,12.76,12.76,0,0,1,.6,3.3c.3,1.2.6,2.1.9,3.3a52.87,52.87,0,0,0,5.7,11.7,58.58,58.58,0,0,0,7.2,9.3c2.4,2.7,5.4,4.8,7.8,5.4,2.1.6,3.9-2.7,5.1-5.7a60,60,0,0,0,3-11.1,81,81,0,0,0,1.8-12.3,71.53,71.53,0,0,0-1.5-13.5,47,47,0,0,0-4.5-12.9,148,148,0,0,0-13.5-21Z"
      />
      <path
        id="SvgjsPath4812"
        class="female skin-details"
        d="M170.4,279.3a32.74,32.74,0,0,1,10.5,17.1c0,.6-.3.6-.6.3a.29.29,0,0,0-.3-.3c-1.2-1.5-3-3.3-4.2-3-2.4.3-1.8,4.2-.9,7.5a55.88,55.88,0,0,0,5.1,12.3c.3.3,0,.9-.3.6-3-4.2-7.5-13.2-6.9-19.2.6-5.1,4.2-3,6.6-.3a48.09,48.09,0,0,0-6-10.2c-3-3.6-9.6-9.3-10.5-1.8,0,.3-.6.3-.6-.3-.3-6.9,5.1-5.1,8.1-2.7Z"
      />
      <path
        id="SvgjsPath4813"
        class="female skin-details"
        d="M182.1,322.2c2.7,7.2-1.8,9.3-4.8,6.3-4.8-4.8-8.7-15.6-9.6-24.6,0-.6.3-.6.6,0,.9,5.1,1.8,9.6,3.9,14.1a35.13,35.13,0,0,0,4.2,7.5,7.77,7.77,0,0,0,3.3,3c2.4-.3,3.3-2.4,2.1-6.3C181.5,322.2,181.8,321.9,182.1,322.2Z"
      />
    </g>
  </g>
  <g id="svga-group-ears-right-move">
    <g id="svga-group-ears-right">
      <path
        id="SvgjsPath4814"
        class="female skin"
        d="M409.5,290.7s9-15.3,13.8-22.2c5.1-6.9,11.4-14.1,13.8-2.1s2.4,34.8-.9,50.7c-3.3,15.6-17.4,31.5-23.4,31.5s-10.2-23.7-9.9-31.8,3.3-20.1,6.6-26.1Z"
      />
      <path
        id="SvgjsPath4815"
        class="female ear-outline"
        d="M415.5,263.7c2.1-3.9,17.7-5.4,18-5.4a2.27,2.27,0,0,1,1.2.6c.3,0,.3.3.6.3l.6.6c1.2,1.5,1.8,3.9,2.4,6,1.5,8.7,1.2,18,.9,27-.3,4.5-.3,9.3-.9,13.8-.3,2.4-.6,4.5-.9,6.9-.3,1.2-.3,2.4-.6,3.6l-.9,3.6A60.2,60.2,0,0,1,423,344.1a13.86,13.86,0,0,1-2.1,2.1c-.6.6-1.5,1.2-2.1,1.8a15.21,15.21,0,0,1-4.8,2.7c-.6,0-.9.3-1.5.3s-.9-.3-1.5-.3c-.9-.3-1.5-1.2-2.1-1.8a16.68,16.68,0,0,1-2.7-5.1,52.73,52.73,0,0,1-3-12.3A94.13,94.13,0,0,1,402,318a72.9,72.9,0,0,1,2.4-14.1c.6-2.4-.9-12.6,0-14.7.9-2.4,9-21.6,11.1-25.5ZM409.8,291c-2.1,3.9-3.3,8.4-4.5,12.9a68.92,68.92,0,0,0-1.5,13.5,81,81,0,0,0,1.8,12.3,98.76,98.76,0,0,0,3,11.1c1.2,3.3,3,6.6,5.1,5.7,2.4-.6,5.4-3,7.8-5.4a45.14,45.14,0,0,0,7.2-9.3,60.59,60.59,0,0,0,5.7-11.7c.3-1.2.6-2.1.9-3.3a12.76,12.76,0,0,0,.6-3.3c.3-2.4.9-4.5,1.2-6.9a102,102,0,0,0,.9-13.5,95,95,0,0,0-.6-13.2,81,81,0,0,0-1.8-12.3,8.88,8.88,0,0,0-1.8-4.5,2.33,2.33,0,0,0-3-.6c-2.4,1.5-5.1,4.5-7.5,7.5a230.53,230.53,0,0,0-13.5,21Z"
      />
      <path
        id="SvgjsPath4816"
        class="female skin-details"
        d="M429.6,279.3a32.74,32.74,0,0,0-10.5,17.1c0,.6.3.6.6.3a.29.29,0,0,1,.3-.3c1.2-1.5,3-3.3,4.2-3,2.4.3,1.8,4.2.9,7.5a55.88,55.88,0,0,1-5.1,12.3c-.3.3,0,.9.3.6,3-4.2,7.5-13.2,6.9-19.2-.6-5.1-4.2-3-6.6-.3a48.09,48.09,0,0,1,6-10.2c3-3.6,9.6-9.3,10.5-1.8,0,.3.6.3.6-.3.3-6.9-5.1-5.1-8.1-2.7Z"
      />
      <path
        id="SvgjsPath4817"
        class="female skin-details"
        d="M417.9,322.2c-2.7,7.2,1.8,9.3,4.8,6.3,4.8-4.8,8.7-15.6,9.6-24.6,0-.6-.3-.6-.6,0-.9,5.1-1.8,9.6-3.9,14.1a35.13,35.13,0,0,1-4.2,7.5,7.77,7.77,0,0,1-3.3,3c-2.4-.3-3.3-2.4-2.1-6.3C418.5,322.2,418.2,321.9,417.9,322.2Z"
      />
    </g>
  </g>
</svg>
