<?xml-stylesheet type="text/css" href="../../../../female-colors.css" ?>
<svg
 width="70"
  height="70"
  style="transform: scale(3.7) translateY(-3px)"
  id="Layer_1"
  data-name="Layer 1"
  xmlns="http://www.w3.org/2000/svg"
  viewBox="0 0 600 600"
>
  <g id="svga-group-nose-single-move">
    <g id="svga-group-nose-single">
      <path
        id="SvgjsPath6207"
        class="female face-outline"
        d="M281.94,329.64c-4.17,3.54-14,15.45-9.39,21.36a4.37,4.37,0,0,0,2.7,1.62c3.84.9,6.75-.66,10.71,1.32,4.68,2.34,8.37,6.72,13.8,7.47,4.41.6,7.44-1.8,10.62-4.44,1.74-1.44,3.69-3.39,6-3.84,1.74-.33,3.66.66,5.34.72a4.28,4.28,0,0,0,3.3-.75c2.46-2,1.86-5.76,1.23-8.37A24.57,24.57,0,0,0,318,331.41a.57.57,0,0,0-.81.81c2.82,3.48,5.4,7.2,6.69,11.55,1,3.33,2.19,7.05-3.12,7.32-1,.06-2.19-.63-3.24-.57-2.43.06-4.56,1.35-6.45,2.73-5.16,3.78-8.67,7.74-15.39,4.11-5.4-2.91-9.33-7.47-15.87-6.81-1.08.18-2.16.33-3.24.48-3-1.41-4.05-3.45-3.09-6.06a29.31,29.31,0,0,1,2.34-5.88c1.68-3.45,4.05-6.3,6.33-9.33.12-.09-.09-.21-.21-.12Z"
      />
      <path
        id="SvgjsPath6208"
        class="female face-outline"
        d="M283.53,335.07c-.66,8.16,6.33,15.54,14.67,14.61a.41.41,0,0,0,0-.81c-7.74-.9-13.38-5.94-14.37-13.8,0-.21-.3-.21-.3,0Z"
      />
      <path
        id="SvgjsPath6209"
        class="female nose-details"
        d="M305.73,327.24a19.38,19.38,0,0,0-9.66-1.44c-2.49.27-6.36,1.74-5.49,5,1.08,4.2,6.78,3.69,10.08,4.68,3.6,1.08,4.89,4.5,8,6.12a2.94,2.94,0,0,0,3.51-.45c5-5.19-1.65-11.91-6.48-13.92Z"
      />
    </g>
  </g>
</svg>
