<?xml-stylesheet type="text/css" href="../../../../female-colors.css" ?>
<svg
 width="70"
  height="70"
  style="transform: scale(3.7) translateY(-3px)"
  id="Layer_1"
  data-name="Layer 1"
  xmlns="http://www.w3.org/2000/svg"
  viewBox="0 0 600 600"
>
  <g id="svga-group-nose-single-move">
    <g id="svga-group-nose-single">
      <path
        id="SvgjsPath5864"
        class="female face-outline"
        d="M309.9,350.94a1.92,1.92,0,0,0,.24.57c.9,1.5,2.4,1.47,3.84,2,1.11.42,2,1.23,3.15,1.65,1.74.63,3.12-1.26,2.79-2.79-.6-2.88-4.92-5.4-7.89-4.53a12.51,12.51,0,0,0,1-2.76c.18-.81-1-1.38-1.38-.57-5.46,11-18.39,12-25,1.23-.12-.21-.51-.09-.42.18a13.16,13.16,0,0,0,1.14,2.55c-2.85-.15-7,2.4-6.09,5.34-.12,1.2,1.2,1.86,2.22,1.62a5.53,5.53,0,0,0,2.58-1c.72-.42,1.86-.51,2.82-1a2.14,2.14,0,0,0,1.23-1.62,11.78,11.78,0,0,0,2,1.41c-4.23.12-8,4-12.33,1.44-8.22-4.86,0-14.88,4.17-19.23.33-.36-.18-.84-.54-.54-5,4.41-11.64,11.58-7.26,18.69s11.46,1.41,17.34.36c5.43,2.31,12.21,1.26,16.32-3.06Z"
      />
      <path
        id="SvgjsPath5865"
        class="female face-outline"
        d="M314.19,333.66c-.36-.18-.81.3-.48.6,4.2,3.72,10.26,7.2,10.56,13.56.15,3.54-1.68,6.42-5,7.35s-6.87-.69-10.17-1.68c-.48-.15-.69.51-.33.78,5.49,3.93,14.58,5.46,17.07-2.73,2.43-8-5.19-14.76-11.61-17.88Z"
      />
      <path
        id="SvgjsPath5866"
        class="female face-outline"
        d="M294.15,325.65c6.54-1.77,12.33-.27,18.06,3,.27.15.63-.24.36-.48-5.1-4.35-12.36-5-18.57-3.06A.28.28,0,0,0,294.15,325.65Z"
      />
      <path
        id="SvgjsPath5867"
        class="female face-outline"
        d="M291.06,323.19a31,31,0,0,0,.42-23.37.25.25,0,0,0-.48.12,57.7,57.7,0,0,1-.81,22.89C290.07,323.31,290.82,323.7,291.06,323.19Z"
      />
      <path
        id="SvgjsPath5868"
        class="female nose-details"
        d="M305.4,333.24a4.63,4.63,0,0,0-5.49-.72,4.43,4.43,0,0,0-1.71,1.86,7,7,0,0,0-.48-.6c-2.52-3-7.62-.51-7.53,3.12.09,5.25,5.94,9.66,11,8.37s7.95-7.86,4.2-12Z"
      />
    </g>
  </g>
</svg>
