<?xml-stylesheet type="text/css" href="../../../../female-colors.css" ?>
<svg
 width="70"
  height="70"
  style="transform: scale(3.7) translateY(-3px)"
  id="Layer_1"
  data-name="Layer 1"
  xmlns="http://www.w3.org/2000/svg"
  viewBox="0 0 600 600"
>
  <g id="svga-group-nose-single-move">
    <g id="svga-group-nose-single">
      <path
        id="SvgjsPath4463"
        class="female face-outline"
        d="M314.79,328.71c-.42-.54-1.35.15-1,.75,2.52,3.87,5.28,7.68,7.62,11.67,1.59,2.7,3.21,6.09,2.1,9.36-1.83,5.37-6.54,5-10.35,3a9.05,9.05,0,0,0,2.07-6.36c-.06-.57-.87-1.11-1.32-.54-3.78,4.77-6.18,9.75-13.23,10-7.44.3-12.24-5.73-14.19-12.21a.51.51,0,0,0-1,.12,13.32,13.32,0,0,0,2.37,8.28,24.56,24.56,0,0,1-3.27.48c-3.45.21-4-.06-6.33-2.94s-2.43-3.81-1.08-7.17a25.78,25.78,0,0,1,2.46-4.35,77.56,77.56,0,0,0,7.44-14.25c3.87-10.11,5.55-21.27,3.66-32-.09-.45-.78-.33-.81.12,0,8.67-.57,17.22-3.12,25.56-2.64,8.64-7.62,15.12-11.76,22.92-2.16,4.05-3.06,9.36.63,12.84s9.3,2.34,13.56.72a15.43,15.43,0,0,0,9.78,5,17.79,17.79,0,0,0,13.08-5.1c3.93,4.35,11.46,2.34,13.41-3.24,3-8.46-6.18-16.92-10.77-22.71Z"
      />
      <path
        id="SvgjsPath4464"
        class="female nose-details"
        d="M306,336.39c-2.4-2.25-6.21-2.91-8.91-.81a5,5,0,0,0-1.83,2.7,3.43,3.43,0,0,0-1.32.81c-2,2-1.17,5.13.57,7a8.3,8.3,0,0,0,12.54-1.35A6.69,6.69,0,0,0,306,336.39Z"
      />
    </g>
  </g>
</svg>
