<?xml-stylesheet type="text/css" href="../../../../female-colors.css" ?>
<svg
 width="70"
  height="70"
  style="transform: scale(3.7) translateY(-3px)"
  id="Layer_1"
  data-name="Layer 1"
  xmlns="http://www.w3.org/2000/svg"
  viewBox="0 0 600 600"
>
  <g id="svga-group-nose-single-move">
    <g id="svga-group-nose-single">
      <path
        id="SvgjsPath3247"
        class="female face-outline"
        d="M293.16,274.11c-2.4,10-2.73,20.67-3.81,30.87-1.14,10.92-3.24,22.2-3.09,33.18a.8.8,0,0,0,1.56.21c2.22-10,2.49-20.73,3.54-30.93,1.11-10.92,3.15-22.23,2.79-33.18A.51.51,0,0,0,293.16,274.11Z"
      />
      <path
        id="SvgjsPath3248"
        class="female face-outline"
        d="M284.13,332.4a78.76,78.76,0,0,0-7.56,12.6c-1.38,2.85-3.12,6.21-2.19,9.48,1.5,5.4,8.37,7.08,12.84,4.53a1.54,1.54,0,0,0-.78-2.85c-2.61,0-5.67.81-7.74-1.41-2.52-2.67,0-7.5,1.08-10.2,1.65-4,3.66-7.77,5.22-11.76.21-.57-.57-.78-.87-.39Z"
      />
      <path
        id="SvgjsPath3249"
        class="female face-outline"
        d="M283.71,354.63c8.1-.6,9.63,9.6,17.34,9.84,6.6.21,7.11-9.72,13.38-9.42a.73.73,0,0,0,.36-1.35c-7.11-4.2-8.43,8.16-15,7.38-3.87-.45-6.63-6.15-10.11-7.8a6.71,6.71,0,0,0-6.39,0,.73.73,0,0,0,.39,1.32Z"
      />
      <path
        id="SvgjsPath3250"
        class="female face-outline"
        d="M312.21,359.25c5.34,1.2,11.55-.45,12.81-6.39a11.57,11.57,0,0,0-1.92-8.43c-2.52-4.11-5.79-7.59-8.19-11.85a.77.77,0,0,0-1.44.39c-.3,4.77,3.24,8.07,5.76,11.76,2.34,3.39,4.35,8.07.42,11.43-1.8,1.53-5.22,1.26-7.44,1.68a.73.73,0,0,0,0,1.41Z"
      />
      <path
        id="SvgjsPath3251"
        class="female nose-details"
        d="M307,343.23a3.79,3.79,0,0,0-5.88-.75c-.15.15-.69.84-.84,1l-.63.84c-.18.3-.36.6-.51.9l-.33.78s0,0-.09.15-.36.39-.51.57a13.16,13.16,0,0,0-1.44,1.71c-1.2,1.89-.24,4.05,1.38,5.25,2.49,1.86,6.09.36,7.83-1.74A7.53,7.53,0,0,0,307,343.23Z"
      />
    </g>
  </g>
</svg>
