<?xml-stylesheet type="text/css" href="../../../male-colors.css" ?>
<svg
  width="70"
  height="70"
  style="transform: scale(3.7)"
  id="Layer_1"
  data-name="Layer 1"
  xmlns="http://www.w3.org/2000/svg"
  viewBox="0 0 600 600"
>
  <g id="svga-group-nose-single-move">
    <g id="svga-group-nose-single">
      <path
        id="SvgjsPath3535"
        class="male skin"
        d="M315.18,323c1.68,2.76,7.92,10.83,9.27,14.7s-.39,9.66-4.44,10.83-10.83-1.17-11.79-.57-5.61,6.18-7.74,5.79-7.92-6.39-9.09-6.39-6.39,1.35-8.91,1.35-8.7-2.13-7.92-7.53,7.35-16.62,8.7-18.18a34.06,34.06,0,0,0,5.22-10.26c.78-3.3,1.74-21.09,2.13-25.14s4.05-8.91,7.74-9.27,10,2.31,10.65,8.7,1.74,19.14,2.31,24.36A24.85,24.85,0,0,0,315.18,323Z"
      />
      <path
        id="SvgjsPath3536"
        class="male face-outline"
        d="M292.86,260.28c-2.52,10.5-2.88,21.72-4,32.43-1.2,11.49-3.42,23.34-3.27,34.89a.84.84,0,0,0,1.65.21c2.34-10.56,2.64-21.78,3.72-32.52,1.17-11.46,3.3-23.37,2.94-34.89a.52.52,0,0,0-1-.12Z"
      />
      <path
        id="SvgjsPath3537"
        class="male face-outline"
        d="M283.38,321.57a81,81,0,0,0-7.95,13.23c-1.47,3-3.27,6.51-2.31,10,1.59,5.67,8.79,7.47,13.5,4.74a1.62,1.62,0,0,0-.81-3c-2.76,0-5.94.84-8.16-1.5-2.64-2.82,0-7.89,1.14-10.71,1.74-4.17,3.84-8.16,5.49-12.36C284.49,321.36,283.68,321.15,283.38,321.57Z"
      />
      <path
        id="SvgjsPath3538"
        class="male face-outline"
        d="M282.93,344.94c8.52-.63,10.14,10.11,18.21,10.35,6.93.21,7.5-10.23,14.07-9.9a.76.76,0,0,0,.39-1.41c-7.47-4.41-8.85,8.58-15.72,7.77-4.08-.48-7-6.48-10.62-8.19a6.89,6.89,0,0,0-6.69.06c-.66.27-.33,1.38.36,1.32Z"
      />
      <path
        id="SvgjsPath3539"
        class="male face-outline"
        d="M312.87,349.8c5.61,1.26,12.15-.48,13.47-6.72a12.22,12.22,0,0,0-2-8.85c-2.67-4.32-6.09-8-8.61-12.45a.83.83,0,0,0-1.53.42c-.33,5,3.39,8.49,6.06,12.36,2.46,3.57,4.59,8.49.45,12-1.89,1.62-5.49,1.32-7.8,1.77a.76.76,0,0,0,0,1.47Z"
      />
      <path
        id="SvgjsPath3540"
        class="male nose-details"
        d="M307.35,332.94a4,4,0,0,0-6.18-.78c-.15.15-.72.87-.9,1.08s-.6.78-.69.87a9.91,9.91,0,0,0-.54,1l-.36.84s0,0-.09.15-.36.39-.54.6a12.24,12.24,0,0,0-1.5,1.8c-1.26,2-.24,4.26,1.44,5.52,2.61,1.95,6.39.39,8.22-1.83a7.86,7.86,0,0,0,1.14-9.21Z"
      />
    </g>
  </g>
</svg>
