<?xml-stylesheet type="text/css" href="../../../../male-colors.css" ?>
<svg
                width="70"
                height="70"
                style="transform: scale(3.7)"
                id="Layer_1"
                data-name="Layer 1"
                xmlns="http://www.w3.org/2000/svg"
                viewBox="0 0 600 600"
              >
                <g id="svga-group-nose-single-move">
                  <g id="svga-group-nose-single">
                    <path
                      id="SvgjsPath5756"
                      class="male skin"
                      d="M317.49,320.05c.82,2.58,11.75,14.33,11.94,20.69s-6.55,12.73-14.93,7c0,0-7.75,6-14.93,5.17a17.63,17.63,0,0,1-11.15-5.76s-6.77,2.58-12.54.59-7.15-8.94-3-15.3,11.34-17.3,12.92-23.47S308.14,291.23,317.49,320.05Z"
                    />
                    <path
                      id="SvgjsPath5757"
                      class="male face-outline"
                      d="M317.37,318.66c-.51-.63-1.58.19-1.14.88,2.93,4.51,6.15,8.92,8.86,13.58,1.85,3.15,3.71,7.09,2.42,10.9-2.11,6.24-7.62,5.89-12.06,3.5a10.63,10.63,0,0,0,2.42-7.44c-.06-.69-1-1.29-1.51-.63C312,345,309.15,350.79,301,351.11c-8.67.34-14.24-6.68-16.54-14.21a.58.58,0,0,0-1.13.16A15.57,15.57,0,0,0,286,346.7a30.68,30.68,0,0,1-3.78.53c-4,.25-4.7-.06-7.34-3.43-2.81-3.53-2.81-4.41-1.26-8.35a31.68,31.68,0,0,1,2.86-5.07,89.51,89.51,0,0,0,8.67-16.57c4.5-11.75,6.45-24.76,4.28-37.2-.1-.54-.91-.38-.91.13,0,10.08-.67,20-3.63,29.73-3.05,10-8.85,17.61-13.67,26.65-2.52,4.69-3.56,10.9.73,14.93s10.8,2.74,15.78.85a18.07,18.07,0,0,0,11.37,5.83c4.88.44,11.28-1.92,15.21-5.92,4.57,5.07,13.33,2.71,15.63-3.75,3.43-9.83-7.25-19.66-12.6-26.4Z"
                    />
                    <path
                      id="SvgjsPath5758"
                      class="male nose-details"
                      d="M307.13,327.61c-2.8-2.62-7.24-3.37-10.39-.95a5.66,5.66,0,0,0-2.11,3.15,4.09,4.09,0,0,0-1.52.95c-2.39,2.33-1.38,6,.66,8.16a9.32,9.32,0,0,0,7.06,2.61,9.44,9.44,0,0,0,7.53-4.19,7.79,7.79,0,0,0-1.23-9.73Z"
                    />
                  </g>
                </g>
              </svg>