<?xml-stylesheet type="text/css" href="../../../male-colors.css" ?>
<svg
                width="70"
                height="70"
                style="transform: scale(3.7)"
                id="Layer_1"
                data-name="Layer 1"
                xmlns="http://www.w3.org/2000/svg"
                viewBox="0 0 600 600"
              >
                <g id="svga-group-nose-single-move">
                  <g id="svga-group-nose-single">
                    <path
                      id="SvgjsPath6585"
                      class="male skin"
                      d="M307.79,302c.38,4,.16,16.54,1.51,20.13s2.56,4.5,6.3,1.35,7.38-1.79,9.61,3.15,4.22,13.67,1.2,19.53-5.86,1.8-8.73,1.64-6.17,2.27-7.05,7.21-2.87,12.76-7.81,13.68-10.21-3.15-12.16-8.26-2.4-14-5.55-15.31-8.72,3.31-10.36,3-3.31-9.77-2.4-16.23,2.12-9.6,7.06-9.92,7.43,5.73,9,4.76,2.36-4.6,2.8-9.11-.31-11.71-.44-14.42,3.47-6.9,8.73-6.9,8,2.39,8.25,5.7Z"
                    />
                    <path
                      id="SvgjsPath6586"
                      class="male face-outline"
                      d="M285.74,325.18c.35.35,1.48,1.73,1.83,2.08a.49.49,0,0,0,.41.13c-.38,1.13-.79,2.3-1.26,3.46-.32.76.91,1.23,1.32.57,6.87-11.28,4.25-24.76,2.71-37.11-1.92-15.43.13-28.82,4-43.72.06-.25-.32-.41-.41-.19-5.51,11.09-6.8,24.73-5.83,36.92,1.07,13.54,3.72,26.14-.15,39.09-2.18-4.69-8.79-8.09-13.08-3.91-5.29,5.14-4.63,18.09-2.64,24.42.25.82,1.7.72,1.57-.22-.57-5.11-1.23-9.89-.44-15a23.86,23.86,0,0,1,.79-3.9c.91-2.93,1.07-3.06,4.31-4.26,3.56-1.38,4.29-.88,6.9,1.67Z"
                    />
                    <path
                      id="SvgjsPath6587"
                      class="male face-outline"
                      d="M291.22,351.64a.77.77,0,0,0,1.3-.53c.94-7.5-12.51-11.37-16.1-4.89a.74.74,0,0,0,.82,1.08c3-.63,5.48-2,8.53-.67,2.34,1,3.69,3.28,5.45,5Z"
                    />
                    <path
                      id="SvgjsPath6588"
                      class="male face-outline"
                      d="M315.23,347c-2.05.69-4.13,2.27-4.41,4.5-.1.76,1,1.07,1.45.6,1.26-1.23,2.17-2.49,4-2.86,1.45-.32,3,.53,4.34-.1a.81.81,0,0,0,.38-.88C320.39,346,316.86,346.38,315.23,347Z"
                    />
                    <path
                      id="SvgjsPath6589"
                      class="male face-outline"
                      d="M325.59,324.93c-3.21-5.95-8.47-5.51-11.81.22a.38.38,0,0,0,.6.47c2.8-2.77,7-3.65,9.57.29a19.53,19.53,0,0,1,2.27,6.49c1,5,0,9.41-.94,14.36-.16.85,1,1.51,1.51.63,3.56-6.71,2.33-16-1.2-22.46Z"
                    />
                    <path
                      id="SvgjsPath6590"
                      class="male face-outline"
                      d="M308.93,319a194.21,194.21,0,0,1,2-34.49c0-.22-.28-.35-.34-.1a63,63,0,0,0-2.18,34.65c.07.28.51.22.48-.06Z"
                    />
                    <path
                      id="SvgjsPath6591"
                      class="male face-outline"
                      d="M310.12,353.5c-1.13,5.64-2.61,14.3-9.89,14.18-2.74-.07-3.27-.57-5-2.52a34.27,34.27,0,0,1-3-4.19,43.52,43.52,0,0,1-4.28-9,.41.41,0,0,0-.79.22c1.2,6.27,5.36,19.59,13.83,18.84,7.46-.63,12.69-11,10.46-17.61a.7.7,0,0,0-1.33,0Z"
                    />
                    <path
                      id="SvgjsPath6592"
                      class="male nose-details"
                      d="M322.69,328.93c-2.52-2.65-6.36-3.31-8.85-.41-.57.66,0,1.89.91,1.58a5.11,5.11,0,0,1,5.26,2.26c1.26,2.27.29,4.86,1.2,7.12.38,1,1.86,1.77,2.71.73,2.46-3,1.36-8.57-1.23-11.28Z"
                    />
                    <path
                      id="SvgjsPath6593"
                      class="male nose-details"
                      d="M308.83,333.69c-.19-7.94-2.33-15.88-3.84-23.63-1.8-9.1,2.74-16.91,3.31-25.89.53-8.29-1-16.6-3.15-24.57-.38-1.45-2.37-.79-2.18.6,1.33,9.23,3.53,18.61,2,28-1.1,6.93-4.13,13.42-4.85,20.44-.76,7.5.66,15.28.44,22.81-.13,3.75,0,7.5-.13,11.24-.19,4-1.13,8,.22,11.82.54,1.51,2.78,2.58,4,1,4.29-5.36,4.35-15.15,4.16-21.83Z"
                    />
                  </g>
                </g>
              </svg>