<?xml-stylesheet type="text/css" href="../../../male-colors.css" ?>
<svg
                width="70"
                height="70"
                style="transform: scale(3.7)"
                id="Layer_1"
                data-name="Layer 1"
                xmlns="http://www.w3.org/2000/svg"
                viewBox="0 0 600 600"
              >
                <g id="svga-group-nose-single-move">
                  <g id="svga-group-nose-single">
                    <path
                      id="SvgjsPath6502"
                      class="male skin"
                      d="M316.74,321.65c1.83.85,3.87,3.28,6.11,10s3.87,11.62,4.32,15.21-3.12,7.31-5.39,7.75-4-1-4.92-3.43-1.19-5.95-3.87-7.62c0,0-2.55,7.15-4.79,8.79s-6.11,5.38-11.5,2.67-6.11-6.55-6.55-6.71-4,4.79-5.82,6-7.47,3-9.86,0-.29-14.46.28-18.05,2.83-11.78,5.07-13.74,5.39-2.39,7.47-1c0,0,.44-10,1.63-14.61s7.47-6.55,13.3-6,10,2.24,11,5.67,1.26,14.05,3.5,15.12Z"
                    />
                    <path
                      id="SvgjsPath6503"
                      class="male face-outline"
                      d="M287.51,350.63c-.95.7-1.42,1.11-2.37,1.8l-2,1.51c-1.83,1.58-3.59,1.39-5.33-.57-3.37-1.79-3.43-2.17-3.33-5.6,0-1.58.25-3.22.44-4.79.53-4.63,3-24.35,11.37-21.42h.06c0,1,0,1.92,0,2.9s1.33,1.1,1.51.22c2.18-9.23,2.15-19.34,3-28.79.94-9.93,3.12-20.6,2.42-30.56a.45.45,0,0,0-.88-.12c-2.45,9.1-2.39,19.34-3.34,28.69-.88,8.63-2.58,17.67-2.77,26.46-10.61-3.93-13.29,19-13.89,25.17-.41,4.13-.54,9.89,4.25,11.59s9.17-2,11.53-5.73c.32-.44-.28-1.07-.72-.76Z"
                    />
                    <path
                      id="SvgjsPath6504"
                      class="male face-outline"
                      d="M316.36,347.36a2.75,2.75,0,0,0,.95,1,.78.78,0,0,0,1-.29,3.6,3.6,0,0,0,.22-.37c.22-.51,0,.06.06-.29a2,2,0,0,0-.1-1.26,4.83,4.83,0,0,0-1.41-1.95,5,5,0,0,0-3.66-1.26c0-.32.1-.63.1-.91a.56.56,0,0,0-1-.29c-2.81,4.41-3.44,10.84-9.26,12.7-7,2.23-11.66-5.36-14.68-10.4a.77.77,0,0,0-.07-1c-2.7-2.27-8.31,1-8,4.48a1.08,1.08,0,0,0,1.8.75c1-.79,1.6-1.89,2.74-2.52.82-.44,1.7-.72,2.55-1.1,2.33,6.33,7.06,13.64,14.87,12.47,5.7-.85,9.73-6.71,10.8-12.28a4.81,4.81,0,0,1,2.36,1.32,10.22,10.22,0,0,1,.76,1.2Z"
                    />
                    <path
                      id="SvgjsPath6505"
                      class="male face-outline"
                      d="M322.41,328.55c-1.23-2.86-2.68-8.47-6.46-7.43.13-4.6-1.23-9.36-1.67-13.92-.44-4.26-.41-8.57-1-12.82-.06-.38-.53-.23-.6.09-.69,5.13-.09,10.52.57,15.66.47,3.68.82,7.68,2.43,11.08-.16.07-.32.1-.48.16-.37.19-.09.69.26.63,4.15-.76,7.46,12.44,8.44,15.44.88,2.74,2,5.85,2.08,8.75.09,4.41-4.92,10.68-8.54,4.73-.44-.76-1.42-.22-1.32.56.44,3.06,3.62,4.67,6.52,3.91,3.94-1,5.57-5.45,5.39-9.17-.26-5.92-3.31-12.28-5.61-17.67Z"
                    />
                    <path
                      id="SvgjsPath6506"
                      class="male nose-details"
                      d="M311.82,327.67a62.79,62.79,0,0,0-2.58-14.49c-1.23-4.66-1.92-9.86-4.38-14.08a1.38,1.38,0,0,0-2.52.35c-1.41,7.4.79,15.84,1.2,23.34.19,3.81.35,7.72-.54,11.43-.81,3.47-2.74,6.49-3.78,9.86-.53,1.73,1.3,3.75,3.09,3.09,7.59-2.74,9.67-12.19,9.51-19.5Z"
                    />
                  </g>
                </g>
              </svg>