<?xml-stylesheet type="text/css" href="../../../../male-colors.css" ?>
<svg
  style="transform: scale(4.5) translate(-7px, 2px)"
  width="70"
  height="70"
  id="Layer_1"
  data-name="Layer 1"
  xmlns="http://www.w3.org/2000/svg"
  viewBox="0 0 600 600"
>
  <g id="svga-group-eyes-right-move">
    <g id="svga-group-eyes-right">
      <g id="svga-group-eyesback-right">
        <path
          id="SvgjsPath3410"
          class="male eyes"
          d="M332.4,294s.3-7.2,3.9-12.6,11.1-14.1,25.2-14.7a53.57,53.57,0,0,1,25.5,5.7s-1.5,10.5-6.6,14.7-13.8,10.5-27.9,9.9c-14.4-.3-20.1-3-20.1-3Z"
        />
      </g>
      <g id="svga-group-eyesiriswrapper-right">
        <g id="svga-group-eyesiriscontrol-right">
          <g id="svga-group-eyesiris-right">
            <path
              id="SvgjsPath3454"
              class="male pupil"
              d="M359.7,265.2a15.68,15.68,0,0,1,15.6,15.6,15.6,15.6,0,0,1-31.2,0A15.68,15.68,0,0,1,359.7,265.2Z"
            />
            <path
              id="SvgjsPath3455"
              class="male pupil-inside"
              d="M359.7,272.4a8.39,8.39,0,0,1,8.4,8.4,8.4,8.4,0,0,1-16.8,0A8.39,8.39,0,0,1,359.7,272.4Z"
            />
            <path
              id="SvgjsPath3456"
              class="male eyes"
              d="M357.9,273.9l-1.8-1.8a2.72,2.72,0,0,0-2.1-.9,3.24,3.24,0,0,0-2.1.9,2.9,2.9,0,0,0,0,4.2l1.8,1.8a2.72,2.72,0,0,0,2.1.9,3.24,3.24,0,0,0,2.1-.9c.9-1.5,1.2-3.3,0-4.2Zm7.5,14.1c2.7,0,2.7-4.2,0-4.2S362.7,288,365.4,288Z"
            />
          </g>
        </g>
      </g>
      <g id="svga-group-eyesfront-right">
        <path
          id="SvgjsPath3423"
          class="male ear-outline"
          d="M328.2,287.7c6-10.8,12.3-19.8,24.9-23.7,12.9-4.2,24.3-.6,35.7,5.7.6.3,1.5-.6.9-1.2-18.9-17.1-56.4-6.9-61.8,18.9-.3.6,0,.6.3.3Z"
        />
        <path
          id="SvgjsPath3424"
          class="male eyeliner"
          d="M394.5,274.8c-12-9.9-29.1-13.2-43.8-7.2-12,5.1-21.9,17.7-19.8,31.2.3.9,1.5.6,1.8-.3a15.06,15.06,0,0,1,.6-3.6c19.5,7.8,51,4.2,54.6-20.4,1.5.9,3,1.8,4.8,2.7,1.2.9,3-1.5,1.8-2.4Zm-9.6-1.5c-1.5,10.8-9.9,18.3-20.1,21-10.8,3-20.7,0-31.2-.9,2.4-11.7,9.9-21,22.5-24.6,10.5-3,20.1-.3,29.1,3.9A.93.93,0,0,0,384.9,273.3Z"
        />
      </g>
    </g>
  </g>
  <g class="male hidden" id="svga-group-eyes-left-move">
    <g id="svga-group-eyes-left">
      <g id="svga-group-eyesback-left">
        <path
          id="SvgjsPath3409"
          class="male eyes"
          d="M267.6,294s-.3-7.2-3.9-12.6-11.1-14.1-25.2-14.7a53.57,53.57,0,0,0-25.5,5.7s1.5,10.5,6.6,14.7,13.8,10.5,27.9,9.9c14.4-.3,20.1-3,20.1-3Z"
        />
      </g>
      <g id="svga-group-eyesiriswrapper-left">
        <g id="svga-group-eyesiriscontrol-left">
          <g id="svga-group-eyesiris-left">
            <path
              id="SvgjsPath3451"
              class="male pupil"
              d="M240.3,265.2a15.68,15.68,0,0,1,15.6,15.6,15.6,15.6,0,1,1-15.6-15.6Z"
            />
            <path
              id="SvgjsPath3452"
              class="male pupil-inside"
              d="M240.3,272.4a8.39,8.39,0,0,1,8.4,8.4,8.4,8.4,0,1,1-8.4-8.4Z"
            />
            <path
              id="SvgjsPath3453"
              class="male eyes"
              d="M238.2,273.9l-1.8-1.8a2.72,2.72,0,0,0-2.1-.9,3.24,3.24,0,0,0-2.1.9,2.9,2.9,0,0,0,0,4.2l1.8,1.8a2.72,2.72,0,0,0,2.1.9,3.24,3.24,0,0,0,2.1-.9c.9-1.5,1.2-3.3,0-4.2Zm7.5,14.1c2.7,0,2.7-4.2,0-4.2S243.3,288,245.7,288Z"
            />
          </g>
        </g>
      </g>
      <g id="svga-group-eyesfront-left">
        <path
          id="SvgjsPath3418"
          class="male ear-outline"
          d="M271.8,287.7c-6-10.8-12.3-19.8-24.9-23.7-12.9-4.2-24.3-.6-35.7,5.7-.6.3-1.5-.6-.9-1.2,18.9-17.1,56.4-6.9,61.8,18.9.3.6,0,.6-.3.3Z"
        />
        <path
          id="SvgjsPath3419"
          class="male eyeliner"
          d="M249.3,267.6c-14.4-6-31.8-2.7-43.8,7.2-1.5,1.2.3,3.3,1.8,2.4s3-1.8,4.8-2.7c3.9,24.9,35.4,28.2,54.6,20.4.3,1.2.3,2.4.6,3.6a1,1,0,0,0,1.8.3c2.1-13.5-7.5-26.1-19.8-31.2Zm-13.8,26.7c-10.5-2.7-18.6-10.2-20.1-21,0-.3,0-.3-.3-.3,9-4.5,18.6-6.9,29.1-3.9,12.6,3.6,20.1,12.6,22.5,24.6-10.8.6-20.7,3.6-31.2.6Z"
        />
      </g>
    </g>
  </g>
</svg>
