<?xml-stylesheet type="text/css" href="../../../male-colors.css" ?>
<svg
  style="transform: scale(4.5) translate(-7px, 2px)"
  width="70"
  height="70"
  id="Layer_1"
  data-name="Layer 1"
  xmlns="http://www.w3.org/2000/svg"
  viewBox="0 0 600 600"
>
  <g id="svga-group-eyes-right-move">
    <g id="svga-group-eyes-right">
      <g id="svga-group-eyesback-right">
        <path
          id="SvgjsPath4313"
          class="male eyes"
          d="M329.7,279.3s4.5-6,9.9-8.4,16.5-5.1,26.4,1.2a121.76,121.76,0,0,1,18,15,17,17,0,0,1-10.8,10.5c-8.7,3-19.2,2.7-29.7-5.1C333,284.4,329.7,279.3,329.7,279.3Z"
        />
      </g>
      <g id="svga-group-eyesiriswrapper-right">
        <g id="svga-group-eyesiriscontrol-right">
          <g id="svga-group-eyesiris-right">
            <path
              class="male pupil"
              d="M375.3,280.8a15.6,15.6,0,1,1-26.57-11,16.37,16.37,0,0,1,1.73-1.49h0a14.64,14.64,0,0,1,2-1.25A42.68,42.68,0,0,1,374,274.65,15.2,15.2,0,0,1,375.2,279c0,.37.07.74.08,1.12C375.3,280.35,375.3,280.58,375.3,280.8Z"
            />
            <path
              id="SvgjsPath3455"
              class="male pupil-inside"
              d="M359.7,272.4a8.39,8.39,0,0,1,8.4,8.4,8.4,8.4,0,0,1-16.8,0A8.39,8.39,0,0,1,359.7,272.4Z"
            />
            <path
              id="SvgjsPath3456"
              class="male eyes"
              d="M367.16,284.81a1.91,1.91,0,0,0-1.76-1c-2.35,0-2.65,3.18-.92,4a2,2,0,0,0,.92.2A2.11,2.11,0,0,0,367.16,284.81ZM357.9,273.9l-1-1-.78-.78a2.72,2.72,0,0,0-2.1-.9,3.24,3.24,0,0,0-2.1.9,2.9,2.9,0,0,0,0,4.2l1.8,1.8a2.72,2.72,0,0,0,2.1.9,3.24,3.24,0,0,0,2.1-.9C358.8,276.6,359.1,274.8,357.9,273.9Z"
            />
          </g>
        </g>
      </g>
      <g id="svga-group-eyesfront-right">
        <path
          id="SvgjsPath4326"
          class="male ear-outline"
          d="M326.4,284.7c6.6-13.2,16.5-26.1,32.4-26.7,18.9-.9,27.9,14.4,27.6,31.8a1.05,1.05,0,1,0,2.1,0c.3-17.1-8.1-33-26.7-33.9-17.1-.9-31.5,12.9-36.6,28.5,0,.3.9.9,1.2.3Z"
        />
        <path
          id="SvgjsPath4327"
          class="male eyeliner"
          d="M395.4,295.8c-.3-.9-.9-1.2-1.5-1.8a16.64,16.64,0,0,1-2.4-1.8c-1.08-.86-2-1.89-3-2.72a9,9,0,0,0-1.2-.88H387c-.2-.35-.4-.71-.61-1.06A42,42,0,0,0,374,274.65,42.68,42.68,0,0,0,352.45,267l-.25,0a32.47,32.47,0,0,0-18.26,5.38c-4.05,2.81-7,6.72-7.23,11.7,0,.2,0,.41,0,.62,0,.9,1.2,1.2,1.5.6a43.89,43.89,0,0,0,2.7-3.9c7.5,9,17.1,17.7,29.4,19.2a24,24,0,0,0,22.5-9.3c.6,3.6,2.4,7.8,5.7,9.3.6.3,1.5-.3,1.2-.9-.6-2.1-2.1-3.6-3-5.4s-1.5-3.6-2.4-5.7a.29.29,0,0,1,.3-.3l1.5,1.5c.16.16.24.24.32.22s.14-.08.28-.22a8.6,8.6,0,0,0,.54,1.1,15.68,15.68,0,0,0,2.46,3.1c1.2,1.2,3.3,3.3,5.4,3C395.1,297,395.7,296.1,395.4,295.8Zm-59.1-21a25.21,25.21,0,0,1,12.43-5,24.42,24.42,0,0,1,5.27-.06c8.95.85,15.33,5.19,21.28,10.43,2.43,2.13,4.79,4.41,7.22,6.67-4.8,11.1-17.1,13.8-27.9,9.9-9.3-3.3-16.2-9.9-23.1-16.5A41.16,41.16,0,0,1,336.3,274.8Z"
        />
      </g>
    </g>
  </g>
  <g class="male hidden" id="svga-group-eyes-left-move">
    <g id="svga-group-eyes-left">
      <g id="svga-group-eyesback-left">
        <path
          id="SvgjsPath4312"
          class="male eyes"
          d="M270.3,279.3s-4.5-6-9.9-8.4-16.5-5.1-26.4,1.2a121.76,121.76,0,0,0-18,15,17,17,0,0,0,10.8,10.5c8.7,3,19.2,2.7,29.7-5.1,10.5-8.1,13.8-13.2,13.8-13.2Z"
        />
      </g>
      <g id="svga-group-eyesiriswrapper-left">
        <g id="svga-group-eyesiriscontrol-left">
          <g id="svga-group-eyesiris-left">
            <path
              class="male pupil"
              d="M225.76,275.1a14.93,14.93,0,0,0-1,3.91c0,.22,0,.43-.05.65a10.87,10.87,0,0,0-.05,1.14,15.6,15.6,0,1,0,26.59-11h0a14.72,14.72,0,0,0-1.74-1.51h0a16.48,16.48,0,0,0-1.95-1.24Z"
            />
            <path
              id="SvgjsPath3452"
              class="male pupil-inside"
              d="M240.3,272.4a8.39,8.39,0,0,1,8.4,8.4,8.4,8.4,0,1,1-8.4-8.4Z"
            />
            <path
              id="SvgjsPath3453"
              class="male eyes"
              d="M238.2,273.9l-1.8-1.8a2.72,2.72,0,0,0-2.1-.9,3.24,3.24,0,0,0-2.1.9,2.9,2.9,0,0,0,0,4.2l1.8,1.8a2.72,2.72,0,0,0,2.1.9,3.24,3.24,0,0,0,2.1-.9c.9-1.5,1.2-3.3,0-4.2Zm7.5,14.1c2.7,0,2.7-4.2,0-4.2S243.3,288,245.7,288Z"
            />
          </g>
        </g>
      </g>
      <g id="svga-group-eyesfront-left">
        <path
          id="SvgjsPath4321"
          class="male ear-outline"
          d="M273.6,284.7c-6.6-13.2-16.5-26.1-32.4-26.7-18.9-.9-27.9,14.4-27.6,31.8a1.05,1.05,0,1,1-2.1,0c-.3-17.1,8.1-33,26.7-33.9,17.1-.9,31.5,12.9,36.6,28.5,0,.3-.9.9-1.2.3Z"
        />
        <path
          id="SvgjsPath4322"
          class="male eyeliner"
          d="M205.2,297c1.8.3,3.9-1.8,5.4-3a13.52,13.52,0,0,0,3-4.2h.6c.6-.3.9-.9,1.5-1.5a.29.29,0,0,0,.3.3,46.16,46.16,0,0,1-2.4,5.7c-.9,1.8-2.1,3.3-3,5.4-.3.6.6,1.2,1.2.9,3.3-1.5,5.1-5.4,5.7-9.3a24,24,0,0,0,22.5,9.3c12.3-1.5,21.6-10.2,29.4-19.2a43.89,43.89,0,0,1,2.7,3.9.9.9,0,0,0,1.5-.6c0-12-15.6-18-25.5-17.7-13.8.6-27.9,9.6-34.8,21.6H213a24.19,24.19,0,0,0-4.2,3.6c-.9.6-1.5,1.2-2.4,1.8a2.92,2.92,0,0,0-1.5,1.8c-.6.3,0,1.2.3,1.2Zm12-10.2c8.4-8.1,15.9-16.2,28.5-17.1a24.75,24.75,0,0,1,17.7,5.1,16.44,16.44,0,0,1,4.8,5.4c-6.6,6.9-13.8,13.5-23.1,16.5C234.6,300.6,222.3,297.9,217.2,286.8Z"
        />
      </g>
    </g>
  </g>
</svg>
