<?xml-stylesheet type="text/css" href="../../../../male-colors.css" ?>
<svg
  width="70"
  height="70"
  id="Layer_1"
  data-name="Layer 1"
  xmlns="http://www.w3.org/2000/svg"
  viewBox="0 0 600 600"
>
  <g id="svga-group-hair-back-move"></g>
  <g id="svga-group-hair-front">
    <path
      id="SvgjsPath6778"
      class="male hair"
      d="M166.5,255.3s9.6,23.1,13.5,23.4c0,0,.3-15.6,1.2-26.4s2.1-38.4,24.3-64.8,38.7-35.1,38.7-35.1S273,171,292.5,171.9s50.7.3,77.4-20.1c0,0,20.1,22.2,30,48.3s16.2,50.4,16.5,68.1,1.8,19.2,8.4,11.4,8.4-24,8.4-24,.3-37.2-6.9-58.2-16.2-46.2-41.1-65.4-48.6-27.3-65.1-30c-16.5-3-47.4-.9-71.4,8.7S203.4,135.9,189,159a150.9,150.9,0,0,0-21.9,70.8C166.2,250.8,166.5,255.3,166.5,255.3Z"
    />
    <path
      id="SvgjsPath6779"
      class="male hair-outline"
      d="M407.1,152.1C385.2,121.5,345,100.8,307.5,99c-41.1-2.1-86.1,15.6-111.9,48-24.6,30.6-33,71.1-30,109.8,0,.6.3.9.6.9.6,2.1,1.5,3.9,2.4,6.3,1.2,3,2.4,6,3.9,9,1.5,3.6,4.2,8.4,8.7,7.2a2.37,2.37,0,0,0,2.4-2.4c0-24.3.9-50.7,12.6-72.3,11.4-21,30.6-36,48.9-51,16.5,14.1,39.6,21,60.6,21.3,21.3.3,49.2-6.3,64.8-22.2,27,38.7,44.7,79.8,44.1,127.8a1.56,1.56,0,0,0,.6,1.2c.6,6,8.7,2.4,11.1-.9,4.2-5.7,4.8-13.5,6.3-20.7a2,2,0,0,0,1.5-2.1c3-36.6-5.4-76.8-27-106.8Zm11.7,129c.9-45.6-14.4-96-46.2-129.6l.3-.3c1.2-1.5-.3-3.3-1.8-2.4-10.8,5.1-19.5,12-30.9,16.2a96.36,96.36,0,0,1-34.2,5.7c-24.6-.3-44.4-10.5-64.8-23.1-.9-.6-2.1.9-1.2,1.8a18.1,18.1,0,0,0,2.4,2.4c-19.5,15-39.9,30.9-51,53.4-10.8,21-12,46.2-12.3,69.6-4.8-5.4-5.7-14.7-11.1-19.5-1.8-36,6-73.2,27.6-102.3,25.2-33.9,70.5-51.9,112.2-49.8,38.4,2.1,80.1,25.5,100.2,58.2,17.7,28.8,24.6,64.5,22.5,98.1a32.87,32.87,0,0,0-3.3,8.7c-.9,2.4-3.6,13.5-8.4,12.9ZM275.4,157.8C260.1,150.3,249,141,240,126.3c-.6-.9-2.1-.3-1.8.6,5.1,15.6,19.8,29.4,36.3,32.4C275.7,159.6,276.6,158.4,275.4,157.8Zm16.5-.6c-9.3-2.7-18-6.6-24.9-13.5-.9-.9-2.4.6-1.5,1.5,6.9,7.8,15.9,12.9,26.4,13.5C292.5,159,292.8,157.5,291.9,157.2Zm28.2-.9c-5.1-.6-9.6-1.2-14.4-3-.9-.3-1.5,1.2-.6,1.5a35.53,35.53,0,0,0,14.7,2.7C321,157.5,321,156.3,320.1,156.3Zm-94.5,4.5c-4.5-1.2-7.8-3.6-11.4-6.3-.9-.6-1.8.6-1.2,1.5,3,3.6,7.8,5.4,12.3,6,.9.3,1.2-1.2.3-1.2Zm-10.8,7.5c-1.8-.6-3.6-1.8-5.4-2.1-.6,0-1.2.6-.6.9a15.92,15.92,0,0,0,5.1,2.4c.9.9,1.8-.6.9-1.2Zm187.8,4.5a1.2,1.2,0,0,0-1.5-1.5c-1.2.3-2.4,1.2-3.9,1.5a9.89,9.89,0,0,1-4.2,0c-1.8-.6-2.4,2.1-.9,3C395.4,177,401.1,176.7,402.6,172.8Zm1.5,9.9a27,27,0,0,0-4.8.9c-.9.3-.6,1.8.3,1.5a11.42,11.42,0,0,0,4.5-1.5C405,183.3,404.7,182.7,404.1,182.7Zm11.7,23.7a6.32,6.32,0,0,0-3.9,1.5c-1.5.6-.3,3,1.2,2.1a8.51,8.51,0,0,0,3.3-2.4c.6-.6,0-1.2-.6-1.2Z"
    />
    <path
      id="SvgjsPath6780"
      class="male hair-details"
      d="M303,144.6c-14.1-3.6-26.1-10.2-34.8-21.9-.6-.9-2.1,0-1.5.9,8.4,12,21,21,36,22.2C303.6,145.8,303.6,144.9,303,144.6Zm-41.4-11.1c-5.1-3.6-9.3-6.6-11.7-12.6-.3-.9-1.5-.6-1.2.3,1.8,5.7,6.3,12,12.6,13.5.6.3.9-.6.3-1.2Zm29.1,14.4c-4.8-2.4-9.6-4.5-13.8-7.5-.3-.3-.9.3-.6.6,4.2,3.3,9,6.6,14.1,7.8C291,149.1,291.6,148.2,290.7,147.9Zm35.7,15.6c-7.8,1.2-14.7,1.8-22.5.3a.64.64,0,0,0-.3,1.2c7.5,1.8,15.6,2.4,23.1,0C327.3,164.4,327,163.5,326.4,163.5ZM351,141.9c-11.4,3-23.1,6.6-35.1,4.5-.6,0-.9.9-.3.9,12.3,3,24,0,35.7-4.5.6-.3.3-1.2-.3-.9Zm-29.1-12c-6.6-.9-12.9-1.5-19.5-3.6-.9-.3-1.2.9-.3,1.2,6.3,2.4,12.9,3.9,19.8,3.3A.45.45,0,1,0,321.9,129.9Zm-95.1,24.6a61.79,61.79,0,0,1-12.3-9c-.6-.6-1.2.3-.6.6a32.17,32.17,0,0,0,12.6,9.3C227.1,155.7,227.4,154.8,226.8,154.5ZM206.1,168c-3.6-2.7-7.8-4.8-11.4-7.8-.6-.6-1.8.3-1.2,1.2,3.6,3,7.5,6.3,12.3,7.8.6.3.9-.6.3-1.2Zm-7.2,7.2c-2.1-1.5-4.8-2.1-7.2-3.3-.9-.3-1.8.9-.9,1.5a32.66,32.66,0,0,0,7.5,3,.67.67,0,0,0,.6-1.2Zm-10.5,12a17.19,17.19,0,0,0-3.3-3.3c-.6-.6-1.8.3-1.2,1.2a29.87,29.87,0,0,0,3.3,3c.9.6,1.8,0,1.2-.9ZM396,160.8c-2.4,1.5-4.5,2.7-7.5,2.4a.75.75,0,0,0,0,1.5,9.85,9.85,0,0,0,8.4-3C397.5,161.4,396.6,160.5,396,160.8Zm18.9,25.5c-1.8-.6-3.6-.3-5.4-.3a.9.9,0,1,0,0,1.8c1.8,0,3.6.3,5.4-.3C415.5,187.5,415.5,186.6,414.9,186.3Zm-.3,11.1a22.71,22.71,0,0,0-4.5-.3.75.75,0,0,0,0,1.5,22.71,22.71,0,0,0,4.5-.3C415.5,198.6,415.5,197.7,414.6,197.4ZM296.4,105.6c-14.4-1.5-30.6-2.1-43.5,6-.6.3-.3,1.8.6,1.5,14.1-6,27.9-5.7,42.9-6A.75.75,0,0,0,296.4,105.6Zm108.9,53.1c-.3-.6-1.2,0-.9.6,13.8,25.2,21.6,51.3,26.1,79.5,0,.9,1.5.6,1.5-.3-2.1-28.5-12-55.5-26.7-79.8Z"
    />
  </g>
</svg>
