<?xml-stylesheet type="text/css" href="../../../male-colors.css" ?>
<svg
  width="70"
  height="70"
  id="Layer_1"
  data-name="Layer 1"
  xmlns="http://www.w3.org/2000/svg"
  viewBox="0 0 600 600"
>
  <defs>
    <style>
      .hair {
        fill: #2b232b;
      }
      .hair-outline {
        fill: #1c161d;
      }
      .hair-details {
        fill: #3b363b;
      }
    </style>
  </defs>
  <g id="svga-group-hair-back-move"></g>
  <g id="svga-group-hair-front">
    <path
      id="SvgjsPath7405"
      class="male hair"
      d="M466.5,437.1a54.31,54.31,0,0,1-8.1-5.4,1.8,1.8,0,0,0-.3-1.2c-19.5-18.6-30.6-39.9-36.6-62.4,0-1.8-.3-3.6-.3-5.4,0,.3.3.6.3.9,1.2,4.8,2.4,9.3,3.9,13.8.3.6.6.6.9.6a123.51,123.51,0,0,0,10.2,19.8,81.09,81.09,0,0,0,8.7,12,1.1,1.1,0,0,0,.9.3c1.8,2.1,3.6,3.9,5.4,6,.9.9,2.4-.6,1.5-1.5a126.6,126.6,0,0,1-8.1-10.8c-17.1-30-19.2-62.1-16.2-95.1,4.8-18.3,10.5-36.3,15-54.9,0-.6.3-.9.3-1.5l.3-.3a108.77,108.77,0,0,0,5.7-29.1,77.86,77.86,0,0,0,.9-12c.3-14.4-.3-34.5-9.3-47.4a7.39,7.39,0,0,0-.3-3.6,68,68,0,0,0-5.1-9.3c-5.4-15-14.7-28.8-24.9-40.8a112.92,112.92,0,0,0-13.2-13.5c-16.2-17.4-38.7-29.4-63-33.6-41.1-6.9-106.2,6.9-105.6,59.1-21.6-6.6-46.2,3.9-60.6,20.4a73.06,73.06,0,0,0-16.2,32.7,88.19,88.19,0,0,0-6.6,44.1,47.11,47.11,0,0,0,1.5,14.4c.6,7.8,1.5,15.9,1.8,23.7a.64.64,0,0,0,1.2.3,27.72,27.72,0,0,0,2.4-8.1,39.41,39.41,0,0,0,11.1,15.3l.3.3c.6.9.9,1.5,1.5,2.4a69.87,69.87,0,0,1,3.3,8.4l.9,3.6c-.3,0-.3.3-.3.6.6,1.5.9,2.7,1.5,4.2,2.1,9,4.2,17.7,6,26.7,2.7,21.6.6,42.6-1.2,65.4a1.42,1.42,0,0,0,1.5,1.5v1.8c-.3,1.5-.3,3-.6,4.2,0,.9,1.5,1.5,1.5.6.6-2.4,1.2-4.8,1.5-6.9,16.2-34.5,7.2-72.3,3.9-108.9-4.2-46.5,7.5-93,58.2-101.7a13.2,13.2,0,0,1,3,.6c1.8.3,3.3-1.5,2.4-3a6.54,6.54,0,0,0-1.2-1.5,1.1,1.1,0,0,0,.9-.3c.3.6.3.9.6,1.5s1.2.6,1.8,0a10.18,10.18,0,0,0,1.8,1.8c1.5,1.5,4.5,0,4.2-2.1h1.5a1,1,0,0,0,1.8-.6l.3-.3a12.22,12.22,0,0,0,6.6,3,2,2,0,0,0,1.8-2.4.29.29,0,0,0,.3-.3,34.81,34.81,0,0,0,7.2,6c2.4,1.5,4.5-1.5,3.3-3.6a13.36,13.36,0,0,0,5.4,3,2.29,2.29,0,0,0,3-1.8c.3,0,.3.3.6.3a24.83,24.83,0,0,0,3.3,4.5c2.1,2.1,6,0,5.1-3,1.5,1.8,4.8,1.8,5.4-.3a14.22,14.22,0,0,0,3,3c1.8,1.2,5.1.6,4.8-2.1,0-.9-.3-1.8-.3-2.7a19.13,19.13,0,0,0,2.4,4.2c1.2,1.5,4.5.3,4.2-1.8a40,40,0,0,1,0-6,6.56,6.56,0,0,0,1.5-.9,18.16,18.16,0,0,0,0,5.7c.6,2.7,5.1,2.7,5.4,0a14.38,14.38,0,0,1,2.1-6,12.44,12.44,0,0,0-.9,4.8c0,3,4.2,4.5,5.7,1.5a39.09,39.09,0,0,1,3-4.5v2.1a2.92,2.92,0,0,0,5.4,1.5,23.78,23.78,0,0,1,5.1-5.7,11.08,11.08,0,0,0-2.1,4.2,1.86,1.86,0,0,0,2.7,2.1,16.75,16.75,0,0,1,2.4-1.5,2.54,2.54,0,0,0,1.8.6,49.65,49.65,0,0,1,9.6-.9c12.3.9,22.2,6.3,30.9,14.4,7.8,12,13.2,26.4,16.2,38.4a105.69,105.69,0,0,1,1.8,37.5c-12.9,42.3-27.6,96.6-8.4,138,3.3,14.1,9,27.6,18.3,39.6.6.6,1.5,0,1.2-.6a118.7,118.7,0,0,1-12.9-27.3,98.89,98.89,0,0,0,15,17.1,74.18,74.18,0,0,0,16.5,11.7,5.06,5.06,0,0,0,6.3-1.5,52.14,52.14,0,0,0,14.4,6.6.89.89,0,0,0,1.2-.6,17.81,17.81,0,0,1,2.4,1.2,1.48,1.48,0,0,0,2.1-1.8c.3,0,.3.3.6.3.6.3.9,0,1.2-.3.9.3,1.8.9,2.7,1.2.3-.3,1.2-2.1,0-2.7ZM183.6,306.9a34.88,34.88,0,0,0-1.2-5.4c-.3-2.7-.6-5.4-.9-7.8a26.42,26.42,0,0,0-.6-5.1c-.6-3.6-.9-7.2-1.2-10.5-.9-9.6-.6-19.2-.6-28.8v-.9c-.3,19.5,2.7,39,4.5,58.5Zm25.5-182.4c-17.1,3.6-33.3,16.8-43.5,29.4a63.66,63.66,0,0,1,45.9-30A7.06,7.06,0,0,0,209.1,124.5ZM418.2,289.8a233.09,233.09,0,0,0-2.1,29.1c-.3,2.1-.3,4.2-.6,6.3-.3-7.8-.3-15.3-.3-23.1A123.18,123.18,0,0,1,418.2,289.8Zm5.7,12-.9,9c0,.3-.3.6-.3.9.3-6.3.9-12.6,1.5-18.6.6-2.1.9-3.9,1.5-6-.6,5.1-1.2,9.9-1.8,14.7ZM229.5,125.7a15.9,15.9,0,0,0-8.1-2.4,73.11,73.11,0,0,1,8.1.3Zm17.4-27c-6.9,4.8-12.6,11.1-15.3,18C240,67.2,301.8,57,343.8,67.8a113.08,113.08,0,0,1,38.4,18,84.82,84.82,0,0,0-29.4-9.6,33.06,33.06,0,0,0-5.4-.6c-1.2-.3-2.4-.6-3.9-.9-28.8-6.6-77.4-2.7-96.6,24Zm35.7-12.9h-.9c-2.7.3-5.4.6-8.4,1.2,22.5-9.6,51-9.6,74.1-6.9a15.06,15.06,0,0,1,3.6.6c.3,0,.6.3,1.2.3,21.9,6.9,42.6,19.5,57.6,36.3.3.3.3.6.6,1.2-1.8-1.8-3.6-3.3-5.4-4.8C389.4,95.4,364.8,84,341.7,81c-19.2-3-39.9-1.2-59.1,4.8ZM409.2,369.3c.6,1.8.9,3.6,1.5,5.1a111.41,111.41,0,0,0,8.7,26.7,91.88,91.88,0,0,1-10.2-31.8ZM420,386.7a124.42,124.42,0,0,1-6.6-30,186.85,186.85,0,0,0,4.5,18.6,114,114,0,0,0,4.8,16.5c-.9-1.5-1.8-3.3-2.7-5.1Z"
    />
    <path
      id="SvgjsPath7406"
      class="male hair-outline"
      d="M462,416.4c-20.4-12.3-31.8-28.5-38.1-46.8-8.4-30.3-6.9-61.8-1.8-93.6,5.1-33,12-68.7-.9-100.8-.6-9.6-2.1-18.9-5.7-27.9-12-29.7-42.6-48.3-74.1-46.2-26.4,1.8-66,16.2-72.9,44.7a16,16,0,0,0-1.2,8.4v2.4c0,.3.3.6.3.9.6,3.9,2.1,8.7,5.7,10.2.6.3,1.8-.6.9-1.2a9.51,9.51,0,0,1-1.5-1.8v-.6a7.52,7.52,0,0,1-1.2-2.1,40,40,0,0,1-1.5-5.7v-1.8a26.8,26.8,0,0,0,3.6,11.1c.6.9,2.4.3,1.8-.6a26.94,26.94,0,0,1-2.1-8.1,28.74,28.74,0,0,0,3.6,9.6c.3.6,1.8.3,1.5-.6-.3-1.2-.9-2.4-1.2-3.3.6.3.9.6,1.5.9a3.81,3.81,0,0,0,.3,1.8c.3.9,2.1.9,1.8-.3v-1.5a1.1,1.1,0,0,0,.3-.9c.3,0,.9,0,.9-.6a44.84,44.84,0,0,1,4.2-17.1,31.23,31.23,0,0,0-2.4,17.7c0,1.2,1.8.9,1.8-.3-.3-21.6,15-33.9,33.9-38.7-14.7,9-24.3,26.1-17.4,45.6.3.9,2.1.9,2.1-.3-1.5-16.2.9-33.6,16.5-42.6l3.6-1.8C312,134.7,310.5,153,314.1,168c.3,1.2,2.1.9,1.8-.3-1.2-15.3-.9-34.2,14.4-42.9a28.1,28.1,0,0,1,9.6-3.3,102.56,102.56,0,0,1,13.5,1.2,49.51,49.51,0,0,1,14.7,6.3,32.61,32.61,0,0,0-5.4-.3c-21-.6-48.6,13.5-45,37.8.3,1.5,2.4.9,2.4-.3,2.7-31.8,36.9-36.3,61.5-26.1a63.46,63.46,0,0,1,7.5,10.8c.3.6.9.6,1.5,0,1.2,3,2.4,5.7,3.3,8.7a76.92,76.92,0,0,0-10.5-6.6,34.51,34.51,0,0,0-17.4-3.9c-11.4-.9-23.7,1.8-27.9,13.2a43.89,43.89,0,0,0-2.7,3.9c-.9,1.5,1.2,2.4,2.1,1.2a27.3,27.3,0,0,1,11.7-8.7,14.83,14.83,0,0,0-4.8,5.7,1.09,1.09,0,0,0,1.8,1.2l3.6-2.7a1,1,0,0,0,.3.6c-.3,0-.3.3-.6.3-.9.6-.3,2.1.6,1.8,1.2-.3,2.4-.9,3.6-1.2a1.34,1.34,0,0,0,1.2.9c29.7-4.2,40.2,15.3,43.8,39.6v4.2a.65.65,0,0,0,.6.6c2.1,18.9.6,40.2.9,54.6C390.6,321.6,387,408,453.6,431.7c.9.3,1.8-1.5.6-1.8-20.1-9-33.6-23.7-42.3-41.4l1.8,2.7a77.83,77.83,0,0,0,12.6,17.4c.6.6,2.1-.3,1.5-1.2-.3-.6-.6-.9-.9-1.5.9.9,2.1,1.8,3,2.7a.64.64,0,0,0,.9-.9,94.09,94.09,0,0,1-10.2-12c-20.7-36.3-19.8-76.8-9.3-117.9,1.2-4.5,2.4-8.7,3.6-12.9-.6,12.6-1.8,25.2-2.1,37.8-.9,28.2,2.1,61.5,17.1,86.4,1.8,3.3,3.6,6.9,5.7,10.2.3.6,1.2,0,.9-.6-.3-.3-.3-.6-.6-.9a66.75,66.75,0,0,0,25.8,20.1c.3.9,1.2-.9.3-1.5ZM278.4,159c-5.1-7.5,9.6-27.6,12.6-30.9a50.28,50.28,0,0,1,12-9l3.6-.9c-16.2,8.4-28.8,23.4-28.2,40.8Zm10.2-18.3c9.3-14.7,27.3-23.1,46.2-23.4h3.9c-18,1.2-40.2,8.4-50.1,23.4Zm96.6,27.9a42.09,42.09,0,0,1,12,11.1c0,1.2.3,2.7.3,4.2a47,47,0,0,0-12.3-15.3Zm2.4-32.7a71.62,71.62,0,0,0-10.5-8.4c-14.4-12.6-32.4-20.7-51.9-19.8,18-4.5,37.2-3.6,53.7,5.7,20.4,11.1,30,28.2,34.5,47.4a73.27,73.27,0,0,0-25.8-24.9Zm12.3,21.6a128.05,128.05,0,0,1,8.7,18.3c-.9-1.2-1.8-2.7-2.7-3.9a93.62,93.62,0,0,0-4.5-11.7,12.16,12.16,0,0,0-1.5-2.7Zm5.7,61.8c-.3-9.3-1.5-18.6-4.5-27v-6.6c.9,1.5,1.5,3,2.4,4.5.6,1.5,1.2,3.3,1.8,4.8a218.92,218.92,0,0,1,.3,24.3Zm-6,78c0-.9.3-1.8.3-3,1.8-14.7,4.5-29.7,7.2-44.1a.65.65,0,0,0,.6-.6c3-10.5,5.1-21.3,5.1-32.4.9,6.3,1.2,12.3,1.5,18.6C411,256.8,404.1,276.6,399.6,297.3Zm17.1-86.7a107,107,0,0,0-5.4-19.8.65.65,0,0,0,.6-.6,33.23,33.23,0,0,0-.6-5.7,6.28,6.28,0,0,0,1.2,1.8,137.41,137.41,0,0,1,4.2,24.3Zm-6.3-40.2a82.31,82.31,0,0,0-6.3-12.6,71.14,71.14,0,0,1,12,21.9c.3,3,.3,6.3.6,9.3a104.5,104.5,0,0,0-6.3-18.6Zm9,72a138.49,138.49,0,0,0,2.1-19.5c0-4.2-.3-8.1-.6-12.3,0-2.7.3-5.4.3-8.1v-4.8c2.4,14.7,2.4,30,1.2,44.1-1.2,14.4-3,28.8-4.5,43.2.6-14.4,1.5-28.8,1.5-42.6ZM236.7,166.2a.67.67,0,0,1-.6,1.2c-18.9-6.3-37.5,2.4-49.2,17.4-11.7,14.4-14.4,31.5-14.7,49.5a.45.45,0,0,1-.9,0c-3-32.7,25.2-86.1,65.4-68.1Zm24.9-6.6a.9.9,0,0,1-1.8,0c-1.8-36.6,31.5-60,64.8-64.8,35.7-5.1,80.7,3,103.2,33.9,26.1,35.4,24.3,84,10.8,123.6-8.1,24-15,47.1-14.1,72.6.9,26.1,8.7,51,21.3,73.8.6.9-.9,1.8-1.5.9a154.35,154.35,0,0,1-21.3-99c2.1-18,8.4-34.5,14.1-51.3,7.2-21.3,10.5-42.9,7.8-65.4s-10.2-46.2-26.7-62.4c-15.3-15.3-37.8-21.9-58.8-24.3-42.6-4.8-97.5,11.4-97.8,62.4Zm-11.1-1.2c0,.6-1.2.9-1.2.3-7.2-43.5,33.9-73.5,72.3-79.2.9,0,1.2.9.3,1.2-39.3,8.7-73.8,33.3-71.4,77.7Zm-6.3-5.4c0,.6-.9.9-.9.3-6.6-18,.6-36.6,13.2-50.4a.64.64,0,1,1,.9.9C246.6,118.5,238.8,134.1,244.2,153Zm-10.5-18.9c-.6-27,22.2-45,45.6-52.5.6-.3,1.2.9.6,1.2-22.5,9.6-43.8,24.6-45.3,51.3a.45.45,0,1,1-.9,0Zm7.8,28.2c.6.6-.3,1.8-.9,1.2-22.5-16.2-62.1,8.1-73.8,29.1-13.5,24.3-5.4,53.4,1.8,78.3,10.8,37.8,25.2,79.5,3.3,116.1-.6,1.2-2.4,0-1.8-1.2,16.2-30.3,10.5-63.6,1.5-95.4-7.2-24.6-17.4-51-14.1-77.1,3-23.4,17.1-37.8,36.9-48.9,14.7-8.1,33-15.3,47.1-2.1Zm-79.8,24c7.8-25.2,42.3-57.9,69.6-37.5.6.6,0,1.8-.6,1.2-28.5-15.9-57.9,11.7-67.8,36.6-.3.9-1.5.6-1.2-.3Zm39-48c9-4.8,21.6-6.3,28.2,3.3a.34.34,0,1,1-.6.3c-6.9-9-18-6-27-2.7-.6.3-1.2-.6-.6-.9Z"
    />
    <path
      id="SvgjsPath7407"
      class="male hair-details"
      d="M414,124.5c-.6-.6-1.2.3-.9.9,22.5,28.8,30.9,63,25.8,99-.3,1.2,1.5,1.5,1.8.6,9-36-2.1-74.1-26.7-100.5Zm21,57.3c0-.3-.9-.3-.6,0,3,32.4.3,63.6-6.3,95.4-.3.9.9,1.2,1.2.3,9-30.9,10.5-63.6,5.7-95.7Zm-31.5-52.2c-18.6-21.9-53.1-32.4-80.7-27-23.7,4.5-60,22.8-58.5,51a1.05,1.05,0,1,0,2.1,0c.9-35.7,56.1-52.8,84.6-47.7A93.91,93.91,0,0,1,394.2,126c15,12.3,20.7,32.1,24.3,50.4,6.9,36-.6,69-10.2,103.5-7.2,26.4-12.9,53.4-4.5,80.4.3.9,1.8.6,1.5-.3-11.4-45.6,12.3-86.7,18.3-131.1,3.9-30.6,1.2-74.7-20.1-99.3ZM237,162.6c-33.6-6-56.4,25.8-60.6,55.5-6,43.5,15,84.9,6.9,128.1a160,160,0,0,0-8.7-66c0-.3-.9-.3-.6.3,11.7,37.8,10.2,76.2-3.3,113.4-.3.6.6.9.9.3a156.46,156.46,0,0,0,10.5-38.1l.3-.3c13.2-33,1.5-68.1-2.7-102-4.8-38.7,6.6-93.3,57-89.1a1.11,1.11,0,0,0,.3-2.1Zm-5.1-11.7c-30.9-9.3-58.8,12.9-69.3,40.8-.3.6.6.9.9.3,12.9-27.3,36.6-45.9,68.1-39.9.9.3,1.2-1.2.3-1.2ZM228,137.4c-22.8-4.5-41.1-2.1-55.8,17.1a72,72,0,0,0-14.4,55.2c0,.6.9.3.9,0-1.2-16.8,1.8-34.2,11.1-48.6,14.1-21.9,32.7-25.8,57.6-22.2A.81.81,0,1,0,228,137.4Zm159.3-27C342,66.3,261,93,252.6,156c0,.9,1.2,1.2,1.2.3,15-61.5,82.8-85.5,132.6-45.3C387,111.6,387.6,111,387.3,110.4ZM249,128.4c-5.1,6.6-10.2,15-5.1,22.8.3.6,1.2,0,.9-.6-4.5-7.5.6-15.3,4.8-21.9,0-.3-.3-.6-.6-.3ZM453,427.8c-24.6-29.7-39.9-64.2-40.5-102.9,0-.6-.6-.6-.6,0-.3,38.4,12.9,76.5,40.5,103.8.3,0,.9-.6.6-.9Zm-10.8-4.5c-15.6-10.2-27.3-23.1-34.2-40.8-.3-.9-1.5-.6-1.2.3,5.7,17.7,18,33.3,34.8,41.4.6.6,1.2-.3.6-.9Z"
    />
  </g>
</svg>
