<?xml-stylesheet type="text/css" href="../../../../male-colors.css" ?>
<svg
  width="70"
  height="70"
  id="Layer_1"
  data-name="Layer 1"
  xmlns="http://www.w3.org/2000/svg"
  viewBox="0 0 600 600"
>

  <g id="svga-group-hair-back-move"></g>
  <g id="svga-group-hair-front">
    <path
      id="SvgjsPath4815"
      class="male hair"
      d="M167.1,173.7s-31.8,39-28.5,66.6l8.1-9.9s-15.6,45.3-27.9,60.3c0,0,12.3-3.9,20.4-13.8v21.9s12.9-31.2,26.7-44.1c0,0,4.5,25.5,18.6,37.8,0,0-3-28.5,3-46.5,0,0,14.4-31.8,13.5-48.6,0,0,2.4,16.8,9.9,24.3,0,0-6.3-33,9.9-51.6,0,0,19.2,6.3,54.6-4.5,0,0,36-3,66.3,34.8,0,0-1.2-25.5-16.8-38.4,0,0,21.9,10.5,34.2,8.7,0,0,21.9,17.4,33.6,18,0,0,6.9,24.3,6.9,43.5,0,0,8.7-15.6,9.9-23.1,0,0-5.7,51.6,8.1,72.6,0,0,3-16.8,8.7-21,0,0,20.4,30.6,34.8,35.4,0,0-16.8-20.4-18-42.9l17.4,10.5a81.55,81.55,0,0,1-17.4-48.3s11.7,1.8,18,12.3c0,0-15-41.7-36-56.4,0,0,22.8,16.2,40.2,10.5,0,0-39-17.4-48.6-42.3,0,0,16.2,1.8,26.1,11.1,0,0-22.8-37.2-60.9-41.7,0,0,24.9-24.9,24.3-36.6,0,0-41.7,26.1-75.6,25.5,0,0,13.8-23.7,13.2-34.8,0,0-23.7,29.1-36,31.5a63.89,63.89,0,0,1,3.6-22.2s-18,25.5-26.1,29.1L291,81s-18,24.3-33,29.1c0,0,3.9-8.7,1.8-16.8,0,0-5.1,9.3-11.1,12.3,0,0,4.8-18,3.9-23.7,0,0-13.2,21-18.6,23.7l-.6-16.2s-12.9,24.3-23.7,30.3c0,0-2.4-8.7-5.7-12.9,0,0-3,11.7-3.9,17.4,0,0-1.8-25.5-19.2-33.6,0,0,9.3,41.7,2.4,50.4,0,0-13.5-23.1-18-26.1,0,0,5.7,28.5,4.5,35.4,0,0-23.7,14.4-28.5,29.1,0,0,18-7.5,27.3-11.1l-1.5,5.4Z"
    />
    <path
      id="SvgjsPath4816"
      class="male hair-details"
      d="M349.5,111.6c-23.4,25.2-50.1,39.6-83.4,46.5-1.2.3-.9,2.4.3,2.4,32.7-3.6,64.2-21.9,84-48,.3-.9-.6-1.5-.9-.9Zm1.8-3.6c-15.6,7.8-31.2,12.6-48,15.9-.9,0-.6,1.5.3,1.5a112.57,112.57,0,0,0,48.6-16.2c.6-.3,0-1.5-.9-1.2Zm37.5-22.2c-6.9,12-15.6,21.3-26.1,30.3-.6.6.3,1.8.9,1.2,11.4-7.2,20.4-18.6,26.1-30.9C390.3,85.8,389.1,85.2,388.8,85.8ZM228,152.4c14.1-7.5,21.6-19.5,26.4-34.2.6-1.2-1.5-1.8-2.1-.9a48.33,48.33,0,0,1-12,11.4c-.9.6-.3,1.8.9,1.5,5.7-2.4,9.6-6.6,12.9-11.7-.6-.3-1.5-.6-2.1-.9-2.4,14.1-13.2,26.1-25.2,33-.9.6.3,2.4,1.2,1.8Zm19.2-3.6c8.4-3.9,17.1-9.3,22.8-16.5a.64.64,0,0,0-.9-.9c-7.2,6.3-14.1,12-22.5,16.2-.9.3-.3,1.5.6,1.2ZM213.9,162c-7.2,7.5-12.6,18.3-11.4,28.8.3,1.5,2.1,1.5,2.1,0,1.2-10.5,3.6-19.2,10.5-27.3a1,1,0,1,0-1.2-1.5ZM182.7,96.9c5.4,20.1,3.3,35.4-2.4,54.9-.3,1.2,1.2,1.8,2.1.9,10.8-15.9,10.5-39.6,2.7-56.7a1.32,1.32,0,0,0-2.4.9ZM168.9,126c-.9,11.4,3.3,23.4,12.6,30.3.9.6,1.8-.6,1.2-1.5-7.5-8.4-12.3-17.4-12.6-28.8A.6.6,0,1,0,168.9,126Zm.6,47.7c-9.9,9.3-18,23.7-20.4,37.2-.3.9,1.5,1.8,1.8.9,2.7-6.6,5.1-12.9,8.4-19.2s7.8-11.7,11.7-17.4a1.06,1.06,0,0,0-1.5-1.5ZM180.3,222c-4.8,12.6-7.5,26.4-5.7,39.9.3,1.2,2.1,1.5,2.1,0,0-13.5.9-26.4,5.1-39.6.3-.9-1.2-1.2-1.5-.3Zm-39.9,62.4c8.4-11.1,17.1-22.8,23.7-35.1.6-1.2-.9-2.4-1.8-1.5-9,10.8-16.2,23.4-23.4,35.4-.6,1.2.9,2.1,1.5,1.2ZM296.7,162.3c12.6,1.8,20.1,9.3,27.6,18.9.6.6,1.5,0,1.2-.6-3.6-11.7-17.1-18.9-28.5-19.8C296.1,160.8,295.8,162.3,296.7,162.3Zm32.4-8.4c17.4,6.3,36.9,9.6,55.5,7.5,1.2,0,1.2-1.5,0-1.5-18.9-.9-36.9-2.4-55.2-7.2C328.5,152.1,328.2,153.6,329.1,153.9Zm54.3,25.5c13.8,1.8,26.7,5.7,39.9,9.6a1,1,0,0,0,.9-1.8c-12.6-6-26.7-8.4-40.5-8.7C382.8,178.2,382.5,179.1,383.4,179.4Zm32.1,25.2c-3.9,18.3-4.5,38.4.6,56.4.3.9,2.1.9,2.1-.3-2.4-19.2-3.3-36.9-.9-56.1,0-.9-1.8-1.2-1.8,0Zm-66.6-64.2c15.6.3,30.6,2.7,45.3,8.4-.3-.6-.3-1.5-.6-2.1a27,27,0,0,1-13.8,6.6c-.6,0-.6,1.2.3,1.2a22.05,22.05,0,0,0,15.3-5.7c.9-.6.3-1.8-.6-2.1a104.48,104.48,0,0,0-45.9-7.8c-.9,0-1.2,1.5,0,1.5Zm71.7,24c4.2,4.2,9.9,8.7,15.9,9.9.9.3,1.5-1.2.6-1.8-2.4-1.5-5.4-2.4-7.8-3.9a45.3,45.3,0,0,1-7.8-5.4c-.6-.6-1.8.3-.9,1.2Zm7.8,22.2c7.8,7.2,12.9,15.3,18.6,24,.6.9,2.1.3,1.8-.6-3.3-9.9-11.4-18.3-19.5-24.3-.6-.9-1.5.3-.9.9Zm-3.9,25.2c1.8,14.4,9,29.7,21,38.4.9.6,1.8-.6,1.2-1.5-10.2-11.1-17.4-22.2-20.7-37.2C425.7,210.9,424.5,211.2,424.5,211.8Zm2.7,38.7c1.5,9.3,5.1,19.8,12.3,26.4.9.6,2.1-.3,1.5-1.2-5.4-8.4-9.9-15.9-11.4-25.8A1.24,1.24,0,0,0,427.2,250.5Z"
    />
    <path
      id="SvgjsPath4817"
      class="male hair-outline"
      d="M318.3,89.4a75,75,0,0,0,22.5-21,170.3,170.3,0,0,1-14.1,30c-.9,1.5,1.2,2.4,2.1,1.2,8.4-12,13.8-25.8,17.4-39.9a1.28,1.28,0,0,0-2.4-.9,146.22,146.22,0,0,1-26.7,29.4C315.9,88.5,317.1,90,318.3,89.4Zm-52.2,18a131.38,131.38,0,0,0,22.8-21.9,143,143,0,0,1-6.6,15.6c-.6,1.2.6,2.7,1.8,1.8,9.6-6.6,18.6-15,24.6-25.2-.9,3.3-2.1,6.6-3,9.9-.3.9.9,1.2,1.2.3,1.8-5.7,3.3-11.7,5.4-17.1.6-1.2-1.2-1.8-2.1-.9-6.9,10.5-14.1,19.8-24,27.6a169.92,169.92,0,0,0,6-17.4,1,1,0,0,0-1.8-.9,183.15,183.15,0,0,1-25.8,27c0,.6.6,1.8,1.5,1.2Zm-18.3-3.6a1.09,1.09,0,0,0,2.1.6,72.83,72.83,0,0,0,3.6-24,1.41,1.41,0,0,0-2.7-.6A95.58,95.58,0,0,1,235.2,102c-.3-4.5-.3-9-.6-13.5,0-1.2-2.1-2.1-2.4-.6-4.2,9-9.6,16.8-15.6,24.9-.6.9.6,1.5,1.2.9a70.24,70.24,0,0,0,14.1-19.8c0,3.9.3,7.8.3,11.7a1.34,1.34,0,0,0,2.4.9,85.71,85.71,0,0,0,15.6-20.4,73.78,73.78,0,0,1-2.4,17.7ZM171,147c-.6-9.9-2.4-20.1-4.2-30a78.91,78.91,0,0,1,14.7,25.8c.3.9,2.1.6,1.8-.6-3.9-11.4-10.2-21-17.7-30.3-.6-.9-2.4-.3-2.4.9,1.5,11.4,3,23.1,5.7,34.5.6,1.2,2.1.9,2.1-.3Zm-28.5,34.5c7.8-3.6,16.5-6.6,23.7-11.4,1.2-.9.6-2.7-.9-2.4-6.6,2.1-13.2,5.4-19.5,8.4a84.62,84.62,0,0,1,19.5-21.9c1.2-.9-.3-2.7-1.5-2.1a71.79,71.79,0,0,0-23.1,27C139.5,180.9,141,182.4,142.5,181.5Zm-8.7,97.2-10.8,9a130.41,130.41,0,0,0,25.5-57.3,68.74,68.74,0,0,1,6.3-6.9c1.5-1.5-.9-3.9-2.4-2.4a49.82,49.82,0,0,0-3.9,4.2c-.6-.3-1.5,0-1.5.6s-.3.9-.3,1.5c-2.1,2.7-4.2,5.4-6,8.1A179.81,179.81,0,0,1,168,174c.9-1.2-1.2-2.4-2.1-1.2-16.2,21-25.8,45.6-30.3,71.7-.3,1.8,2.1,3,3,1.2a74.85,74.85,0,0,1,6.3-10.5,139.69,139.69,0,0,1-33,60.6c-1.2,1.5.3,3.9,2.1,2.7,8.1-5.1,15.6-10.8,21.9-18,.9-1.2-.9-3-2.1-1.8Zm51.9-26.4c-4.2,12.3-4.5,25.5-2.7,38.4-8.4-10.5-12.9-22.2-15.6-35.4a.29.29,0,0,0-.3-.3,43.89,43.89,0,0,0,2.7-3.9.75.75,0,1,0-1.2-.9c-12,12.6-21,28.2-28.2,43.8,0-13.5,3.3-26.4,8.7-39,.6-1.2-.9-2.1-1.5-.9a82.59,82.59,0,0,0-9.6,46.2c0,1.2,2.1,2.1,2.7.6,6.9-15.6,15.9-29.7,25.5-44.1,1.5,14.7,8.7,28.2,18.6,39,.9.9,2.4,0,2.4-1.2-3-14.4-1.8-27.9.9-42.3-.6-.6-2.1-.9-2.4,0Zm32.7-79.8c-7.8,9-10.5,22.2-10.5,33.6a84.76,84.76,0,0,0,.6,8.7c0,.3.3,1.2.6,2.4l-3-4.5c-2.4-4.8-3.6-9.9-4.8-15-.3-.9-2.1-.9-1.8.3,1.2,9.9,5.7,18.6,11.4,26.7a1,1,0,0,0,1.8-.9c-4.8-18.9-.6-33.3,6-50.7.9-.6,0-1.2-.3-.6Zm-33,56.7c3.6-16.5,9-31.8,17.4-46.5.6-.9-.9-1.8-1.2-.9-8.7,14.7-14.7,30.3-17.1,47.1C184.5,229.5,185.1,229.8,185.4,229.2ZM228.6,120c-6.6,10.5-13.2,21-20.4,31.2-.3.6.3,1.2.9.6a138,138,0,0,0,19.8-27.3,38.44,38.44,0,0,1-8.1,25.8c-.9.9.6,2.4,1.5,1.5A37.23,37.23,0,0,0,231,120C230.7,119.1,229.2,119.1,228.6,120Zm-43.5,60.3c.9-.9-.6-2.4-1.5-1.5A67.7,67.7,0,0,0,168,201c-1.2,3-6.6,12.9-1.8,15.3a1.41,1.41,0,0,0,1.8-.3c3-2.1,4.8-5.7,6.9-8.7,3-3.9,6-7.8,8.7-12,.6-1.2-.9-2.4-1.8-1.5-3,3.3-5.7,7.2-8.4,10.8-.3.3-4.5,6.6-4.8,6.6-1.5-.6.3-4.2.6-5.1a62.26,62.26,0,0,1,15.9-25.8Zm94.5-44.4c-9.3,5.7-17.7,11.4-28.2,15-1.2.3-.6,2.4.6,2.1,10.2-3,21-7.8,28.8-15.3a1.09,1.09,0,0,0-1.2-1.8Zm63.3-37.5c20.1-3,42.9-10.2,60-22.5a74.92,74.92,0,0,1-13.8,21c-.6.6.3,1.8.9,1.2a43.05,43.05,0,0,0,15.9-23.7v-.6a8.09,8.09,0,0,0,2.4-2.1c.6-.6-.3-1.8-.9-1.2-21.6,10.8-41.1,20.7-64.8,26.4-1.2,0-.9,1.5.3,1.5Zm37.5,14.7c25.2,3.6,43.5,15.3,58.2,34.5a58.94,58.94,0,0,0-40.5-13.8c-1.5,0-1.2,2.1,0,2.1,15.6,1.5,28.2,6.3,41.7,14.7.3.3.9,0,1.2-.3a16.49,16.49,0,0,0,2.1,2.7,1.21,1.21,0,0,0,2.1-1.2c-10.5-24.3-38.4-40.5-64.2-40.8-1.5,0-1.8,1.8-.6,2.1Zm-37.8,87.3c.3-15.6-7.2-31.5-21.6-38.7-.6-.3-1.5.6-.9,1.2,11.4,9,18.9,20.4,20.4,34.8-13.5-19.8-37.2-31.8-60.9-32.7,36.3-12.3,68.7-36.6,91.8-66.3.9-.9,0-3-1.5-2.4-14.7,5.1-29.4,10.8-44.1,16.8-.9.3-.3,1.8.6,1.5,9.3-3,18.6-6,27.6-9.3,2.4-.9,9.6-4.8,11.7-4.5.6,0-4.2,5.4-5.4,6.6A191.56,191.56,0,0,1,324,138.9c-26.7,18-56.1,27.6-87.6,33.3-.9,0-.6,1.5.3,1.5a177.57,177.57,0,0,0,39.6-7.5.65.65,0,0,0,.6.6c26.7,2.4,47.4,15.3,63.9,36,.9.9,2.4-.3,1.8-1.2.3-.9.3-.9,0-1.2Zm59.7-30c1.2-.3.9-2.4-.3-2.1-25.8,2.1-48.6-.6-73.8-5.4-.6,0-1.2.9-.6,1.2a108.65,108.65,0,0,0,31.2,8.1c17.1,13.2,40.5,21.6,62.1,19.2,1.2,0,1.2-1.5,0-1.8-21.6-2.4-39.3-6.6-57.6-17.1a140.86,140.86,0,0,0,39-2.1Zm15.3-28.8c-.3-.6-1.5,0-1.2.6,9.3,18,25.5,33.6,45.3,39.6-14.1.6-25.8-2.7-37.2-12.6-.6-.6-1.8.3-1.2.9,9.6,12.6,28.8,19.2,43.8,13.2l.3-.3c1.2.3,1.8-1.5.6-2.1-21-8.4-38.4-19.8-50.4-39.3Zm51.3,159c-6.3-7.2-12.6-13.8-17.1-22.2-4.2-7.8-5.7-15.6-8.4-23.7a54.78,54.78,0,0,0,15.3,8.7l.9.9c.3.6,1.2.3,1.5-.3.3,0,.3.3.6.3.9.3,1.5-1.2.6-1.8s-1.8-.9-2.7-1.5c-9.6-14.1-13.8-27.9-15.6-45,6.3,4.2,12.3,8.7,17.4,14.7,0,.3.3.6.3.9a.85.85,0,0,0,1.5,0c.3-.3.6-.9.3-1.2s-.3-.6-.6-.9c-5.1-23.4-22.2-43.8-40.8-57.6-.6-.3-1.2.6-.6.9,16.8,14.4,27,31.2,36.3,50.4-5.7-6-12.6-10.8-20.4-12.9-.9-.3-1.2.9-.6,1.5a52.18,52.18,0,0,1,5.4,3.3c0,.3-.3.3-.3.6-1.2,15,3.9,30.6,12.9,42.9-12.9-8.1-23.4-18.3-30.6-32.1-.6-1.2-2.1-.3-1.8.9a67.78,67.78,0,0,0,19.2,25.8c-.9,12.3,5.4,26.7,14.1,37.8-12.6-8.4-22.8-18.6-29.4-32.1,0-.3,0-.6-.3-.6a82,82,0,0,1-4.8-12.9c-.3-.9-1.8-.6-1.5.3a80.7,80.7,0,0,0,4.2,13.8c-3.6,5.1-6.9,12.9-6.9,19.8-7.8-23.7-9.3-45.3-6-70.2,0-.9-.6-1.2-1.2-.9a23.16,23.16,0,0,0,.6-4.5c.3-1.2-1.8-1.2-2.1-.3-3,8.4-5.7,16.5-9,24.6.6-12-1.8-24-6-35.4a.81.81,0,1,0-1.5.6c4.5,13.8,5.1,27.9,4.8,42.3a14.63,14.63,0,0,0-.9,2.1c-.6,1.2,1.2,1.8,2.1.9a82.36,82.36,0,0,0,8.4-17.1,105.08,105.08,0,0,0,9.6,62.1c.3.6,1.2.6,1.8.3v.3a.94.94,0,0,0,1.8,0c1.5-3.9,1.2-8.4,2.4-12.6.9-3,2.1-6,3.3-9,6.9,15.3,19.2,28.5,35.1,33.9a51.41,51.41,0,0,0,7.5,6.6,1.7,1.7,0,0,0,1.2-2.4ZM178.5,90.6c5.1,16.5,5.1,31.5,3.6,48.3a1.23,1.23,0,0,0,2.4.3c3.9-15.9,1.8-33-3.6-48.3,10.2,9,15.9,18.6,18.3,32.7,0,.6,1.2.6,1.2-.3.3-13.8-8.1-29.1-20.7-35.1-.6-.3-1.5.6-.9,1.2-.3,0-.3.6-.3,1.2Z"
    />
  </g>
</svg>
