<?xml-stylesheet type="text/css" href="../../../../male-colors.css" ?>
<svg
  width="70"
  height="70"
  id="Layer_1"
  data-name="Layer 1"
  xmlns="http://www.w3.org/2000/svg"
  viewBox="0 0 600 600"
>
  <g id="svga-group-hair-back-move">
    <g id="svga-group-hair-back">
      <path
        id="SvgjsPath4840"
        class="male hair"
        d="M197.4,349.2a13,13,0,0,0-.3-1.5c6.6-3.6,10.8-11.7,9.3-21.6a14.61,14.61,0,0,0-.3-3.6,25.27,25.27,0,0,0-6.3-16.5l.9-1.8c9.9-9.6,14.4-25.2.9-38.7a32.71,32.71,0,0,0-14.4-8.1,35.34,35.34,0,0,0-7.5-5.7,33.53,33.53,0,0,0-6.9-19.5c-7.5-9.6-20.4-14.7-32.1-10.8A27.27,27.27,0,0,0,126,233.1h-3.6v-.6a11.67,11.67,0,0,0-2.1-6.9,16.54,16.54,0,0,0-5.1-5.1c-.3-.3-.6-.3-.9-.6a1,1,0,0,0-.6-.3,18.15,18.15,0,0,0-18.3-.3c-.3.3-.6.3-.9.6a18.88,18.88,0,0,0-8.4,10.8,18.57,18.57,0,0,0,1.8,13.8,32.11,32.11,0,0,0,4.2,4.8,9.38,9.38,0,0,0-2.7,3.3c-1.5,2.7-2.4,6.9-1.2,9.9s3,6,6,7.8c.3,0,.3.3.6.3a14.17,14.17,0,0,0-3,6c-.3.9-.6,2.1-.9,3-2.4,7.8,3,15.6,10.2,17.4a11.33,11.33,0,0,0-2.4,6.9,14.61,14.61,0,0,0,.3,3.6,12.61,12.61,0,0,0,3.6,8.4,13.85,13.85,0,0,0,4.5,2.7,15.84,15.84,0,0,0,0,7.5,11.09,11.09,0,0,0,1.5,3.3c0,.3-.3.6-.6,1.2a29.56,29.56,0,0,0-.6,5.1,29.56,29.56,0,0,1,.6,5.1,14.3,14.3,0,0,0,3.6,6.6,10.34,10.34,0,0,0,3.6,3.6,8.55,8.55,0,0,0,4.2,2.4,8.8,8.8,0,0,0,4.8,1.2,12.81,12.81,0,0,0,7.5-.3,33.65,33.65,0,0,0,3.9-1.5,15.07,15.07,0,0,0,3.9,1.5,12.22,12.22,0,0,0,1.5,5.4c1.5,3.3,3.6,6.3,6.9,8.1a22.19,22.19,0,0,0,8.7,2.4h.3a16.44,16.44,0,0,0,4.8,5.4,10.58,10.58,0,0,0,3.9,2.4,8.47,8.47,0,0,0,4.5,1.2,6.63,6.63,0,0,0,4.8,0,14.27,14.27,0,0,0,6.9-2.1c.6-.3,1.5-.9,2.1-1.2a12.43,12.43,0,0,0,9,3.3c3.6-.3,7.5-1.2,9.9-4.2a22.33,22.33,0,0,0,4.8-8.1,23.16,23.16,0,0,0,.6-4.5,15.59,15.59,0,0,0-2.1-7.5,18.41,18.41,0,0,0-8.7-5.7Zm299.7-47.1c-.9-1.2-1.8-2.1-2.4-3a12.7,12.7,0,0,1,2.1-1.5,11.6,11.6,0,0,0,3.6-5.7c1.5-3.6,2.1-7.8.9-11.4a15.23,15.23,0,0,0-2.7-5.4,17.11,17.11,0,0,0,0-7.8,16.88,16.88,0,0,0-2.1-5.4,19.09,19.09,0,0,0-6-6,11.25,11.25,0,0,0,.3-3.3,21.5,21.5,0,0,0-11.4-19.2,22.36,22.36,0,0,0-21.3.3A24.19,24.19,0,0,0,426,231a21.33,21.33,0,0,0-6.9,7.8,22.6,22.6,0,0,0-18.6,2.4A23.43,23.43,0,0,0,390.3,258c-6.9,0-12.3,4.2-14.7,10.8-2.4,6-3.6,12.6-1.8,18.9a1.56,1.56,0,0,0,.6,1.2,26.9,26.9,0,0,0-5.7,10.8,32.87,32.87,0,0,0-1.8,7.8,22.28,22.28,0,0,0,3.3,13.2,14.68,14.68,0,0,0-3.6,3.9,24,24,0,0,0-6.6,20.1A21,21,0,0,0,378,363a21.72,21.72,0,0,0,16.5,18.9,12.79,12.79,0,0,0,1.8,5.4,23.07,23.07,0,0,0,5.4,5.4,15,15,0,0,0,11.4,1.5,18.05,18.05,0,0,0,12.3-9c.3-.6.6-.9.6-1.5a1.1,1.1,0,0,0,.9.3c1.5.6,2.7,1.2,4.2,1.8a14.66,14.66,0,0,0,7.2.3,19,19,0,0,0,10.2-4.8,20.43,20.43,0,0,0,4.5-7.8,19.43,19.43,0,0,0,.6-5.7,17.11,17.11,0,0,0,.3-3.9A14.65,14.65,0,0,0,468.3,348a7.39,7.39,0,0,0,.3-3.6,2.7,2.7,0,0,0-.3-1.5h1.5a16.26,16.26,0,0,0,7.5-1.8c6.6.6,12.9-2.4,17.4-7.5a25.6,25.6,0,0,0,6-23.4,33.2,33.2,0,0,0-3.6-8.1Z"
      />
      <path
        id="SvgjsPath4841"
        class="male hair-outline"
        d="M112.8,309c-6.3-3.3-6-9-2.7-13.5.9-1.2-.3-3-1.8-3.3-9-.3-15.9-13.5-5.1-17.7a1.09,1.09,0,0,0,0-2.1c-6.6-1.2-9.9,6-9.3,11.7.6,6.3,5.1,10.2,10.8,11.7-3,6.6-1.8,16.8,7.5,15.6C113.7,311.1,113.7,309.3,112.8,309Zm18.6,35.1c-6,1.5-15.3,4.5-18-3.6-1.8-6.3,2.4-12.3,6.6-15.9.9-.6,0-2.1-1.2-1.8-7.5,2.1-11.4,13.8-8.1,20.7,3.9,8.1,15.3,7.8,21.6,2.7.9-1.2,0-2.4-.9-2.1Zm11.7-46.5c-3.3.3-6.9.3-9.6-2.1-3-2.4-3.6-6.9-2.1-10.2.6-1.5-1.5-2.7-2.1-1.2a11.78,11.78,0,0,0,1.5,13.8c3.3,3.3,9.3,4.8,13.2,1.8A1.38,1.38,0,0,0,143.1,297.6Zm8.4,3.9a.94.94,0,0,0,0,1.8c5.1,1.5,10.2,3,13.2,7.8,3,5.1,2.1,9.6,1.2,15-.3,1.8,1.5,2.4,2.7,1.2,8.1-10.8-4.5-28.5-17.1-25.8Zm12.3,57.6c-2.4,1.5-4.5,3.6-6.9,5.1a10.08,10.08,0,0,1-10.8-1.2c-5.4-4.8-3.9-12.9.9-17.7.9-.9-.3-2.4-1.5-1.8-7.5,5.4-9.6,15.6-2.4,22.2,6.9,6.6,19.2,3.9,22.8-5.1C166.5,359.7,164.7,358.8,163.8,359.1Zm15.9,2.1c-1.5,1.5-2.7,3.6-5.4,3a4.44,4.44,0,0,1-3.6-5.1c.3-1.8-2.7-2.1-3-.3a8,8,0,0,0,5.4,9.3c3.3.9,9-1.8,8.7-5.7C182.1,360.9,180.9,360.3,179.7,361.2Zm270,3.9a1.09,1.09,0,0,0-2.1,0c-.9,3.9-2.1,8.1-5.4,10.8-3.6,3.3-9,3.6-13.5,1.8a6,6,0,0,0-.9-3.3c-1.2-2.1-4.2-.3-3.3,1.8,1.8,4.2-4.8,11.7-8.1,13.2a10.42,10.42,0,0,1-13.2-3.9,1.21,1.21,0,0,0-2.1,1.2c3.3,6,10.8,9.3,17.1,6.3,3.9-1.8,8.7-7.2,10.2-12.3a15.53,15.53,0,0,0,15.3-.9c4.5-3.3,7.5-9.3,6-14.7Zm-7.5-23.4c-3,2.1-6,4.5-9.9,3.6-4.2-.9-6.6-5.1-6.6-9.3,0-2.1-2.7-1.8-3,0a12.15,12.15,0,0,0,8.1,12.9c5.1,1.5,11.4-.6,13.5-5.7A1.45,1.45,0,0,0,442.2,341.7ZM480,316.2a1.26,1.26,0,0,0-2.1,1.2c1.2,5.1.9,10.2-2.7,14.1-3.6,3.6-12.3,4.5-12.6-2.7a1.5,1.5,0,1,0-3,0c-.3,8.4,9,12,15.6,8.1,6.3-3.9,11.1-14.7,4.8-20.7Zm-20.4-29.7c-1.5-.6-2.1,1.2-1.2,2.4,2.7,3.3,5.7,5.7,5.7,10.2,0,5.1-4.8,9.6-9.6,7.2-1.8-.9-3.3,1.8-1.5,2.7,5.7,3,12,0,14.1-6s-1.5-14.1-7.5-16.5Zm36.6-7.8a1,1,0,0,0-1.5.9,23.92,23.92,0,0,0,.9,4.5,9.46,9.46,0,0,1-1.2,7.5c-2.4,4.5-7.8,6.6-12.6,5.7a1.38,1.38,0,1,0-.6,2.7c6,1.5,12.3-.6,15.6-5.7,3-3.9,4.5-12.9-.6-15.6Zm.6,29.1a1.27,1.27,0,0,0-1.8,1.8c7.8,9,3.9,19.2-4.8,25.2-.9.6-.3,2.1.9,2.1,13.2-3,14.7-20.7,5.7-29.1Z"
      />
      <path
        id="SvgjsPath4842"
        class="male hair-details"
        d="M419.4,368.7a1,1,0,0,0-1.8-.3c-1.5,3-1.2,6.6-3.6,9.3-1.8,2.1-6.3,3-7.2-.3-.3-1.5-2.7-.9-2.4.6.9,4.2,6,5.4,9.6,3.9C418.5,380.1,420.6,373.2,419.4,368.7Zm24-8.1c-.6-.6-2.1-.9-2.1.3-.6,2.7-.3,5.4-3,6.9-2.7,1.8-6,.6-7.8-1.5-1.2-1.2-3.3.3-2.1,1.8,2.7,3.3,7.2,5.1,11.1,3C442.5,369.6,445.8,364.2,443.4,360.6Zm28.2-50.7c-4.5,5.1-10.8,7.2-15.9,1.5a1.94,1.94,0,0,0-3.3,1.8,11.14,11.14,0,0,1-1.2,8.1c-2.4,4.2-6,5.1-11.4,2.1a1.32,1.32,0,0,0-2.4.9c1.2,5.1,6.3,6.3,10.5,4.5,5.4-2.4,7.5-6.9,8.1-12.3,6.3,3.9,15.3,2.4,18-5.7.3-.9-1.5-1.8-2.4-.9Zm14.7-4.5c-.6-.6-1.2.3-.9.9,4.2,6.9,5.4,15.3.6,22.2-.9,1.2,1.2,2.7,2.1,1.5,5.7-6.9,6-18.6-1.8-24.6Zm3.3-20.7a1,1,0,0,0-1.8.3,12.85,12.85,0,0,1-1.5,4.8,6.2,6.2,0,0,1-4.2,3c-1.5.3-.9,2.7.6,2.4a9.83,9.83,0,0,0,5.7-3.9c1.5-1.8,2.4-4.8,1.2-6.6ZM178.8,367.2c-2.1,1.8-3.9,4.2-6.9,4.8-2.7.6-6-.6-6.9-3.6-.3-1.2-2.7-1.2-2.4.3a8.34,8.34,0,0,0,7.8,7.2c4.5.3,9-3.3,10.5-7.5C181.2,367.2,179.7,366.6,178.8,367.2Zm-41.4-28.8c-3,0-5.7.6-8.7.3a16.91,16.91,0,0,1-3.6-1.2,3.07,3.07,0,0,1-1.5-1.8c-.3-1.2.3-2.1,1.8-2.1,1.5.6,2.7-1.2,1.2-2.1-4.2-2.4-8.1,3.6-5.4,6.9,3.3,4.8,12.6,5.4,17.1,2.4,1.2-.3.6-2.4-.9-2.4Zm6-24a1,1,0,0,0-1.8.6,19.66,19.66,0,0,1,0,4.2,5.45,5.45,0,0,1-3,3.3c-1.5.6-.9,3.3.6,2.4a8.27,8.27,0,0,0,4.5-4.5c1.2-1.8,1.5-4.8-.3-6ZM108,274.2a6.36,6.36,0,0,0-3.6,5.7c-.3,2.1.6,5.1,3,5.7.9.3,1.5-.6,1.2-1.5-.6-1.5-1.5-2.4-1.5-3.9a4.16,4.16,0,0,1,2.1-3.6C110.7,275.4,109.5,273.6,108,274.2Z"
      />
    </g>
  </g>
  <g id="svga-group-hair-front">
    <path
      id="SvgjsPath4837"
      class="male hair"
      d="M511.8,222a16.44,16.44,0,0,0-4.2-10.5c-.3-.3-.6-.6-.9-.6a13.45,13.45,0,0,0,.3-3.3c-.3-6-2.4-12.3-6.6-16.5a13.93,13.93,0,0,0-6-3.9c0-1.5-.3-3-.3-4.5a15.91,15.91,0,0,0-2.1-8.4c.3-.6.9-1.2,1.2-1.8l3.3-4.5a14.27,14.27,0,0,0,2.1-6.9,16,16,0,0,0-.3-7.5l-1.8-4.5a13.09,13.09,0,0,0-4.8-5.1,17.11,17.11,0,0,0-6.6-3.3,1,1,0,0,0-.3-.6,18.7,18.7,0,0,0-2.7-3.6,2.7,2.7,0,0,0,.3-1.5,10.18,10.18,0,0,0,1.8-1.8,28.9,28.9,0,0,0,6.3-10.5c.3-1.5.3-3,.6-4.5a12.58,12.58,0,0,0-1.5-6.6c-1.5-3.3-3.9-6.6-6.9-8.1a40.07,40.07,0,0,0-5.4-2.1,13,13,0,0,0-1.5-3.6,14.85,14.85,0,0,0-9-6.9,13.45,13.45,0,0,0-3.3-.3c.3-1.8.3-3.6.6-5.4.6-5.7-3.6-11.7-8.1-14.4a17,17,0,0,0-8.4-2.4,20.26,20.26,0,0,0-4.2.6c-.3-.6-.6-1.5-.9-2.1a13.09,13.09,0,0,0-4.8-5.1c-3-2.4-7.2-4.2-11.1-3.9a5.86,5.86,0,0,0-2.1.3,14.89,14.89,0,0,0-.3-8.1,16.39,16.39,0,0,0-6-8.7c-3-2.1-6.6-3.9-10.2-3.6-1.5.3-3,.3-4.5.6a17.37,17.37,0,0,0-7.5,4.5,4.14,4.14,0,0,1-1.2.9c-.3,0-.6-.3-.9-.3a15.91,15.91,0,0,0-7.5-6.6,13.35,13.35,0,0,0-11.7,0c-.6.3-.9.6-1.5.9h-2.7v-.3c-.3-1.2-.6-2.4-.9-3.3A16.36,16.36,0,0,0,360,23.4a26.09,26.09,0,0,0-8.1-8.1,22.37,22.37,0,0,0-11.4-3,11.25,11.25,0,0,0-3.3.3,22.63,22.63,0,0,0-8.7,2.7.29.29,0,0,0-.3.3,10.52,10.52,0,0,0-4.2-1.8,19.64,19.64,0,0,0-8.4-.9A13.18,13.18,0,0,0,309,15a4.14,4.14,0,0,0-1.2.9c-.3,0-.3.3-.6.3h-.3a21,21,0,0,0-3,2.4,28.65,28.65,0,0,0-6.3,7.2,27.88,27.88,0,0,0-1.5,3,16.39,16.39,0,0,0-5.4.3,10.77,10.77,0,0,0-2.1-3,16.49,16.49,0,0,0-2.1-2.7,43.89,43.89,0,0,0-2.7-3.9,20.27,20.27,0,0,0-11.4-5.4,8.32,8.32,0,0,0-5.4,0,14.13,14.13,0,0,0-5.1,1.2,28.49,28.49,0,0,0-5.1,3,7.39,7.39,0,0,0-3.6.3,10.11,10.11,0,0,0-5.1,1.5,8.7,8.7,0,0,0-4.5,2.7,15.58,15.58,0,0,0-5.1,5.7c-.9,1.8-1.5,3.3-2.4,5.1a23.2,23.2,0,0,0-20.4,9.6c-.6.3-1.5.6-2.1.9a17.36,17.36,0,0,0-6.3-2.1,21.85,21.85,0,0,0-24.6,3.3,17.47,17.47,0,0,0-5.7-.9,19.59,19.59,0,0,0-10.8,3,21.81,21.81,0,0,0-10.5,18.3v1.5a19.53,19.53,0,0,0-9.3.3C135,70.5,128.7,81,129,92.1a17.37,17.37,0,0,0-10.8,12,50,50,0,0,0-1.5,9.3c0,1.2.3,2.4.3,3.6a25.8,25.8,0,0,0,2.7,9l.9,1.2a16.5,16.5,0,0,0-6.6.6,14.94,14.94,0,0,0-5.7,3c-.9.6-1.5,1.2-2.4,1.8a18.18,18.18,0,0,0-5.7,6c-2.4,5.4-3.3,7.5-3.6,13.5-.3,3.6,1.2,8.7,3,12a26,26,0,0,0,2.1,3c-.9.6-1.5.9-2.4,1.5.3-.3.6-.6.9-.6-.3.3-.6.3-.6.6a13,13,0,0,0-2.1,1.8c-.3.3-.6.3-.6.6.3,0,.3-.3.6-.6a17.05,17.05,0,0,0-6,10.8,13.49,13.49,0,0,0,.3,6.9,17.37,17.37,0,0,0,4.5,7.5,4.26,4.26,0,0,1-1.8.6,16.45,16.45,0,0,0-4.5,2.4,13.08,13.08,0,0,0-5.1,7.5,19.49,19.49,0,0,0,0,9.3,17.61,17.61,0,0,0,10.2,11.4c.9.3,1.5.6,2.4.9,0,.3,0,.6.3.6a25.05,25.05,0,0,0,4.5,8.4,22.38,22.38,0,0,0-2.1,3.6,13.93,13.93,0,0,0-4.8,5.4c-2.1,4.5-2.7,8.7-.9,13.5,1.8,4.2,5.4,7.8,9.9,8.7a18.49,18.49,0,0,0,8.1.3,14.14,14.14,0,0,0,1.8,4.5,16.67,16.67,0,0,0,6.6,6.3,11.84,11.84,0,0,0,1.8,4.5c2.1,3.3,6,6.6,9.9,7.5,4.2.9,9,.6,12.6-1.8s6.6-5.7,7.5-9.9a19.43,19.43,0,0,0,.6-5.7c.6,0,1.5-.3,2.1-.3a16.84,16.84,0,0,0,7.5-4.2c.3,7.8,6.3,14.4,14.4,14.4a14.82,14.82,0,0,0,10.2-4.2c2.4-2.4,4.5-6.6,4.2-10.2a16.43,16.43,0,0,0-6.3-12v-.6a1,1,0,0,1,.3-.6,15.51,15.51,0,0,0,4.5-5.4,18.54,18.54,0,0,0,1.8-14.4l-1.8-4.5a14.12,14.12,0,0,0-3.9-4.5,20.83,20.83,0,0,0,8.4-9.9,23,23,0,0,0,1.5-12.6,25.23,25.23,0,0,0-5.1-12,4.14,4.14,0,0,0-.9-1.2,13.15,13.15,0,0,0,6.9,1.8,14.07,14.07,0,0,0,10.5-4.5l.6-.6a10.14,10.14,0,0,0,7.5,3c7.8,0,11.4-6.3,10.8-12.3a.29.29,0,0,1,.3-.3,12.68,12.68,0,0,0,10.2-3.6,13,13,0,0,0,3.3-12.6,13.74,13.74,0,0,0-2.1-4.2,36.27,36.27,0,0,0,1.5-5.4,19.81,19.81,0,0,0,.3-4.2c.6,0,.9-.3,1.5-.3a19.8,19.8,0,0,0,8.7,12,15,15,0,0,0,12.9,1.2c1.5,4.8,5.7,8.7,12.3,7.8,9.3-.9,15.3-6.3,17.1-12.9a10.87,10.87,0,0,0,1.8-6.9v-.3a22.86,22.86,0,0,0,16.8,3.9,9.13,9.13,0,0,0,2.4,2.4,12.6,12.6,0,0,0,11.7,1.5A16.44,16.44,0,0,0,333,171a18.33,18.33,0,0,0,4.2,2.1,15.06,15.06,0,0,0,3.6.6,7.61,7.61,0,0,0,3.6-.6,14.77,14.77,0,0,0,5.1-1.8,10.31,10.31,0,0,0,7.5,3.9,10.66,10.66,0,0,0,2.7,1.2,12.33,12.33,0,0,0,6.6,0c2.4-.6,4.2-2.1,6-3.6a8.56,8.56,0,0,0,3.9,0,11.14,11.14,0,0,0,1.2,8.1A11.45,11.45,0,0,0,390,186a10.38,10.38,0,0,0,3.3,3,13.84,13.84,0,0,0,8.4,1.8,15.68,15.68,0,0,0,1.8,4.8,21.31,21.31,0,0,0,5.7,6.9,13.07,13.07,0,0,0-3.9,4.2v.3c-.6,1.2-.9,2.4-1.5,3.6a12.44,12.44,0,0,0-.3,5.7,27,27,0,0,0-.9,4.8,14.11,14.11,0,0,0,6.9,12,20.16,20.16,0,0,0,3.6,1.8v.6c0,1.2.3,2.4.3,3.3a14.32,14.32,0,0,0,1.5,10.5,19.83,19.83,0,0,0-6,15.3c.6,4.2,3,9,7.2,10.8,3.3,1.5,5.4,2.4,9,2.4a16,16,0,0,0,7.2-1.8,12.84,12.84,0,0,0,4.2,4.8,22.38,22.38,0,0,0,3.6,2.1,11.42,11.42,0,0,0,1.5,4.5,10.79,10.79,0,0,0,3.6,5.4,18.15,18.15,0,0,0,12,5.1c3.3-.3,6.9-.9,9.6-3,3,.6,6,.9,8.7,0a18.8,18.8,0,0,0,8.1-4.8c2.7-2.4,3.9-5.4,4.8-9v.6c0-.3.3-.6.3-1.2a22.37,22.37,0,0,0,1.2-7.8,14.14,14.14,0,0,0,4.5-1.8,15.83,15.83,0,0,0,5.7-5.1,19,19,0,0,0,3.6-6.9,19.6,19.6,0,0,0,0-10.2,17.11,17.11,0,0,0-3.3-6.6,16.07,16.07,0,0,0-4.5-4.5c8.4-.6,15.9-6.9,15.9-15.6Z"
    />
    <path
      id="SvgjsPath4838"
      class="male hair-outline"
      d="M153.3,125.7c-6.3-1.5-9.3-5.4-10.5-11.7-.9-5.4-.6-16.5,7.5-15.9a1.05,1.05,0,1,0,0-2.1c-16.2-1.8-14.1,33.6,2.4,32.1C154.2,127.8,154.8,126,153.3,125.7Zm17.4,23.1c-5.4,4.5-13.5,3.9-17.1-2.7-3.6-6.3-.3-13.8,5.4-17.7a.75.75,0,1,0-.9-1.2c-8.4,4.2-12.3,14.1-6.3,22.2,4.8,6.6,15,7.2,19.8.3.9-.9-.3-1.5-.9-.9ZM221.1,105c-.3-.6-1.2-.6-1.2,0,.9,9-2.7,18.6-12,21.3-11.1,3-21.3-5.7-19.5-17.1.3-1.5-2.1-2.1-2.4-.6-2.1,11.7,7.2,22.5,19.5,21A18.88,18.88,0,0,0,221.1,105Zm-9.3,48a.94.94,0,0,0-1.8,0c-.6,2.7-.9,5.7-3.6,7.2s-6,.9-7.5-1.8c-.6-1.2-2.7,0-2.1,1.2,4.5,8.1,17.7,2.1,15-6.6Zm-84.3,31.2c-11.1-8.4-12.3-21.6-3.3-31.8,1.2-1.5-.6-3.6-2.1-2.1-10.8,10.5-10.5,25.2-.6,34.8-6.9,2.7-11.4,11.1-12.6,18.3-1.5,11.1,4.2,19.8,13.8,24.3.9.6,1.8-.9.9-1.5-7.8-6-11.1-12.3-9.9-22.2.9-6,4.2-16.2,12.6-15.6,2.4,0,2.7-3,1.2-4.2Zm26.1,75.3c-5.4,3.3-11.7,6-18.3,4.2a13.74,13.74,0,0,1-10.5-15c0-1.5-2.4-1.8-2.4-.3-3.3,18.9,21.3,24.6,32.4,12.6C155.4,260.1,154.5,258.9,153.6,259.5Zm26.1-72a.92.92,0,0,0-.3,1.8c7.8,3,13.2,8.7,13.5,17.4.3,8.1-3.3,16.5-11.7,18.6-1.2.3-.9,2.4.3,2.4C202.5,227.1,200.4,188.4,179.7,187.5ZM105,263.7c-5.7-1.2-10.8-5.1-10.5-11.7.3-5.7,4.8-9,8.7-12.3.9-.6,0-1.8-.9-1.8-7.2,1.2-12.3,9.9-11.4,16.8.9,6.6,7.2,12.9,14.1,11.4,1.2,0,1.2-2.1,0-2.4Zm2.1-95.4c-7.5.3-12.3,1.2-15,9.3a20.22,20.22,0,0,0,2.7,18c-13.2,3.3-10.5,22.8,2.4,27,1.2.3,2.1-1.5.9-2.1a10.06,10.06,0,0,1-5.4-4.5c-4.8-4.8-3-10.5,5.7-17.1a2,2,0,0,0,1.5-3.3,17.55,17.55,0,0,1-4.5-10.8c-.6-4.2.9-6.9,5.1-8.7,4.5-3.9,3.6-3.3,7.5-5.1.9-.6.3-2.7-.9-2.7Zm29.1-74.4c-7.8-3.6-15.9,1.8-18.6,9.3-3.6,9.9.9,21.3,7.8,28.8,1.2,1.2,2.7-.3,2.1-1.8-3-6.6-7.5-12.6-7.2-20.1.3-9,6.6-14.7,15.3-13.5,1.2-.3,1.8-2.1.6-2.7Zm157.2,53.4c-.9-5.1-4.8-9-10.2-8.1-.9,0-.9,1.5,0,1.8,9.6,2.1,6.6,13.2,2.7,19.2-2.7,3.9-6,5.4-10.8,4.2-4.2-1.2-10.5-4.8-9.3-10.2.3-.6-.6-1.2-1.2-1.2a1.17,1.17,0,0,0-1.8-1.2c-2.1,1.5-3.3,3.6-5.4,5.1-3.3,2.1-6.6.6-9-1.5-4.8-3.6-8.1-9.9-6.3-15.9.6-1.5-1.8-2.1-2.4-.6-3,7.8,1.2,15.9,7.8,20.4,5.7,3.9,12.6,2.7,15.9-3-.9,4.5,2.7,8.1,6.9,10.5,5.4,3,10.8,3.9,15.9-.6,4.5-4.8,8.4-12.6,7.2-18.9Zm57.9,15.3c-2.4,5.1-7.2,8.7-13.2,6.9-5.7-1.8-11.1-9-10.5-15,.3-1.2-1.8-1.5-2.4-.6-3.9,7.2,5.1,17.1,11.7,19.5,6.6,2.1,17.1-1.5,16.8-9.9a1.3,1.3,0,0,0-2.4-.9Zm-60.9-60a1.44,1.44,0,0,0-2.7-.6c-1.5,2.4-2.7,4.8-6,5.4-2.4.6-9-2.1-7.5-5.4.6-.9-.9-2.4-1.8-1.5a5.77,5.77,0,0,0-1.2,3.6,1.89,1.89,0,0,0-1.8,0c-6.9,3-15.3,3-19.5-4.5a16.76,16.76,0,0,1,8.4-23.4c1.8-.9,1.2-3.9-.9-3.3-11.1,3.9-17.4,17.4-11.7,28.2,4.5,8.7,18.6,13.8,25.8,5.7l.3-.3c1.2,2.4,4.5,4.5,7.2,5.1,5.1.6,12-3.3,11.4-9ZM249.9,21.3c.6-.3.6-1.8-.3-1.5-6.9.6-11.7,7.8-11.4,14.4A20.22,20.22,0,0,0,228,32.7c-7.5.9-12.6,6.6-15,13.5a24.53,24.53,0,0,0-18.6-6.9c-4.8.3-10.2,2.1-12.6,6.3-1.5,2.7-2.1,6.3.6,8.1.6.3,1.5.3,1.8-.3l.3-.3a1.47,1.47,0,0,0-.9-2.4,8,8,0,0,1,6.3-6.6,17,17,0,0,1,5.4-.9,18.91,18.91,0,0,1,9,2.1c5.7,3,7.8,7.8,11.4,12.9a1.63,1.63,0,0,0,3-.9,15.62,15.62,0,0,0-4.2-9.3l.3-.3c3.3-5.4,6.9-10.5,13.8-11.4,6.3-.6,10.5,2.4,14.7,6.6,1.2,1.5,3.3-.3,2.4-1.8a14.07,14.07,0,0,0-5.4-5.7c.9-6.6,4.2-10.5,9.6-14.1Zm91.2,29.1c-4.8-6.3-12-11.1-20.4-8.4s-11.1,11.7-6,18.6c.9,1.5,3.3,0,2.4-1.5-.6-13.2,4.5-17.4,15-12.3,3,2.1,5.7,4.5,7.2,7.8a2.11,2.11,0,0,0,3.6,0c6-8.7,20.4-8.7,27-1.5,5.1,5.4,5.4,11.1,3.3,17.7-.6,2.1,2.7,3.6,3.6,1.5,11.4-21.9-21.6-38.4-35.7-21.9Zm50.7,81c-6,7.8-7.2,3.9-15.9.3-.6-.3-.9-1.5-1.8-1.2a11.43,11.43,0,0,0-3,.9c-1.2.9-2.7,1.8-3.9,2.7-6.3,3.6-10.5,1.2-12.9-7.2.6-1.5-1.8-2.4-2.4-.6a5.56,5.56,0,0,0-.6,2.1H351c-5.1.9-9.9.9-13.2-3.9a14.88,14.88,0,0,1-2.1-11.7,18.63,18.63,0,0,1,17.4-13.5c1.8,0,1.8-2.7,0-3-11.4-.3-21.6,8.4-21.9,20.1,0,9.3,10.2,21.3,19.8,15.3a8.59,8.59,0,0,0,4.8,6.3c6.3,3.6,10.2-.9,15.9-2.7a1,1,0,0,0,.6-.3l1.2,1.2c.9.6,1.5,1.5,2.4,2.1a12.33,12.33,0,0,0,7.8,2.7,11.24,11.24,0,0,0,10.5-8.4c.9-1.8-1.2-2.4-2.4-1.2ZM428.4,186c-5.7,0-11.7-.6-14.1-6.9-2.1-6,1.5-15.6,9.3-13.5,1.2.3,2.1-1.5.9-2.1-8.7-3.9-15.6,5.7-14.7,13.8.9,8.4,11.1,16.5,19.2,11.4,1.5-.6.9-2.4-.6-2.7Zm-7.8,38.7c-4.8-.9-9.6-1.2-12.6-6.3-4.5-7.5,1.5-14.7,8.7-16.5,2.1-.6,1.8-4.2-.6-3.9-9.3.9-12.6-7.8-10.2-15.6.6-1.8-2.1-2.4-2.7-.6-3,7.5-.6,15.9,5.7,18.9-12.6,8.7-4.2,33.3,12,26.4C422.1,226.8,421.8,225,420.6,224.7Zm2.1,24c-2.7-1.5-5.4-2.1-7.2-5.1-2.1-3.3-1.5-7.2.6-10.5.6-1.2-.9-2.4-1.8-1.5a13.58,13.58,0,0,0-2.4,12.6c1.5,3.6,5.7,7.8,9.9,7.2C423.3,251.1,424.2,249.6,422.7,248.7Zm71.1-13.5c-5.1,3.9-12.3,12-19.2,6.6-1.5-1.2-4.2-.6-4.2,1.8-.3,5.7-5.4,8.1-10.5,7.5-5.7-.6-9-4.5-9-10.8a1.2,1.2,0,0,0-2.4,0c-.6,7.2,3.3,14.1,10.8,15.3,7.2,1.2,11.7-3.3,14.7-8.7,8.4,4.2,17.4-2.1,21.6-10.2.6-.6-.6-2.1-1.8-1.5Zm-2.1-60.9c-2.4-6.6-10.2-8.7-16.2-7.2a1.25,1.25,0,0,0,0,2.4c4.8,1.2,10.2,0,12.9,5.1,2.1,4.2,2.4,13.2-1.8,15.9-1.2.9,0,3,1.2,2.1,5.7-3.3,6-12.6,3.9-18.3Zm-37.2-63.9a12.71,12.71,0,0,0-3.9-15.6c-6.9-5.4-17.4-4.5-24.3.3-1.5,1.2-.6,3.9,1.5,3.3,3.6-.9,6.6-2.4,10.5-2.7,6.3-.3,19.8,4.5,11.7,15a2.21,2.21,0,0,0,2.1,3.6c14.7-2.1,12,20.7,0,23.4-1.2.3-.9,2.4.3,2.4,15.6-2.1,17.4-27,2.1-29.7ZM423.3,49.8a18.55,18.55,0,0,0-9.6-11.1c-8.7-4.2-19.5,1.8-18.6,12,.3,1.5,2.4,1.5,2.4,0,.3-9.6,11.7-11.4,17.7-5.7a16,16,0,0,1,4.5,10.2c.3,3-.6,5.7.3,8.7.3.9,1.8,1.5,2.4.6,3.3-3.6,2.4-10.2.9-14.7ZM279.6,30.6c-9.3,0-16.8,9.3-18.3,18a1.64,1.64,0,0,0,3,1.2c3-4.2,4.5-9.6,9-12.6,5.4-3.6,15.9-1.8,13.2,6.6-.6,1.5,2.1,2.7,2.7,1.2,3.3-7.2-2.1-14.4-9.6-14.4Z"
    />
    <path
      id="SvgjsPath4839"
      class="male hair-details"
      d="M216.3,104.1c0-1.2-1.8-2.1-2.4-.6-2.1,4.5-6,9.6-11.7,8.4s-8.7-8.4-6.3-13.5c.6-1.5-1.5-3-2.4-1.5-3.9,6.6-.6,16.2,6.9,18.6C207,117.3,216.9,111.9,216.3,104.1ZM194.7,91.2c-2.4,1.5-5.4-.6-6-3-.6-3,.6-5.7.9-8.4,0-.6-1.2-1.2-1.5-.6-2.7,3.3-3.9,9-.9,12.9a6.16,6.16,0,0,0,9.3,1.2C197.1,92.1,195.9,90.3,194.7,91.2ZM441.3,79.5c0-3.9-.6-7.5-4.8-9.3-4.8-2.1-9.3,1.5-12.9,4.5-.9.6.3,2.4,1.2,1.5,1.5-1.2,4.2-3.6,6-3.6a68.63,68.63,0,0,1,6.9,3,14.92,14.92,0,0,1-.3,6.3c-.3,1.8,1.2,3,2.7,2.1,7.8-3.9,15.6,1.5,15.3,10.2-.3,2.7,3.9,2.7,3.9,0,.9-10.8-8.4-17.7-18-14.7ZM437.4,102c-5.4-3.6-12-1.5-15.6,3.6-.6.9.9,2.1,1.5,1.2,3-3.6,8.4-5.1,12.3-2.1,5.1,3.6,3.6,9.3,2.4,14.4-.3,1.2,1.2,1.5,1.8.6,4.2-5.7,3.9-13.8-2.4-17.7Zm1.5,29.7c-1.2,0-1.5,2.1-.3,2.1,6.9.9,11.4,8.7,9.3,15.3-2.4,6.6-8.7,8.4-14.7,9.9a1.46,1.46,0,0,0,0,2.7c8.4,1.5,17.7-5.4,18.6-14.1A14.13,14.13,0,0,0,438.9,131.7Zm26.7,16.5c-1.5-.6-3,1.2-1.8,2.4,7.8,8.1-.6,16.5-8.1,20.4-1.8.9-1.5,4.2.6,4.8,9.6,2.1-.6,32.7-14.4,18.6-1.2-1.2-2.7.6-1.8,1.8,12,14.7,32.1-9.6,21-22.5,8.7-6,17.7-19.2,4.5-25.5ZM396,114.6c-4.5,6.6-16.5,15.6-19.2,2.1a2.08,2.08,0,0,0-3.3-1.2c-7.5,5.1-19.8-8.1-10.2-13.5.9-.6.3-2.4-.9-1.8-13.5,4.8-1.8,21.9,9.9,20.1.9,5.1,5.4,8.7,10.8,9,7.8.6,13.8-6.3,15.3-13.5C399,114.3,396.9,113.4,396,114.6Zm-60.6-51c-8.1-9.6-26.1-7.8-24.9,7.5.3,1.8,2.4,2.1,3,.3,2.1-9,8.7-10.2,20.4-2.7.6,1.5,3.6,2.1,3.9,0,2.4-15.3,24-7.5,26.1,3.3.3,2.1,3.3,1.2,3-.9C364.8,57.3,341.7,50.7,335.4,63.6Zm22.2-28.5c-5.4-8.4-15-16.8-24.3-10.5-5.4-8.1-19.8-.9-23.4,6a1.3,1.3,0,0,0,2.1,1.5c2.4-2.7,15.6-13.2,18.9-4.2a2,2,0,0,0,3.3.9l9.3-2.7a12,12,0,0,1,5.7,3.3,46.58,46.58,0,0,1,6.3,6.9,1.21,1.21,0,1,0,2.1-1.2ZM303,90.9a60,60,0,0,1-6.3,3c-.6.3-16.5,3.9-11.1-3.9.9-1.5-.9-2.7-2.1-2.1l-.3.3h-.3c-9.6,7.5-21-2.4-17.4-13.2.6-1.5-1.5-1.8-2.1-.6C258.3,87,270,96.9,280.8,92.7a6.07,6.07,0,0,0,3.6,5.4c6.6,3.6,15.3-.6,19.5-5.7,1.2-.6,0-2.1-.9-1.5Zm11.4,47.4c-2.7.6-4.8,1.5-7.5.3a8.42,8.42,0,0,1-4.8-6.9,1.2,1.2,0,0,0-2.4,0c0,3.9,1.8,7.8,5.4,9.6,3,1.5,8.1,2.1,10.8-.9C316.8,139.5,315.9,138,314.4,138.3ZM469.5,277.2c0-3.6-5.4-1.8-3.6.9,1.5,2.4-.6,6-2.7,7.2-2.1,1.5-5.1,1.5-7.5.9-5.1-1.5-7.8-6.3-9.3-11.1-.3-1.2-2.7-1.2-2.4.3.9,7.5,6,14.7,14.4,14.7a11.54,11.54,0,0,0,8.7-3.6c2.4-2.7,2.4-5.7,2.4-9.3Zm13.8-64.5c-3.3-3.9-9-3.9-12,.3-.6.9.9,2.4,1.8,1.2,3-3.9,8.1-1.5,9.3,2.7s-1.2,7.2-2.7,10.8c-.6,1.2,1.5,2.4,2.4,1.2,3.9-3.9,4.8-11.7,1.2-16.2Zm-351.3,0c-4.2-.9-8.4-2.1-9.9-6.6-1.5-4.8,1.2-9.6,5.4-11.7,1.2-.6.3-3-.9-2.4-5.7,2.1-9.6,8.1-8.1,14.4,1.2,5.7,7.5,10.8,13.5,9C133.2,215.1,133.5,213,132,212.7Zm36-24.9c-2.4-2.4-5.4,2.1-2.7,3.3,8.7,3.9,17.4,20.1,8.7,27.9a1.27,1.27,0,0,0,1.8,1.8c11.7-9.9-.3-25.2-7.8-33Zm54-23.7c-1.5-1.5-4.2.6-3,2.4,5.1,7.8-4.8,12.6-10.8,7.8-1.2-.9-3.6-.6-3.3,1.5.9,11.1-11.4,11.1-18,6.9a1.3,1.3,0,0,0-1.5,2.1c8.1,6.9,21.3,5.1,23.1-5.4C218.1,183.9,230.7,173.7,222,164.1Zm11.4-30.3c-1.8-6-8.1-5.1-12.3-3-.9.6-.3,2.1.6,1.8,1.8-.6,3.9-1.8,6-.9,2.1.6,3,3,2.4,5.1-.6,3.6-4.2,4.8-5.7,7.8a1.43,1.43,0,0,0,1.5,2.1C230.7,145.2,234.6,138.6,233.4,133.8Zm152.1,19.8c-2.4.9-4.8,2.4-7.5,3s-9.9,1.5-9-3.6c.3-1.8-2.4-2.7-3-.9-1.2,4.5,2.1,8.1,6.6,9,5.1.9,11.1-1.2,14.1-5.4C387.6,154.5,386.7,153.3,385.5,153.6Zm21.9-83.1c-4.5-2.1-9.9.3-10.5,5.4-.3,1.5,2.1,1.8,2.4.3.9-4.8,6.3-3.9,8.4-.6s.9,6.6,1.5,10.2a1.62,1.62,0,0,0,3,.3C414.9,81,412.5,73.2,407.4,70.5ZM420.9,138c-1.8,1.8-2.7,4.2-4.8,5.7-2.4,1.5-7.2.3-6.3-3.3.6-1.8-2.4-2.7-3-.9-1.5,4.5,2.7,8.7,6.9,8.7,4.5,0,9.6-4.5,9.6-9.3.3-1.2-1.5-1.8-2.4-.9Zm22.5,117.9c-3,.3-5.7,1.2-8.4-.6a7.74,7.74,0,0,1-3-8.1c.3-1.8-2.4-2.7-3-.9a10.79,10.79,0,0,0,3.3,11.4c3,2.7,9,3.6,12.3.6.6-.6.3-2.7-1.2-2.4ZM246,49.8c-1.8-6-9.6-8.4-15.3-6.3a12.19,12.19,0,0,0-6.9,15,1.43,1.43,0,1,0,2.7-.9c-.9-4.5,1.5-9.9,6.3-11.1,4.5-1.2,8.1,1.5,11.1,4.5a1.26,1.26,0,0,0,2.1-1.2Z"
    />
  </g>
</svg>
