<?xml-stylesheet type="text/css" href="../../../../male-colors.css" ?>
<svg
  width="70"
  height="70"
  id="Layer_1"
  data-name="Layer 1"
  xmlns="http://www.w3.org/2000/svg"
  viewBox="0 0 600 600"
>
  <g id="svga-group-hair-back-move"></g>
  <g id="svga-group-hair-front">
    <path
      id="SvgjsPath5397"
      class="male hair"
      d="M178.17,290.19s2.83-67.1,4.72-80c1.58-13.23,7.88-49.14,20.16-58.91s22.37-18.9,53.24-12.6,35.91,12.6,58.27,7.56a337.9,337.9,0,0,0,35.6-9.76s17.64,3.46,29.3,6.3c11.34,2.83,20.47,14.17,28.66,34.33,7.88,20.16,17.64,59.54,15.44,87.57s2.83,23.94,2.83,23.94l10.4-23s9.76-18.27,5-33.08c0,0,2.2-13.23,1.89-20.16s-5.67-16.69-5.67-16.69,2.2-21.74,0-29.3S434,156,434,156s1.89-13.23-4.09-23-17-18.9-17-18.9S398,76.3,384.81,70s-18.9-16.06-35.59-18.9-36.54,1.58-36.54,1.58-7.88-6.3-25.83-.63c0,0-12.6-5-32.77,2.83S226.68,75,226.68,75,206.52,82,200.85,91.74c0,0-25.83,12.6-32.76,34.33s-2.84,33.71-2.84,33.71-7.87,18.27-2.2,36.22c0,0-9.77,10.4-2.84,35.6,0,0-5.67,12,1.58,29.61,7.24,18,6.61,28.35,16.38,29Z"
    />
    <path
      id="SvgjsPath5398"
      class="male hair-outline"
      d="M439.94,193.8c2.2-13.23.63-27.41-4.1-38.43a.68.68,0,0,0-.63-.63,42.56,42.56,0,0,0-.63-12.6c-2.52-12.92-11.34-21.11-21.1-29.3a.31.31,0,0,1-.32-.31A97.42,97.42,0,0,0,392.37,75c-19.85-22.36-55.13-36.85-82.53-18.9-.63.63-.32,1.89.63,1.58,31.18-12.6,62.68-.63,82.53,25.83,16.38,21.73,19.53,46,17.64,72.45-.32,1.89,2.83,2.2,3.47.63a74.5,74.5,0,0,0,.31-38.12c4.73,5.36,10.4,10.08,13.55,16.38,8.5,17,.31,36.23-9.77,50.4-1.26,1.58,1.58,3.15,2.52,1.58,6-8.19,11-17.33,13.23-27.09,1.89,10.71,3.15,20.79,1.26,31.81-1.89,10.71-6.93,19.85-11.34,29.93a1.36,1.36,0,0,0,2.2,1.57c5.68-6,9.45-13.86,12-22.68,1.25,6.3,2.2,12.29,1.25,18.9-.63,6.93-3.78,12.92-4.72,19.53,0,.95,1.26,1.58,1.89.95a18.51,18.51,0,0,0,3.47-4.73c0,10.71-2.21,20.16-6,30.24-1.57,4.1-5.35,15.12-9.45,20.79,2.21-32.76-.94-69.3-11-100.17-5.36-16.38-14.81-34.33-29.93-42.52a39.28,39.28,0,0,0,6-.63,1.64,1.64,0,0,0,0-3.15C371,136.15,353,134,336.61,123.24c-21.42-14.18-35.91-40.32-29.29-66.15a1.3,1.3,0,0,0-2.52-.63c-12.29,30.87,10.39,63,39.69,78.12-6.62,2.2-13.55,4.09-20.16,5.67-26.78,0-55.44-8.19-63.32-37.49-8.82-32.13,20.16-56.7,50.72-50.08,1.26.31,1.89-1.58.63-1.89a38.46,38.46,0,0,0-27.09-.95C265.11,47.32,244,53,229.83,67.8h-.63C217.86,74.41,206.52,81,198.33,90.48c-23.94,10.39-45.05,43.15-36.86,68.67A73.76,73.76,0,0,0,159,193.48c-4.72,9.45-6.61,25.52-2.52,37.17C152,244.51,158,260,163.36,272.86c3.78,8.82,3.15,16.38,12.6,20.16.63.32,1.26.32,1.58-.31a3,3,0,0,0,2.52-2.52c.31-35.91,2.52-71.82,11.34-106.47,3.78-15.12,8.82-32.45,23.31-40.32,16.38-9.14,37.8-3.78,54.81.63h.31c25.2,11,57.33,7.24,80.64-6.62a83.55,83.55,0,0,0,23.94,6c24.89,9.13,34.34,40.63,38.43,64.89,5.05,27.72,7.56,54.81,5.68,82.84-.32,2.52,2.83,2.84,4.09,1.58,8.19-4.1,7.88-11.34,11.34-19.85,5.67-12.91,11-28.66,6.93-42.21,5.67-11.34,3.78-27.4-.94-36.85ZM193.6,161.35c-16.69,38.12-17.64,85.05-17.95,126-4.41-5-8.51-17.32-10.4-22.05-3.78-10.08-6.3-19.53-6-30.24a18.25,18.25,0,0,0,3.46,4.73c.63.63,2.21.31,1.89-.95-.94-6.61-4.09-12.91-4.72-19.53a54.47,54.47,0,0,1,1.57-18.9c2.21,8.51,6.3,16.7,12,22.68a1.37,1.37,0,0,0,2.21-1.57c-4.41-10.08-9.45-18.9-11.34-29.93-1.58-9.13-.95-18,.31-27.09a40.73,40.73,0,0,0,9.45,11.66c1.26.94,3.47-.32,2.52-1.89-20.16-28.35-7.24-59.85,18.59-77.81a40.19,40.19,0,0,0-4.41,10.71c-3.47,13.23,2.2,29.93,15.75,35,1.26.63,2.2-1.26,1.26-2.21-13.55-13.86-18.27-30.24-5-47.25.63-.63.94-1.26,1.57-1.57.32,0,.32-.32.63-.32.32-.31.63-.63.63-.94,5.36-5.36,12.29-8.82,18.59-13.23-11,18.27-8.82,42.21,9.13,54.81,1,.63,2.21-1,1.26-1.58-15.75-15.75-17.64-38.11-3.78-55.75a51,51,0,0,1,16.38-13.55c-17,16.38-15.12,48.2-.63,65.84a55.24,55.24,0,0,0,11.66,11c-25.2-6.93-52.61-3.15-64.58,23.94Zm66.15-29.92c-25.51-19.22-27.4-57-.94-75.6a98.34,98.34,0,0,1,21.42-3.47c-16.07,7.88-27.41,25.83-25.52,45.05,2.84,25.83,23.94,42.52,47.57,46.93C287.79,145,273.3,141.82,259.75,131.43Z"
    />
    <path
      id="SvgjsPath5399"
      class="male hair-details"
      d="M388,129.22c-17.32,0-32.44-7.56-43.78-20.16C333.47,97.41,316.45,76.3,323.7,59.29c.63-1.26-.95-2.2-1.57-.94-8.83,16.38,4.72,34.65,14.8,47.25,12.6,15.75,30.24,27.72,51,25.51a1,1,0,0,0,0-1.89Zm-72.13-7.56c-15.44-15.12-32.13-33.39-22.06-57,.63-1.26-.94-2.21-1.57-1-12,23,4.1,46,22.68,59.22C315.51,123.55,316.45,122.29,315.83,121.66Zm-1.27,6.62c-19.84-13.23-39.06-29-38.74-54.81a.79.79,0,0,0-1.58,0c-1.26,25.83,17.33,46,39.69,56.07.63,0,1.26-.63.63-1.26Zm6.31,2.52c-18.27-1-34-7.25-46-21.42-.62-.63-1.89.31-1.26,1.26,11.34,13.86,29,23,46.94,22,1.26-.32,1.26-1.58.32-1.89Zm-54.82-6.62c-16.38-16.38-24.57-39.37-6.93-58.59.95-1.26-.63-2.83-1.57-1.57C238,81.66,244,112.53,264.48,127c1.26.63,2.83-1.58,1.57-2.84ZM239,120.4c-9.45-12.6-12.28-28-5.67-42.52.63-.95-.94-1.89-1.57-.95-7.56,14.49-6,32.76,6,44.42.63.63,1.58,0,1.26-.95Zm-27.4-26.14c.31-1-.95-1.26-1.26-.32-2.21,8.19-2.52,17.64,1.26,25.2.31,1,1.89.32,1.57-.63C210.93,110.32,209.67,102.76,211.56,94.26Zm0,32.13c-2.52-3.15-5-6-6.62-9.77-.31-.63-1.26,0-.94.32,1.57,3.78,3.78,7.56,7.24,10.08C211.24,127.33,211.87,126.7,211.56,126.39ZM186,148.75c-6.61-12.28-7.56-23.31-3.78-36.54.32-1.26-1.57-1.89-1.89-.63-4.09,12-6,28.67,4.1,38.43C185.1,151.27,186.67,150,186,148.75Zm-6.3,11.34c-4.72-7.87-7.56-15.12-6.93-24.25,0-.63-.94-.63-1.26,0-.94,8.82.63,18.58,6.93,25.2C179.43,161.67,180.37,161,179.74,160.09Zm-6.93,47.57c-3.78-10.4-6.3-20.16-5.35-31.82,0-.63-1-.94-1.26,0-1.58,11-.95,23,4.72,32.76.63.63,2.21,0,1.89-.94Zm-11.34,8.5c-.31-.63-.94,0-.94.32,1.26,3.46,2.2,6.93,4.09,10.08.32.63,1.26.31.95-.32C164.94,222.78,163.05,219.31,161.47,216.16Zm264-70.56c-.63-4.72-.95-14.17-6.93-14.49a.81.81,0,0,0-.32,1.58c5,2.52,4.73,16.38,4.73,20.79a61.27,61.27,0,0,1-4.1,18.58c-.31.95,1.26,1.58,1.89.63A49.62,49.62,0,0,0,425.45,145.6Zm7.24,30.56c-.31-1.26-1.89-.63-1.89.63,1.89,9.76-.94,18.27-6,26.46-.63.94.63,1.89,1.57,1.26,6.93-7.56,8.82-18.9,6.3-28.35ZM436.47,213a.79.79,0,0,0-1.57,0c.63,5.67-.32,11-1.58,16.38,0,.63.63,1,.95.32,2.52-5,2.83-11,2.2-16.7ZM365,65.59c-1-.31-1.26,1-.32,1.26,22.68,9.45,35.91,42.53,42.84,64,.32.94,1.58.63,1.26-.32C403.4,107.8,388.28,74.41,365,65.59Z"
    />
  </g>
</svg>
