<?xml-stylesheet type="text/css" href="../../../male-colors.css" ?>
<svg
  width="70"
  height="70"
  id="Layer_1"
  data-name="Layer 1"
  xmlns="http://www.w3.org/2000/svg"
  viewBox="0 0 600 600"
>
  <g id="svga-group-hair-back-move"></g>
  <g id="svga-group-hair-front">
    <path
      id="SvgjsPath7383"
      class="male hair"
      d="M286.5,138.9s-2.7,13.2,12.6,15,23.4,21.3,10.8,28.2c0,0,20.1-3,20.1-28.2,0,0,9.9,20.7,25.2,16.8s19.5,0,19.5,0-9.3,5.1-2.7,20.7,25.5,2.1,25.5,2.1,17.4,17.4,4.2,27.3c0,0,3.3-.6,7.5-4.8,0,0-10.2,16.8-5.4,30.3,4.8,13.2,10.8,9.6,9.3,15.6-1.8,5.7-14.1,8.1-10.8,16.2s13.2,10.8,13.2,15.6,1.2,12-4.8,14.4c0,0,9.9.6,12.6-11.4s0-15-.6-20.7,9.9-19.8,15.9-19.8,21.9-11.1,19.2-20.1-6.6-10.5-9.9-19.8,8.7-19.2,13.2-15.6c0,0-10.8-16.2-20.7-8.1,0,0-3.9-1.2,1.2-8.1,4.8-6.9,2.1-28.2-8.1-31.2s-8.1-13.8-12.6-23.7c-4.2-9.9-19.2-11.1-19.2-11.1s4.2-13.8-6-20.7-22.2,3-26.7-2.4-1.2-11.7-1.2-11.7-9.3.6-10.2,4.5a72.34,72.34,0,0,1-9.3-12.6c-5.1-8.4-22.8-11.7-34.2-3,0,0-4.8-12-17.4-12s-20.1,5.1-22.2,12c0,0,12.6-11.1,19.2,2.4s-17.4,8.7-16.2,1.8c0,0-4.2,8.7-9.9,7.5s-4.2-6.3-9.6-8.1a12.41,12.41,0,0,0-15.3,7.5c-2.7,6.9-13.5,15.6-17.4,9.3S228,82.5,228,82.5s-13.2,3.6-13.2,13.2c0,0-12-4.5-18.6,4.2s-2.1,19.5-7.2,19.5-8.7-6.9-13.2,1.8,1.5,11.4-2.7,13.8-13.2,5.1-13.2,15c0,0-23.4,12-16.5,26.7s16.5,16.2,10.5,23.7-12,0-14.1,8.7,2.7,8.1,0,13.2-10.5,6.9-12.6,3c0,0,3.9,6.3,7.5,7.5,3.9,1.2,14.7-7.5,14.7-7.5s-10.5,7.5-9.9,18-1.2,16.8,6,17.4,12.6-8.1,18-3.6-2.1,3,4.5,13.2,9.3,15,6,20.1.6,11.4,4.8,12.6c0,0-3.3-6.9,0-11.1s8.1-11.4,4.5-20.1-8.7-20.4-4.8-27.9,7.5-13.2,6-20.1-1.5-1.8,0-2.4,7.5,6.3,6,15c0,0,8.1-16.2,5.4-24.3s0-21.3,6-18.6c6,3,15.3,7.2,19.5,1.5s5.4-15,5.4-15,10.8,6.9,1.8,17.4c-9.3,10.5,2.7,23.1,2.7,23.1s-5.4-8.7,0-16.2,16.2-12.6,14.1-20.7a80.51,80.51,0,0,0-4.2-12.6s4.2-12.6,11.4-6.3-2.7,16.2-2.7,16.2,13.2-1.2,16.2-11.1,1.8-11.1,3.9-18.6c2.7-6.9,8.7,3.9,16.5-12.3Z"
    />
    <path
      id="SvgjsPath7384"
      class="male hair-outline"
      d="M313.8,156.6a27.36,27.36,0,0,0-12-4.2c-14.1-2.4-14.1-13.5-7.8-23.4.3-.6-.6-1.2-.9-.9-4.8,5.1-8.1,13.8-4.5,20.7C294,159,321,153,316.8,169.2c-.3.6.9,1.5,1.5.9C321.9,165,318.6,159.9,313.8,156.6ZM272.4,105a24.54,24.54,0,0,0-19.5,1.2c-5.1,2.7-8.1,6.6-14.1,7.8-14.7,3.3-27.3-8.1-19.5-24.3.3-.6-.6-.9-.9-.6-5.7,9.3-4.8,21.9,6.3,26.7,4.8,2.1,12,2.4,16.8.6,4.5-1.5,6.9-5.1,10.8-7.5,6.3-3.6,12.6-3.6,19.5-2.7,1.2.3,1.5-.9.6-1.2Zm-11.7,17.7c-4.8,3-9,6.9-14.7,8.1-4.8.9-9.6-.6-14.1,1.8a13.54,13.54,0,0,0-7.8,13.5c.6,6.3,5.4,12,12,12.3a9.45,9.45,0,0,0,10.2-9.6c0-.3-.6-.6-.9,0-2.4,13.8-21,5.4-18.3-6.3,1.8-8.4,9.6-8.4,16.5-8.4,7.5-.3,13.5-4.5,18.6-9.9C262.5,123.3,261.6,122.1,260.7,122.7Zm96.6-27c-9.6-3-11.4-19.2-23.7-15-3.6,1.2-6.3,4.5-8.7,7.5-5.7,8.1-8.4,15-19.2,17.1a.48.48,0,1,0,.3.9c8.7-.3,13.8-4.5,18.3-11.7,1.8-2.7,3.3-6.6,5.7-8.4,11.7-9,14.1.9,19.2,6.3,2.7,2.7,4.2,3.9,7.8,4.8.9.3,1.2-1.2.3-1.5Zm13.5,69c-6.9-.3-13.2,2.7-20.1,1.5-11.7-1.8-19.5-10.5-19.2-22.5,0-.6-.9-.9-1.2,0-1.8,8.7,1.8,16.5,9.3,21.6a29,29,0,0,0,14.1,4.5c8.7.6,21.3-6.3,26.1,5.1a.64.64,0,0,0,1.2-.3c1.5-6.3-4.2-9.6-10.2-9.9Zm82.8,64.2a21.37,21.37,0,0,0-4.5-6.6c-3.3-3.6-8.1-6.3-4.8-13.5,1.2-3,5.1-5.4,7.2-7.5.6-.6-.3-1.5-.9-1.2-5.4,3-11.4,7.2-10.5,14.4.3,2.7,1.8,4.5,3.6,6.6,5.7,6.9,10.8,12.3,4.8,21.6-.6.9.6,1.8,1.2,1.2,5.1-3.3,6.3-9,3.9-15Zm-18.3-4.5c-.9-7.8-5.7-13.5-12.6-16.5-.6-.3-1.2.6-.6.9,7.2,4.8,12.3,12.9,10.5,21.9-1.5,6.6-6.6,9.3-9.9,14.4-2.4,3.9-2.7,7.8,1.2,10.5a1.1,1.1,0,0,0,1.5-1.5c-3.6-4.8,7.2-14.7,9-19.5a19.26,19.26,0,0,0,.9-10.2ZM358.8,108.9c-4.5,0-10.5,3.9-7.5,8.7.3.3.9.3.9,0,2.1-6.3,8.1-6.9,12.9-3,6,4.8.9,11.1-3.6,13.8-7.2,4.5-15,3.9-21.9-1.2-.9-.6-1.5.6-.9,1.2,8.1,9.9,32.4,5.4,32.1-9.3C370.8,113.1,364.5,108.9,358.8,108.9Zm-123,83.7a11.15,11.15,0,0,0-1.5-6.9c-1.8-3.6-9-9-8.7-12a.64.64,0,0,0-1.2-.3c-.9,2.7-.6,3.9.9,6,2.4,3.9,5.7,3.3,7.5,9,1.5,5.4-2.1,8.7-4.5,12.9-2.7,5.1-4.8,10.8.6,15,.6.6,1.8-.3,1.2-.9C224.1,206.4,235.2,201,235.8,192.6Zm19.8-25.8c-1.8-3.9-6.9-8.1-11.4-6.6-.6.3-.9,1.2-.3,1.5,3.3,1.5,6.6,1.8,8.7,5.4,2.4,3.9,1.5,8.1-.6,11.7-.6.6.6,1.5,1.2.9a11.6,11.6,0,0,0,2.4-12.9Zm-34.8-22.5c0-.6-.9-.9-.9-.3-2.4,6.6.6,12,5.7,16.5,3.3,3,7.2,5.1,10.5,7.8,4.8,3.9,6.3,8.1,7.5,14.1a.85.85,0,0,0,1.5,0C248.7,163.8,218.4,162.9,220.8,144.3Zm-.6,49.2c-10.2,9-26.4-4.2-28.2-15.3,0-.6-1.2-.6-1.2.3-.3,8.1,6.3,14.4,12.9,18.3,5.4,3.3,14.4,5.1,18-2.1C221.7,193.8,220.8,192.9,220.2,193.5Zm-27,32.7c-1.8-3-5.7-4.8-7.5-7.8a22.89,22.89,0,0,1-2.4-17.7c0-.6-.6-.9-.9-.3-3,7.2-2.4,15,2.7,21.3,4.8,6,6.9,3.6,4.5,15.3-.9,3.9-2.1,5.1.3,9,.3.6,1.8.3,1.5-.6C188.4,238.8,197.1,233.1,193.2,226.2ZM156,191.1c-3.6-5.1-7.2-7.5-8.4-14.1a22.78,22.78,0,0,1,5.1-18.9c.6-.9-.6-2.1-1.2-1.2-4.8,5.4-7.5,12-6.6,19.2a22.19,22.19,0,0,0,2.4,8.7c3,6,10.5,9.6,8.7,17.1,0,.6.6,1.2,1.2.6C160.5,198.9,159,195,156,191.1Zm-11.4,14.1c-3.6,2.1-5.7,4.8-6.3,9-.6,2.4-.3,4.8-.3,6.9,0,5.1-3.3,6.6-7.8,6.3a.9.9,0,0,0-.6,1.5c3.3,2.7,8.1,1.2,10.2-2.4,1.5-2.7.9-5.4.9-8.4,0-4.2.9-9,4.5-11.7.9-.3.3-1.5-.6-1.2Zm14.4,48c-2.4,1.5-6.3,4.2-9.3,3.3-5.7-1.2-5.7-6-6-10.8,0-8.1,2.4-14.7,9.9-18.3.9-.3.3-1.5-.6-1.5-11.7,1.8-14.1,17.1-12.3,26.7,1.8,9.9,15,9.3,19.5,1.8C160.8,253.8,159.6,252.9,159,253.2Zm19.5,46.2c-2.7-6-.3-11.4,0-17.1,0-2.4.3-3.6-.9-5.4-1.2-2.1-3.6-3.3-5.4-4.8-6-4.2-6.3-10.8-5.7-17.7a1,1,0,0,0-1.8-.3c-2.4,8.4-1.5,12.6,3.6,19.2,3.3,4.5,5.4-.6,4.8,12.3,0,1.8-.9,2.7-.9,4.5,0,4.2,2.4,7.2,5.4,9.9.3.3.9,0,.9-.6Zm5.1-153.3c.6-.3,0-1.2-.6-.9-6.6,2.4-16.2,9.6-14.1,17.7.3,1.8,1.8,2.7,2.4,4.2,3.9,8.7,2.4,7.2-1.5,12.9a20.68,20.68,0,0,0-3.9,13.8,1.07,1.07,0,0,0,2.1.3c.9-5.4,3.3-9.6,6.6-14.1,1.8-2.4,3.6-4.8,3.3-8.1-.3-2.4-2.1-3.6-3-5.7-5.1-11.1,2.7-15,8.7-20.1ZM211.2,96c-7.2-2.7-14.1,2.1-16.8,8.7a24.51,24.51,0,0,0-1.5,11.4c.3,2.4.6,4.5.9,6.6,1.2,3.9-.3,7.2-4.8,9.3-1.5-.3-3-.6-4.8-.9-.9-.3-1.5,1.2-.6,1.5,4.8,3.3,11.1,1.8,12.6-4.2.9-4.5-1.5-9.9-1.5-14.4,0-9.6,5.7-17.7,15.9-16.5,1.2,0,1.2-1.2.6-1.5Zm83.1-20.7c-3.6-8.1-14.1-11.1-20.7-5.1-.6.6.3,1.5.9,1.2,5.7-2.7,12.9-2.1,16.2,3.6,3.3,5.4,1.2,13.8-6,14.4-.9,0-.9,1.2-.3,1.5,3.6,1.5,6.9-.3,9-3.6a11.55,11.55,0,0,0,.9-12ZM315,115.5a.64.64,0,0,0-.9.9c3,4.2-1.5,8.7-5.1,9.6a11.55,11.55,0,0,1-10.2-2.4c-5.1-4.2-6-11.4-5.7-17.7,0-.9-1.2-.9-1.5-.3-1.8,9.6,1.8,21.9,12.9,23.1C311.1,129.9,322.2,122.1,315,115.5Zm96.3,39.3a12.42,12.42,0,0,0-9.6-2.1c-4.5.6-7.8,2.1-12.3.9-6.9-1.8-9.9-7.5-10.8-14.4,0-.6-1.2-.9-1.2,0A14.55,14.55,0,0,0,387,156c3.3,1.2,6.3.9,9.6.3s5.7-2.1,9.3-1.2c6.9,1.5,9,9.3,3.9,14.4-1.2.9.6,2.4,1.5,1.5a9.81,9.81,0,0,0,0-16.2Zm-9.9,27.9a1,1,0,0,0-1.8-.3c-2.1,6.9-6.9,13.8-15,13.5-9.6-.3-13.5-9.3-12.6-17.7a.64.64,0,0,0-1.2-.3c-4.2,9,2.4,19.2,11.7,21,9.6,1.8,19.8-6.3,18.9-16.2Zm-.9,10.5a.64.64,0,0,0-.9.9c3.9,5.7,10.5,19.5,1.5,24-.9.3-.3,1.8.6,1.8,4.8-.3,6.3-5.1,6.3-9.3A26.4,26.4,0,0,0,400.5,193.2Zm21.3,65.4c-7.8,2.4-12.6-8.4-14.4-13.8a38.43,38.43,0,0,1-.9-16.5.77.77,0,1,0-1.5-.3,32.59,32.59,0,0,0,2.4,24.3c2.7,5.1,8.7,13.2,15.3,8.7C423.6,259.8,423.3,258,421.8,258.6Zm.3,14.4c-.3-.6-1.2-.6-1.2.3.3,6.9,2.4,13.8.6,20.7-2.1,8.7-9,14.1-18.3,12-1.2-.3-2.1,1.5-.9,2.1,6.6,3.9,14.7.3,18.6-5.7,6-8.4,4.5-20.1,1.2-29.4Zm21-102.9a16.92,16.92,0,0,0-10.8-11.7c-.9-.3-1.2.9-.6,1.5,9,6.3,11.4,15.3,6.3,25.2-1.2,2.4-3.3,6.3-.3,7.8.6.3,1.2,0,1.2-.6V192c0-.3,0-.6-.3-.6-.9-.3,4.2-9.9,4.5-11.4a18.48,18.48,0,0,0,0-9.9Zm-31.5-40.8c-2.4-6.3-10.2-12.6-16.8-7.5-.6.3,0,1.2.6.9,5.4-1.5,10.2,1.2,12.9,6.3,1.8,3.6,1.2,7.5-3,8.7a29.21,29.21,0,0,1-7.2.6c-.9,0-.9,1.2-.3,1.5C405.3,142.8,415.2,138.3,411.6,129.3ZM209.7,162.6c-3.3,6.6-12.3,4.2-14.4-2.1-1.8-5.7,1.8-11.4,6.9-13.5,1.2-.6.3-2.7-.9-2.4-8.7,2.1-12.9,13.8-7.2,21a11.65,11.65,0,0,0,10.8,4.8c3.6-.6,7.2-3,6.6-6.9,0-1.2-1.2-1.8-1.8-.9Z"
    />
    <path
      id="SvgjsPath7385"
      class="male hair-details"
      d="M363.3,157.8c-11.4,7.5-21.9-8.1-24.3-17.4-.3-1.5-2.4-.6-2.1.6,1.2,7.2,4.8,14.1,10.8,18.3,5.1,3.9,11.7,5.1,16.8,0C365.4,158.7,364.2,157.2,363.3,157.8Zm3.6-54a1.21,1.21,0,0,0-1.2,2.1,25.18,25.18,0,0,1,6.9,6.9c.3.3.3.9.6,1.2-5.1-7.8-15.9-13.5-24-3.9a.64.64,0,1,0,.9.9c5.4-4.8,13.5-3.6,18.3,1.2,3.9,3.9,7.8,11.4,2.7,16.2a.91.91,0,0,0,.9,1.5c3.3-1.5,4.5-4.2,4.2-7.5.6.3,1.2,0,1.2-.6,1.5-7.5-4.2-15-10.5-18Zm30,2.7a10,10,0,0,0-11.4-7.2c-.9.3-.6,1.8.3,1.5,4.8-.6,9,3.3,9.3,8.1.3,4.5-2.7,7.5-5.4,10.8-.6.6.3,1.8.9,1.2a12.93,12.93,0,0,0,6.3-14.4ZM412.8,129a.67.67,0,0,0-.6,1.2c3.3,2.1,5.1,6,5.4,9.9,0,3.3-1.5,6.3-1.8,9.6a1,1,0,0,0,1.8.6c4.5-6.3,3-17.7-4.8-21.3Zm-14.1,29.4c-3.6-.6-7.2.6-10.5,0-3.9-.9-7.2-3.9-9.6-6.9a.64.64,0,1,0-.9.9c2.4,3.3,4.8,6.3,8.7,7.8,5.4,2.1,15.6-2.1,17.7,5.4a.77.77,0,0,0,1.5-.3c0-3.9-3.6-6.3-6.9-6.9Zm-.9,22.2c-3.6,3.9-7.8,8.1-13.5,8.4a10.8,10.8,0,0,1-11.4-8.7c0-.6-1.2-.6-1.2,0a11.26,11.26,0,0,0,9.9,10.8c7.2,1.2,14.1-3.9,17.1-9.9.6-.3-.3-1.2-.9-.6Zm21.6,29.7a.81.81,0,0,0-.6,1.5c20.7,10.8-19.5,36.9.3,49.5.6.6,1.8-.6,1.2-1.2-9.3-12.9,5.4-22.5,7.2-35.1C428.4,218.1,426,212.4,419.4,210.3Zm23.7-14.4c-6.3,1.8-12,10.5-7.8,16.8a1,1,0,0,0,1.8-.6c-.3-3-.6-5.7.6-8.7a12.29,12.29,0,0,1,6-6.3C444.6,196.8,444,195.6,443.1,195.9Zm-17.4-34.2c-.6-.6-1.2,0-.9.9,3.6,6.9,9,14.4,4.2,22.2-.6.9.9,1.5,1.5.9,5.4-8.1.6-17.7-4.8-24Zm-4.2,3.9c-.6-.3-1.2.3-.6.9a14.23,14.23,0,0,1,5.4,11.1c0,.6.9.6,1.2,0C427.5,172.8,425.4,168,421.5,165.6ZM307.8,120.9c-2.4-.9-4.5-1.8-6.3-3.9a9.67,9.67,0,0,1-2.1-7.5c.3-1.2-1.5-1.8-1.8-.6-1.5,6,2.7,14.4,9.9,13.5.9-.3,1.2-1.2.3-1.5Zm21.9-47.1c-6.9-2.7-14.4,2.4-17.4,8.7-.3.9.9,1.5,1.2.9,3.6-5.7,9.3-7.8,15.6-8.1,1.2,0,1.5-1.2.6-1.5ZM387,113.4c-2.1-4.5-6-9-11.1-10.2-.6,0-.9.6-.3.9,4.5,2.4,8.4,5.1,10.8,9.6C386.7,114.3,387.3,114,387,113.4ZM341.7,90.9c-1.5-3-5.4-3-7.8-.9-1.8,1.8-2.7,4.5-3.9,6.6-1.8,3-3.6,5.7-5.7,8.7-.6.6.6,1.5,1.2.9a35.48,35.48,0,0,0,6.6-8.4,27.43,27.43,0,0,0,2.1-4.2c.9-1.8,4.5-6.3,6.6-2.4.3.9.9.3.9-.3Zm-28.5,60c-3.6-1.5-7.5-1.8-10.5-4.2a11.89,11.89,0,0,1-4.2-12.6.77.77,0,1,0-1.5-.3c-1.8,4.8-1.2,10.2,2.7,14.1,5.7,5.7,17.4,3.6,20.1,12.6.3.6,1.2.6,1.2-.3,0-4.5-3.6-7.5-7.8-9.3ZM285,129c-1.8,9-13.8,9.6-19.2,15.9-.3.6,0,1.2.6.9,6.9-4.8,18-6.6,19.8-16.2,0-.9-1.2-1.5-1.2-.6Zm-29.4,18c-3-1.2-5.7-2.1-8.7-3-1.2-.3-3.6-.9-4.2-1.8,0-.9-.3-2.1-.3-3a3,3,0,0,1,1.2-1.5l1.5-1.5a.64.64,0,1,0-.9-.9c-2.4,1.8-6.3,5.4-3.3,8.7,1.2,1.5,3.6,2.1,5.1,2.7a48.83,48.83,0,0,0,9,2.1c1.2-.3,1.5-1.5.6-1.8Zm8.4,11.4c-.3-.6-1.2-.6-1.2,0-.3,5.1-.3,9.6-2.4,14.4-.3.9.9,1.5,1.2.6C263.7,169.2,265.2,163.5,264,158.4Zm-43.2-.9a1.09,1.09,0,1,0-2.1.6c3.3,13.2,23.4,17.7,21.3,32.4a.77.77,0,0,0,1.5.3C246.3,175.5,224.4,169.8,220.8,157.5Zm1.5,24.3a.64.64,0,0,0-1.2.3c0,5.4-3.6,11.1-9.6,10.8a.64.64,0,0,0-.3,1.2,9.9,9.9,0,0,0,9-3C222.3,188.4,223.8,184.8,222.3,181.8Zm-12,1.5c-6,1.5-11.4,1.2-17.1-2.1-.6-.3-1.2.6-.6.9,4.8,4.5,12.6,6,18.3,2.7a.81.81,0,0,0-.6-1.5Zm42.6-70.8c-8.7,5.7-18.3,7.8-28.2,3.9-.9-.3-1.5,1.2-.6,1.5,9.9,4.5,21.9,3.3,29.7-4.5C254.4,113.1,253.8,112.2,252.9,112.5Zm-1.8-12.6c-4.2,1.8-8.4,2.4-12.6,0-.9-.6-1.8.9-.9,1.5,4.2,2.7,10.2,3.3,14.4-.3C252.3,100.5,251.7,99.6,251.1,99.9Zm111,53.7c-7.5-1.5-14.4-4.8-18.3-12-.3-.6-1.2-.3-1.2.6,3,7.5,10.5,14.1,19.2,12.9C362.4,154.8,362.7,153.6,362.1,153.6Zm2.7-6.9a11.12,11.12,0,0,1-4.2,1.2,5.13,5.13,0,0,1-3.9-2.1c-.6-.6-1.8.3-1.2.9,2.4,3,8.1,4.5,10.5.6a.89.89,0,0,0-1.2-.6Zm58.5,26.4c-.6-.9-1.8,0-1.5.9a61,61,0,0,1,3.6,13.2c0,.6,1.2.6,1.5,0C427.8,182.1,426,177,423.3,173.1ZM157.5,186c-1.5-2.4-3.6-4.8-4.5-7.2-3.3-7.2-.9-11.1,3-16.2.6-.9-.6-1.8-1.5-1.2-3.9,4.5-7.2,9-5.4,15,.9,3.3,3,6,4.8,8.7a46.29,46.29,0,0,1,6,15,.77.77,0,0,0,1.5-.3A29.11,29.11,0,0,0,157.5,186Zm5.1,62.4c-3,.9-7.5,2.7-9.9-.6-1.5-1.8-1.5-4.8-1.2-6.9.6-5.1,3.6-9.6,6.9-12.9.9-.9-.6-2.4-1.5-1.5-5.4,4.8-9.9,12-8.4,19.5,1.5,7.8,9,8.4,14.7,4.2C163.8,249.6,163.5,248.1,162.6,248.4Zm16.8,20.1c-5.1-3.6-9.9-7.2-7.5-14.1.3-.6-.9-1.2-1.2-.6-1.5,3.6-1.8,7.5,0,10.8,3,5.1,9.6,6,12,11.7.3.6,1.5.6,1.5-.3.3-3.3-2.1-5.4-4.8-7.5Zm15.9-53.4c-.9-3.3-3.3-6.3-4.2-9.6-1.8-5.7-.6-11.4,1.5-17.1.3-.6-.9-1.5-1.5-.9a18.9,18.9,0,0,0-3,18.6c1.8,5.1,5.4,8.7,5.1,14.4-.3,3.9-2.7,7.5-2.7,11.7a.45.45,0,0,0,.9,0c1.2-5.7,5.4-11.1,3.9-17.1Zm130.5-64.2c0-.6-1.2-.6-1.2.3.3,11.4-.6,25.5-13.8,29.1-.9.3-.6,1.5.3,1.2C325.2,179.1,327.9,163.2,325.8,150.9Zm-116.4-1.2c-3.9-1.2-8.4.6-9.6,4.5-1.2,3.6.3,8.4,4.2,9.6a.91.91,0,0,0,.9-1.5c-1.8-1.8-3.3-4.2-2.7-6.9s3.9-4.5,6.6-3.9a1,1,0,1,0,.6-1.8Zm-1.2-49.2c-4.8,5.1-8.7,12.9-7.2,20.1.3.6,1.2.6,1.2,0,.9-7.2,2.1-13.2,7.2-18.6C210,101.1,208.8,99.9,208.2,100.5Z"
    />
  </g>
</svg>
