<?xml-stylesheet type="text/css" href="../../../../female-colors.css" ?>
<svg
                width="70"
                height="70"
                id="Layer_1"
                data-name="Layer 1"
                xmlns="http://www.w3.org/2000/svg"
                viewBox="0 0 600 600"
              >
                <g id="svga-group-hair-back-move"></g>
                <g id="svga-group-hair-front">
                  <path
                    id="SvgjsPath3839"
                    class="female hair"
                    d="M225.3,180.6s28.5,35.7,73.2,43.5,85.5,6,101.1,28.5,13.2,70.8,13.2,70.8,17.7-43.5,18.9-60c1.2-16.8,3-78.3-35.7-115.8s-129-63-177-6c0,0-33.9,1.2-50.4,56.4s16.5,128.4,16.5,128.4S180,276,195.6,249.6c20.1-34.5,26.1-42.9,29.7-69Z"
                  />
                  <path
                    id="SvgjsPath3840"
                    class="female hair-outline"
                    d="M411.6,254.1c-11.4-16.2-31.5-22.2-49.8-26.7-52.5-12.3-121.2-11.1-140.4-73.2-.3-1.2-2.1-.6-1.8.6,7.2,41.7,52.5,59.7,88.8,67.2,43.5,9,125.1,15,107.1,80.7-.3.9,1.2,1.2,1.5.3C423.3,286.8,421.8,268.8,411.6,254.1Zm-42-83.7a154.28,154.28,0,0,0-59.7-18.6c-28.2-3-56.4,3-82.8-10.5a.67.67,0,0,0-.6,1.2c14.7,8.4,31.2,9.9,48,10.2,23.4.3,45.6.6,67.8,8.1,41.7,14.1,78.9,45,81.6,90-11.4-30.6-42.9-44.7-72.6-53.4-41.1-12-93.3-13.2-125.1-45.3-.3-.3-.9,0-.6.6,21.9,27.6,60.3,30.6,92.4,38.4,39.9,9.6,88.2,20.1,105.3,62.1,0,.3.3.3.6.3,0,2.7,0,5.7-.3,8.7,0,.9,1.2.9,1.5.3,9-40.2-23.4-74.4-55.5-92.1ZM405,174c-39.6-54-115.8-66.9-174.6-40.2-.6.3,0,1.5.6,1.2,31.2-14.4,66.6-18,99.9-8.4,29.7,8.4,52.5,26.1,73.2,48.3.6,0,1.2-.3.9-.9ZM218.1,162.6c0-.6-1.2-.9-1.2,0,0,16.5-1.2,32.4-7.2,47.7-4.8,12.6-12,23.7-18.3,35.4-9.6,18.3-15,36.9-12.3,57.6,0,.6,1.2.6,1.2-.3-.9-29.7,10.5-50.1,24-75.6,11.1-20.1,16.8-42,13.8-64.8Zm-9.3-10.2c-38.4,27.6-41.4,81.3-34.5,123.9,0,.6.9.3.9,0-4.5-45.9-1.2-90,34.2-123C209.7,152.7,209.1,152.1,208.8,152.4Zm-.3,20.1c-5.7,17.1-11.4,33.6-18.3,50.4-.3.6.6.9.9.3,8.1-15.6,15-33,18.3-50.4,0-.6-.9-.9-.9-.3Z"
                  />
                  <path
                    id="SvgjsPath3841"
                    class="female hair-details"
                    d="M364.5,221.7c-20.4-10.2-44.1-8.4-65.7-15.3-25.8-8.1-46.5-22.8-66.6-40.2-.6-.3-1.2.3-.6.6,14.7,16.8,34.8,29.4,55.5,37.8,24.9,9.9,52.8,7.8,77.4,18C364.5,222.6,364.8,222,364.5,221.7Zm29.1,1.2c-31.2-24.3-75.9-21.6-113.1-29.4-.6,0-.6.6-.3.6,37.8,12.3,77.4,7.8,112.8,29.4C393.6,223.8,394.2,223.2,393.6,222.9Zm-67.2-48c-32.4-.9-60-8.7-88.8-23.4-.6-.3-1.2.6-.6.9,25.8,17.4,58.2,25.8,89.4,24,1.2,0,1.2-1.5,0-1.5Zm46.5,16.2c-18-16.8-42-21.6-65.7-24.9-.3,0-.6.6,0,.6,23.1,5.4,45.6,9.9,64.8,24.9C372.9,192.3,373.5,191.7,372.9,191.1Zm-12-32.4c-29.4-17.7-68.7-19.8-102.3-21.3a.64.64,0,0,0-.3,1.2c34.8,5.7,69.3,6,101.7,21.3.9,0,1.5-.9.9-1.2Zm-11.1-12a120.62,120.62,0,0,0-69.6-17.4c-.9,0-.9,1.2,0,1.5a171,171,0,0,1,68.7,17.4C349.8,148.2,350.4,147,349.8,146.7Zm-146.7,21a81.34,81.34,0,0,0-21.9,49.8.45.45,0,1,0,.9,0c3-18.6,9.6-34.5,21.6-49.2C204,168,203.4,167.4,203.1,167.7Zm6.9-6A226.82,226.82,0,0,1,197.1,189c-.3.3.3.6.6.3a78.28,78.28,0,0,0,13.2-27.6c-.3-.3-.9-.3-.9,0Zm.6,17.1c-3.6,15-7.5,28.8-15,42.6-5.4,10.2-10.8,19.5-13.2,30.9,0,.3.6.6.6.3,4.2-14.1,12.3-25.5,18.6-38.7,5.4-11.1,7.8-22.5,9.9-34.5,0-.9-.9-1.2-.9-.6Z"
                  />
                </g>
              </svg>