<?xml-stylesheet type="text/css" href="../../../../female-colors.css" ?>
<svg
                width="70"
                height="70"
                id="Layer_1"
                data-name="Layer 1"
                xmlns="http://www.w3.org/2000/svg"
                viewBox="0 0 600 600"
              >
           <g id="svga-group-hair-back-move"></g>
                <g id="svga-group-hair-front">
                  <path
                    id="SvgjsPath3861"
                    class="female hair"
                    d="M487.8,172.2c-.6-8.4-3.9-17.1-9.6-23.1a32.88,32.88,0,0,0-9.3-24.9,38,38,0,0,0-3.9-3.3,40.83,40.83,0,0,0-12-13.8c-8.4-19.5-25.8-36-45.6-27.3-11.7-7.5-30.6-6.9-35.4,7.2-12.6,4.2-22.5,16.5-21.9,29.1-15.9-7.2-36.9-4.5-51.6,4.5-12.9-8.4-30.3-10.8-46.5-7.8a31.69,31.69,0,0,0-11.1-21.3c-2.4-9-9-17.4-18.3-21-12.9-5.4-25.8-3-36.9,3.6-10.5,3.6-19.8,11.7-24,21.6a36.85,36.85,0,0,0-12,6.9,38.63,38.63,0,0,0-4.8,5.1h-.3c-12.9,7.2-21.9,21.6-19.2,36.9a8.76,8.76,0,0,0,.6,2.7c-.3.6-.6,1.5-.9,2.1-9.6,9-16.8,20.1-14.4,33.9,1.2,8.1,6.3,15.3,13.5,18.3.6.9,1.5,1.8,2.1,2.7a15.82,15.82,0,0,0,12,4.8,23.94,23.94,0,0,0,14.7,8.1,20.62,20.62,0,0,0,9.6-.6c-2.4,20.4,1.5,42.3,11.7,56.1a.74.74,0,0,0,1.2.3c2.1,3.9,4.2,7.8,6.6,11.4a40.41,40.41,0,0,1-2.4,9,18.38,18.38,0,0,0-1.2,8.1c.6,8.4,7.2,14.7,8.4,23.1,0,.6,1.2.6,1.2,0,1.8-10.5-6.6-19.2-3.6-29.7,1.2-4.2,2.4-8.1,2.4-11.7,1.2-6,0-13.2-1.8-19.8a1.71,1.71,0,0,0,1.2-2.1c-.3-.6-.3-1.5-.6-2.1.6.6,2.4.6,2.1-.6a87.93,87.93,0,0,0-1.5-8.7v-1.8a2.29,2.29,0,0,0,.6-1.5,46.57,46.57,0,0,0-1.2-6.3,2.25,2.25,0,0,0,1.5.3c.3.3.3.6.6.9.6.9,1.8,0,1.5-.9s-.6-1.5-.9-2.4v-1.8a1.65,1.65,0,0,0,2.4-1.8,16.91,16.91,0,0,0-1.2-3.6,1.25,1.25,0,0,0,1.8-1.5l-.9-3.6a2,2,0,0,0,2.7-2.4l-.9-2.7,1.2,1.2c.9.9,2.4-.6,2.1-1.5,0-.3-.3-.6-.3-1.2,2.1.9,4.2-1.8,3.3-3.9-.6-1.5-1.5-3.3-2.1-4.8.3.3.3.6.6.9.6.9,2.1.3,1.8-.6,0-.3-.3-.6-.3-.9.3.6.9.9,1.2,1.2,1.2,1.2,3.6,0,3.3-1.5a2.65,2.65,0,0,0,3.6-3.6c-.9-2.1-2.1-4.2-3-6.3l3.6,4.5a1.2,1.2,0,0,0,1.2.6,4.14,4.14,0,0,1,.9,1.2c1.2,1.2,3.6-.3,2.4-1.8-1.5-2.1-3-4.2-4.5-6.6-.3-.3-.3-.6-.6-.9.6.6.9,1.5,1.5,2.1a2,2,0,0,0,2.1.6c.9.3,2.4-.9,1.5-2.1-.3-.3-.3-.6-.6-1.2a39.09,39.09,0,0,0,4.5,3c1.5.9,3.9-.9,2.7-2.7a9.12,9.12,0,0,1-1.5-2.1,1.29,1.29,0,0,0,1.2-1.2c.6.3,1.5.6,2.1.9a2.06,2.06,0,0,0,2.1-3.3,19.41,19.41,0,0,0-2.7-2.4,22.86,22.86,0,0,0,6,1.8,1.64,1.64,0,0,0,1.2-3,4.14,4.14,0,0,0-1.2-.9c1.2.3,2.4.6,3.3.9a1.77,1.77,0,0,0,1.2-3.3h.6c.6,0,.9,0,1.2-.3.6.6,1.2.9,1.8,1.5,2.1,1.8,5.4-1.2,3.3-3.3-.3,0-.3-.3-.6-.6.9.9,2.1,1.5,3,2.4,1.2.9,2.7-1.2,1.8-2.4l-1.8-1.8c1.5.3,3,.6,4.2.9h.6a22.22,22.22,0,0,0-7.5,12c-.3.9,1.2,1.5,1.5.6,2.4-4.8,5.4-9,10.2-11.7a21.1,21.1,0,0,1,7.8-2.4h1.5a32,32,0,0,0-10.2,18c-.9,5.7,0,11.1.9,16.5,0,10.2,1.5,21,.6,30a.45.45,0,1,0,.9,0c2.1-6.6,2.4-13.2,2.4-20.1,1.5-6,.6-11.7.6-17.4.9-7.2,3-13.8,8.1-20.1a1,1,0,0,0,.3-.6,22.73,22.73,0,0,1,13.2-5.7,29.22,29.22,0,0,0-4.5,3c-5.4,4.8-8.7,12.6-9.6,20.1-2.4,10.8-2.1,22.5-3.3,32.7a.45.45,0,0,0,.9,0c4.5-11.7,5.1-36,13.5-48,5.4-5.7,12.6-7.2,20.1-5.4h.9c.3,0,.6,0,.6.3h.6c.6.3.9.3,1.5.6a3.54,3.54,0,0,0,4.5.9.74.74,0,0,0,1.2.3c8.4-5.4,23.7-7.5,25.8,6,1.2,7.2-3.9,13.8-2.1,21.3a.85.85,0,0,0,1.5,0c2.1-10.5,10.2-21.9.9-31.2h.3c1.5-.3,3-.6,4.8-.9-.6,1.5.9,3.6,2.7,3,3.3-.6,7.2-1.8,11.1-2.7l-2.7,1.8c-2.4,1.5-.9,6.3,2.1,5.1l10.8-4.5a64.24,64.24,0,0,0-5.7,3.9c-1.8,1.2-.3,3.6,1.8,3,1.2-.6,2.7-1.2,3.9-1.8a2.07,2.07,0,0,0,2.4,1.5c.3,0,.6,0,.6-.3-.6,1.8.6,3.9,2.7,3a42.83,42.83,0,0,0,8.1-4.5c-1.5,1.8-3.3,3.6-4.8,5.4-1.8,1.8.6,4.8,2.7,3.6h.3l-.6.6c-1.5,1.5.6,4.2,2.4,3a29.72,29.72,0,0,0,5.1-3.3c-.3.6-.9,1.2-1.2,1.8-1.2,1.8,1.2,3.3,3,2.1h.3a2.12,2.12,0,0,0,3.6,1.8c1.5-1.5,3.3-3,5.1-4.8-1.5,1.8-3.3,3.9-5.1,5.7-1.5,1.5.6,4.5,2.4,3.3a59.79,59.79,0,0,0,7.2-5.7c-1.8,3.3-3.6,6.3-5.1,9.6a2,2,0,0,0,3,2.4A38.63,38.63,0,0,0,393,207a40.16,40.16,0,0,0-3.9,6.9c-.6,1.5.6,3,2.1,2.1a6.28,6.28,0,0,0,1.8-1.2,2.05,2.05,0,0,0,3.6.9,81.82,81.82,0,0,0,11.7-16.5c.3-.6.6-.9.9-1.5-.9,2.1-1.8,4.5-2.7,6.6a84.22,84.22,0,0,1-11.7,17.4c-1.2,1.5.3,4.5,2.4,3a45.68,45.68,0,0,0,7.8-7.5,75.42,75.42,0,0,1-9.6,13.8,1.92,1.92,0,0,0,2.7,2.7,44.14,44.14,0,0,0,9.3-10.5c-2.1,5.4-4.5,10.5-7.2,15.9-.9,1.5,1.2,3.3,2.4,1.8a79.19,79.19,0,0,0,9-12.6c-2.1,5.1-4.2,9.9-6.6,14.7a1.72,1.72,0,0,0,1.8,2.4c-.6.9-1.2,1.5-1.8,2.4-1.2,1.8,1.2,3.3,2.7,2.1a42.6,42.6,0,0,0,3.9-3.6,49.76,49.76,0,0,0-3.6,9.3c-.6,1.8,1.8,3,3,1.8.3-.3.3-.6.6-.6-1.2,2.4-2.1,4.8-3.3,7.2-.6,1.5.6,2.7,1.8,2.1-.3.9-.3,1.5-.6,2.4s-.9,1.8-1.2,2.7a2.29,2.29,0,0,0,.6,2.7v.6a50.45,50.45,0,0,0-.6,20.1,1,1,0,0,0,.3.6V297a43.51,43.51,0,0,0-.3,16.5c1.8,10.8,6,18.6,3,30-2.1,7.8-4.2,12-1.2,19.8.3.6,1.2.6,1.2-.3-3.3-13.8,7.2-24.3,5.4-37.8-.9-6.9-3.9-13.5-3.6-20.7.3-5.4,1.8-10.2,3.6-15.3,3.6-3.9,6.3-10.2,7.5-15.9,6.3-12,11.4-25.5,12.6-38.7a16.22,16.22,0,0,0,14.4-4.8c3.3-3,5.1-7.2,6-11.7a25,25,0,0,0,3.9-5.4c6.3,3,12.3-1.2,16.2-7.2,10.8-5.4,11.7-22.8,10.5-33.3Zm-366.6-3a44.28,44.28,0,0,0-1.5,13.8c-1.5-5.1-.6-10.8,1.5-16.5ZM137.4,132a15.06,15.06,0,0,1,.6-3.6v3C138,131.7,137.7,131.7,137.4,132Zm10.2-17.1c0,.3-.3.3-.3.6a7.52,7.52,0,0,1,1.2-2.1,2.74,2.74,0,0,0-.9,1.5Zm30.3,150.3c-.3-.9-.9-2.1-1.2-3A9,9,0,0,1,177.9,265.2Zm1.8-9.6a6,6,0,0,0,1.2,2.4c.3,1.5.9,2.7,1.2,4.2a58.36,58.36,0,0,1-2.4-6.6Zm6.9-164.4H183a26.26,26.26,0,0,1,4.8-.6,1.56,1.56,0,0,0-1.2.6ZM198.3,81a22.71,22.71,0,0,0-4.5-.3c.9,0,1.8-.3,2.7-.3h1.8Zm30.9,13.5c-.6,0-.9-.3-1.5-.3,0-.3,0-.3-.3-.6Zm-4.8-12.3c-.6,0-1.2-.3-1.8-.3a9.13,9.13,0,0,0-2.4-2.4C221.7,80.4,223.2,81.3,224.4,82.2Zm-6-3.6c-.6,0-.9-.3-1.5-.3l-.3-.3C217.2,78.3,217.8,78.3,218.4,78.6Zm27.9,100.5v-.6a1,1,0,0,0,1.5-.9c.3,0,.3,0,.6.3A7.52,7.52,0,0,0,246.3,179.1Zm30.6-18.9c.6.3.9.6,1.5.6A5.07,5.07,0,0,1,276.9,160.2Zm13.2-30a1,1,0,0,1-.6-.3h.9a.29.29,0,0,1-.3.3Zm35.4-3.3Zm42.6-31.2a25.11,25.11,0,0,0-7.2,4.2,27.66,27.66,0,0,1,9.3-8.4A18.33,18.33,0,0,0,368.1,95.7Zm7.5-1.5a4.14,4.14,0,0,1,.9-1.2C376.2,93.3,375.9,93.9,375.6,94.2Zm16.8-9.9a22.18,22.18,0,0,0-8.7-1.5c-.6,0-1.2.3-2.1.3a15,15,0,0,1,10.2-1.8,17.2,17.2,0,0,1,4.2,1.2A13.36,13.36,0,0,0,392.4,84.3Zm14.1,16.5a24.36,24.36,0,0,0-2.7-3v-.3a.29.29,0,0,1,.3.3,14.22,14.22,0,0,1,3,3c-.3-.3-.6-.3-.6,0ZM411,281.4l-.3.3v-.6C411,281.1,411,281.1,411,281.4Zm9.6-187.2a32.75,32.75,0,0,0-5.1-3.9c2.4,1.2,4.8,2.4,7.2,3.9Zm8.7-5.7c-1.5-.9-3-1.8-4.8-2.7A35.81,35.81,0,0,1,435.3,93,28.53,28.53,0,0,0,429.3,88.5Zm7.8,140.1v-1.8a20.71,20.71,0,0,0,7.5-1.2A9.33,9.33,0,0,1,437.1,228.6Zm25.8-48a121.19,121.19,0,0,0-3.3-13.2c0-.9-.3-1.5-.3-2.4a59.56,59.56,0,0,1,2.7,7.8c0,.9.6,4.2.9,7.8Zm4.8-45.9v-.3c.3.6.6.9.9,1.5C468.3,135.6,468,135,467.7,134.7Z"
                  />
                  <path
                    id="SvgjsPath3862"
                    class="female hair-outline"
                    d="M455.4,212.4c-1.5,5.1-4.8,9.9-10.8,10.5-5.7.9-10.8-2.4-13.2-7.5v-4.2c0-.3,0-.3-.3-.3,5.7,3.9,12.3,5.4,17.4-1.8a.75.75,0,1,0-1.2-.9c-12.3,11.7-28.2-13.8-32.7-21.9-6-10.5-9-21.9-7.8-34.2a1,1,0,0,0-1.8-.3,33.41,33.41,0,0,0-.6,5.1,69.76,69.76,0,0,1-1.2-11.1h2.7a13,13,0,0,0,2.7,6.3c2.4,7.2,7.8,13.2,15,15.3s16.2-.9,16.2-9.6c-.3-13.5-22.2-38.1-34.8-25.5,2.7-9.3,9.6-16.8,21.3-18.6a98.28,98.28,0,0,1,12.6,16.8,117.86,117.86,0,0,1,9,19.8c3.3,9.9,10.2,40.8-13.8,36.3-1.2-.3-1.8,1.5-.6,1.8,22.8,8.1,21.6-23.4,17.7-36.9a95.54,95.54,0,0,0-21.9-38.7c.6-.6.6-1.5-.3-1.8h-1.2a103.38,103.38,0,0,0-19.2-15c-.6-.3-1.2.6-.6.9a134.1,134.1,0,0,1,15.6,13.2c-18.3-1.2-29.7,13.8-29.7,29.4-5.7-2.7-11.1-6.6-14.7-12.6-6-9.3-10.5-30.9,5.7-33a.45.45,0,0,0,0-.9c-14.7,1.2-15.9,17.4-11.7,28.5a35.64,35.64,0,0,0,21,21.6v.3c-21.6-.6-39.3-20.1-32.1-43.5.3-.9-1.2-1.2-1.5-.3a35.83,35.83,0,0,0,7.2,35.7c-6.9-5.4-12.3-12-15.3-21a.81.81,0,1,0-1.5.6c.3,1.2.6,2.1.9,3.3-6.9-4.2-15.9-5.7-23.7-2.7-.9.3-.9,2.1.3,2.1,8.4-1.2,15.6-.9,23.4,3.3a.56.56,0,0,0,.9,0c.6,1.2.9,2.1,1.5,3.3-11.7-4.5-25.8-4.5-37.2.9-1.2.6-.3,2.4.9,2.1,12.6-3.3,23.4-4.2,36-.9.6,0,.9,0,.9-.3a42.13,42.13,0,0,0,7.8,9.9c-2.1-.3-4.8-.9-6.6-.3-.9.3-.6,1.5,0,1.8,1.2.3,2.4.3,3.6.6h3.9a.65.65,0,0,0,.6-.6,31.59,31.59,0,0,0,8.7,5.1c.6,0,.9,0,.9-.3,1.2.9,2.7,1.5,3.9,2.4-7.2-1.2-15,.9-21.6,3.9a.67.67,0,0,0,.6,1.2c7.8-2.1,15.3-2.1,23.1-2.4.6,0,.9-.6.9-1.2a33.52,33.52,0,0,0,13.5,1.8,27.45,27.45,0,0,0,9.3,15.6.29.29,0,0,1,.3.3c.3.6.3,1.2.6,1.8v.3l-.3-.3c-3.9-1.2-7.2-1.8-10.5-4.2a20.42,20.42,0,0,1-7.8-10.2c-.3-.9-1.5-.6-1.2.3.3.6.3,1.5.6,2.1-4.2-.6-9.3-.9-12.9,1.2-.9.6-.6,2.1.6,1.8,4.2-.3,8.4-1.2,12.6-1.2.3,0,.6,0,.6-.3,3,6.3,9.3,12.3,16.5,12.6-5.1,4.8-9.9,9.9-14.7,15a.64.64,0,1,0,.9.9,180.52,180.52,0,0,0,15-15.3c.3-.3.3-.6,0-.6h.3c.3,0,.6-.3.9-.6a54.09,54.09,0,0,0,3,12,71.38,71.38,0,0,1-10.5,20.1c-.6.6.6,1.5,1.2.9a36.78,36.78,0,0,0,10.2-18.6,67.68,67.68,0,0,0,3.3,6.6c-1.8,4.2-3.6,8.4-5.7,12.6-2.4,4.5-5.1,8.4-7.5,12.6-.6.9.9,2.1,1.8,1.2A57.68,57.68,0,0,0,414,190.8c1.2,1.8,2.1,3.3,3.3,5.1a202.69,202.69,0,0,0-9.9,23.4c-.3.9,1.2,1.5,1.5.6,3.6-7.2,6.6-15,9.6-22.5.6.9,1.5,2.1,2.1,3-.6-.3-1.2-.3-1.2.6-1.2,9.3-4.5,17.1-8.4,25.2-.6,1.2.9,2.1,1.8.9,5.7-7.5,7.8-16.8,8.4-26.1v-.3a4.14,4.14,0,0,1,.9,1.2,46.74,46.74,0,0,0,6.6,6.9,105.12,105.12,0,0,1-5.7,23.7.81.81,0,0,0,1.5.6,56.45,56.45,0,0,0,6.3-22.8,4.14,4.14,0,0,0,1.2.9c-.3,0-.9,0-.9.6a119.54,119.54,0,0,1-8.4,33.9,1,1,0,0,0,1.8.6c4.8-8.1,7.2-18,7.8-27.3.3.6.6.9.9,1.5l-.3.3a160.8,160.8,0,0,1-16.2,51c-.6.9.9,1.8,1.5.9l5.4-9a26.4,26.4,0,0,0-1.5,4.5c-.3.6.9,1.2,1.2.6a104.54,104.54,0,0,0,9.6-33,112.44,112.44,0,0,0,1.5-14.1,13.36,13.36,0,0,0,11.4,4.2,14.05,14.05,0,0,0,12-12.9c-.6-1.5-2.1-1.5-2.4-.6Zm-19.5-58.8c3.9,12.6-8.1,14.1-16.2,9.3-.6-.6-1.5-.9-2.1-1.5,6.6,3.6,16.2,1.8,16.8-6.9,0-.9-1.2-.9-1.5-.3-3,7.8-12,6.6-17.1,1.8a28.93,28.93,0,0,1-5.1-6.3,3.26,3.26,0,0,1-.3-1.5,1,1,0,0,0-.9-.9,1.8,1.8,0,0,1-.3-1.2.92.92,0,0,0-.3-1.8h-.3a6.67,6.67,0,0,1,.9-4.8c.3-.6-.6-1.5-1.2-.9a9.3,9.3,0,0,0-1.8,3.9,8.76,8.76,0,0,1-2.7.6,27.24,27.24,0,0,1,.9-6.9c12.3-12.3,27.6,5.4,31.2,17.4Zm-37.8-23.4c3.6-8.4,10.5-13.5,18.6-15.9a31.5,31.5,0,0,0-12.6,13.2,33.44,33.44,0,0,0-3.6,15,17.35,17.35,0,0,1-4.2-1.5,27.28,27.28,0,0,1,1.8-10.8Zm-1.2,16.5a15.06,15.06,0,0,1,3.6-.6,65,65,0,0,0,2.4,12.9A39,39,0,0,1,396.9,146.7Zm83.4,21a1,1,0,0,0-1.8.3c.3,12.3,1.2,33.9-16.2,34.2,7.8-8.4,6.3-26.1,5.1-35.4-3.6-28.5-21.3-56.1-47.4-68.7-.9-.3-1.5.6-.6,1.2,16.8,10.5,30.3,24,38.4,42a88.46,88.46,0,0,1,7.8,31.5,61.44,61.44,0,0,1-.3,10.5,56.44,56.44,0,0,1-1.5,9.9c-11.4,8.1-20.4,8.4-27.3.9-.9-.6-2.1.3-1.2,1.2,5.7,6.6,15.3,15,24.6,9,.3-.3.6-.3.9-.6l.3.3c20.1,2.4,21.9-22.5,19.2-36.3Zm-79.8-67.5c-5.7,4.2-8.7,14.4-3,20.1.6.6,2.1,0,1.8-.9-1.2-3-2.4-5.4-2.1-8.4a14.86,14.86,0,0,1,4.2-9.3.91.91,0,0,0-.9-1.5ZM375,95.7c1.8-11.1,11.7-17.1,22.8-14.4,8.7,2.4,14.7,9.3,19.8,16.5.6.9,2.4,0,1.8-.9-5.4-10.5-15.3-19.8-28.2-19.2-9.6.6-17.4,7.8-17.1,17.7,0,.9.9.9.9.3Zm10.8,5.1c-3.9,8.1-1.8,19.8,6.9,23.7a1,1,0,0,0,1.2-1.5c-6.3-5.4-9.6-13.2-6-21.3.6-.9-1.2-2.1-2.1-.9Zm37.5,108.6c-.3.6-.6.9-.9,1.5-.3.3,0,.6,0,.9a310.91,310.91,0,0,1-12.3,31.5,1.21,1.21,0,0,0,2.1,1.2c6.9-9.6,11.7-22.5,13.5-34.5,0-1.2-2.1-1.8-2.4-.6Zm-21.3-33a102,102,0,0,1-11.4,14.1c-.3.6.3,1.2.6.6,4.5-3.9,8.4-9.3,11.7-14.4.6-.6-.3-1.2-.9-.3ZM232.5,132.6a69.79,69.79,0,0,1-17.1,10.2c-.6.3,0,.9.3.9,6.9-2.4,13.5-5.7,18.9-10.5,4.5.6,9.6,1.5,13.8,1.2.3,0,.3,0,.3-.3,12.3,4.2,24.3,9,35.4,15.9.6.3.9-.6.6-.9-10.8-7.8-22.8-14.1-36-17.1h-.3a10.66,10.66,0,0,0-3-.6h-.3a73.11,73.11,0,0,0-8.1-.3l1.8-1.8c-.3.6,0,1.5.6,1.2a116.4,116.4,0,0,1,17.7.6.92.92,0,0,0,.3-1.8,29.33,29.33,0,0,0-18.3-.3.29.29,0,0,0-.3.3,27,27,0,0,0,2.7-3,1,1,0,0,0,.9.9c3,0,6,0,9.3.3,0,.3.3.3.6.3,13.5.6,25.5,4.2,36.6,12,.6.6,1.2-.6.6-1.2A63.19,63.19,0,0,0,267,127.5c.3-.3.3-1.2-.3-1.2-7.8-2.4-15.9-2.4-24-1.5a10.77,10.77,0,0,0,2.1-3c7.5-1.2,14.4-.6,21.9,0a1,1,0,0,0,.3-1.8c-6.6-2.4-14.1-2.1-21-.3.9-1.5,1.8-2.7,2.7-4.2a.67.67,0,0,0-1.2-.6A67.45,67.45,0,0,1,234,130.5h-.9a2,2,0,0,0-.6,2.1Zm17.4-14.1c9.3,0,18,0,27.3,1.5.9,0,1.2-.9.3-1.5a41.37,41.37,0,0,0-8.7-2.4,8.31,8.31,0,0,0,2.7-.3.45.45,0,0,0,0-.9,81.45,81.45,0,0,0-17.1,0c-.6,0-.6.9,0,1.2a28.09,28.09,0,0,0-4.8,1.2c-.9,0-.6,1.2.3,1.2Zm96.6,12.3c2.7.9,6,.9,8.7,1.2a1,1,0,0,0,.3-1.8c-2.7-.6-6-1.5-8.7-1.2C345.9,129.3,345.6,130.5,346.5,130.8Zm-75.3-8.1a100.57,100.57,0,0,1,21,6.6c.6.3,1.2-.6.6-1.2a68.73,68.73,0,0,0-21.6-6.3C270.9,122.1,270.9,122.7,271.2,122.7ZM117.6,185.4c-2.7-8.7-.3-20.4,8.7-24.6.6-.3.3-1.2-.6-1.2-9.6,2.7-12.9,14.4-11.4,23.4a24.25,24.25,0,0,0,17.4,19.5c.6.3,1.2-.9.6-1.2C125.7,198.3,119.7,192.9,117.6,185.4Zm43.5,23.7c-5.7,2.1-12,2.1-17.1-1.8-.9-.6-2.1.6-1.2,1.2,5.1,4.5,12.9,5.7,18.6,1.5C162,209.7,162,208.8,161.1,209.1ZM187.5,84.3c8.7,1.5,15.3,8.4,17.7,16.8.3.6.9.3.9,0-1.2-9.3-9-16.5-18.3-17.7-.6-.3-.9.6-.3.9Zm-36.9,36.3c-6.9,10.5-1.5,27.9,12.9,27.3,1.2,0,1.8-2.1.3-2.4-4.8-1.5-9-3-12-7.5a15.7,15.7,0,0,1,.3-16.2c.9-1.5-.9-2.4-1.5-1.2Zm27,76.8c-3.3,12.6-2.4,25.2,3.3,36.9.3.6,1.2.3.9-.3a70.74,70.74,0,0,1-2.7-36.3.77.77,0,1,0-1.5-.3Zm-11.7,10.8a58.26,58.26,0,0,0-.6,7.2c-.3,0-.3.3-.3.6-1.5,15.3,2.4,31.2,12.9,42.9.6.9,2.1-.3,1.5-1.2-4.8-7.2-8.4-14.1-10.5-21.9a49.33,49.33,0,0,0,9.6,16.2c.9.9,2.4-.3,1.5-1.2-8.7-13.2-13.5-26.1-12.6-42.3C167.7,207.6,165.9,207.3,165.9,208.2Zm-2.1,18.9c0-.6-.9-.3-.9,0,.9,14.7,7.2,29.7,18.6,39a.64.64,0,0,0,.9-.9C172.8,254.1,165.9,242.4,163.8,227.1ZM189.6,183l3.6-5.4c.6-.9-.6-1.5-1.2-.6-.3.3-.3.6-.6.6.3-.6-.3-.9-.6-1.2a17.35,17.35,0,0,1,1.5-4.2c.3-.6-.9-1.2-1.2-.6a27.52,27.52,0,0,0-2.7,6.9,94.65,94.65,0,0,1-6.6,8.7,36,36,0,0,1-21.9,8.4c-15,.3-26.7-10.2-29.1-24.9,0-.9-1.5-.6-1.5.3.9,14.7,11.7,25.5,26.4,27.3a36.65,36.65,0,0,0,16.2-2.1,39.61,39.61,0,0,1-14.7,5.7c-18.3,2.4-34.8-12.3-29.1-31.2.3-.6-.6-.9-.9-.3-6.6,15.3,3.3,31.2,19.2,34.2,10.5,2.1,20.1-.9,27.9-6.6a22.86,22.86,0,0,0-1.8,6v-1.2a.75.75,0,0,0-1.5,0c-1.2,15.9,2.1,32.1,11.1,45.3.6.6,1.5,0,1.2-.6-5.7-12.6-9.3-24.9-10.5-38.4.3,0,.6,0,.6-.3a63.28,63.28,0,0,1,3.6-12.9,49.82,49.82,0,0,0,4.2-3.9c-2.4,9-2.1,19.2,1.5,27.6.6,1.2,2.1.3,2.1-.9-1.8-10.5-2.4-19.8-.3-30.3v-.3l2.7-2.7a30.72,30.72,0,0,0,5.1,20.4,1,1,0,0,0,1.8-.9c-3.3-7.2-5.1-14.4-4.5-21.9Zm6.3-26.7a.29.29,0,0,0-.3-.3v-.3a62.61,62.61,0,0,0,15.6-18.9v1.5a.45.45,0,0,0,.9,0,17.11,17.11,0,0,0,.3-3.9,61.71,61.71,0,0,0-1.2-55.2c-.3-.6-1.8-.3-1.5.6,6.6,16.2,7.5,32.4,2.7,47.1a51,51,0,0,0-12.6-29.4c-7.2-7.8-18.3-13.8-27.3-5.4a.85.85,0,1,0,1.2,1.2c12.3-11.1,26.1,6.3,31.2,15.6a52.71,52.71,0,0,1,6,21.3,63.08,63.08,0,0,1-14.4,21.9,60.71,60.71,0,0,0,1.2-7.8c0-.9-1.5-1.2-1.5-.3a38.3,38.3,0,0,1-6.6,16.5c.3-1.8.6-3.6.9-5.1,5.7-9,7.8-20.4,3.6-30.6-.3-.6-1.5-.6-1.2.3,2.4,9.6,2.1,18.9-2.4,27.3a30.22,30.22,0,0,0-.9-7.5,34.06,34.06,0,0,0-3.9-15.3,33.08,33.08,0,0,0,7.8-10.5c.3-.6-.6-1.2-.9-.6a45.88,45.88,0,0,1-7.8,9.3c-5.4-8.7-14.4-15.3-25.8-16.2a.45.45,0,0,0,0,.9c11.1,2.7,19.2,9,23.7,17.1a1,1,0,0,1-.6.3,35.29,35.29,0,0,0-24.6-12.6,21.93,21.93,0,0,1,6.6-16.5c.3-.3,0-.6-.3-.3a23.45,23.45,0,0,0-8.4,16.8,41.07,41.07,0,0,0-10.2,1.2c-.6.3-.3.9.3.9a38.11,38.11,0,0,1,9.9-.6,17.34,17.34,0,0,0,7.2,12.9c6.6,4.8,13.2,4.2,18.6.9a38.94,38.94,0,0,1,5.7,11.1,37.71,37.71,0,0,1-3,16.8c-6,4.5-12.3,8.1-19.2,9.6-13.5-10.5-21.6-26.7-19.2-44.4,0-.9-1.8-1.2-1.8-.3-2.7,17.4,3.9,35.4,18.3,45-5.7.6-11.4-.6-17.4-4.2-16.5-10.2-16.5-31.2-5.4-45.3.6-.9-.3-2.1-1.2-1.2a32,32,0,0,0-8.7,35.4c-.6-.3-1.5.3-.9.9,13.2,30,53.4,28.5,66,3,.3,1.8.9,3.6,1.2,5.4a.29.29,0,0,0-.3.3c-3.3,10.5-2.4,22.2,4.2,31.2.6.9,1.8,0,1.2-.6-4.5-9.6-6.6-18.9-4.8-29.4,2.7,9.6,7.5,18.9,14.7,25.2.9.9,2.7-.3,2.1-1.5-7.2-10.2-13.5-20.1-16.8-33.3Zm-30.6-25.5a15.79,15.79,0,0,1-7.8-11.4,36.94,36.94,0,0,1,22.5,12C175.5,133.8,170.7,134.1,165.3,130.8Zm18,.9h0c.3,0,.3.6.6.6Zm5.1,24.9c-.3.3-.6.9-.9,1.2s.3.9.6.6a33.41,33.41,0,0,1-.6,5.1,36.19,36.19,0,0,1-7.2,6.3,24.54,24.54,0,0,0,6-7.5c.3-.3,0-.9,0-1.5a35.76,35.76,0,0,0,2.4-6A5.28,5.28,0,0,0,188.4,156.6Zm11.4,4.2c2.1,6.9,5.1,15.3,10.5,20.4.9.9,2.4-.3,1.8-1.2-1.8-3-3.9-6-5.7-9a66.4,66.4,0,0,1-4.8-10.5c-.6-1.2-2.1-.9-1.8.3Zm16.8,3.9c-3.6-3.9-6.9-8.1-11.1-11.1a1.1,1.1,0,0,0-1.5,1.5c2.4,4.2,6.3,7.8,9.3,11.4,3.6,3.9,6.9,8.4,11.1,11.7,1.2.9,3-.3,2.1-1.5-2.7-4.2-6.6-8.1-9.9-12Zm-8.4-14.1h0c17.4-15.3,37.2-54.6,13.5-70.2-.6-.3-1.5.6-.9,1.2,21.9,20.1-1.5,56.1-18,70.5-.9.9.3,2.4,1.2,1.8l2.7-1.8a.65.65,0,0,0,.6.6c7.8,4.8,14.1,11.1,20.4,17.7.6.9,2.1-.3,1.5-1.2A46.44,46.44,0,0,0,208.2,150.6Zm12.9-6.6c-.6,0-.6,1.2.3,1.2,8.7-.3,15.6,1.8,23.4,5.4a.88.88,0,1,0,.9-1.5c-6.9-5.4-16.5-6.6-24.6-5.1Zm33.9,1.5a119.93,119.93,0,0,1,21.3,11.1c.3.3.6-.3.3-.6A74.62,74.62,0,0,0,255,144.6c0-.3-.3-.3-.3-.6-7.2-4.5-16.2-6-24.3-6.3-.9,0-1.2,1.5-.3,1.5,8.4,1.2,15.9,3.9,23.7,6.3.6.3.9,0,1.2,0Zm-8.7,12c-8.7-7.2-20.1-10.5-31.2-10.5a.75.75,0,0,0,0,1.5h.3a.74.74,0,0,0,.3,1.2c7.8,3,15.9,6.6,24,9,.6.3,1.2-.9.6-1.2-7.5-3.3-15.6-6.3-23.4-9,12.3,1.2,22.5,6,32.4,13.2.3.3.6,0,.9,0a174.22,174.22,0,0,0,31.5,14.1c.6.3,1.2-.9.6-1.2a363.67,363.67,0,0,1-36-17.1ZM228,156.3c-.9-.3-1.5.6-.6,1.2,9.9,6.6,20.7,12,31.5,17.4.6.3,1.2-.6.6-.9C249,168,238.8,161.4,228,156.3Zm2.1,8.7c-.9-.3-1.8.6-.9,1.2,4.8,4.5,11.1,7.5,16.5,11.1.6.3,1.2-.6.6-1.2-5.1-3.6-10.2-8.1-16.2-11.1ZM354,152.7c-17.1,3.3-37.8,11.1-51.3,22.5-.6.3,0,.9.6.6,8.4-3.6,16.2-9,24.9-12.6,8.4-3.6,17.4-6.3,26.4-9,.9-.3.3-1.8-.6-1.5Zm-50.4,11.1a131.16,131.16,0,0,1,42-12.9c.6,0,.6-1.2-.3-1.2a76.8,76.8,0,0,0-42.6,13.2c-.3.3.3,1.5.9.9Zm.3-8.1c11.7-5.7,23.4-8.7,36-10.8.6,0,.6-1.2-.3-1.2-12.9,0-25.5,4.5-36.6,11.1-.3.3.3,1.2.9.9Zm2.4-12c11.4-3.9,22.8-6.3,34.2-9,.6,0,.6-1.2-.3-1.2a134.9,134.9,0,0,0-34.2,9.6C305.7,143.4,306,143.7,306.3,143.7Zm64.8,17.1c-12.6,5.7-25.2,11.7-38.1,16.5-.6.3-.6,1.5.3,1.2A163.48,163.48,0,0,0,372,162C372.6,161.4,371.7,160.2,371.1,160.8Zm7.2,4.8c-8.7,4.5-17.4,9.9-26.4,14.4-.9.3,0,1.5.6,1.2,9.3-3.9,18.3-8.1,26.1-14.4,1.2-.6.6-1.5-.3-1.2Zm3,9.9c-5.4,3.6-10.8,7.5-16.2,11.1-.9.6,0,2.4.9,1.5,5.4-3.9,10.8-7.8,15.9-12,.6,0,0-.9-.6-.6Zm-97.2-14.4c-.6-.3-1.2.9-.6,1.2a74.84,74.84,0,0,0,11.4,7.5,1.21,1.21,0,0,0,1.2-2.1,52.48,52.48,0,0,0-12-6.6Zm3.3,9.9c-.6-.3-.9.6-.3.9,2.1,1.5,5.1,2.7,7.2,4.2.6.3,1.2-.6.6-.9A23,23,0,0,0,287.4,171Zm1.2-15.6c-.6,0-1.2.6-.6,1.2,2.1,2.4,5.4,3.6,8.1,5.1.9.6,1.5-.9.9-1.2C294.3,158.7,291.6,156.3,288.6,155.4Zm2.7-.6a24.79,24.79,0,0,0,3.9,2.1,1,1,0,1,0,.9-1.8c-1.5-.6-2.7-1.5-4.2-1.5-.3,0-1.2.6-.6,1.2Zm3.9-6.3c.6.6,1.8-.3,1.2-.9a16.64,16.64,0,0,0-1.8-2.4c-.6-.3-1.5,0-1.2.6a21.05,21.05,0,0,0,1.8,2.7Zm0-7.2c-.6-.6-1.2.3-.9.9.6.6.9,1.2,1.5,1.8s1.8-.3,1.2-1.2a8,8,0,0,1-1.8-1.5Zm.3-5.4-.9-.9c-.3-.3-.9,0-.6.3a2.7,2.7,0,0,0,.3,1.5C294.3,138,296.7,137.1,295.5,135.9Z"
                  />
                  <path
                    id="SvgjsPath3863"
                    class="female hair-details"
                    d="M180.3,153.6c.3-.6-.6-1.5-.9-.9-6.6,7.2-16.5,11.1-26.1,7.8-10.8-3.6-15.9-16.2-13.5-26.7.3-1.2-1.5-1.5-1.8-.6-7.5,25.8,27.6,43.8,42.3,20.4Zm-7.8,24.3c.6-.6-.3-1.8-.9-1.2-10.5,6.9-27.9.9-33.3-10.2a.67.67,0,0,0-1.2.6c4.5,11.7,25.2,20.7,35.4,10.8Zm4.8-.3c.6-.6-.3-1.8-.9-1.2-8.7,5.4-18,10.8-27.9,4.8-.6-.3-1.2.6-.6,1.2C157.5,189,169.5,185.1,177.3,177.6Zm0,5.7c.3-.6-.6-1.5-1.2-.9-4.5,5.4-10.2,8.7-17.4,6.6-.9-.3-1.2.9-.3,1.2,6.9,2.1,15.9-.3,18.9-6.9Zm-6.9-72c10.2-4.5,18.6,3.6,21,12.9,1.8,6.3,2.7,17.4-2.1,22.5-.6.6.3,1.8.9,1.2,3.9-2.4,5.1-7.8,5.1-13.5,7.2-12.3-2.7-24-12.6-30.9-.6-.6-1.5.6-.6,1.2,8.7,6.6,16.2,15.9,12.9,26.7a43.17,43.17,0,0,0-3-12.6c-3.9-9-13.5-14.1-22.5-9.3-.6.9,0,2.1.9,1.8ZM179.1,99c21,6.3,29.1,26.7,21.9,46.5a.81.81,0,0,0,1.5.6c10.2-20.1-2.1-42.9-23.1-48.3C178.5,97.5,178.2,98.7,179.1,99Zm21.6-20.1c10.2,4.2,11.7,15,12.6,24.9,0,.9,1.2.9,1.5,0C215.7,93,212.1,81,201,77.4,200.1,77.1,199.8,78.6,200.7,78.9ZM180,82.2c7.5-3.3,12.9,2.4,18,6.6.6.6,1.8,0,1.2-.9-4.5-6.3-12.6-10.8-20.1-6.9C178.5,81.3,179.1,82.5,180,82.2Zm49.5-3.3a.34.34,0,1,0-.6.3c14.7,25.5,5.4,54.6-19.8,68.4-.6.3,0,.9.6.9,27-12.3,35.4-44.1,19.8-69.6Zm3.9,48.3c-.3.6.6,1.2.9.6,5.7-5.7,10.8-13.2,9.3-21.6a.45.45,0,0,0-.9,0C243.3,114.9,238.2,120.9,233.4,127.2Zm-67.5,14.1c.6,0,.9-.6.3-.9-6.6-3.3-14.4-9-11.7-17.4.3-.9-.9-1.2-1.2-.3-3,8.7,3.9,16.8,12.6,18.6Zm-3.3,54.6c-13.5,1.5-32.7-2.1-32.4-19.5a.45.45,0,0,0-.9,0c-1.2,18.6,18.9,24,33.6,20.7.6-.3.6-1.2-.3-1.2Zm44.1-36.6c-.6-.6-1.5,0-1.2.6,4.2,7.5,8.7,15.6,15.3,21.3.6.6,1.5,0,.9-.9C216.9,173.4,211.2,166.8,206.7,159.3Zm1.2,9.3c-.3-.6-1.5,0-.9.6,3.9,6.3,7.5,12.6,12,18.3.3.6,1.2,0,.9-.6C216.3,180.6,212.1,174.6,207.9,168.6Zm-8.4,9.3c-.6-.6-1.5,0-.9.6,3.6,6,6.6,12.9,11.1,18.3.6.6,1.5-.3,1.2-.9-3-6.3-7.5-12.3-11.4-18Zm-8.7,10.5c1.5,6.3,3.9,13.2,7.8,18.3.6.6,1.8.3,1.5-.6-2.4-6-5.7-11.7-8.1-18a.64.64,0,0,0-1.2.3Zm-1.2,6.3c1.5,5.4,3.3,11.1,6.3,15.6a.67.67,0,0,0,1.2-.6c-1.8-5.4-4.5-10.2-6.3-15.6C190.5,193.5,189.3,194.1,189.6,194.7Zm-4.5,8.7c.9,7.2,1.8,15.3,4.8,21.9a.67.67,0,0,0,1.2-.6c-1.5-7.2-3.9-14.1-5.1-21.6,0-.6-1.2-.3-.9.3Zm-4.5,8.7c1.2,5.7,2.4,11.7,5.4,16.5.3.6,1.5.3,1.5-.6-1.8-5.4-4.2-10.8-5.7-16.2-.3-.9-1.2-.6-1.2.3Zm-1.8,12c0-.6-1.2-.3-1.2.3.6,4.8,1.8,10.5,4.8,14.4.3.6.9,0,.9-.6-.6-2.4-2.1-4.5-2.7-6.9l-1.8-7.2Zm-2.4,15.6c-.3-.6-1.2-.3-.9.3a21.39,21.39,0,0,0,5.1,9.6c.3.3.9,0,.6-.6-1.8-3.3-3.6-6-4.8-9.3Zm76.8-82.2c-.9-.3-1.2.9-.3,1.2,9.3,3.6,18.3,8.7,27.6,12,.6.3.9-.6.6-1.2-8.1-5.4-18.6-8.7-27.9-12Zm12-2.7a.67.67,0,0,0-.6,1.2c3.9,2.1,8.1,4.5,12,6.9-6.6-3.6-14.1-6.3-21.3-9.3-.6-.3-1.2.9-.6,1.5,7.5,3.3,15,7.5,22.8,9.9.6.3,1.2-.6.6-1.2a67.68,67.68,0,0,0,6.6,3.3c.6.3,1.8-.6.9-1.2-5.7-5.1-13.2-8.1-20.4-11.1ZM264,143.7c-.9-.3-1.8.9-.9,1.5,8.4,3.9,16.2,9,24.3,13.5.6.3,1.2-.6.6-.9-6.9-6-15.3-10.2-24-14.1Zm7.5-2.7c-.6-.3-1.2.6-.6.9,6,3.6,12,7.5,18.3,10.5.6.3.9-.3.3-.6C283.8,147.6,277.5,144.6,271.5,141Zm5.4.3a83.21,83.21,0,0,1,11.1,6.6c.3.3.6-.3.3-.6a42.87,42.87,0,0,0-11.1-6.9C276.6,140.4,276.3,141,276.9,141.3Zm11.7-1.5a72.62,72.62,0,0,0-15.6-6.9c-.6-.3-.9.9-.3.9,5.4,2.1,10.2,4.5,15.6,6.6C288.9,141,289.2,140.1,288.6,139.8Zm-12.3-12.6c-.6,0-.9.6-.3.9,5.4,1.5,9.6,4.5,14.4,7.2.6.3,1.2-.6.9-.9-4.2-3.9-9.9-6-15-7.2Zm11.1,1.2c.3,0,.6-.3.3-.6a47,47,0,0,0-9-3.6c-.6,0-.6.6-.3.6C281.7,126,284.4,127.5,287.4,128.4Zm-16.8-10.5c-.9,0-1.2.9-.3,1.2a112.94,112.94,0,0,1,22.2,7.2c.6.3.9-.3.3-.6-6.9-4.2-14.4-6.3-22.2-7.8Zm9,1.2a32,32,0,0,1,5.7,2.1c.6.3.9-.6.6-.9a19.17,19.17,0,0,0-5.7-2.4c-1.2-.3-1.5.9-.6,1.2Zm-16.2,52.5c-6.6-3.3-13.5-6.3-20.1-9.6-.9-.6-1.8.9-.9,1.5a128.31,128.31,0,0,0,20.7,9.3.64.64,0,0,0,.3-1.2ZM225,157.8c-.6-.3-1.2.6-.6.9a64.45,64.45,0,0,0,17.1,11.1c.9.3,1.5-.6.6-1.2C236.1,165,230.4,161.7,225,157.8Zm48.6,20.7c-7.5-1.2-15.9,1.5-20.4,7.8-6.9,9.3-.3,18.6-.3,28.5a.45.45,0,1,0,.9,0c.9-6.9-2.7-13.2-1.8-20.1,1.5-11.4,11.7-14.4,21.3-15.3.6.3.9-.9.3-.9Zm62.1-26.1c-13.8,4.5-27.9,11.7-37.2,23.1-.3.6.3,1.2.6.6,10.8-10.8,24-15.6,37.2-22.5C337.2,153.3,336.6,152.1,335.7,152.4Zm-33,7.8c6.9-5.1,15-7.2,22.8-10.5a.77.77,0,0,0-.3-1.5c-8.4,1.8-16.8,5.1-23.1,11.1C301.5,159.9,302.1,160.5,302.7,160.2Zm25.5-21.6c-7.8,1.8-15.3,5.4-22.2,9-.6.3,0,.9.6.6,7.2-3.3,14.7-5.7,21.9-8.7C329.1,139.5,328.8,138.6,328.2,138.6Zm.6-4.5c-9,.9-17.7,4.8-25.2,10.5-.3.3,0,.9.3.6a81.62,81.62,0,0,1,24.9-9.9C329.4,135,329.4,134.1,328.8,134.1Zm-24,3.9c7.2-3.9,14.7-6.3,22.2-8.7.6-.3.6-1.2-.3-1.2a65.93,65.93,0,0,0-22.2,9.3c-.3.3,0,.6.3.6Zm17.7-13.2a54.8,54.8,0,0,0-21,10.2c-.3.3,0,.9.3.6a92.4,92.4,0,0,1,20.7-9.6C323.4,125.4,323.1,124.5,322.5,124.8Zm-21.3,5.7c8.7-4.8,17.7-7.5,27.3-9.9.3,0,.3-.9,0-.9-9.6.6-19.2,5.1-27.3,10.5C300.6,130.2,300.9,130.5,301.2,130.5Zm1.5-6.9c8.4-3.6,17.1-5.1,26.1-6a.45.45,0,1,0,0-.9,61.06,61.06,0,0,0-26.4,6.3c-.3.3,0,.6.3.6Zm61.2,31.8c-16.8,3.9-33.6,9.9-49.5,16.2a.64.64,0,0,0,.3,1.2c16.8-4.2,33.9-8.7,49.8-15a1.24,1.24,0,0,0-.6-2.4Zm7.5.9c-15.3,6.6-30,12.3-46.2,16.5-.6.3-.6,1.2.3,1.2,16.2-1.8,33.3-7.2,47.1-16.2.6-.6-.3-1.8-1.2-1.5Zm10.5,5.4c-11.1,6.3-21.9,11.7-34.5,14.4a.81.81,0,1,0,.6,1.5c12.6-2.1,24.9-6.6,34.8-14.7.6-.6,0-1.5-.9-1.2Zm1.5,7.8c-7.5,4.2-14.1,8.4-22.2,11.4-.9.3-.6,1.8.3,1.5,8.1-2.4,16.5-5.7,22.8-11.4.6-.9-.3-2.1-.9-1.5Zm5.4,7.8c.6-.6-.3-1.5-.9-1.2-3,1.5-5.4,3.9-8.1,6a82.51,82.51,0,0,1-8.4,5.7c-.6.6,0,1.5.6,1.2C377.7,186,384.3,182.4,388.8,177.3Zm11.4-.3a.64.64,0,1,0-.9-.9c-7.2,6-14.1,11.7-22.2,15.9-.9.6,0,2.1.9,1.5C386.4,189.6,394.5,184.2,400.2,177Zm2.7,9.9c.3-.6-.3-1.5-1.2-.9-5.1,3.6-9.6,8.4-14.7,12.3-.9.6,0,2.1.9,1.5,5.4-3.9,11.4-7.8,15-12.9Zm2.4,6.9c.6-.6-.6-1.2-1.2-.9-5.4,4.2-9.9,9.9-14.7,15a.64.64,0,1,0,.9.9c5.1-4.8,10.8-9.6,15-15Zm1.8,6c.3-.6-.3-1.5-.9-.9-4.5,3.3-8.4,8.1-12.3,12.3-.9.9.6,2.1,1.2,1.2,3.9-3.9,8.7-7.8,12-12.6Zm1.5,6.6c.3-.6-.6-1.2-.9-.6-3.3,2.7-6,6.9-8.4,10.2-.3.6.6,1.2,1.2.6,1.5-1.8,3-3.9,4.5-5.7a47.27,47.27,0,0,1,3.6-4.5Zm.9,18.3a17.4,17.4,0,0,0-3,3.6,31.77,31.77,0,0,1-3,3.6c-.6.9.6,2.1,1.2,1.2.9-1.2,2.1-2.7,3-3.9a28.14,28.14,0,0,0,2.7-3.6c.3-.9-.3-1.5-.9-.9Zm4.8,6a72,72,0,0,1-4.8,8.1c-.9,1.2,1.2,2.1,1.8.9a33.24,33.24,0,0,0,4.2-8.7A.64.64,0,0,0,414.3,230.7ZM384.6,128.4c.3-.3.3-.6.3-1.2-6-10.8-9.3-21.9-.6-32.4.9-.9-.6-2.4-1.5-1.5a21.93,21.93,0,0,0-6.6,18.9,19.88,19.88,0,0,1,0-11.1c.3-.6-.9-.9-.9-.3-3.6,10.2.9,20.7,8.4,27.9.3,1.2,1.5.3.9-.3Zm-3,5.7c.6.3,1.2-.6.6-1.2-3.3-3.6-6.9-6.6-9.3-11.4a39.14,39.14,0,0,1-4.2-17.4.6.6,0,1,0-1.2,0c-.6,9.9,3,26.4,14.1,30Zm-.6,2.1c.9,0,.9-.9.3-1.2-10.2-4.2-18-19.5-15.6-30.3.3-.9-.9-1.2-1.2-.3-3,10.5,3.6,31.8,16.5,31.8Zm-16.2-4.5c.6.3,1.2-.6.6-.9-3.6-4.2-6.9-8.1-9.3-13.2-.3-.9-1.8,0-1.5.9C357,123.3,360.3,128.7,364.8,131.7Zm59.1,35.4c.9.6,1.8-.6,1.2-1.5-9.9-9-14.4-20.4-9.6-33.6.3-1.2-1.5-1.8-1.8-.6-4.8,12.6-1.8,27.9,10.2,35.7ZM436.8,201c-16.5-2.7-27-16.8-23.4-33.6.3-.9-1.2-1.2-1.5-.3-3.6,16.2,5.7,36.3,24.6,35.7C437.4,202.8,437.7,201,436.8,201Zm5.4-4.8c-11.4,3.6-22.8-14.4-21.9-24.3,0-.6-1.2-.9-1.2-.3-1.2,7.8,2.7,14.4,7.2,20.4,3.9,4.8,10.5,10.5,16.5,6a1,1,0,1,0-.6-1.8Zm-7.8-66.6a17.4,17.4,0,0,0-3.6-3c-.9-.6-1.8.9-1.2,1.5,14.1,11.1,20.7,42,7.8,55.5-.6-.6-1.2-.9-1.8-1.5a29.64,29.64,0,0,1-6.3-9.6c-.6-1.2-2.4-.6-1.8.6,2.4,6.6,8.1,14.7,15.3,16.8.9.3,1.8-.9.9-1.5-1.5-1.2-3.3-2.4-4.8-3.6,8.7-6.6,9.6-17.1,7.5-27.3-1.2-5.7-2.7-12-5.4-17.7.3,0,.3-.3.3-.6a26.83,26.83,0,0,0-5.7-9.3c-.6-.6-.9-.6-1.2-.3Zm-15-41.1c14.7,4.8,20.4,26.7,6.3,35.4a.67.67,0,0,0,.6,1.2c18.6-6,8.1-33.6-6.6-37.5C419.1,87.3,418.8,88.2,419.4,88.5Zm-15,27.6a1.1,1.1,0,0,0,1.5-1.5c-1.5-2.1-3.3-3.9-4.5-6.6a16.08,16.08,0,0,1-.6-8.4c.3-1.5-2.1-2.1-2.4-.6C397.5,105,399,112.8,404.4,116.1Zm59.7,27.6c-.6-.3-1.2-.9-1.8-1.2-1.8-9.9-9-19.2-15.6-26.4-.6-.9-1.8.3-1.2,1.2a103.93,103.93,0,0,1,9.3,14.1c1.8,3.3,3,6.6,4.5,9.9-.3,0-.6-.3-1.2-.3-.9-.3-1.5,1.2-.6,1.5a26.38,26.38,0,0,1,3,1.8c.3.3.3.9.6,1.2.3.6.9.3,1.2,0,16.8,12.3,11.4,41.1-5.4,52.2a.88.88,0,1,0,.9,1.5c18.6-8.1,23.7-40.2,8.4-53.4v-.6c-2.4-16.2-9.6-33-23.4-42.3-.9-.6-1.5.9-.9,1.5C456,114.3,459.3,129,464.1,143.7ZM444,195c6.9,1.2,11.7-4.2,14.4-9.9,3.6-8.1,3-16.8-.3-24.9-.6-1.2-2.7-.3-2.1.9,4.2,10.5,2.7,30.6-11.7,32.1C443.4,193.2,443.1,195,444,195Zm7.5,22.5c-3,2.1-6.6,3-9.9.6a.64.64,0,1,0-.9.9c3.3,2.7,8.7,3,11.4-.6C452.7,217.8,452.1,217.2,451.5,217.5Zm5.1-9.3c-2.1,1.5-3.9,3.3-6.6,4.2a13.43,13.43,0,0,1-8.4.3c-1.2-.3-1.8,1.5-.6,1.8,5.4,2.1,14.4,1.2,17.1-4.8C458.7,208.8,457.5,207.3,456.6,208.2ZM477,189.6c-1.2,2.7-2.1,5.4-3.9,7.8-1.8,2.7-5.1,6.3-8.7,5.1-1.2-.3-1.8,1.5-.9,1.8,7.8,3.3,15-7.8,15.3-14.4C479.1,189,477.6,188.7,477,189.6Zm-19.5-31.8c.9-12-3.3-24-10.2-33.9-.9-1.2-2.7,0-1.8,1.2,6.6,10.2,9.3,20.7,10.8,32.7C456,158.7,457.5,158.7,457.5,157.8Z"
                  />
                </g>
              </svg>