<?xml-stylesheet type="text/css" href="../../../../female-colors.css" ?>
<svg
                width="70"
                height="70"
                id="Layer_1"
                data-name="Layer 1"
                xmlns="http://www.w3.org/2000/svg"
                viewBox="0 0 600 600"
              >
              <g id="svga-group-hair-back-move"></g>
                <g id="svga-group-hair-front">
                  <path
                    id="SvgjsPath3834"
                    class="female hair"
                    d="M429.3,237.9c-2.7,23.1-8.4,45-14.4,55.8,0,0-.9-42.9-11.1-63.3s-40.2-43.8-43.8-60.9c0,0,4.5,9.9,11.4,14.1s30.9,22.8,36.6,29.1,15,21.9,18.9,24C427.2,237,428.4,237.3,429.3,237.9ZM200.7,407.1c0,1.8-.6,6.6-1.5,13.5-2.1-19.8-6.3-41.7-6.3-41.7s-90.6,133.5-78.6,177.6,36.3,74.7,38.7,77.1,12,5.7,16.2,13.5c1.5,3,31.5-26.4,16.8-61.8-14.4-35.4-17.7-59.4-5.7-78a117,117,0,0,0,5.7-10.5c-2.4,12.9-4.5,23.1-5.1,26.1-2.7,10.5-2.7,25.5,4.5,42s18.3,17.4,18.3,17.4c-5.1-8.1-5.4-21.9-.6-36.3s12.6-28.5,16.8-43.5c4.5-15.6,6.6-34.2-8.1-65.1-8.1-18.3-11.1-30.3-11.1-30.3Z"
                  />
                  <path
                    id="SvgjsPath3835"
                    class="female hair-outline"
                    d="M360,169.5s-54.6,20.4-98.4,5.1-72,45.3-68.4,81.3S221.4,339,207,397.2s-56.4,102.6-68.4,128.4-12,52.2,0,71.1,18,32.4,21.3,52.2c0,0-4.5-10.8-22.2-24-27.9-20.7-39.3-45.3-37.5-83.7s18.6-68.4,33.3-99.3c14.4-30.9,21.9-69.9,11.7-95.7s-21.9-61.5-17.7-125.1c4.2-63.3,39.3-97.2,83.1-123s107.1-21,147.3,3.9,34.2,47.1,34.2,47.1,12-6,30,21.3,6,100.2-6.9,123.3c0,0-.9-42.9-11.1-63.3S363.6,186.6,360,169.5Z"
                  />
                  <path
                    id="SvgjsPath3836"
                    class="female hair"
                    d="M382.8,150.6c-6.9,4.5-14.1,4.5-18.3,2.4-12.3-5.4-22.2-24-32.4-35.1C315,99.3,310.5,89.7,271.2,87.6a138.48,138.48,0,0,0-63,11.4c-42.6,25.5-76.5,59.4-80.7,121.8-4.2,63.3,7.2,99.3,17.7,125.1s2.7,64.8-11.7,95.7-31.5,60.9-33.3,99.3,9.9,63,37.5,83.7c17.7,13.2,22.2,24,22.2,24-4.8-13.5-12-18.9-26.1-31.8-14.4-12.9-28.2-49.2-25.2-76.8s29.1-75,41.4-94.2,22.2-52.2,26.4-69.9.6-32.4-11.7-62.7-18.9-109.5-16.8-123c3.3-24.9,9.3-42,28.2-61.8,28.2-29.4,64.8-33.9,86.7-34.2,35.4-.3,60,23.1,64.5,29.7s31.5,35.7,38.4,36.9,24-10.2,24-10.2l2.1-1.8a18,18,0,0,0,0-7.8,29,29,0,0,1-9,9.6ZM306.6,180a10.21,10.21,0,0,0,3-.3,7.46,7.46,0,0,0,2.4-.3c1.2,0,2.7-.3,3.9-.3.6,0,1.5-.3,2.4-.3s2.1-.3,3-.3,1.8-.3,2.7-.3,1.8-.3,2.7-.3c.6,0,1.2-.3,1.8-.3a15.06,15.06,0,0,1,3.6-.6c.6,0,1.2-.3,1.8-.3a15.48,15.48,0,0,1,3.3-.6c.6,0,.9-.3,1.2-.3a8.76,8.76,0,0,1,2.7-.6,1.1,1.1,0,0,0,.9-.3c1.2-.3,2.4-.6,3.3-.9a1.1,1.1,0,0,0,.9-.3c1.2-.3,2.1-.6,3.3-.9,6.6-1.8,10.5-3.3,10.5-3.3s-15,1.8-32.7-16.5c-6.9-11.1-18.3-31.5-36-38.4-20.4-8.1-88.5-11.7-111.6,37.5s-8.1,91.5,1.8,112.2,25.5,60.3,24.9,86.1c-.6,26.1-6.9,63-13.8,79.2s-52.8,73.2-62.4,99.9c-9.9,27.9-13.2,46.8,10.5,84.9,9,14.7,15,18.9,17.4,24.3-3.6-15-9.3-27-19.5-42.6-12-18.9-12-45.3,0-71.1s54-70.2,68.4-128.4-10.2-105.3-13.8-141.3,24.9-96.6,68.4-81.3a91.76,91.76,0,0,0,17.4,4.2h.3c.6,0,1.2.3,2.1.3,1.2,0,2.4.3,3.6.3a5.85,5.85,0,0,1,2.4.3c1.2,0,2.4.3,3.9.3h12.3a2.86,2.86,0,0,0,3,.6Z"
                  />
                  <path
                    id="SvgjsPath3837"
                    class="female hair-outline"
                    d="M189.9,445.8s-7.8,19.8-27.9,44.1c-26.7,32.1-32.1,52.2-22.2,77.4s23.4,38.4,27.9,49.5,3.3,22.8,3.3,22.8,5.7-12.3,3.3-21.6c-2.1-9.3-22.2-41.7-25.2-60a75.62,75.62,0,0,1,12.6-56.1c10.5-14.7,22.8-34.8,28.2-56.1Zm5.7,4.5s-7.5,34.8-18,52.2-13.8,39-6,57.3,22.8,42.3,21.6,58.2c0,0,10.2-19.2.6-39s-12.9-49.2-5.1-69.3c7.8-19.8,8.7-45.6,6.9-59.4Z"
                  />
                  <path
                    id="SvgjsPath3838"
                    class="female hair-details"
                    d="M279.3,179.1c.9,0,1.5.3,2.1.3,1.2,0,2.4.3,3.6.3a5.85,5.85,0,0,1,2.4.3c1.2,0,2.4.3,3.9.3h4.5A59.66,59.66,0,0,1,273,164.1c-14.4-17.7-25.5-25.8-48.6-23.4S177,174.3,178.5,207c1.5,32.4,12,53.1,18.6,70.8a161.11,161.11,0,0,1-3.9-21.9c-3.3-36,24.9-96.6,68.4-81.3a127.62,127.62,0,0,0,17.7,4.5Z"
                  />
                </g>
              </svg>