
<?xml-stylesheet type="text/css" href="../../../../female-colors.css" ?>
<svg
  width="70"
  height="70"
  id="Layer_1"
  data-name="Layer 1"
  xmlns="http://www.w3.org/2000/svg"
  viewBox="0 0 600 600"
>
  <g id="svga-group-hair-back"></g>
  <g id="svga-group-hair-front">
    <path
      id="SvgjsPath6331"
      class="female hair-outline"
      d="M231.3,146.4s-18.6-5.4-15.3-42S266.1,54,304.2,54,375,68.7,383.7,95.4s1.5,48.3-10.8,51.6-141.6-.6-141.6-.6Z"
    />
    <path
      id="SvgjsPath6332"
      class="female hair"
      d="M404.1,164.7C371.4,110.1,300,114.3,300,114.3s-74.1-2.7-107.1,51.6c-30.6,51-21.6,98.1-21.6,98.1s6.6,6.6,10.5,30.6c.3,2.4,4.5,2.1,5.1-.6,1.5-7.8.6-24.6,5.7-46.8,8.4-35.4,36.6-65.7,66.9-74.4,16.2-4.8,67.5-2.7,83.7,1.8,30.3,9,54.3,36.3,62.7,71.7,5.1,21.9,5.1,39.9,6.6,47.7.6,2.4,4.5,3,5.1.6,4.2-24,10.8-29.4,10.8-29.4s6.6-49.8-24.3-100.5ZM387,108a69.47,69.47,0,0,0-3-12.6C375.3,68.7,342.6,54,304.5,54a145,145,0,0,0-31.8,3.3C264,62.4,256.8,69.6,258,79.5c3.3,24,25.2,25.2,57,27.9C340.8,109.5,377.4,128.7,387,108Z"
    />
    <path
      id="SvgjsPath6333"
      class="female hair-outline"
      d="M192.3,193.8c.9-14.7,5.1-28.5,11.1-41.7a96.64,96.64,0,0,0-10.2,13.8,159,159,0,0,0-22.8,72.9c1.5,17.7,6.6,36.6,17.4,49.2.3-4.5.6-10.2,1.2-17.1-5.4-15-11.1-29.1-11.4-46.8-.3-16.8,3.6-31.8,9.6-46.2-5.7,21.9-5.1,46.5,6.6,63,0,.3.3.3.6.6.9-3,2.1-6,3.3-9-2.7-12.9-6.3-25.2-5.4-38.7Zm19.8-50.1a92.09,92.09,0,0,0-7.8,7.5c-7.2,21.9-10.2,48.3-.6,68.4,1.2-2.4,2.7-4.5,4.2-6.9-.6-10.5-2.4-20.7-2.1-31.5a146.49,146.49,0,0,1,6.3-37.5Zm4.5,33.3c0-13.8,2.4-27.3,5.4-40.8-1.8,1.2-3.3,2.4-5.1,3.6-7.8,20.4-10.5,45.3-4.5,66.6,2.1-2.4,3.9-4.8,6-7.2a184.5,184.5,0,0,1-1.8-22.2Zm19.8-48.9c-2.7,1.2-5.4,2.7-7.8,3.9-9.3,19.2-13.8,45-8.4,65.7a95.89,95.89,0,0,1,8.1-7.5,89.55,89.55,0,0,1-1.8-20.1C226.8,155.1,231,141.6,236.4,128.1Zm14.1-5.7c-2.4.9-5.1,1.8-7.5,2.7-9,17.1-12.9,39.9-5.7,57.9a71.77,71.77,0,0,1,6.3-3.9c-2.4-20.1-2.4-37.2,6.9-56.7Zm5.1-1.5c-3.9,17.7-6.3,36.3-2.4,54,1.2-.3,2.1-.9,3.3-1.2,0-17.4-.9-34.5,2.1-51.9a2.29,2.29,0,0,0-.6-1.5,7.06,7.06,0,0,0-2.4.6Zm18.6-4.5c-1.5.3-3,.6-4.8.9A140.63,140.63,0,0,0,270,171c1.5,0,3.3-.3,4.8-.3-.3-18.3-.9-36-.6-54.3Zm14.1-.9c0-.3,0-.6-.3-.6a6.61,6.61,0,0,0-2.4.3v.6c-1.5,18-1.5,36.9,3,54.6h3C290.4,151.8,288.3,133.8,288.3,115.5Zm23.4,24.6c.6,10.2.6,20.4,1.5,30.6a10.21,10.21,0,0,1,3,.3c1.8-19.2-3-37.5-3-56.1a8.31,8.31,0,0,1-2.7-.3C309.6,123,311.1,131.7,311.7,140.1Zm23.7-16.8c1.2,16.8,0,33-2.4,49.5a20.26,20.26,0,0,0,4.2.6,186.64,186.64,0,0,0,.9-50.1A1.35,1.35,0,0,0,335.4,123.3Zm33,23.7a74.47,74.47,0,0,1-7.5,35.4,25,25,0,0,1,3.6,2.4,51.29,51.29,0,0,0,6.3-38.1c0-1.5-2.4-1.2-2.4.3Zm19.8-.9c-.3-1.8-2.7-1.2-2.7.3-1.2,16.8-3,32.7-7.8,48.6l2.7,2.7c7.2-15.6,11.1-33.9,7.8-51.6Zm-3.9,56.4a44.1,44.1,0,0,1,3,3.9A75.81,75.81,0,0,0,404.4,165v-.3a72,72,0,0,0-5.4-7.8c-2.1,16.5-6.3,31.2-14.7,45.6ZM404.4,165c-.6,8.4-.9,16.5-3.3,24.6-2.1,6.6-5.4,15.6-10.5,21.6.9,1.5,2.1,3.3,3,4.8,5.4-4.5,9-12.6,11.7-18.3a65.36,65.36,0,0,0,5.4-21.6c-2.1-3.9-4.2-7.5-6.3-11.1Zm6.3,14.7c-3,12.6-5.1,30.3-14.4,41.1.9,1.5,1.5,3.3,2.4,4.8,5.1-4.5,8.4-11.4,10.8-17.1,3.3-7.5,5.4-15.3,5.1-23.4a64.19,64.19,0,0,0-3-6.6A1.34,1.34,0,0,0,410.7,179.7Zm-.9,90.9c9-18.3,12.6-39.9,13.5-60.3-1.8-6.6-3.9-13.5-6.6-20.7-2.1,17.4-4.2,33.6-13.2,48.9.6,2.1,1.2,4.5,1.8,6.6a88.58,88.58,0,0,0,9.6-16.2c-2.1,8.7-4.8,17.1-7.5,25.8,1.2,5.7,1.8,11.1,2.4,15.9Zm7.5,24c4.2-24,10.8-29.4,10.8-29.4a104.85,104.85,0,0,0,.3-20.7h-.3c0-.6.3-1.5.3-2.4a180.68,180.68,0,0,0-2.4-19.5c-2.7,11.4-4.5,23.1-8.1,34.5-2.1,6.9-4.8,13.2-7.5,19.8.6,5.4.9,9.9,1.2,13.5a30,30,0,0,0,2.4-4.2c-.6,2.1-1.5,4.5-2.1,6.6a2.27,2.27,0,0,0,.3,1.2c.3,2.1,3.3,2.7,4.5,1.5,0-.3.3-.3.3-.6a.29.29,0,0,0,.3-.3ZM269.1,78.3a35,35,0,0,1,9.6-22.2l-4.5.9c-5.1,6.3-7.8,15-8.1,23.1a51.36,51.36,0,0,0,2.4,18,18.33,18.33,0,0,0,4.2,2.1c-3.3-6.9-3.9-16.2-3.6-21.9Zm72.6,34.5c9.9-10.5,19.8-31.2,16.8-46.5-1.2-.6-2.4-1.5-3.6-2.1,5.4,14.7-5.7,35.4-15.3,47.7a4,4,0,0,0,2.1.9Zm35.7-29.7c2.4,6,2.1,12.3-3.3,18.6a41.48,41.48,0,0,1-25.2,13.2c2.4.6,4.8.9,6.9,1.5,10.5-2.1,21.3-10.5,24.9-19.5a19.37,19.37,0,0,0,1.2-5.7,26.75,26.75,0,0,0-4.5-8.1ZM293.1,54.3a11.25,11.25,0,0,0-3,.3c-4.8,16.2-2.4,36.6,5.1,51,.9,0,1.5.3,2.4.3-6.9-15.3-9-34.8-4.5-51.6Zm35.7,55.5C339,94.5,343.2,74.4,336,57.6l-3.6-.9c7.2,17.7,3.6,35.1-5.7,52.5.6.3,1.5.3,2.1.6Zm-14.1-2.4h.6c1.2-14.7,2.1-37.8-5.1-53.4h-3.6c7.8,15.3,6.6,37.2,6.6,53.4Z"
    />
    <path
      id="SvgjsPath6334"
      class="female hair-details"
      d="M359.7,129.6c0-.6-1.5-.6-1.2.3,1.5,12.3.3,23.7-1.5,36a.77.77,0,0,0,1.5.3c3.6-11.7,3-24.6,1.2-36.6Zm-3,2.4a.45.45,0,0,0-.9,0c-.6,11.4-1.8,22.5-2.7,33.6,0,.9,1.2.9,1.2.3A108.5,108.5,0,0,0,356.7,132Zm-4.5,0c0-.6-1.2-.9-1.2,0,0,9.9-1.2,19.5-2.1,29.4,0,.9,1.2.9,1.5.3C352.8,152.1,352.8,141.6,352.2,132Zm-6,.9a.45.45,0,0,0-.9,0c.3,8.4-.6,16.5-.6,24.9a.77.77,0,0,0,1.5.3,101.19,101.19,0,0,0,0-25.2Zm-6-2.7c0-.3-.6-.3-.6,0a154.75,154.75,0,0,1,.9,20.4c0,.6.6.6.6,0A93.84,93.84,0,0,0,340.2,130.2Zm-9.6-4.5c0-1.2-2.1-1.2-2.1,0,0,13.8-1.5,27.6-1.8,41.1a1,1,0,0,0,1.8.3C331.8,153.6,331.8,139.5,330.6,125.7Zm-6.3.6c0-.6-1.2-.6-1.2,0,0,12.3-.9,24.3-.9,36.6,0,.6,1.2.9,1.2.3C325.2,150.9,324.9,138.6,324.3,126.3Zm-6.3,2.4c0-.6-1.2-.6-1.2,0-.3,11.1-1.2,21.9-.6,33a.6.6,0,1,0,1.2,0C318.6,150.9,318,139.8,318,128.7Zm-13.5-2.4a.6.6,0,1,0-1.2,0c-.9,12-1.2,24.6.3,36.6a.9.9,0,1,0,1.8,0c.3-12.3-.6-24.6-.9-36.6Zm-5.4,3a.6.6,0,1,0-1.2,0c-.3,10.5-1.2,21.6.3,32.4,0,.9,1.5.6,1.5-.3C300,150.6,298.8,140.1,299.1,129.3Zm-6,.6c0-1.2-1.5-.9-1.8,0-1.2,9.6-1.8,19.8,0,29.1a1,1,0,0,0,1.8-.3c0-9.6-.6-19.2,0-28.8Zm-12.6.9c-1.5,11.1-2.4,22.5-.9,33.6a.75.75,0,0,0,1.5,0c0-11.1-.3-22.5.6-33.6,0-.6-1.2-.9-1.2,0Zm-18.6-2.1c-1.2,11.4-2.1,23.1-.6,34.5,0,.6,1.2.9,1.2,0,.3-11.4.3-23.1.6-34.5C263.1,127.8,261.9,128.1,261.9,128.7Zm-9.9,3c-2.1,11.1-3.3,23.1-2.4,34.2a.9.9,0,1,0,1.8,0c.6-11.4.9-22.8,1.8-34.2,0-.6-1.2-.6-1.2,0Zm-5.1,6c-2.4,9.9-3.9,20.7-2.7,30.6,0,.9,1.2.9,1.5,0,.6-10.2,1.2-20.1,2.4-30.3a.64.64,0,0,0-1.2-.3Zm-13.5-.6c.3-.9-.9-1.2-1.2-.3a71.79,71.79,0,0,0-3.6,38.1c.3.6,1.2.6,1.2-.3a142.17,142.17,0,0,1,3.6-37.5Zm132.3,4.5a.9.9,0,1,0-1.8,0c-.3,11.4-1.8,22.8-2.4,34.2,0,.9,1.5,1.2,1.5.3C366,164.7,366.3,152.7,365.7,141.6Zm11.7.6c0-.6-1.2-.6-1.2.3a161.57,161.57,0,0,1-2.4,36c-.3.9,1.2,1.2,1.5.3a79.32,79.32,0,0,0,2.1-36.6Zm3.3,12.9a.45.45,0,0,0-.9,0c-.3,10.8-2.1,21.3-4.2,31.8,0,.6.9.9.9.3a82.4,82.4,0,0,0,4.2-32.1Zm13.5.6a.6.6,0,1,0-1.2,0c-1.2,12.3-3.9,23.4-7.2,35.4a.67.67,0,0,0,1.2.6C393,181.2,395.1,167.7,394.2,155.7Zm6.6,22.2a123.64,123.64,0,0,1-6.9,23.4c-.3.6.6.9,1.2.6,4.2-7.2,6.3-15.3,7.5-23.7,0-1.2-1.8-1.2-1.8-.3Zm2.1,18.9a32.51,32.51,0,0,0-2.4,5.7c0,.3.6.6.6.3l2.7-5.4c.6-.9-.6-1.5-.9-.6Zm8.7,0c-2.1,10.2-5.1,19.5-7.8,29.4a.67.67,0,0,0,1.2.6c5.1-8.7,7.5-19.8,7.8-30C413.1,196.2,411.9,195.9,411.6,196.8Zm3.3,12.6c-3.3,8.4-7.2,16.8-9.6,25.5a1,1,0,0,0,1.8.6c3.9-8.1,6.6-17.1,9.6-25.8C417,208.8,415.2,208.2,414.9,209.4Zm-.3,21.9c-.9,2.7-2.4,5.4-2.7,8.4,0,.6.9,1.2,1.2.6,1.5-2.4,2.4-5.4,3.6-8.1C417.3,230.4,415.2,230.1,414.6,231.3ZM371.4,80.4a75.64,75.64,0,0,1-9,17.7c-3.9,5.4-9.3,9.3-13.8,14.4-.6.6,0,1.2.9.9,12-5.1,21-20.4,23.4-32.7a.77.77,0,1,0-1.5-.3Zm-5.7,1.8c-3.9,9.3-9.3,16.8-14.7,25.2-.6.9.6,1.8,1.5,1.2,6.9-6.9,11.7-16.5,14.4-25.8C366.6,82.2,366,81.6,365.7,82.2ZM346.2,69.3c-.6,10.8-3.3,20.4-6.6,30.6-.3.9,1.2,1.5,1.5.6,5.4-9.3,7.2-20.7,6.9-31.5.3-.9-1.5-.9-1.8.3ZM340.5,75c-.3,7.5-2.4,13.8-4.8,20.7a.81.81,0,0,0,1.5.6C340.8,90,342,82.2,342,75,342,73.8,340.5,73.8,340.5,75Zm-12.6-9.3c-.6-.3-1.2.6-.6,1.2,2.4,2.4.6,12.6.3,15.6-.6,5.4-1.8,11.1-2.7,16.5-.3.9.9,1.2,1.5.3a74.65,74.65,0,0,0,4.2-22.8c0-3,1.2-9.6-2.7-10.8Zm-6.3,5.4c-.3-.9-1.2-.3-1.2.3,1.5,11.1,0,21.3-2.1,32.1-.3.9,1.2,1.2,1.5.3C323.7,93.6,323.7,82.2,321.6,71.1Zm-12.9-4.5c0-.9-1.5-1.2-1.5-.3-1.8,12-2.4,24.6.6,36.6.3.6,1.2.6,1.2-.3C308.4,90.6,307.5,78.9,308.7,66.6Zm-6.3-1.8c0-.9-1.2-.6-1.2,0-1.2,10.8-1.5,22.8,1.5,33.3.3.6,1.2.6,1.2-.3C303.6,86.7,301.8,75.9,302.4,64.8Zm-6.3,1.8c0-.9-1.2-.9-1.5,0-1.2,10.5-1.2,21.3,2.1,31.8a.77.77,0,0,0,1.5-.3C296.4,87.6,295.2,77.4,296.1,66.6ZM283.2,69a.77.77,0,1,0-1.5-.3c-2.4,9.3-2.4,19.8.9,28.8.3.9,1.8.6,1.5-.3C282.6,87.3,281.7,78.6,283.2,69Zm-7.5,1.2c0-.6-.9-.6-1.2,0-1.2,10.2-.3,19.8,3.9,29.4.3.6,1.2,0,.9-.3a95.65,95.65,0,0,1-3.6-29.1Zm-15-.3c-4.8,9-6,19.8-1.2,29.4.3.9,1.8.3,1.5-.6-2.7-9.3-3.3-18.6,1.2-27.9C262.8,69.6,261.3,68.7,260.7,69.9Zm-6.6,3.3a.6.6,0,1,0-1.2,0c-.9,9.6-.3,19.5,3.6,28.5.3.9,1.5.3,1.2-.6C255.3,91.8,253.5,82.8,254.1,73.2Z"
    />
  </g>
</svg>
