<?xml-stylesheet type="text/css" href="../../../../female-colors.css" ?>
<svg
  id="Layer_1"
  data-name="Layer 1"
  xmlns="http://www.w3.org/2000/svg"
  viewBox="0 0 600 600"
>
  <g id="svga-group-hair-back-move" class="hidden">
    <g id="svga-group-hair-back" >
      <path
        id="SvgjsPath5615"
        class="female hair"
        d="M208.5,492.3c4.8-13.2,2.7-18.9,2.7-18.9s14.1-25.2,3.3-50.7c-.6-1.2-1.2-2.1-1.8-3.3,0,0,12.9-1.5,14.4-31.8s90.3-86.1,90.3-86.1L375,390s3.3,21.3,11.1,36.3c0,0-17.4,13.8,3,47.1,24.9,9.6,45.3,5.1,48.6-3.3,1.8-4.5,1.5-16.5-3.9-20.4-.9-.6-3-1.8-3-3.3s1.2-1.8,3-3.6c2.7-3.3,5.4-10.2,5.7-10.2a33.28,33.28,0,0,0,3.6-22.5c-1.5-7.8-4.2-8.4-4.2-13.8.3-6.6,4.2-10.5,6.6-14.7,6.6-11.1-1.2-20.7-3.3-39.6-2.7-26.4,9.6-33.3,7.2-58.2-1.5-14.1-4.2-27.3-4.2-27.3-1.2-5.1-1.5-5.4-2.1-8.7a101.54,101.54,0,0,1-1.5-28.2c.9-15.6-13.2-48-29.7-66-27.6-30.3-69-29.4-151.8-27-42,1.2-57.3,6.3-69.6,15.9-17.4,13.2-30.6,35.7-34.8,57.9-4.5,23.4,3.6,35.1-5.4,58.5-1.5,4.2-5.4,12.6-7.5,25.2a86.65,86.65,0,0,0-1.8,22.8c1.8,19.5,11.7,22.5,13.2,39.3,1.2,13.8-5.7,12.9-6.3,30-.9,24,11.4,47.4,11.4,47.4-.3,0-.6.3-.9.6-.9.6-1.5,1.8-1.8,1.8a54.51,54.51,0,0,0-2.1,17.4s.3,5.1,8.7,24.6"
      />
      <path
        id="SvgjsPath5616"
        class="female hair-outline"
        d="M202.2,413.4c10.2-9,11.7-18.6,11.7-31.8s-26.7-118.8-26.7-139.5S174,196.8,174,196.8l-4.2-4.8s-18,44.1-13.5,67.8c0,0-17.7,27.3-3,54.6s24.9,45,28.8,54.6,9.6,15.3,10.2,27.9c.9,12.9-5.1,21.9-15.6,28.2.3-.3,10.5,1.2,25.5-11.7Zm239.7-71.7s-.6,45.9-16.2,63c0,0,4.2-1.2,13.2-8.7C438.6,396,455.1,375,441.9,341.7Zm-23.7,91.2s-23.1-15.3-12.9-38.1c5.7-12.3,21.6-45.3,28.2-57.6s8.7-66.3,4.8-78.6c-3.6-12.3-9.3-32.4-9.3-38.1l-4.8-3.3-29.7,8.7L365.1,273l-3.6,96,13.2,20.4a45.7,45.7,0,0,0,2.4,11.4c3.9,12.3,5.7,18.9,12.6,24.3,9,6,18.9,6.9,28.5,7.8ZM164.7,417.3c-1.2-9.3,7.2-26.7,7.2-41.7s-17.4-29.4-17.4-29.4-6.3,2.1-6.3,30,11.4,47.4,11.4,47.4c7.5,8.1,9.9,6.6,9.9,6.6s-3.3-3.6-4.8-12.9Z"
      />
    </g>
  </g>
  <g id="svga-group-hair-front">
    <path
      id="SvgjsPath5611"
      class="female hair"
      d="M154.5,443.1c3.3,15.9,8.7,24.6,8.7,24.6s-13.8,26.7,9.9,49.8c18.3,17.7,30.9-12.9,35.4-25.2,4.8-13.2,2.7-18.9,2.7-18.9s14.1-25.2,3.3-50.7c-35.7,1.2-48,12-52.5,8.7a33.58,33.58,0,0,1-5.4-5.7c-1.8,3-3.9,8.1-2.1,17.4Zm231.3-16.8s-17.1,13.8,3.3,47.1c0,0-10.2,18.3,12.9,43.2,13.8,15,37.2-24,35.7-46.5s-6.9-23.7-6.9-23.7a50.45,50.45,0,0,0,8.7-14.1C431.4,432.9,414.9,432.6,385.8,426.3ZM264,171s14.4,35.4,70.5,45.9S405,252,408.3,273.6s-7.2,40.5-5.1,54.9,8.4,13.2,6.6,30.6c0,0,10.5-17.7,7.2-29.4s-2.7-15.6,1.8-26.7,16.2-32.7,12.6-71.4-20.1-77.1-54.9-101.4-98.7-19.2-115.8-1.5c0,0-38.4-17.7-71.1,22.8s-28.8,94.8-21,117.6,12.3,24.9,13.2,36.6-2.7,18.3-.6,23.7,7.2,12.6,7.2,12.6-6-16.2-1.2-27.6,8.4-30.6,5.1-43.2,1.2-23.4,10.5-35.1S241.2,230.7,264,171ZM174.9,508.2s-16.2,5.4-16.2,33.9S168,579,168,579s-3.6-12.3-.9-22.2c0,0-.6,30.3,20.7,46.8,0,0-6.9-15.3-1.5-23.1s14.7-7.8,19.8-16.8c4.8-8.7,6.3-33,2.4-45.6-3.9-12.9-23.1-14.7-33.6-9.9Zm221.4-.9s-12.3,6.9-14.7,25.5,1.5,30.6,15.9,43.5S408,609,408,609s11.4-14.7,9.6-27.9-4.8-15.3-4.8-15.3,6.9,11.7,8.4,23.7c0,0,10.8-13.8,12.3-26.1s5.7-40.8-14.4-53.1c-15-9-22.8-3-22.8-3Z"
    />
    <path
      id="SvgjsPath5612"
      class="female hair-details"
      d="M266.7,153.9s15.6,27.6,51.3,42.6,74.1,24.9,89.7,41.4,8.7,50.4,5.7,58.5c0,0,19.2-26.4,6.3-55.5s-90.3-41.4-114.6-57-38.4-30-38.4-30Zm3.6-12.9s22.2,22.2,60.6,33.3,81.9,27,96.9,53.4c0,0-5.7-26.4-36.9-47.7s-73.8-11.1-120.6-39Zm-10.8,12.9s-9.9,39.9-30.6,55.5-41.4,27-42.6,42c-1.5,15,3,25.5,3,25.5S175.5,260.7,180,243c4.2-17.7,27.6-25.5,45.6-40.5S259.5,153.9,259.5,153.9Zm-9.9-17.1s-17.7,31.2-37.8,48.3-36.3,27-39.9,42.6c0,0-.6-16.5,7.8-30.6s22.2-22.2,39-32.1,30.9-28.2,30.9-28.2Zm27-9.9s36.9-8.4,63.3-4.2,59.7,26.4,72,51.3,15.6,33.6,15.6,33.6-12-26.4-30-43.5-51.9-42.9-120.9-37.2ZM172.8,186.6s17.7-47.7,70.5-54.9C243.3,132,198.3,149.1,172.8,186.6Z"
    />
    <path
      id="SvgjsPath5613"
      class="female hair-outline"
      d="M189.6,510.6s7.2,13.5,9,26.1-5.4,26.1-9.9,31.8a34.83,34.83,0,0,0-6,11.4s4.2-9,12.3-13.5,11.4-26.1,7.8-35.7c-3.9-9.9-13.2-20.1-13.2-20.1ZM411.3,513s7.8,10.8,11.1,28.5.3,37.2.3,37.2,7.2-15.9,5.7-27.3-3-21-17.1-38.4ZM159,542.1c0,28.5,9.3,36.9,9.3,36.9s-3.6-12.3-.9-22.2c0,0-.6,30.3,20.7,46.8a33.4,33.4,0,0,1-2.4-7.2,30.74,30.74,0,0,1-6.9-16.5c-1.2-15-1.5-44.7-1.2-53.7a70.88,70.88,0,0,0-2.1-18h-.3c-2.4.9-16.2,7.5-16.2,33.9Zm271.5-95.7h0l.6-.6.3-.3c.3-.3.3-.6.6-.9v-.3l.9-.9a.29.29,0,0,1,.3-.3,51.87,51.87,0,0,0,9.3-21.9c-2.7,7.8-8.7,14.4-15.6,18.6-11.7,7.2-24.9,13.8-29.1,20.1s-5.4,16.2-3.3,22.2c0,0,.6-11.4,15.9-21,6.6-4.2,12.3-6.9,16.2-9.9,2.4,3.6,3.9,11.1,3.3,19.5-.6,11.1-6.3,28.8-10.2,34.8a23.59,23.59,0,0,1-8.4,7.8,58.17,58.17,0,0,0,7.8,0c10.5-11.4,19.2-33.3,17.4-47.7-2.1-15.9-6-19.2-6-19.2Zm-265.8,8.1c-6.3-5.1-9.6-16.5-10.2-24-.9,3-1.2,6.9,0,12.6,3.3,15.9,8.7,24.6,8.7,24.6,9.9,9.6,12.3,7.2,19.8,11.7s9.3,14.7,9.3,14.7,3.9-15.6-2.1-22.8-17.1-9.6-25.5-16.8Zm17.4,61.2a210.94,210.94,0,0,1-15-17.4c-4.8-6-6.3-14.4-6.9-20.7a41.52,41.52,0,0,0,9,35.7A74.72,74.72,0,0,0,182.1,515.7Zm28.5-46.2c8.7-15.9,7.5-31.2,3.9-37.5s-10.8-14.4-10.8-14.4,6.9,19.2,5.1,28.8c-.9,6.3-5.1,10.8-7.5,13.2a32.41,32.41,0,0,0-9-5.7c-6.9-2.7-13.8-13.2-13.8-13.2.9,9.6,13.5,19.2,18,24,4.5,4.5,3.9,12.9,3.9,12.9s0,26.4-9,32.7c0,0,3.3,2.4,9.9-1.8a100.55,100.55,0,0,0,7.2-16.2c4.8-13.2,2.7-18.9,2.7-18.9a15.82,15.82,0,0,0-.6-3.9Zm176.7-42.3s-5.7,8.4-4.2,21c1.2,12.6,9.3,24.6,9.3,24.6s-6-26.4,5.4-46.8l-6-4.2Zm18,141.6c-10.5-18.6-16.8-31.5-11.7-42.9,1.5-3.3,2.7-6.9,4.2-9.6a43.58,43.58,0,0,1,8.4-8.1s-5.7-6.6-5.7-17.7,6.3-20.1,6.3-20.1-12.6,7.5-13.5,21.3,1.2,16.5,1.2,16.5c-3.6,2.7-11.1,10.2-12.9,24.3-2.4,18.6,1.5,30.6,15.9,43.5,12,10.8,11.1,26.7,10.5,31.2,0,.3,8.1-19.5-2.7-38.4Z"
    />
    <path
      id="SvgjsPath5614"
      class="female hairband"
      d="M205.8,510.3c-.3-.6-.9-.6-1.5-.9a2.7,2.7,0,0,0-.3-1.5,5.39,5.39,0,0,0,1.2-2.7c0-.6-.3-1.2-.9-1.2a4.72,4.72,0,0,0-3.9,1.2,7.63,7.63,0,0,0-2.1.6c-4.2,2.7-11.1,2.1-15.9,2.4l-9.3.9a33.83,33.83,0,0,1-7.2-2.4c-2.1-.9-4.5,1.8-2.7,3.3a16.64,16.64,0,0,0,2.4,1.8,2.77,2.77,0,0,0,.9,4.8c3.3,1.2,8.4,2.7,12.6,2.1,4.2.9,9.3-.6,13.5-1.2,3.3-.6,6.6-.9,9-3h.9c2.1,0,5.4-1.8,3.3-4.2Zm221.4-6a22.74,22.74,0,0,0-4.8.9c-1.2.3-2.1.3-3.3.6a62.56,62.56,0,0,0-7.5,0c-3.6,0-7.5,0-11.4-.3a17.2,17.2,0,0,1-4.2-1.2c-2.1-.9-3.9-2.4-6.3-2.7-1.5-.3-3.3.9-2.7,2.7a7.52,7.52,0,0,0,1.2,2.1h-.6a1.32,1.32,0,0,0-1.2,1.8,7.8,7.8,0,0,0,4.2,4.5c.3,0,.3.3.6.3a.29.29,0,0,1,.3.3c2.1,1.2,4.8,1.5,6.9,1.8a12.18,12.18,0,0,0,5.7,0c6.9.9,14.1,1.5,21,.3,2.1-.3,2.7-2.4,2.4-4.2a7.65,7.65,0,0,0,2.4-3.6c.6-1.5-.9-3.3-2.7-3.3Z"
    />
  </g>
</svg>
