<?xml-stylesheet type="text/css" href="../../../../female-colors.css" ?>
<svg
  width="70"
  height="70"
  id="Layer_1"
  data-name="Layer 1"
  xmlns="http://www.w3.org/2000/svg"
  viewBox="0 0 600 600"
>
  <g id="svga-group-hair-back-move" >
    <g id="svga-group-hair-back">
      <path
        id="SvgjsPath5543"
        class="female hair"
        d="M174.6,325.5s14.1,71.4,6.6,114-8.1,55.2-18,71.4-15,20.1-24.6,29.7,5.1,46.2,5.1,46.2l329.1-6.6s-22.2-32.1-36.6-51.3c-14.1-19.2-18.6-26.7-21.6-51.3s2.1-151.2,2.1-151.2l-207-8.1-35.1,7.2Z"
      />
      <path
        id="SvgjsPath5544"
        class="female hair-outline"
        d="M230.1,416.7a.75.75,0,0,0-1.5,0c0,4.2-.3,8.1-.6,12.3q0-13.5-.9-27a.65.65,0,0,0-.6-.6,50.85,50.85,0,0,0-.3-6.9.6.6,0,1,0-1.2,0c-.6,43.5-8.4,84.6-19.2,126.6-.3,1.2,1.2,1.5,1.8.6,8.7-23.1,14.1-48.3,17.1-73.2a490.36,490.36,0,0,1-12.9,77.4c-.3.9,1.2,1.2,1.2.3.9-2.4,1.5-4.8,2.4-7.2,0,.9,1.2.9,1.5,0,9.3-32.7,14.1-68.7,13.2-102.3Zm.3.6c2.4,30.9-.6,60.3-3.9,90.9,0,1.2,1.8,1.2,1.8.3,6.9-29.7,6.6-61.2,3.6-91.2,0-1.2-1.8-1.2-1.5,0Zm-14.7,37.5a354.36,354.36,0,0,0,3.6-43.5c0-.6-.6-.9-1.2-.6v-6a.6.6,0,1,0-1.2,0c-.3,39.3-7.8,76.8-18.9,114.3,0,.3,0,.6.3.6l-.9,3.6a.77.77,0,1,0,1.5.3A265.25,265.25,0,0,0,210,486.3a254.89,254.89,0,0,0,5.7-31.5Zm-.6-64.5c-3.3,46.8-14.7,91.2-27.3,136.2-.3.9.9,1.2,1.2.3,17.7-42.9,24.6-90.3,27-136.5.3-.9-.9-.9-.9,0Zm-8.1-4.2c0-.6-1.2-.6-1.2,0a322.64,322.64,0,0,1-3.6,59.4,230.92,230.92,0,0,0,.3-43.2c.3-6,.6-11.7.9-17.7a.6.6,0,1,0-1.2,0,68.26,68.26,0,0,1-.6,7.8c-.3-.3-.9-.3-.9,0a36.31,36.31,0,0,1,.3,5.7c-.9,10.2-2.1,20.1-3.6,30a247.25,247.25,0,0,0,.6-53.7c0-.6-1.2-.6-1.2,0a316.76,316.76,0,0,1-3.6,61.2,310.2,310.2,0,0,0,1.8-62.4.45.45,0,1,0-.9,0c1.8,41.7-4.5,81.3-17.4,119.7,3.6-13.2,6.3-26.7,8.7-38.7,6.6-34.8,7.8-70.2-2.1-104.4-.3-.6-1.5-.3-1.2.3,8.4,34.2,7.5,69,.9,103.5-6,30.9-13.5,67.2-35.7,90.6a.85.85,0,0,0,1.2,1.2,76.3,76.3,0,0,0,11.1-12.9c-3,5.1-6,10.2-9.3,15.3-.3.6.6,1.2.9.6a118.67,118.67,0,0,0,6.6-10.2c0,.3-.3.6-.6.9q-4.95,8.55-10.8,17.1c-.6.9.6,1.8,1.5,1.2,33-39.6,48.3-90.6,53.4-141.6-.3,46.5-12.6,89.7-34.5,131.7-.3.6.6,1.2.9.6,3.3-5.4,6.6-10.8,9.6-16.5-1.5,3.6-3.3,7.5-4.8,11.1-.6.9.9,1.8,1.5.9,26.4-47.7,36.9-103.5,33-157.5Zm164.1,19.8a.75.75,0,0,0-1.5,0c-2.7,44.7-5.1,95.1,17.1,135.9.3.9,1.8.3,1.5-.6-18-44.1-18.3-88.8-17.1-135.3Zm14.1,102.9c.3.6,1.2.3.9-.3a300.05,300.05,0,0,1-10.5-45.3,236.83,236.83,0,0,1,.6-48.3.75.75,0,0,0-1.5,0c-.6,5.1-1.2,10.5-1.5,15.9V423c0-.6-.9-.6-1.2,0a203.61,203.61,0,0,0,.6,30.3c.6,30.6,6.6,61.5,19.8,89.1.3.9,1.8.3,1.5-.6a362.2,362.2,0,0,1-12.9-45c1.2,3.6,2.7,7.8,4.2,12Zm1.5-25.2a345.73,345.73,0,0,1,0-80.7.45.45,0,0,0-.9,0,289.91,289.91,0,0,0-4.5,45.6,213.71,213.71,0,0,1,1.2-41.4c0-.6-1.2-.9-1.2-.3-1.2,9-2.1,18-2.4,27a184.54,184.54,0,0,1,.6-22.2c0-.9-1.2-.6-1.2,0-3.6,30-1.8,61.8,7.5,90.9a218.34,218.34,0,0,0,6.9,27.6c.3.9,1.8.6,1.5-.3-1.2-5.4-2.1-10.8-3-16.2v-.3c0-.3,0-.6-.3-.6-.3-1.2-.3-2.1-.6-3.3a183.68,183.68,0,0,0,15,32.1c.6.9,2.1,0,1.5-.9a280.1,280.1,0,0,1-20.1-57Zm6.9-98.7c0-.9-1.2-1.2-1.2-.3-9.6,50.7-2.7,105.3,22.5,150.9.3.9,1.5,0,1.2-.6C394.5,487.2,385.8,437.1,393.6,384.9Zm6.3-1.5c0-.6-.9-.6-1.2-.3-8.7,54.6-.9,119.7,26.4,168.6a.67.67,0,0,0,1.2-.6c-9.6-26.4-19.2-51.9-24-79.8C397.5,442.2,397.5,413.1,399.9,383.4Zm29.4,151.8a363.3,363.3,0,0,1-20.4-66,409.51,409.51,0,0,1-1.8-85.8c0-.6-1.2-.6-1.2,0a428.6,428.6,0,0,0-2.4,48,283.58,283.58,0,0,1,1.2-52.8c0-.9-1.2-.9-1.5-.3-5.1,35.7-3.6,73.5,5.4,108.6a279.77,279.77,0,0,0,8.4,34.8c.3.9,1.5.6,1.2-.3-.9-4.2-2.1-8.7-3-12.9a180.55,180.55,0,0,0,12,27c.9,1.2,2.4.6,2.1-.3ZM401.4,522a.64.64,0,0,0,1.2-.3c-11.7-39.6-17.4-78.3-14.1-119.7,0-.3-.3-.3-.6,0C382.5,441.9,386.1,484.5,401.4,522Z"
      />
    </g>
  </g>
  <g id="svga-group-hair-front">
    <path
      id="SvgjsPath5540"
      class="female hair"
      d="M404.1,169.2c-32.7-54.3-104.4-50.1-104.4-50.1S228,114.9,195,169.2c-30.6,51-24,94.8-24,94.8s6.6,6.6,10.5,30.6c0,.9.6,1.2,1.2,1.5a1.8,1.8,0,0,0,.3,1.2c0,.3.3.6.6.9a6.28,6.28,0,0,0,1.2,1.8,1,1,0,0,0,1.8-.9l-.9-1.8v-1.5h.6a1,1,0,0,0,.3.6.81.81,0,0,0,1.5-.6c-.3-1.2-.6-2.1-.9-3.3v-1.2a.81.81,0,0,0,1.5-.6c0-.6-.3-.9-.3-1.2.3-.3.3-.3.3-.6v-2.4c0,.3.3.3.3.6.6.6,1.8.3,1.5-.6l-.9-2.7v-2.4c.6.6,1.5,0,1.2-.6a5.56,5.56,0,0,0-.6-2.1v-.9a.92.92,0,0,0,1.2-1.2c-.3-.9-.6-2.1-.9-3a.29.29,0,0,1,.3-.3v.3a.77.77,0,0,0,1.5-.3,9,9,0,0,0-1.2-3v-1.2h.3c0,.6.3,1.2.3,1.8s.9.3.9-.3-.3-1.2-.3-1.8c.3.3.9,0,.9-.6,0-.9-.3-1.5-.3-2.4v-1.2a.65.65,0,0,0,.6-.6c0-.9-.3-2.1-.3-3h.3c0,.3.3.3.3.6.6,1.2,2.1.3,1.8-.9-.3-1.5-.3-3.3-.6-5.1.6.3,1.2.3,1.2-.6a6.46,6.46,0,0,0,0-2.4v-1.2a.29.29,0,0,0,.3.3c.3.6,1.2.3,1.2-.6-.3-1.2-.3-2.4-.6-3.6v.3c.3.9,1.8.6,1.5-.3,0-.6-.3-1.2-.3-1.8v-2.1c.3,0,.9-.3.6-.9a9.27,9.27,0,0,1-.6-2.4V240c0,.3,0,.3.3.6a1.09,1.09,0,1,0,2.1-.6,2.7,2.7,0,0,0-.3-1.5,1.15,1.15,0,0,0,1.5-.9c.3-.3.6-.6.6-.9v-.3c.6.3,1.5-.6,1.2-1.2a20.67,20.67,0,0,1-.9-2.4,1.29,1.29,0,0,0,1.2-1.2c0-.9-.3-1.8-.3-2.7a6.56,6.56,0,0,0,.9,1.5c.6.9,2.4.3,1.8-.9-.3-.6-.3-1.5-.6-2.1l.3.3a1.13,1.13,0,0,0,1.8-1.2,1.56,1.56,0,0,0-.6-1.2c.3.3.3.6.6.6.9,1.2,3,.3,2.1-1.2l-.9-1.8a.65.65,0,0,0,.6-.6v-.6c.3.6.6.9.9,1.5a1,1,0,0,0,1.8-.9,12.54,12.54,0,0,1-1.2-3c.6.3,1.2,0,1.2-.9v-.6a.91.91,0,0,0,1.5-.9c-.3-1.2-.3-2.4-.6-3.6.6,1.2,1.2,2.1,1.8,3.3.6.9,2.4.3,2.1-.9a10.75,10.75,0,0,0-1.2-3.3c.6.9,2.1,0,1.8-1.2a15.06,15.06,0,0,1-.6-3.6l.6-.6a27.86,27.86,0,0,0,1.2,3.9,1.24,1.24,0,0,0,2.4-.6l-.9-4.5c.6,1.2,2.7.6,2.4-.6-.3-.9-.3-1.5-.6-2.4,0,.6.3.9.3,1.5.3,1.2,2.7,1.2,2.4-.3,0-1.2-.3-2.4-.3-3.6l.3-.3c.3.9.3,1.5.6,2.4.3,1.2,2.4.9,2.4-.3v-4.5a.29.29,0,0,0,.3-.3c0,.3.3.9.3,1.2a1.09,1.09,0,1,0,2.1-.6v-.9a.29.29,0,0,0,.3.3c.3,1.2.6,2.7.9,3.9s2.1.6,1.8-.6c0-.3-.3-.9-.3-1.2.6,0,1.2-.3,1.2-.9,0-.9-.3-2.1-.3-3,.6.6,2.4.3,2.1-.9a12.31,12.31,0,0,1,.3-3.3h.3v1.5a1.21,1.21,0,0,0,2.4.3l.9-3.6v1.8c0,1.2,2.1,1.8,2.4.3,0-.3.3-.6.3-1.2.6,0,1.2,0,1.2-.9a12.54,12.54,0,0,1,1.2-3c.3,0,.3-.3.6-.3v2.1c0,.6.9,1.2,1.5,1.2v.3c.3,1.5,2.4.9,2.1-.6a15.48,15.48,0,0,1-.6-3.3c0-.3.3-.6.3-.9h.3a3.81,3.81,0,0,0,.3,1.8c.3,1.2,2.1.9,2.4,0,0-.3.3-.6.3-1.2a1.32,1.32,0,0,0,2.4-.3v-.3c.3.9.6,2.1.9,3s1.8.6,1.5-.3a3.81,3.81,0,0,1-.3-1.8c.3-.3.6-.6.6-.9v.3c.3.9.9.9,1.5.3,0,.3.3.3.3.6a.85.85,0,0,0,1.5,0,1,1,0,0,0,1.8-.3,6.61,6.61,0,0,0,.3-2.4v-.3c.3.6.3.9.6,1.5.3.3.6.6.9.3.3.3.3.6.6.9a.75.75,0,1,0,1.2-.9,5.56,5.56,0,0,1-.6-2.1c.6.6,1.5,0,1.8-.6a4.16,4.16,0,0,0,0-2.7h.6c0,.9.3,1.8.3,2.4.3,1.5,2.4,1.5,2.4,0a1.2,1.2,0,0,0,1.8-.6v-.9a10.66,10.66,0,0,0,1.2,2.7c.6.9,2.4.3,1.8-.9a19.12,19.12,0,0,1-.6-2.1,2.7,2.7,0,0,1,.3-1.5,31.12,31.12,0,0,0,1.2,3c.3.9,2.1.3,1.8-.6v-.3c.3,0,.6-.6.6-.9v-1.5h.3V180a1.23,1.23,0,0,0,2.4.3c-.3,1.2,1.5,1.8,2.1.6l.9-2.7h.3v2.7a1.2,1.2,0,0,0,2.4,0c0-.9.3-1.8.3-2.7h.3c.3,1.5.6,2.7.9,4.2a1.07,1.07,0,0,0,2.1-.3c.6,0,1.2,0,1.2-.9v-.3a3.81,3.81,0,0,0,.3,1.8c0,1.5,2.7,1.5,2.4,0v-1.2q.45,0,.9-.9c0-.3.3-.6.3-.9,0,.6.3.9.3,1.5.3.9.9.9,1.5.6,0,.6-.3,1.2-.3,1.8-.6,1.5,1.5,1.8,2.1.6a25.53,25.53,0,0,0,1.8-5.1c.3.6.3.9.6,1.5-.3.9-.6,1.5-.9,2.4s1.2,1.5,1.8.6a17.69,17.69,0,0,1,1.2-2.4c.6.3,1.5,0,1.5-.6.3.3.9,0,1.2,0,.3.6.6.6,1.2.3v.3a1.15,1.15,0,0,0,1.8,1.2v.9a.77.77,0,0,0,1.5.3,1.1,1.1,0,0,1,.3-.9,1.44,1.44,0,0,0,1.8.6.65.65,0,0,0,.6-.6,23.51,23.51,0,0,0,1.5-4.2h.9c-.3,1.2-.3,2.4-.6,3.6a1.24,1.24,0,0,0,2.4.6c.3-.6.3-1.2.6-1.8h.3v.9a.75.75,0,0,0,1.5,0v.6a1.07,1.07,0,0,0,2.1.3v-.6a1,1,0,0,0,1.8-.3c.3-.3.3-.6.3-1.2.3,0,.9-.3.9-.6s.3-.3.3-.6c0,.9-.3,1.8-.3,3s1.8,1.5,2.1.6a4.34,4.34,0,0,0,.6-2.1c-.3.6-.3,1.5-.6,2.1s.6,1.2,1.2.9a1.16,1.16,0,0,0,2.1.3c0-.3.3-.3.3-.6.3.6.9.6,1.5.3l.3-.3c0,.6.9,1.2,1.5,1.2.3.6.9.9,1.5.3l1.2-1.2a.65.65,0,0,0,.6-.6V183l.9-.9c-.3.3-.3.6-.6.9s-.6.6-.6.9c-.6.6.3,1.8.9,1.2.3-.3.6-.3.6-.6.3,0,.6-.3.9-.6h.3a.74.74,0,0,0,1.2.3l-.6.6c-.9.6.3,2.4,1.2,1.5.3-.3.6-.6.9-.6-.9,1.2.6,2.7,1.5,1.5.3,0,.3-.3.3-.6v.3c-.3.9,1.2,1.5,1.5.6.3-.6.6-1.5.9-2.1h.3c-.3.9-.6,1.5-.9,2.4-.6.9.9,1.8,1.5,1.2-.6.9.6,1.8,1.5,1.2.3-.3.3-.6.6-.9a1,1,0,0,0,1.8.9c.3-.3.6-.9,1.2-1.2a.93.93,0,0,0-.3.6c-.6.6.3,1.5,1.2,1.5a1.18,1.18,0,0,0,1.8,1.5l1.8-1.8.3.3a13,13,0,0,1-2.1,1.8,1,1,0,0,0,.9,1.8c.3-.3.6-.3,1.2-.6-.3.6-.6.9-.9,1.5-.6.9.6,1.8,1.5.9.3-.3.6-.6.6-.9a1.1,1.1,0,0,0,1.5.6c.3-.3.6-.6.9-.6-.3.3-.6.9-.9,1.2a1.28,1.28,0,0,0,1.8,1.8c-.3.6.6,1.5,1.5,1.2.3-.3.9-.6,1.2-.9a.92.92,0,0,0,1.2,1.2v.9c0,.9,1.2.9,1.5,0a1.56,1.56,0,0,0,1.2.6v.3c0,.3-.3.3-.3.6a.89.89,0,0,0,.6,1.2.72.72,0,0,0,1.2-.6v-.3c.3-.3.6-.9.9-1.2l.3.3a5.56,5.56,0,0,0-.6,2.1.92.92,0,0,0,1.2,1.2v.3a1.22,1.22,0,0,0,2.1,1.2c0-.3.3-.3.3-.6l-.9,4.5c-.3.9.9,1.2,1.2.3.3-.6.3-.9.6-1.5a.91.91,0,0,0,1.2,0,1.13,1.13,0,0,0,1.2,1.8c-.3.6-.3,1.2-.6,1.8-.3.9.9,1.2,1.2.3,0-.3.3-.6.3-.9a.74.74,0,0,0,1.2-.3v.6l-.3.3c-.6.3-.3.9,0,1.5,0,.6.6.6.9.6s.3,0,.6-.3a5.27,5.27,0,0,0,1.5-1.2c-.3.3-.6.6-.6.9a1.34,1.34,0,0,0,0,1.5c-.3.6-.3,1.5-.6,2.1s.6.9.9.3c.6-.9.9-1.8,1.5-2.7l.6-.6.3.3c-.3.6-.9,1.2-1.2,1.8-.9.9.3,2.4,1.2,1.8.3,0,.3-.3.6-.6-.3.6-.3,1.2-.6,1.8-.3,1.2,1.2,1.5,1.8.9a5.11,5.11,0,0,0-.3,2.1,1.1,1.1,0,0,0,.3.9c-.6,1.2,1.5,2.4,2.4,1.2.3-.3.3-.6.6-.6a2.27,2.27,0,0,0-.6,1.2c-.3.6.3,1.5.9,1.8,0,.3-.3.3-.3.6-.6,1.2.9,2.4,1.8,1.5.3,0,.3.3.6.3v.3a.29.29,0,0,1-.3.3c-.9.9.3,2.4,1.5,1.8l.6.6-.3.3a1,1,0,0,0,1.2,1.5c0,.3.3.3.6.3a.29.29,0,0,1-.3.3c-.3.6,0,.9.3,1.2-.3.3,0,.6.3.9-.3.6-.6.9-.9,1.5-.6.9.3,1.5,1.2,1.2-.3.3-.3.6-.6.9-.6,1.2.9,2.1,1.5,1.2h.6a.29.29,0,0,1-.3.3,1.38,1.38,0,0,0,.9,2.1c-.3.6-.6.9-.9,1.5-.9,1.2.9,2.4,1.8,1.5.3-.6.9-.9,1.2-1.5,0,.3,0,.3.3.6-.6.6-.9,1.2-1.5,1.8a1,1,0,0,0,.6,1.8,1,1,0,0,0,.9,1.5c-.6.9.3,2.4,1.2,2.1.3,0,.3-.3.6-.3-.9,1.2-1.2,3-1.8,4.2-.3.9.9,1.2,1.5.6.3-.6.6-.9.9-1.5,0,.3.3.6.3.9a16.08,16.08,0,0,0-1.5,3.3c-.3,1.2.9,1.8,1.5.9.3-.3.6-.9.9-1.2-.6.9-1.2,2.1-1.8,3-.6,1.2.9,2.7,1.8,1.5a.29.29,0,0,1,.3-.3c-.6.6-.9,1.2-1.5,1.8-.9.9.3,2.4,1.2,2.1a13,13,0,0,0-1.2,2.1c-.6.9.3,1.5.9,1.5-.3.9,1.2,1.5,1.8.6a4.14,4.14,0,0,0,.9-1.2c-.3.9-.9,1.8-1.2,2.7a.92.92,0,0,0,1.2,1.2l-1.8,3.6c-.3.6.9,1.2,1.2.6a.29.29,0,0,1,.3-.3c.3.3.6.3,1.2,0l-1.8,3.6c-.6.9.6,1.8,1.2,1.2a.29.29,0,0,1-.3.3c-.3.6,0,1.2.6,1.2v.3a.89.89,0,0,0,.6,1.2c-.3.9-.3,1.8-.6,2.4-.3.9.6,1.2,1.2.9h.3c0,.6-.3,1.5-.3,2.4a.81.81,0,0,0,1.2.6l.3.3a6.28,6.28,0,0,1-1.2,1.8c-.3.6.6,1.5,1.2.9l.6-.6v.6a6.56,6.56,0,0,1-.9,1.5c-.6,1.2,1.2,2.4,1.8,1.2a32.72,32.72,0,0,0,1.8-3.3,23.16,23.16,0,0,0-.6,4.5c-.3,1.2,1.8,1.2,1.8.3.3-1.2.9-2.7,1.2-4.2,1.8-5.4,3.9-12,3.6-17.7,3.6-11.1,7.2-14.1,7.2-14.1s8.1-45.3-22.5-96Z"
    />
    <path
      id="SvgjsPath5541"
      class="female hair-outline"
      d="M184.8,260.7c-.3-.3-.9-.3-.9.3,1.5,4.2,4.5,8.1,8.7,9.9.6.3,1.2-.6.6-1.2a48.18,48.18,0,0,1-8.4-9Zm-1.2-9.9a32.72,32.72,0,0,1-1.8-3.3,40.08,40.08,0,0,0,6.3,6c.6.3.9-.3.6-.6a120.24,120.24,0,0,1-9.9-11.7,27.39,27.39,0,0,0-2.4-3.9l-.3-.3a4.84,4.84,0,0,1-1.2-2.1c-.3-.6-1.2,0-.9.6a22.38,22.38,0,0,0,2.1,3.6c.9,4.5,3.6,9,6,12.6,1.2,2.1,2.7,4.2,4.2,6.3a63.79,63.79,0,0,1-11.4-12.3c-.3-.3-.9-.3-.9,0a.65.65,0,0,0-.6.6c0,10.8,9.6,22.2,17.1,29.1.6.3,1.5-.3.9-.6-3-4.5-6.9-8.4-9.9-12.9-3-4.2-4.5-8.7-6-13.5a46.8,46.8,0,0,0,12.3,12h.6c1.5,1.8,3,3.3,4.5,4.8a.64.64,0,1,0,.9-.9,113.7,113.7,0,0,1-10.2-13.5Zm-.6,29.4a17.15,17.15,0,0,0,2.1,2.4c.6.6,2.1-.3,1.5-1.2-3-4.8-6.3-9.3-8.7-14.4a85.91,85.91,0,0,1-6.3-17.4c-.3-.6-1.2-.6-1.2.3a63.82,63.82,0,0,0,9.3,25.8c-.3-.6-.6-.9-.9-1.5-.6-.6-1.5,0-1.2.6,2.7,5.1,5.7,10.8,10.2,14.1a.66.66,0,0,0,.9-.9,64.26,64.26,0,0,0-5.7-7.8Zm2.1-45.9a61.15,61.15,0,0,1-8.1-15.9c-.3-.6-1.2-.3-.9.3,2.4,11.1,9.9,24.9,21,29.4.6.3.9-.6.6-1.2-4.5-4.5-9.3-7.8-12.6-12.6Zm4.2-6.9c-.3-.3-.3-.6-.6-.9-.9-1.5-1.8-3.3-2.7-4.8-1.8-3.6-3.3-7.2-4.8-11.1a.74.74,0,0,0-1.2-.3c-.3-.3-.3-.9-.6-1.2-.3-.6-1.2,0-.9.6.6,1.5,1.5,3.3,2.1,4.8,2.7,10.5,10.5,23.1,19.8,27.6.6.3,1.2-.6.9-.9-3.9-4.8-8.7-8.7-12-13.8Zm12,3.3a18.21,18.21,0,0,0-2.1-3c-.3-.3-.9,0-.6.3.9,2.4,3,4.5,4.8,6.3.3.3.9-.3.6-.6A27,27,0,0,1,201.3,230.7ZM186.9,198c-.3-.6-1.2-.6-1.2.3,2.4,12.3,9,24.3,19.8,31.2.6.3.9-.6.6-.9-10.5-7.8-14.7-19.2-19.2-30.6Zm21.6,25.5c-5.4-8.7-8.4-18.3-12.3-27.9-.3-.6-.9-.6-.9-.3a119.76,119.76,0,0,1-5.7-14.4c0-.6-.9-.3-.9,0a39.81,39.81,0,0,0,7.8,20.4c2.4,9,6,18.3,12,25.2.6.6,1.5,0,1.2-.9C209.4,224.4,209.4,224.7,208.5,223.5Zm-6.3-32.4c-2.4-6-3.9-12.6-6-18.6a.64.64,0,0,0-1.2.3c2.1,12.9,6,28.8,15.6,38.4.6.6,1.8-.3,1.2-.9-3.6-6.3-7.2-12.3-9.6-19.2Zm8.4-5.7c-.3-.6-.9-.3-.9,0a35.21,35.21,0,0,0,10.5,23.1.64.64,0,0,0,.9-.9c-4.5-6.9-7.5-14.1-10.5-22.2Zm9.9,1.8c-.3-.6-1.5-.6-1.2.3a54.18,54.18,0,0,0,4.2,13.5c.3.9,2.1.6,1.5-.3-1.5-4.5-2.7-9-4.5-13.5Zm11.4-41.7h0c0-.3.3-.3.3-.6a31.61,31.61,0,0,1,3.6-11.4c.3-.6-.6-.9-.9-.6-2.4,3.6-3.9,7.5-3.6,11.7-.3,0-.6,0-.6.3-4.5,15.9-2.4,32.4,4.2,47.4.3.6,1.2.3.9-.6C230.7,176.7,230.1,161.4,231.9,145.5Zm9,28.2a71.81,71.81,0,0,0,1.2,18c.3.9,1.2.6,1.5-.3a90.82,90.82,0,0,0-1.2-18C242.4,172.5,240.9,172.8,240.9,173.7Zm8.1,1.2a120.62,120.62,0,0,1,.9-18c0-.6-.6-.6-.6-.3-2.1,7.8-2.1,15.9-.9,24a45.79,45.79,0,0,0,.9,9c0,.6.9.3.9,0a105.91,105.91,0,0,0,0-13.8c0-.9-.6-.9-1.2-.9Zm24.6-50.4a71.38,71.38,0,0,0-8.1,21.9c.3-3,.9-6,1.2-9.3,0-.6-.9-1.2-1.2-.3-4.8,15.9-5.4,33.3-2.7,49.5,0,.6,1.2.6,1.2,0a176.65,176.65,0,0,1,.3-28.2,67.81,67.81,0,0,0,.3,7.8.45.45,0,1,0,.9,0,112.05,112.05,0,0,1,9-40.8C275.1,124.5,273.9,123.6,273.6,124.5Zm2.1,34.2a120.14,120.14,0,0,0-3.6,22.8c0,.9,1.5,1.2,1.5.3,1.2-7.5,2.7-15.3,3.3-22.8C277.2,158.1,276,157.8,275.7,158.7Zm6.3,9.6a36.47,36.47,0,0,0-2.7,12.6c0,.9.9.9,1.2.3,1.5-3.9,2.1-8.4,2.7-12.6C282.9,167.7,282,167.7,282,168.3Zm6,2.4c-.9,3-.6,6.3-.6,9.3,0,.6,1.2.6,1.2,0,0-3,.3-6,.3-9C288.9,170.1,288,170.1,288,170.7Zm3.9-40.8c0,17.4-.3,35.1,1.2,52.5a.45.45,0,1,0,.9,0c2.1-17.1.9-35.4-1.2-52.5A.45.45,0,1,0,291.9,129.9Zm11.4,1.8a79.25,79.25,0,0,0-.6-8.7c0-.3-.3-.3-.3,0-.3,4.8-.9,9.6-.3,14.4,0,.3.6.3.6,0a2.25,2.25,0,0,1,.3-1.5c.6,15-.3,30-.3,45.3,0,.9,1.2.9,1.5,0,2.1-16.2,1.2-32.7-.3-48.9,0-.6-.3-.6-.6-.6Zm10.2,34.8a139.62,139.62,0,0,0,.9-33.6c0-.3-.6-.3-.6,0,.3,11.1-.3,22.2-.9,33.3C312.6,166.8,313.2,167.1,313.5,166.5Zm7.8-27.6c.3,9.6-.6,19.2-1.2,29.1,0,.6,1.2.9,1.2.3a135,135,0,0,0,.9-29.1C322.2,138.3,321.3,138.3,321.3,138.9Zm9.6,4.2c-2.1,12.9-4.8,25.5-6.3,38.4,0,.9.9.9,1.2.3,4.8-11.7,6.6-25.8,6.6-38.4C332.4,142.5,330.9,142.2,330.9,143.1Zm7.2,4.5c0-.6-1.2-.9-1.2,0-.9,6.9-1.8,13.5-3.3,20.4-1.2,5.4-3.6,10.8-3.6,16.5a.6.6,0,1,0,1.2,0c.9-6.6,3.9-12.9,5.1-19.8A82.8,82.8,0,0,0,338.1,147.6Zm1.5,24.9c-1.2,3.9-1.8,7.8-3.3,11.4-.3.6.9,1.2,1.2.6a20.7,20.7,0,0,0,3.3-12C340.8,171.9,339.6,171.6,339.6,172.5Zm7.2-6.6c-1.8,6-3,12.3-4.5,18.3-.3.6.6.9.9.3a125.37,125.37,0,0,0,4.5-18.3C347.7,165.6,347.1,165.3,346.8,165.9Zm2.4,17.7a100.3,100.3,0,0,0,9.3-38.4c.3,0,.6,0,.6-.6.3-4.2-.6-8.4-.9-12.6a.6.6,0,1,0-1.2,0c0,18-3.3,34.2-9,51,0,.9.9,1.5,1.2.6Zm12.3-12.3a85.58,85.58,0,0,0,3.6-21.3c.3,0,.6,0,.6-.6,1.2-4.8.6-9.9,0-14.7,0-.6-.9-.3-.9,0,0,4.8-.6,9.6-.3,14.4,0,.3,0,.3.3.6a181.48,181.48,0,0,1-3.9,21.6c-.3.3.3.3.6,0Zm3.9-1.5a99,99,0,0,1-9.6,21.6c-.3.6.3.9.9.6a42.86,42.86,0,0,0,9.9-22.2c0-.6-1.2-.6-1.2,0Zm3.6,5.4c-3.3,6.6-6.6,12.9-10.2,19.2-.3.6.6,1.2.9.6a46.91,46.91,0,0,0,10.8-19.2c0-.9-1.2-1.5-1.5-.6Zm10.8-10.5a80.44,80.44,0,0,1-5.4,18.9c-2.4,5.4-6.3,9.9-9.6,15-.6.6.6,1.2.9.9,9.6-8.1,15.3-22.2,15.6-34.5A.77.77,0,0,0,379.8,164.7Zm6.3,14.7c.3-.6-.9-1.2-1.2-.6-.9,1.5-1.8,3.3-2.7,4.8l-.3.3c0,.3-.3.3-.3.6a76.48,76.48,0,0,1-10.8,15.6c-.6.6.3,1.8.9.9a4.14,4.14,0,0,0,.9-1.2c-.3.6.3.9.9.6a39.39,39.39,0,0,0,7.8-12,26.38,26.38,0,0,0,4.8-9Zm-1.8,21.3c8.4-10.8,13.5-23.7,13.8-37.5a.45.45,0,0,0-.9,0,104,104,0,0,1-13.8,36.9C383.1,200.4,383.7,201,384.3,200.7Zm6.6.3c.3-.6-.6-1.2-.9-.9-1.8,1.8-3.3,3.9-5.1,6a41.8,41.8,0,0,0-4.5,5.7c-.3.6.3,1.5.9.9a28.75,28.75,0,0,0,5.1-5.4A30.27,30.27,0,0,0,390.9,201Zm-9.3,5.4a16.75,16.75,0,0,0,1.5-2.4c.3-.6-.6-1.2-.9-.6-.9.9-1.5,1.8-2.4,2.7a4.87,4.87,0,0,0-1.5,2.7,1,1,0,0,0,1.8.6v-.6c.3-1.2,1.2-1.8,1.5-2.4Zm-1.2-5.7a17.17,17.17,0,0,0-4.5,4.8c-.6.6.6,1.5,1.2.9a16.49,16.49,0,0,0,3.9-5.1c.3-.3,0-.9-.6-.6Zm21,2.1c.3-.6-.6-1.5-1.2-.9-2.7,2.7-4.8,5.7-7.5,8.4s-5.4,5.1-8.1,7.8c-.6.6.3,1.5.9,1.2,6-4.2,12.3-10.2,15.9-16.5Zm1.8,3.9c.3-.6-.6-1.2-1.2-.9-5.1,4.8-9.6,10.2-14.7,15.3-.3.3.3,1.2.6.9,5.7-4.2,11.7-9.3,15.3-15.3Zm-3.9,14.7c.3.3.6.6.9.3a76,76,0,0,0,13.2-21.6c.3-.6-.9-1.2-1.2-.6-3.3,7.2-7.5,13.5-11.7,19.8a.29.29,0,0,1,.3-.3c.3-.9-.9-1.2-1.2-.9-1.5,1.5-2.7,3.3-4.2,4.8a65.89,65.89,0,0,1-5.4,4.2.75.75,0,1,0,.9,1.2,20,20,0,0,0,8.4-6.9Zm4.2,2.1c.3-.6-.6-1.2-.9-.9-3.3,3.3-6.3,7.2-9.6,10.8-.6.6.3,1.8,1.2,1.2C397.5,231.6,401.4,227.7,403.5,223.5Zm16.2-6h0c.6-2.1,1.2-3.9,1.8-6,0-.6-.6-.6-.6-.3a138.11,138.11,0,0,1-9.3,18.9v.3a60.29,60.29,0,0,1-9.9,11.7c-.3.3.3,1.2.6.9,8.4-6,15.3-15,17.4-25.5ZM411,240.9c-3,3-6,6.3-8.7,9.3a.64.64,0,0,0,.9.9c4.5-4.2,9.6-8.4,13.5-13.2.3-.6-.3-1.8-.9-1.2s-1.2.9-1.8,1.5c4.8-5.4,7.8-12.6,9.3-19.5.3-.9-.9-1.2-1.2-.3-2.7,7.8-6.9,14.7-11.7,21.6-.3.3,0,.6.6.9Zm5.7,3c.3-.3,0-.6-.3-.9,4.2-4.8,6.6-11.7,7.5-18,0-.6-.9-1.2-1.2-.3-1.5,6.3-4.5,11.7-7.5,17.4-.3.3,0,.6.3.9-4.5,3.9-8.4,8.4-13.5,12-.6.6,0,1.5.6.9,5.4-3,10.8-6.9,14.1-12Zm8.1,6.3c-2.1,3.3-4.5,6.3-6.9,9.6-3.6,2.7-6.6,5.7-10.8,8.1-.6.3,0,1.2.6.9a52.13,52.13,0,0,0,5.7-3l-.3.3c-.3.3.3.9.6.6A68.84,68.84,0,0,0,426,251.1c.3-.9-.6-1.5-1.2-.9Zm-9.6,20.4a.66.66,0,0,0-.9-.9,18,18,0,0,0-3.9,2.7c-1.2.9-2.7,1.8-3.9,2.7-.3.3-.3,1.2.3.9C409.5,274.8,413.4,273.3,415.2,270.6Zm6,0c.3-.6-.6-.9-.9-.6-3.9,4.8-7.8,9.3-13.2,12.3-.6.6,0,1.5.6,1.2A22.9,22.9,0,0,0,421.2,270.6Zm6-11.4a.64.64,0,0,0-1.2-.3c-1.5,6-3.3,12-6.3,17.4-2.7,5.1-6.9,8.7-10.2,13.2a.66.66,0,0,0,.9.9c10.2-5.7,16.5-20.1,16.8-31.2ZM221.7,186.9a91,91,0,0,1-3-41.1.64.64,0,0,0-1.2-.3,54.46,54.46,0,0,0,3.3,41.7c.6.3,1.2.3.9-.3Zm24-53.1c-8.1,13.2-8.1,28.8-6,43.8,0,.6,1.2.6,1.2,0-.3-15-1.2-29.4,6-43.2.3-.6-.9-1.5-1.2-.6Zm-6.3,12.9c.3-.9-.9-1.2-1.2-.3-3.9,13.2-5.4,28.5-.6,41.7.3.6,1.5.6,1.2-.3C237.6,173.4,236.4,161.1,239.4,146.7Zm-8.1,47.7a107.59,107.59,0,0,1-3.9-26.1c0-.3-.6-.6-.6-.3a179.6,179.6,0,0,1-.9-25.5.6.6,0,1,0-1.2,0,93,93,0,0,0,1.8,31.5,92.74,92.74,0,0,0,3.6,22.2c.3.6,1.2.9,1.5.3s.6-.9.6-1.5-.6-.9-.9-.6Zm-7.8-15.9a82.82,82.82,0,0,0,4.2,22.8c.3.9,1.5.6,1.2-.3-1.8-7.5-2.7-15-4.2-22.8-.3-.6-1.2-.6-1.2.3Zm171.3,20.7c-1.2,1.5-2.1,3.3-3.3,4.8a32.11,32.11,0,0,1-4.2,4.8c-.6.6.3,1.2.9.9l.9-.9c.3.3.3.3.6,0,9.3-6,13.2-18,16.8-27.9.3-.6-.9-.9-1.2-.3a102.76,102.76,0,0,1-9.9,18.9c.3-.6-.6-.6-.6-.3ZM410.4,216c-3.9,7.8-8.1,15-13.8,21.6a.64.64,0,0,0,.9.9c6.3-6.3,11.4-13.8,13.8-22.2C411.6,215.7,410.7,215.4,410.4,216Zm-13.5,2.1c7.2-6.3,11.7-14.4,14.4-23.7.3-.6-.9-.9-1.2-.3a92.4,92.4,0,0,1-13.8,23.4C396,217.8,396.6,218.4,396.9,218.1Zm10.5,44.4c-.3.3,0,.6.3.6a89.77,89.77,0,0,0,15.6-18,67,67,0,0,1-11.1,15c-.3.3,0,.9.6.6,5.7-4.2,9.6-9.9,12.6-16.2.3-.6-.3-1.2-.9-1.2,0-.3.3-.3.3-.6.3-.6-.6-1.2-.9-.6-1.8,2.7-3.9,5.1-5.7,7.5-.3-.3-.3-.3-.6,0-4.8,3.3-9,7.2-14.1,10.2-.6.6,0,1.5.6,1.2a38,38,0,0,0,9.3-6c-1.8,2.4-3.9,4.8-6,7.5Zm13.8-2.7a.29.29,0,0,0,.3-.3c.3-.3-.3-.9-.6-.6,0,.3-.3.3-.3.6C420.3,259.5,420.6,260.1,421.2,259.8ZM259.8,133.2a60,60,0,0,0-3.6,21.9c-.3,0-.6,0-.6.3a115.31,115.31,0,0,0,.6,22.8c-.3,2.4.3,4.8.3,6.9,0,.6,1.2.6,1.2,0v-.6a.65.65,0,0,0,.6-.6,14.61,14.61,0,0,1-.3-3.6,17.11,17.11,0,0,0-.3-3.9.29.29,0,0,0-.3-.3,132.16,132.16,0,0,1-.9-15.6,3.81,3.81,0,0,0,.3,1.8c0,.6.9.3.9,0a84.47,84.47,0,0,1,3.6-28.8.77.77,0,0,0-1.5-.3ZM276.6,123a55.88,55.88,0,0,0-6.6,25.8c0,.6.9.9,1.2,0a92.47,92.47,0,0,1,6.9-25.2c0-.6-1.2-1.5-1.5-.6ZM252,159.9a80.87,80.87,0,0,0,2.1,25.5c0,.6.9.3.9,0-.9-8.4-1.5-16.8-1.8-25.5C253.2,159.3,252.3,159.3,252,159.9Zm64.5,1.5c-1.2,6.3-1.8,12.6-3.3,18.6-.3.9,1.2,1.2,1.5.3a51,51,0,0,0,3-18.9C317.7,161.1,316.5,160.8,316.5,161.4Zm4.8,8.7a70.64,70.64,0,0,0-3.3,10.5c-.3.9.9,1.2,1.2.3,1.2-3.3,2.7-6.9,3.3-10.5A.64.64,0,0,0,321.3,170.1Zm24,.3c.9-3.9,1.5-8.1,2.4-12,0-.3-.3-.3-.3,0-.9,3.9-1.5,8.1-2.4,12C344.7,170.7,345,170.7,345.3,170.4Zm13.2-6.6c-2.7,8.7-6,16.8-11.7,24a.66.66,0,0,0,.9.9c6.3-6.9,10.8-15,12.3-24.3,0-.9-1.2-1.2-1.5-.6Zm5.7,5.1c.3-.6-.9-1.2-1.2-.6a130.29,130.29,0,0,0-8.4,18.6c-.3.6.9,1.2,1.2.6C358.8,181.5,362.1,175.2,364.2,168.9Zm-157.5,3.3a76.67,76.67,0,0,1,.6-16.5c0-.6-.9-.9-.9-.3-1.8,5.4-2.4,11.4-.9,16.8a.6.6,0,1,0,1.2,0Zm.3,15.6a114.81,114.81,0,0,1-3.9-26.7c0-.6-1.2-.6-1.2,0a59.46,59.46,0,0,0,4.2,27C206.4,188.4,207.3,188.4,207,187.8Zm-6.3-6c-.3-.9-.3-1.5-.6-2.4.3.6.3.9.6,1.5s.9,0,.9-.3a58.58,58.58,0,0,1-3-14.4.45.45,0,0,0-.9,0,44.94,44.94,0,0,0,.6,6.6c-.3-.9-.6-1.5-.9-2.4-.3-.6-.9-.3-.6.3.9,3.9,1.8,7.8,3,11.4.3.3.9.3.9-.3Zm-3.6,12a104.64,104.64,0,0,1-3.6-16.2c0-.6-1.2-.6-1.2,0,.6,5.7,1.5,11.4,3.9,16.8,0,.6,1.2,0,.9-.6Zm2.4,25.2c-5.7-9.6-9.9-18.9-12.3-30-.3-.6-1.5-.6-1.5.3a55.43,55.43,0,0,0,12.6,30.6c.6.3,1.8-.3,1.2-.9Zm-7.5,4.5a113,113,0,0,1-9.3-24.3c-.3-.9-1.5-.6-1.2.3a62,62,0,0,0,9.6,24.6C191.4,224.4,192.3,224.1,192,223.5Zm-14.7-8.1a.67.67,0,0,0-1.2.6c3.9,10.5,10.8,21,20.4,26.7.6.3,1.2-.6.9-.9-8.4-7.8-15.3-15.9-20.1-26.4Zm10.8,32.1a.64.64,0,0,0,.9-.9c-5.4-6.9-10.5-13.5-14.7-21.6a.67.67,0,0,0-1.2.6c3.3,8.4,8.1,16.2,15,21.9Zm30.6-56.1c-5.7-12.9-8.1-24.9-5.7-39,0-.9-.9-1.2-1.2-.3-3.9,13.2-2.4,28.8,5.4,40.2C218.1,193.2,219.3,192.3,218.7,191.4ZM405,234.6c7.8-7.5,12.3-17.7,14.7-28.2.3-.6-.9-.9-.9-.3-3,10.5-8.1,19.2-14.4,27.9-.6.3.3.9.6.6Zm10.8,15.3c4.5-4.2,7.5-9.6,9.6-15.6.3-.9-1.2-1.2-1.5-.3a58.64,58.64,0,0,1-9,15c-.3.6.3,1.5.9.9ZM411,275.4c-.3.3,0,1.2.6.9,6.3-4.2,10.8-10.8,14.4-17.4a.67.67,0,0,0-1.2-.6C421.2,264.9,416.4,270.3,411,275.4Zm7.8,7.5c-2.7,3.9-5.7,7.2-8.7,11.1-.3.6.3.9.9.6,3.6-2.7,6.3-7.2,8.4-11.4.6-.3,0-.6-.6-.3Zm-28.2-84.6a55.15,55.15,0,0,0,11.7-22.8c.3-.6-.6-.9-.9-.3a114.75,114.75,0,0,1-11.7,22.5C389.4,198.3,390.3,198.6,390.6,198.3Zm-133.5-72a30,30,0,0,0-6,12.9c0,.6.6.6.6.3a82.31,82.31,0,0,1,6.3-12.6c.6-.6-.3-1.2-.9-.6Zm-21.3,24a94.45,94.45,0,0,1,8.7-19.5c.3-.6-.6-1.5-1.2-.9a38.13,38.13,0,0,0-8.7,19.8C234.6,150.6,235.5,150.9,235.8,150.3Zm-6.9-5.7a27,27,0,0,0,.9-4.8c0-.3-.6-.6-.6-.3-.3,1.5-.6,3.3-.9,4.8C228.3,144.6,228.9,144.9,228.9,144.6Zm20.1-5.7c1.5-3.6,2.4-7.2,3.6-11.1.3-.6-.6-.9-.9-.3-1.2,3.6-2.4,7.2-3.3,10.8-.3.6.3.9.6.6Zm4.2,7.5c1.5-3.9,2.7-8.1,4.5-12,1.5-3.6,3.6-6.6,5.4-10.2.3-.6-.6-1.2-.9-.9-5.4,5.7-9,14.7-10.2,22.5C252,146.7,252.9,147,253.2,146.4Zm10.2-9.3c1.8-4.8,3.3-9.3,6-13.5.3-.6-.6-1.2-.9-.6a32.3,32.3,0,0,0-6.3,13.8c.3.9,1.2.9,1.2.3Zm13.2,7.5a130.14,130.14,0,0,1,4.8-18.6c.3-.9-.9-1.2-1.2-.3a58.07,58.07,0,0,0-4.5,18.9C275.7,144.9,276.6,145.2,276.6,144.6Zm11.1-24.3c-3.9,7.5-6.3,16.5-5.7,25.2,0,.6.9.9.9,0a141.76,141.76,0,0,1,5.4-24.9c.3-.6-.3-.9-.6-.3Zm2.4,2.7a98.21,98.21,0,0,0-2.7,21,.45.45,0,1,0,.9,0c.6-6.9,1.2-13.8,2.4-20.7.3-.6-.6-.9-.6-.3Zm6.3-3.9a97.82,97.82,0,0,0-.9,16.2.45.45,0,0,0,.9,0,97.82,97.82,0,0,0,.9-16.2C297,118.5,296.4,118.5,296.4,119.1Zm1.5,6.9c-.3,3-.6,6-.6,9a.45.45,0,0,0,.9,0c.6-3,.3-6.3.6-9.3C298.8,125.4,297.9,125.4,297.9,126Zm8.1,0a17.11,17.11,0,0,0,.3,3.9c0,.3.6.3.6,0a17.11,17.11,0,0,0,.3-3.9c-.3-.6-1.2-.6-1.2,0Zm10.5,2.7a34.88,34.88,0,0,0-1.2-5.4c0-.6-.9-.3-.9.3a25.41,25.41,0,0,0,1.2,5.1C315.9,129,316.5,129,316.5,128.7Zm4.2,3.3c.6-2.4,0-5.7-.6-8.1,0-.6-.9-.3-.9,0,.3,2.7,0,5.4.3,8.1C319.5,132.6,320.4,132.6,320.7,132Zm1.5-7.5a43,43,0,0,1,1.2,6.6c0,.3.6.3.6,0a16,16,0,0,0-.9-6.6c-.3-.9-1.2-.6-.9,0Zm6,4.8a12.22,12.22,0,0,0-1.5-5.4c-.3-.3-.6,0-.6.3a28.54,28.54,0,0,1,1.2,5.4c.3,0,.9,0,.9-.3Zm12.3,4.8a48.83,48.83,0,0,0-2.1-9c0-.3-.6-.3-.6.3.6,3,.6,6,1.8,8.7a.45.45,0,1,0,.9,0Zm3,3c.6-3.3-.3-6.6-1.2-9.9-.3-.6-1.2-.6-1.2,0a93.19,93.19,0,0,0,1.2,9.6C342.6,137.7,343.5,137.7,343.5,137.1Zm3.9-1.8a19,19,0,0,0-.9-7.2c-.3-.6-1.2-.3-.9.3.6,2.4.6,4.5,1.2,6.9-.3.3.3.6.6,0Zm3.6,3.9c0-3-.6-6.6-.9-9.6,0-.6-1.2-.6-.9,0a94.88,94.88,0,0,0,.9,9.6C350.4,139.8,351,139.5,351,139.2Zm1.5,10.5c0,.6.9.9,1.2,0,1.8-6.6.9-13.5-.6-20.1a.64.64,0,0,0-1.2.3c1.2,6.6.6,13.2.6,19.8Zm10.2-.9c.9-5.1.3-10.5-.6-15.6a.45.45,0,0,0-.9,0c.3,5.1,0,10.2.3,15.3.3.9,1.2,1.2,1.2.3Zm6.3,4.5c1.5-4.2,1.2-9.9,1.2-14.4,0-.6-.9-.6-1.2,0-.6,4.5-2.1,9.9-.9,14.4C368.4,153.6,369,153.6,369,153.3Zm4.2,1.2c1.2-3.6.9-7.5,1.5-11.1a.45.45,0,0,0-.9,0c-.6,3.6-1.8,7.5-1.5,11.1C372.3,155.1,372.9,155.1,373.2,154.5Zm5.7-1.8a23.16,23.16,0,0,0-.6-4.5c0-.3-.3-.3-.3,0a23.92,23.92,0,0,0,.9,4.5c-.3.3,0,.3,0,0Zm3.6,5.4c.9-3,.6-6.3.6-9.3,0-.6-1.2-.6-1.2,0,.3,3-.3,6-.3,9C381.3,158.4,382.2,158.7,382.5,158.1Zm1.8,3.9c1.8-3,2.4-7.2,2.4-10.5a.6.6,0,1,0-1.2,0,65.07,65.07,0,0,1-2.1,10.5s.9.3.9,0Zm3.9,3a28.45,28.45,0,0,0,1.5-6.9c0-.6-.9-.9-.9-.3a61.44,61.44,0,0,0-1.5,7.2c0,.3.6.3.9,0Zm4.8,4.2.9-1.8a.29.29,0,0,0-.3-.3,7.63,7.63,0,0,0-.6,2.1Z"
    />
    <path
      id="SvgjsPath5542"
      class="female hair-details"
      d="M346.8,161.4c.9-2.1.9-4.5,1.5-6.6,0-.3-.3-.3-.3,0a52.25,52.25,0,0,0-1.5,6.6Zm1.5,2.4c3-7.5,3.6-15.6,3.9-23.7,0-.6-.6-.6-.6,0-.9,7.8-3,15.6-4.2,23.4-.3.9.6.9.9.3Zm6.6-1.5c1.2-2.1,1.2-4.5,1.5-6.6.6-2.7.9-5.4,1.2-7.8,0-.9-1.2-1.2-1.2-.3-.6,2.7-1.2,5.4-1.8,8.4-.3,2.1-1.2,4.2-.9,6.6a1.8,1.8,0,0,0,1.2-.3Zm3.3.3c2.1-3.6,2.4-8.7,3.3-12.6a.77.77,0,1,0-1.5-.3c-.9,3.9-3,8.7-3,12.9C356.7,162.9,357.6,163.2,358.2,162.6Zm3.3-3.9c.6-2.1,1.2-4.5,1.8-6.9.3-.6-.9-.9-.9-.3a66.92,66.92,0,0,0-1.2,6.9c-.3.6,0,.6.3.3Zm1.5,9.9c2.1-4.2,3-9.3,4.2-13.8.3-.9-1.2-1.5-1.5-.6a74.78,74.78,0,0,0-3.6,14.1c0,.3.9.6.9.3Zm3.6,0c2.7-4.2,4.5-9.6,6.3-14.1.3-.6-.6-1.2-.9-.6-2.4,4.5-5.4,9.3-6.9,14.1-.3.9.9,1.2,1.5.6Zm2.1,1.5c-.3.6.6.6.6.3a30.56,30.56,0,0,0,4.2-10.2c.3-.6-.6-.6-.9-.3a59.67,59.67,0,0,1-3.9,10.2Zm4.2,2.1c.9-3,1.8-6,2.7-8.7.3-.6-.9-.9-.9-.3-.9,3-1.5,6-2.1,9C372.6,172.5,372.9,172.5,372.9,172.2Zm.3,9.9c3.9-6.9,6-15.9,7.5-23.7,0-.6-.9-.9-.9-.3-1.8,8.1-5.1,15.6-7.5,23.4C372,182.4,372.9,182.7,373.2,182.1Zm4.2,1.2c2.1-5.4,3.3-11.4,4.8-17.1.3-.9-.9-1.2-1.2-.3a119.89,119.89,0,0,0-4.5,17.1C376.2,183.6,377.1,183.9,377.4,183.3Zm2.1,3.6c2.4-6,3.6-12.6,5.1-18.6.3-.6-.6-.9-.9-.3-1.8,6-4.2,12.3-5.4,18.6-.3.9.9,1.2,1.2.3Zm3,3.3c2.7-6,4.2-12.9,6-19.5.3-.9-1.2-1.2-1.2-.3-1.8,6.3-4.5,12.9-5.4,19.5C381.6,190.5,382.5,190.8,382.5,190.2Zm6,3.6c.3-.3,0-.6-.3-.9a82.83,82.83,0,0,0,7.5-24c0-.6-.9-1.2-1.2-.3-2.1,8.4-4.8,16.8-7.5,25.2-3.9,3.9-7.2,7.8-12,10.8-.9.6,0,2.1.9,1.5C380.7,202.8,385.8,198.9,388.5,193.8Zm1.5,6.3a26.38,26.38,0,0,0,1.8-3,26.4,26.4,0,0,0-1.5,4.5.81.81,0,0,0,1.5.6c3.3-5.1,5.7-11.7,8.1-17.4.6-.9-1.2-2.1-1.5-.9-1.2,2.7-2.7,5.4-4.2,8.1,1.8-4.2,2.7-9,3.6-13.2.3-.9-1.2-1.2-1.2-.3-1.8,7.5-5.4,13.8-7.8,21C388.2,200.4,389.4,200.7,390,200.1Zm2.1,6.9c.3.3.6.3.9-.3,4.2-5.7,6.9-13.2,9.6-19.8.3-.6-.9-1.2-1.2-.6-2.7,6-6,11.7-8.7,17.7-3.3,3.3-6.3,6.9-9.6,10.2a.64.64,0,0,0,.9.9,29.73,29.73,0,0,0,8.1-8.1Zm3,2.7c-.3.6.9,1.2,1.2.6,1.8-2.4,2.7-5.4,3.9-8.4,1.2-2.7,2.7-5.4,3.9-8.4.3-.9-.9-1.5-1.2-.6-1.5,3-3,5.7-4.2,8.7-1.2,2.7-3,5.4-3.6,8.1Zm-54-44.1c1.8-7.8,3-15.6,4.2-23.4a.77.77,0,1,0-1.5-.3c-2.1,7.8-3.9,15.6-4.2,23.7,0,.6,1.2.6,1.5,0Zm-13.2-26.7c-2.1,12.3-3.3,25.2-4.5,37.8a.45.45,0,1,0,.9,0c2.7-12,4.8-25.2,4.8-37.8C328.8,138.3,327.9,138.3,327.9,138.9Zm-6.3,5.4c-.6,11.4-.9,23.1-2.4,34.5,0,.6.6.6.9,0a148.8,148.8,0,0,0,2.7-34.5A.6.6,0,1,0,321.6,144.3Zm-5.4,3a25,25,0,0,0,1.2-4.5.45.45,0,1,0-.9,0c-3.6,11.1-6.6,23.7-6.9,35.1a.45.45,0,1,0,.9,0c1.5-5.7,2.4-11.7,3.3-17.4a76.74,76.74,0,0,0,1.5-8.1A41.65,41.65,0,0,0,316.2,147.3Zm-7.5.3c-1.2,8.1-2.4,16.2-2.1,24.3-.3,0-.6,0-.9.6-1.2,3-1.5,6.6-2.1,9.9-.3,1.2,1.8,1.8,2.1.6.6-3.3,1.5-6.9,1.2-10.2.3,0,.6,0,.6-.6,1.2-8.1,1.5-16.5,2.4-24.6C310.2,147,308.7,147,308.7,147.6Zm-4.2-5.4c-1.2,9-2.7,18.3-3.3,27.6v-1.2c0-.6-.9-.6-1.2,0-.6,5.1-.9,10.2-1.2,15.3a.45.45,0,0,0,.9,0c.6-3.6,1.2-7.2,1.5-10.8.3.3.9.3.9-.3,1.8-10.2,2.4-20.4,3.6-30.6C305.7,141.6,304.5,141.3,304.5,142.2Zm-9.9-2.7c-1.2,11.4-2.7,23.1-2.7,34.5a.45.45,0,1,0,.9,0c2.1-11.4,2.4-23.1,3.3-34.5A.75.75,0,0,0,294.6,139.5Zm-7.5,7.2c-.9,9.3-1.5,19.5.6,28.8,0,.6.9.3.9,0,.6-9.6-.6-19.2.3-28.8C288.6,145.5,287.1,145.5,287.1,146.7Zm-4.5-2.4a.45.45,0,0,0-.9,0c-.9,10.8-1.5,22.2.3,33,0,.6.9.3.9,0C282.9,166.2,282,155.4,282.6,144.3Zm-6.3.9c.3,11.1.6,21.9,1.8,32.7,0,.6,1.2.6,1.2,0,0-11.1-.9-21.9-1.5-32.7C277.5,144.3,276,144,276.3,145.2Zm-9,3.3c-1.2,8.4-2.4,17.1-1.8,25.8a.45.45,0,0,0,.9,0c1.2-8.4,1.5-17.1,2.1-25.5C268.5,147.9,267.3,147.9,267.3,148.5Zm-6.3,5.1c-.6,8.1-.9,16.2.6,24,0,.6.9.3.9,0,.3-8.1-.6-15.9-.6-24C262.2,153,261,153,261,153.6Zm-4.8-.3c0,8.4,0,17.1,1.5,25.2a.77.77,0,0,0,1.5-.3c.3-8.4-.9-16.8-1.5-25.2,0-.9-1.5-.9-1.5.3Zm-2.1,20.1c-.9-7.2-2.4-14.4-2.7-21.6a.75.75,0,0,0-1.5,0c.3,8.4.3,17.4,2.7,25.8a1.2,1.2,0,0,0,1.2.6,59,59,0,0,0,1.8,10.5c0,.6,1.2.6,1.2,0a115.57,115.57,0,0,0-2.4-14.7C254.4,173.4,254.1,173.4,254.1,173.4Zm-4.2-.6c0-.6-1.2-.9-1.2-.3a29.56,29.56,0,0,0-.6,5.1c-1.5-6.6-3.3-12.9-4.2-19.8,0-.6-1.2-.6-1.2.3.9,8.4,2.1,17.1,5.4,24.9,0,.3.3.3.6.3.3,1.2.6,2.1.9,3.3s2.1.6,1.8-.6a32.62,32.62,0,0,1-1.5-13.2Zm-18-1.5a69.61,69.61,0,0,0,3.9,13.5c.3.6,1.2.3,1.2-.6-.9-4.5-2.4-9-3.6-13.5,0-.9-1.5-.6-1.5.6Zm-8.4-.3c1.2,7.8,3.3,15.6,7.8,22.2a.67.67,0,0,0,1.2-.6c-3-7.5-5.7-14.4-6.9-22.2C225.3,169.2,223.5,169.5,223.5,171Zm-4.8,2.7c1.5,7.8,3.6,15.6,8.1,22.5.3.6,1.2.3.9-.3-2.7-7.5-5.7-14.7-7.8-22.5,0-.9-1.2-.6-1.2.3Zm-4.2,30.9c0-.6-.3-.6-.3-.9-2.4-6.3-5.1-12.3-6.6-18.9a.77.77,0,0,0-1.5.3c1.5,6.6,3.3,13.5,6.6,19.2a24.62,24.62,0,0,0,3.3,9.3.67.67,0,0,0,1.2-.6c-.9-2.7-1.8-5.7-2.7-8.4Zm-12-15.6c3,8.4,6,17.1,10.8,24.6.3.3.9.3.9-.3-3-8.4-6.9-16.5-10.2-24.6C203.4,187.8,202.2,188.1,202.5,189Zm-1.5,9c1.8,6.9,3.6,14.1,8.4,19.8.6.6,1.5,0,1.2-.6-2.7-6.6-6.3-12.6-8.4-19.5C201.9,196.8,200.7,197.1,201,198Zm5.1,21.9c.3.3.3.6.6.6.3.6.9,0,.9-.6-2.4-5.1-5.1-10.2-6.6-15.6-.3-.9-1.5-.6-1.2.3a57.65,57.65,0,0,0,4.8,12.6.65.65,0,0,0-.6.6c.3,3.3,2.1,6.6,3.3,9.6.6,1.2,2.1.3,1.8-.9-1.5-2.1-2.1-4.5-3-6.6Zm-7.2,1.8a.29.29,0,0,0-.3-.3c-1.5-2.7-3-5.1-4.2-7.8-.3-.9-1.5,0-1.2.6,2.1,4.5,3.9,9.3,6.6,13.2.9,2.1,2.1,4.2,3,6,.3.6,1.5,0,1.2-.6-1.8-3.6-3-7.5-5.1-11.1Zm-.6,14.1c.6.6,1.5,0,1.2-.9-3.6-5.4-7.5-10.2-9.9-16.2-.3-.6-1.2-.3-.9.3,1.8,6,4.5,12.9,9.6,16.8Zm-.6,6a17.21,17.21,0,0,0-1.2-2.1.29.29,0,0,1,.3.3c.6.6,1.5-.6.9-1.2-3.6-4.2-7.2-7.8-9.3-12.6a.67.67,0,0,0-1.2.6,28.43,28.43,0,0,0,7.2,11.4c0,.3-.3.3,0,.6.6,3,3,5.7,5.1,8.1a.64.64,0,0,0,.9-.9c-.9-1.5-1.8-2.7-2.7-4.2Zm-3.3,3.3c.6.3,1.2-.6.6-.9-3.6-4.2-7.2-7.8-9.6-12.9a.67.67,0,0,0-1.2.6c2.4,4.8,5.4,10.5,10.2,13.2Zm-3-1.2c-.3-.6-.9-.3-.9.3a18.35,18.35,0,0,0,1.5,3.6c0-.3-.3-.3-.3-.6-1.2-1.5-2.4-3.3-3.6-5.1-.6-.6-1.5,0-1.2.6,2.1,3,4.2,6.6,7.2,8.7h.3c.6.6.9,1.5,1.5,2.1.3.6,1.2-.3.9-.6a44.75,44.75,0,0,1-5.4-9Zm2.1,15c-.3-.9-.3-1.8-.6-2.4a.29.29,0,0,1,.3.3c.3.3.6-.3.6-.6a16.64,16.64,0,0,0-1.8-2.4,44.17,44.17,0,0,0-3-6.6.67.67,0,0,0-1.2.6,1.1,1.1,0,0,0,.3.9c-.3,0-.9.3-.6.9.6.9.9,1.8,1.5,2.7a43.37,43.37,0,0,0,3.3,8.7.81.81,0,0,0,1.5-.6,2.25,2.25,0,0,0-.3-1.5Zm-3.3.3a8.25,8.25,0,0,0,2.4,4.5.29.29,0,0,0,.3-.3,10.17,10.17,0,0,1-2.7-4.2Zm147-89.7a63.09,63.09,0,0,1-4.5,12.6c-.6.9.9,1.8,1.5.9,2.4-3.6,4.5-8.7,4.5-13.2C338.7,168.9,337.5,168.9,337.2,169.5Zm3.6,4.2c-2.1,3-3.3,6.9-4.5,10.5-.3.6.9,1.2,1.2.6a63.89,63.89,0,0,0,4.2-10.5C342,173.4,341.1,173.1,340.8,173.7Zm9.6-2.4c-3,4.2-5.7,8.4-8.4,12.9-.3.6.6,1.2.9.6a118.64,118.64,0,0,0,8.4-12.9C351.3,171.3,350.7,171,350.4,171.3Zm3,2.7c-3.3,3.6-5.7,8.4-7.8,12.9-.3.9.6,1.5,1.2.6,2.4-4.5,5.4-8.4,7.5-12.9C354.6,174,354,173.4,353.4,174Zm4.5.9c-3,3.9-5.4,8.4-8.1,12.6-.3.6.3.9.9.6,3.3-3.9,6.6-8.1,8.4-12.6a.81.81,0,0,0-1.2-.6Zm9.6,1.2c.3-.6-.3-1.2-.9-.6-3.6,4.2-6.6,9-10.5,12.9a.64.64,0,0,0,.9.9c3.9-3.9,8.1-8.4,10.5-13.2Zm3.3,1.8c-4.2,5.4-8.1,11.1-12.3,16.5-.3.6.6,1.2.9.6a65.75,65.75,0,0,0,12.3-16.5c.3-.3-.3-.9-.9-.6Zm3,3.9c-3.6,5.1-6.9,10.5-10.5,15.3-.6.6.6,1.5,1.2.9,4.2-4.8,8.1-9.9,10.5-15.9.3-.6-.6-.9-1.2-.3Zm1.5,5.1c-2.7,3.3-4.8,7.5-7.8,10.8-.6.6.3,1.8,1.2,1.2,3-3.3,6.3-6.9,7.8-11.4C376.8,186.9,375.9,186.3,375.3,186.9Zm4.2,2.7a51.46,51.46,0,0,0-8.4,11.1c-.6.6.6,1.2,1.2.6,2.7-3.6,5.7-7.2,8.4-11.1,0-.3-.9-.9-1.2-.6Zm9.3,13.5c.3-.9-.6-1.5-1.2-.9a28,28,0,0,0-3.9,4.5,52.15,52.15,0,0,1-3.9,4.5.85.85,0,0,0,1.2,1.2,32.11,32.11,0,0,0,4.2-4.8A13.28,13.28,0,0,0,388.8,203.1Zm3.6,6.6c-2.4,2.1-4.2,4.5-6.3,6.6-.6.6.3,1.8.9.9,1.8-2.4,4.2-4.5,6-6.9C393.9,209.7,393,209.1,392.4,209.7Zm6.6,4.8c.3-.3-.3-.9-.6-.6-3,2.7-5.7,5.7-8.7,8.7-.3.6.3,1.2.6.6A79.4,79.4,0,0,0,399,214.5Zm2.1,4.8a95.66,95.66,0,0,0-9.9,12c-.3.6.6,1.2.9.9a88.57,88.57,0,0,0,9.6-12C402.3,219.3,401.4,218.7,401.1,219.3Zm2.4,1.5c-3.6,5.4-6.9,11.4-9.9,16.8-.3.6.6,1.2.9.6A62.49,62.49,0,0,0,405,221.1C405,220.8,403.8,220.2,403.5,220.8Zm6.9.3c-4.2,6.6-7.8,13.2-12.3,19.2-.6.6.3,1.8.9.9,5.1-6,9.9-12.6,12.3-19.8.3-.6-.6-.9-.9-.3Zm.3,9.9c.3-.6-.6-1.2-1.2-.6a91.69,91.69,0,0,0-9.9,19.5c-.3.6.6.9,1.2.6C404.1,243.9,408,237.6,410.7,231Zm.9,4.2c-3.9,6.9-7.2,14.4-11.1,21.3-.3.6.6,1.2,1.2.6,4.2-6.9,8.4-13.8,10.8-21.6C412.8,235.2,411.9,234.6,411.6,235.2Zm2.1,5.4c-3.3,6.6-6.3,13.5-9.6,20.4-.3.6.6,1.2,1.2.6,3.6-6.6,7.2-13.2,9.6-20.4C414.6,240.3,414,240,413.7,240.6Zm1.8,6.6c-3.3,6.9-6.3,13.8-9.6,20.7-.3.6.3.9.6.3a77.31,77.31,0,0,0,9.9-20.7C416.7,246.9,415.8,246.6,415.5,247.2Zm0,9c-3.3,5.7-5.7,12.6-8.1,18.6-.3.6.9,1.2,1.2.6,3-6,6.3-12.3,8.4-18.6A.81.81,0,0,0,415.5,256.2Zm2.7,4.2a147.75,147.75,0,0,0-8.7,21.6.67.67,0,0,0,1.2.6,147.75,147.75,0,0,0,8.7-21.6C419.7,260.4,418.5,259.8,418.2,260.4Zm.6,12.9a70.53,70.53,0,0,1-5.1,15.3c-.3.9.9,1.5,1.2.6,2.4-5.1,4.5-10.2,4.8-15.9a.45.45,0,1,0-.9,0Zm-201.3-81c.3,5.1,2.1,9.6,4.2,14.1a.67.67,0,0,0,1.2-.6c-1.5-4.5-2.7-9.3-4.2-13.8C218.4,191.7,217.5,191.7,217.5,192.3Zm-2.4,3a138,138,0,0,0,3.9,15c.3.9,1.5.6,1.2-.3-1.2-5.1-2.1-10.2-3.9-15C215.7,194.1,214.8,194.4,215.1,195.3Zm-10.5,30a33.33,33.33,0,0,0-2.1-4.8c-.6-.6-1.5-.3-1.2.6.6,3.3,3,6.6,4.8,9.3.3.6,1.5,0,.9-.6A32.79,32.79,0,0,1,204.6,225.3Zm-20.1,24.9c-.3-.6-1.2-.3-.9.3a78.77,78.77,0,0,0,7.5,18c.6.9,2.1,0,1.5-.9-2.7-5.7-5.4-11.7-8.1-17.4Zm.6,9.3c-.3-.6-1.2-.3-.9.3a178.46,178.46,0,0,0,6.6,17.7c.3.9,1.8.6,1.5-.3C189.9,271.2,187.8,265.2,185.1,259.5Zm-4.2,3.9c0-.3-.6,0-.6.3a90.9,90.9,0,0,0,9,18.9c.3.6,1.5,0,.9-.6-3.3-6.3-6.6-12.3-9.3-18.6Zm4.5,21.9a10.78,10.78,0,0,0-.6-3.3c0-.3-.6-.3-.6,0v.6a24.82,24.82,0,0,0-2.7-4.8c-.3-.3-.9-.3-.9.3a34.52,34.52,0,0,0,3.6,7.5c0,2.1.3,3.9.3,5.7,0,.9,1.5.9,1.2,0a10.21,10.21,0,0,0-.3-3,1,1,0,0,0,.3.6c.3.6,1.2,0,.9-.6s-.6-1.8-1.2-3ZM243.9,183c-.9-8.7-1.5-17.7-2.7-26.4,0-.9-1.2-.9-1.5,0a113.36,113.36,0,0,0,3,31.8c.3.9,1.5.6,1.5,0,.3.3.9,0,.6-.6a12.44,12.44,0,0,0-.9-4.8Zm28.5-19.2c0-.6-1.2-.6-1.2,0a120.17,120.17,0,0,0,0,18,.75.75,0,0,0,1.5,0C272.7,175.8,273,169.8,272.4,163.8Zm-5.1,6c0,5.1.3,9.9,0,15,0,.6,1.2.6,1.2,0a125.41,125.41,0,0,0-.6-15c0-.3-.6-.6-.6,0Zm-7.5,6c0,3.6.9,6.9,1.5,10.5,0,.6,1.2.3.9-.3-.6-3.3-.9-6.9-1.8-10.2.3-.6-.6-.6-.6,0Zm30-6.3a86.53,86.53,0,0,0-.6,12.3c0,.6.9.6,1.2,0,.3-3.9.9-8.1.6-12.3C290.7,169.2,289.8,168.9,289.8,169.5Zm27.6-3.6a94.35,94.35,0,0,1-3.3,13.2c-.3.9.9,1.2,1.2.3,1.5-4.5,2.7-8.7,2.7-13.5.3-.3-.6-.3-.6,0Zm13.2-.6c-.9,6-2.1,11.7-3.3,17.4-.3.6.9.9.9.3a121.23,121.23,0,0,0,3-17.7c.3-.3-.6-.3-.6,0Z"
    />
  </g>
</svg>
