<?xml-stylesheet type="text/css" href="../../../male-colors.css" ?>
<svg
  style="transform: scale(3.5) translate(-15px, 0)"
  width="70"
  height="70"
  id="Layer_1"
  data-name="Layer 1"
  xmlns="http://www.w3.org/2000/svg"
  viewBox="0 0 600 600"
>
  <g class="hidden" id="svga-group-ears-left-move">
    <g id="svga-group-ears-left">
      <path
        id="SvgjsPath6547"
        class="male skin"
        d="M181,281.68s-13.86-14.8-18.27-19.53S153,247.35,147,249.24c-6,1.57-3.78,8.5-4.09,18.27s.94,28.66,6.93,39.06,9.13,14.17,11,25.2,8.82,13.23,12.92,10.08,13.54-22.05,13.86-32.13c0-10.08-4.1-23.94-6.62-28Z"
      />
      <path
        id="SvgjsPath6548"
        class="male ear-outline"
        d="M183.84,288.3a64.4,64.4,0,0,1,2.2,7.24A63,63,0,0,1,188.25,311a49.55,49.55,0,0,1-.95,7.24l-1.89,6.62c-1.57,4.09-3.46,8.19-5.35,12a52.14,52.14,0,0,1-3.47,5.35,17.74,17.74,0,0,1-2.52,2.21,5.06,5.06,0,0,1-2.83.94,7.17,7.17,0,0,1-6.3-2.2,18.62,18.62,0,0,1-4.41-7.25l-.63-2.2-.32-2.21c-.31-1.26-.31-2.52-.63-3.46-.63-2.21-1.26-4.73-1.89-6.62-1.57-4.41-4.09-8.5-6.61-12.6a23.29,23.29,0,0,1-3.15-6.93,67.38,67.38,0,0,1-2.21-7.56,124.94,124.94,0,0,1-2.2-15.12,118.86,118.86,0,0,1-.63-14.8c0-2.52-.32-4.73-.32-7.56a19.15,19.15,0,0,1,.32-4.1,8.1,8.1,0,0,1,1.57-3.78,5,5,0,0,1,2.52-1.89,9.47,9.47,0,0,1,3.15-.63,12.39,12.39,0,0,1,6,3.15c3.46,3.15,6,7.56,8.5,11,6,6.93,11.66,13.86,17.64,20.47a27.76,27.76,0,0,0,2.21,7.25Zm-22.05-24.89c-3.47-3.15-6-7.24-8.82-9.76a10.59,10.59,0,0,0-4.41-2.52,5.47,5.47,0,0,0-3.78,1.26c-.95.94-1.26,2.83-1.26,5.35V265c0,2.52-.32,4.72-.32,7.24a55,55,0,0,0,.32,7.25,79.59,79.59,0,0,0,2.2,14.8,45.34,45.34,0,0,0,5.67,13.23c2.52,4.1,5.36,7.88,7.56,12.6a69.78,69.78,0,0,1,2.52,7.56l.95,3.78.31,1.58.63,1.57a9.37,9.37,0,0,0,3.15,4.41,5,5,0,0,0,4.1.95,4.55,4.55,0,0,0,1.89-.63c.63-.32.94-.95,1.57-1.58,1-1.26,2.21-3.15,3.15-4.72a121.06,121.06,0,0,0,5.36-11,53.09,53.09,0,0,0,3.78-12c.63-4.41,0-9.45-.63-14.17a49.79,49.79,0,0,0-1.58-7.25,21,21,0,0,0-2.83-6.61c-6.93-6.62-13.23-12.6-19.53-18.59Z"
      />
      <path
        id="SvgjsPath6549"
        class="male skin-details"
        d="M143.83,264c1.58-6,6.62-3.15,9.45,1.26,6,8.19,10.08,20.79,11.34,31.5,0,.32-.31.63-.31.32-.32.31-.63.31-.63-.32-3.78-1.57-5-.63-3.78,2.52a5.09,5.09,0,0,0,.94,2.84,36.92,36.92,0,0,0,2.84,4.72c1.57,2.52,3.78,4.73,5.35,7.25.63.94,0,1.89-.63,1.26-4.41-3.15-12.28-13.55-10.08-20.79,1-2.52,3.15-3.47,4.73-2.21-3.47-11.34-12.6-37.8-18.27-27.72-.63.32-.95-.31-.95-.63Z"
      />
      <path
        id="SvgjsPath6550"
        class="male skin-details"
        d="M153,265.62A35,35,0,0,0,150.13,288c1,4.73,9.14,29.93,15.44,26.46.63-.31,1.26.95.63,1.58-6.3,5.67-13.23-14.18-15.44-20.48-3.46-10.71-4.41-23.62,1.58-30.55C152.65,264.67,153,265,153,265.62Z"
      />
    </g>
  </g>
  <g id="svga-group-ears-right-move">
    <g id="svga-group-ears-right">
      <path
        id="SvgjsPath6551"
        class="male skin"
        d="M420,281.55s13.86-14.8,18.27-19.53,9.76-14.8,15.75-12.91c6,1.57,3.78,8.5,4.09,18.27s-.94,28.66-6.93,39.06-9.13,14.17-11,25.2-8.82,13.23-12.92,10.08-13.54-22.05-13.86-32.13c0-10.08,4.1-23.94,6.62-28Z"
      />
      <path
        id="SvgjsPath6552"
        class="male ear-outline"
        d="M419.46,281.37c6-6.3,12-13.55,17.64-20.48,2.84-3.15,5-7.56,8.51-11,1.57-1.58,3.78-3.15,6-3.15a5.66,5.66,0,0,1,3.15.63,4.83,4.83,0,0,1,2.52,1.89,13.73,13.73,0,0,1,1.58,3.78,18.2,18.2,0,0,1,.31,4.09c0,2.52-.31,5-.31,7.56,0,4.73-.32,10.08-.63,14.81A125,125,0,0,1,456,294.6a69.48,69.48,0,0,1-2.2,7.56,47.12,47.12,0,0,1-3.15,6.93c-2.21,4.09-4.73,8.5-6.62,12.6a26.53,26.53,0,0,0-1.89,6.61c-.32,1.26-.32,2.21-.63,3.47l-.31,2.2-.63,2.21a18.77,18.77,0,0,1-4.41,7.24c-1.89,1.58-4.41,2.52-6.3,2.21a5.1,5.1,0,0,1-2.84-.95,18.28,18.28,0,0,1-2.52-2.2,31.13,31.13,0,0,1-3.46-5.36,104.37,104.37,0,0,1-5.36-12,52.91,52.91,0,0,1-1.89-6.61,26.91,26.91,0,0,1-1-7.25,63,63,0,0,1,2.21-15.43,49.54,49.54,0,0,1,2.2-7.25,15,15,0,0,1,2.21-7.24Zm.32.31c-1.26,1.89-1.89,4.41-2.84,6.62a58.55,58.55,0,0,0-1.57,7.24,43.21,43.21,0,0,0-.63,14.18,48.13,48.13,0,0,0,3.78,12,117,117,0,0,0,5.35,11,24.8,24.8,0,0,0,3.15,4.73c.63.63,1,1.26,1.58,1.57a4.41,4.41,0,0,0,1.89.63,5,5,0,0,0,4.09-.94,12.21,12.21,0,0,0,3.15-4.41l.63-1.58.32-1.57.94-3.78a72,72,0,0,1,2.52-7.56,95.41,95.41,0,0,1,7.56-12.6A42,42,0,0,0,455.37,294a76.8,76.8,0,0,0,2.21-14.81,59.12,59.12,0,0,0,.31-7.24c0-2.52-.31-4.73-.31-7.25v-7.24c0-2.21-.32-4.41-1.26-5.36a4.36,4.36,0,0,0-3.78-1.26c-1.26,0-2.84,1.26-4.41,2.52-2.84,2.52-5.67,6.62-8.82,9.77-7.25,6.3-13.55,12.28-19.53,18.58Z"
      />
      <path
        id="SvgjsPath6553"
        class="male skin-details"
        d="M456.32,264c-1.58-6-6.62-3.15-9.45,1.26-6,8.19-10.08,20.79-11.34,31.5,0,.32.31.63.31.32.32.31.63.31.63-.32,3.78-1.57,5-.63,3.78,2.52a5.09,5.09,0,0,1-.94,2.84,36.92,36.92,0,0,1-2.84,4.72c-1.57,2.52-3.78,4.73-5.35,7.25-.63.94,0,1.89.63,1.26,4.41-3.15,12.28-13.55,10.08-20.79-.95-2.52-3.15-3.47-4.73-2.21,3.47-11.34,12.6-37.8,18.27-27.72.63.32.95-.31.95-.63Z"
      />
      <path
        id="SvgjsPath6554"
        class="male skin-details"
        d="M447.18,265.62A35,35,0,0,1,450,288c-.95,4.73-9.14,29.93-15.44,26.46-.63-.31-1.26.95-.63,1.58,6.3,5.67,13.23-14.18,15.44-20.48,3.46-10.71,4.41-23.62-1.58-30.55C447.5,264.67,447.18,265,447.18,265.62Z"
      />
    </g>
  </g>
</svg>
