<?xml-stylesheet type="text/css" href="../../../male-colors.css" ?>
<svg
  style="transform: scale(3.5) translate(-15px, 0)"
  width="70"
  height="70"
  id="Layer_1"
  data-name="Layer 1"
  xmlns="http://www.w3.org/2000/svg"
  viewBox="0 0 600 600"
>
  <g class="hidden" id="svga-group-ears-left-move">
    <g id="svga-group-ears-left">
      <path
        id="SvgjsPath6131"
        class="male skin"
        d="M183.21,297.12s-5.67-15.75-10.4-24.89-11.34-20.16-21.1-22.68-12.92,12.29-9.14,26.15,13.55,43.78,15.75,55.75c2.21,11.66,5.67,25.83,11.34,23.63,5.36-2.21,22.68-24.26,13.55-58Z"
      />
      <path
        id="SvgjsPath6132"
        class="male ear-outline"
        d="M186,312.87a68.51,68.51,0,0,1-.31,16.06c-1.58,10.4-6,20.16-12.6,26.46l-1.26.95c-.63.31-1,.63-1.58.94-1.26.63-2.83,0-4.09-.94-2.52-1.89-3.78-4.73-4.73-7.25-1.89-5.35-2.83-10.39-4.09-15.75-.95-5-2.21-10.08-3.47-15.12l-4.09-15.43c-1.26-5-2.84-10.08-4.1-15.12l-2.2-7.56a56.78,56.78,0,0,1-1.89-7.88,34.3,34.3,0,0,1-.95-8.19,36.39,36.39,0,0,1,.95-8.19,12.64,12.64,0,0,1,3.78-6.61,8.42,8.42,0,0,1,6.61-1.58,21.6,21.6,0,0,1,11.66,7.56,50.15,50.15,0,0,1,8.19,12.92,114.38,114.38,0,0,1,6.3,14.17c1.89,5,3.78,9.77,5.35,14.81.95,5,2.21,10.39,2.52,15.75ZM170,269.71a85.66,85.66,0,0,0-8.51-11.65,28.94,28.94,0,0,0-10.08-6.93,5.65,5.65,0,0,0-5,.63c-1.57.94-2.52,2.83-3.46,5-1.58,4.41-1.58,9.76-.63,14.8a32.71,32.71,0,0,0,1.89,7.56c.63,2.52,1.57,5,2.2,7.56l4.73,15.12c1.57,5,3.46,10.08,4.72,15.12a123.23,123.23,0,0,1,4.1,15.44c1.26,5,2.2,10.39,4.09,14.8.95,2.21,1.89,4.41,3.15,5,.63.32,1,.63,1.58.32.31,0,.63-.32.94-.63l1-.95c2.83-2.52,5.35-6.3,7.56-10.08a60.59,60.59,0,0,0,5-13.23c2.52-9.45,2.2-20.47-.63-30.55A114.57,114.57,0,0,0,170,269.71Z"
      />
      <path
        id="SvgjsPath6133"
        class="male skin-details"
        d="M145.41,259.32c6-2.52,11.34,4.41,15.12,10.39A62,62,0,0,1,170,297.12v.63a7.07,7.07,0,0,0,.31,2.52c0,.63-.63.63-.63,0-.31-1.26-.63-2.84-.94-4.41-.32-.32-.32-.63-.63-1.26-3.78-1.89-5.67-1-5.67,2.52a53.36,53.36,0,0,0,.94,6.93c.95,3.78,2.84,7.24,4.1,11,.31.63-.63,1.26-1,.63-2.83-5-8.19-16.69-4.72-22.68a3.44,3.44,0,0,1,6-.63c-1.57-6.3-3.78-13.54-6.93-19.53-6.61,14.18-3.15,29,.32,44.73,0,.63-.63,1-.95.32-4.41-14.49-8.5-34,0-45.68-3.15-6.93-8.19-12.28-14.49-11.65C145.41,260.58,145.09,259.63,145.41,259.32Z"
      />
      <path
        id="SvgjsPath6134"
        class="male skin-details"
        d="M169.66,322.32c.63,3.46,0,7.56-1.89,10.08-.31.31-.63,0-.31-.32.94-3.15,1.89-6,1.89-9.76C169.35,322,169.66,322,169.66,322.32Z"
      />
    </g>
  </g>
  <g id="svga-group-ears-right-move">
    <g id="svga-group-ears-right">
      <path
        id="SvgjsPath6135"
        class="male skin"
        d="M416.94,297.12s5.67-15.75,10.4-24.89,11.34-20.16,21.1-22.68,12.92,12.29,9.14,26.15S444,319.48,441.83,331.45s-5.67,25.83-11.34,23.63c-5.36-2.21-22.68-24.26-13.55-58Z"
      />
      <path
        id="SvgjsPath6136"
        class="male ear-outline"
        d="M416.94,297.12c1.89-5,3.47-9.77,5.36-14.81a114.38,114.38,0,0,1,6.3-14.17,59.73,59.73,0,0,1,8.19-12.92,21.57,21.57,0,0,1,11.65-7.56,7.36,7.36,0,0,1,6.62,1.58,12.64,12.64,0,0,1,3.78,6.61,34.37,34.37,0,0,1,.94,8.19,36.24,36.24,0,0,1-.94,8.19,58.24,58.24,0,0,1-1.89,7.88l-2.21,7.56c-1.57,5-2.83,10.08-4.09,15.12l-4.1,15.43c-1.26,5-2.52,10.08-3.46,15.12a97,97,0,0,1-4.1,15.75c-.94,2.52-2.2,5.36-4.72,7.25a5,5,0,0,1-4.1.94,7.05,7.05,0,0,1-1.58-.94l-1.25-.95c-6.62-6.3-11-16.06-12.6-26.46a54.74,54.74,0,0,1-.32-16.06c0-5.36,1.26-10.71,2.52-15.75Zm.32,0c-2.84,10.08-3.15,21.1-.63,30.55a60.09,60.09,0,0,0,5,13.23A36.42,36.42,0,0,0,429.23,351l.94.95c.32.31.63.31.95.63.63.31.94,0,1.57-.32,1.26-.94,2.21-2.83,3.15-5,1.89-4.41,2.84-9.76,4.1-14.8A123.2,123.2,0,0,1,444,317l4.73-15.12,4.72-15.12c.63-2.52,1.58-5,2.21-7.56l1.89-7.56a33.27,33.27,0,0,0-.63-14.8,8.56,8.56,0,0,0-3.47-5,6.86,6.86,0,0,0-5-.63,19.52,19.52,0,0,0-10.08,6.93,104.71,104.71,0,0,0-8.5,11.34,157.71,157.71,0,0,0-12.6,27.72Z"
      />
      <path
        id="SvgjsPath6137"
        class="male skin-details"
        d="M454.74,259.32c-6-2.52-11.34,4.41-15.12,10.39a62,62,0,0,0-9.45,27.41v.63a7.07,7.07,0,0,1-.31,2.52c0,.63.63.63.63,0,.31-1.26.63-2.84.94-4.41.32-.32.32-.63.63-1.26,3.78-1.89,5.67-1,5.67,2.52a53.36,53.36,0,0,1-.94,6.93c-1,3.78-2.84,7.24-4.1,11-.32.63.63,1.26.95.63,2.83-5,8.19-16.69,4.72-22.68a3.44,3.44,0,0,0-6-.63c1.57-6.3,3.78-13.54,6.93-19.53,6.61,14.18,3.15,29-.32,44.73,0,.63.63,1,.95.32,4.41-14.49,8.5-34,0-45.68,3.78-6.93,8.82-12.28,14.8-12,0,.32.32-.63,0-.94Z"
      />
      <path
        id="SvgjsPath6138"
        class="male skin-details"
        d="M430.49,322.32c-.63,3.46,0,7.56,1.89,10.08.31.31.63,0,.31-.32-.94-3.15-1.89-6-1.89-9.76C430.8,322,430.49,322,430.49,322.32Z"
      />
    </g>
  </g>
</svg>
