<?xml-stylesheet type="text/css" href="../../../male-colors.css" ?>
<svg
  style="transform: scale(3.5) translate(-15px, 0)"
  width="70"
  height="70"
  id="Layer_1"
  data-name="Layer 1"
  xmlns="http://www.w3.org/2000/svg"
  viewBox="0 0 600 600"
>
  <g class="hidden" id="svga-group-ears-left-move">
    <g id="svga-group-ears-left">
      <path
        id="SvgjsPath6451"
        class="male skin"
        d="M183.52,300.9s-5.35-14.49-10.71-23.63-13.54-21.73-18.58-24.88-8.51-1.26-7.25,7.24,7.88,35.91,9.45,44.1c1.89,8.19,6,26.46,10.71,38.43s7.88,17.33,12.6,1.58S187.3,311,183.52,300.9Z"
      />
      <path
        id="SvgjsPath6452"
        class="male ear-outline"
        d="M196.44,315.7c0,5-2.52,22.37-6.93,33.39-4.1,3.78-14.81,6.93-15.12,6.62a2.34,2.34,0,0,1-1.26-.32,6.91,6.91,0,0,1-2.84-3.15c-.63-1.26-1.26-2.2-1.89-3.46-.94-2.21-1.89-4.41-2.83-6.93-1.89-4.73-3.15-9.45-4.73-14.49a237.57,237.57,0,0,1-6.3-29.61c-1.89-9.77-3.78-19.53-6-29.3L147,261.21a21.57,21.57,0,0,1-.94-7.88,5.26,5.26,0,0,1,1.89-3.46,3.64,3.64,0,0,1,3.15-.63c1.89.31,21.42,2.52,23,4.09C184.78,257.43,196.75,280.11,196.44,315.7ZM170.61,276c-2.52-3.78-5-7.24-7.56-11-2.52-3.47-5-7.25-7.88-9.77a9,9,0,0,0-4.41-2.52,2.42,2.42,0,0,0-3.15,1.89,26.7,26.7,0,0,0,.32,6.93c.31,2.52.94,5,1.26,7.25,1.89,9.76,4.41,19.53,6.61,29.29s4.73,19.22,7.56,28.67a85.56,85.56,0,0,0,4.73,13.54c.94,2.21,1.89,4.41,2.83,6.3.63.95,1,1.89,1.58,2.84.63.63.94,1.26,1.26,1.57.31,0,.31,0,.94-.31.32-.32.32-.63.63-.95s.32-.63.63-1.26a33.3,33.3,0,0,0,2.21-6c1.26-4.41,2.83-8.51,3.78-13.23a67.66,67.66,0,0,0,2.52-13.86c.31-4.73.31-10.08-1.26-14.49A102.57,102.57,0,0,0,170.61,276Z"
      />
      <path
        id="SvgjsPath6453"
        class="male skin-details"
        d="M149.19,261.84c10.08,11,18.27,29.92,19.53,47.56,0,1.26-.95,1.26-1.26.32l-1-4.73c-.94-2.2-2.52-2.52-4.41-.63.32,1.26.32,2.84.63,4.1a34.94,34.94,0,0,0,1.58,5.35c1.57,4.1,3.78,7.25,5.67,11,.31.63,0,1.89-.63,1.57-4.73-4.09-9.77-15.12-9.45-23,0-2.52.94-4.41,2.52-4.73a2.88,2.88,0,0,1,2.52,1.26,106.86,106.86,0,0,0-16.38-36.54c-.32-1.26.31-2.2.63-1.57Z"
      />
    </g>
  </g>
  <g id="svga-group-ears-right-move">
    <g id="svga-group-ears-right">
      <path
        id="SvgjsPath6454"
        class="male skin"
        d="M416.63,300.9s5.35-14.49,10.71-23.63,13.54-21.73,18.58-24.88,8.5-1.26,7.25,7.24c-1.58,8.51-7.88,35.91-9.45,44.1-1.9,8.19-6,26.46-10.71,38.43s-7.88,17.33-12.6,1.58S412.85,311,416.63,300.9Z"
      />
      <path
        id="SvgjsPath6455"
        class="male ear-outline"
        d="M426.39,253.33c1.58-1.57,21.11-3.78,23-4.09a5.7,5.7,0,0,1,3.15.63,6.27,6.27,0,0,1,1.89,3.46,21,21,0,0,1-.95,7.88l-1.57,7.24c-2.21,9.77-4.1,19.53-6,29.3s-3.78,19.84-6.3,29.61a130,130,0,0,1-4.72,14.49c-.95,2.2-1.89,4.41-2.84,6.93-.63,1.26-1.26,2.2-1.89,3.46a12.6,12.6,0,0,1-2.83,3.15c-.32,0-.63.32-1.26.32-.32,0-11-3.15-15.12-6.62-4.41-11-6.93-28.35-6.93-33.39-.63-35.59,11.34-58.27,22.36-62.37Zm-9.76,47.57a32.43,32.43,0,0,0-1.26,14.49,67,67,0,0,0,2.52,13.86l3.78,13.23a34.07,34.07,0,0,0,2.2,6c.32.63.32,1,.63,1.26s.32.63.63.95.63.63.95.31a3.45,3.45,0,0,0,1.26-1.57c.63-1,.94-1.89,1.57-2.84.95-1.89,1.89-4.41,2.84-6.3,1.89-4.41,3.15-8.82,4.72-13.54,2.83-9.45,5-18.9,7.56-28.67s4.72-19.53,6.62-29.29a71.31,71.31,0,0,0,1.25-7.25,26.7,26.7,0,0,0,.32-6.93c-.32-1.89-1.57-2.52-3.15-1.89a9,9,0,0,0-4.41,2.52c-2.83,2.52-5.35,6.3-7.87,9.77s-5,7.24-7.56,11A130.84,130.84,0,0,0,416.63,300.9Z"
      />
      <path
        id="SvgjsPath6456"
        class="male skin-details"
        d="M451,261.84c-10.08,11-18.27,29.92-19.53,47.56,0,1.26.95,1.26,1.26.32l.95-4.73c.94-2.2,2.52-2.52,4.41-.63-.32,1.26-.32,2.84-.63,4.1a34.94,34.94,0,0,1-1.58,5.35c-1.57,4.1-3.78,7.25-5.67,11-.32.63,0,1.89.63,1.57,4.72-4.09,9.77-15.12,9.45-23,0-2.52-.95-4.41-2.52-4.73a2.87,2.87,0,0,0-2.52,1.26,106.49,106.49,0,0,1,16.38-36.54c.31-1.26-.32-2.2-.63-1.57Z"
      />
    </g>
  </g>
</svg>
