<?xml-stylesheet type="text/css" href="../../../../male-colors.css" ?>
<svg
  style="transform: scale(3.5) translate(-15px, 0)"
  width="70"
  height="70"
  id="Layer_1"
  data-name="Layer 1"
  xmlns="http://www.w3.org/2000/svg"
  viewBox="0 0 600 600"
>
  <g class="hidden" id="svga-group-ears-left-move">
    <g id="svga-group-ears-left">
      <path
        id="SvgjsPath3369"
        class="male skin"
        d="M186,278.7c-.6-.9-9.9-12.9-17.7-20.1s-10.2-7.2-13.8-2.7c-3.9,4.5-8.7,27.3-7.5,37.2,1.2,10.2,10.8,26.1,15.6,35.1,5.1,9,9.9,20.1,15.3,18.9,5.7-1.2,13.2-13.8,17.1-23.1s1.5-32.4-9-45.3Z"
      />
      <path
        id="SvgjsPath3370"
        class="male ear-outline"
        d="M197.4,306a68.26,68.26,0,0,1,.6,7.8,34.21,34.21,0,0,1-.6,7.8c-.3,1.2-.6,2.7-.9,3.9s-.9,2.1-1.2,3.3a60,60,0,0,1-3,6.3,39.73,39.73,0,0,1-7.8,10.8,17.81,17.81,0,0,1-5.4,3.9,8.56,8.56,0,0,1-3.9,0,13.32,13.32,0,0,1-3.3-2.4c-3.6-3.9-5.7-8.4-8.1-12.9-2.1-4.5-4.5-8.7-6.6-12.9-2.1-4.5-4.5-8.7-6.3-13.2-.9-2.4-2.1-4.5-2.7-6.9a30.46,30.46,0,0,1-1.8-7.5c-.6-5.1,0-10.2.3-15,.6-4.8,1.5-9.6,2.4-14.4a26.86,26.86,0,0,1,2.4-6.9l.9-1.8a6.54,6.54,0,0,1,1.2-1.5,7.68,7.68,0,0,1,6.3-3.3,11.09,11.09,0,0,1,3.3,1.5c2.1,1.2,3.6,3,5.4,4.5,6.6,6.6,12,14.4,17.7,21.6s9.6,17.1,11.1,27.3Zm-30.3-46.8c-3.3-2.7-7.2-5.7-9.3-3.6-.6.3-1.2,1.2-1.8,1.8l-.9.9c-.3.3-.3.9-.6,1.2-.9,1.8-1.5,3.9-2.4,6a63.49,63.49,0,0,0-3.3,13.5,54.89,54.89,0,0,0-1.2,14.1,25.94,25.94,0,0,0,1.8,6.9c.9,2.4,1.8,4.5,2.7,6.6,2.1,4.5,4.5,8.4,6.9,12.6s5.1,8.1,7.5,12.3c1.2,2.1,2.4,4.2,3.6,6s2.4,3.9,3.9,5.1,2.7,1.8,3.9,1.2a13.49,13.49,0,0,0,4.2-3.3,50.64,50.64,0,0,0,6.9-10.2,52.13,52.13,0,0,0,3-5.7,12.54,12.54,0,0,0,1.2-3l.6-1.5c0-.6.3-.9.3-1.5a51.75,51.75,0,0,0,.9-13.8,60.88,60.88,0,0,0-2.7-14.4,36.11,36.11,0,0,0-6.6-12.6,217.64,217.64,0,0,0-18.6-18.6Z"
      />
      <path
        id="SvgjsPath3371"
        class="male skin-details"
        d="M153.6,298.2c-.9-6.9-1.5-23.4,2.4-28.8,6.6-8.7,18,19.2,20.7,27.9,0,.3.3.6.3.9a1.17,1.17,0,0,1-1.2,1.8c-1.2-.6-2.7-1.8-3.9-2.4-3.3-1.5-4.8,1.5-3.9,5.4,1.2,5.4,4.2,8.7,6.6,12.9.3.6,0,1.2-.6.9-4.8-2.7-10.5-13.5-9.3-19.8.9-6,5.7-5.4,9.3-2.4a81.91,81.91,0,0,0-7.5-14.4c-1.8-2.7-3.6-6-6.6-6.6-3.6-.6-3,.9-3.6,5.4-2.4,14.4-.9,31.2,7.5,43.5.3.3,0,.6-.3.3a45.22,45.22,0,0,1-9.9-24.6Z"
      />
    </g>
  </g>
  <g id="svga-group-ears-right-move">
    <g id="svga-group-ears-right">
      <path
        id="SvgjsPath3372"
        class="male skin"
        d="M414,278.7c.6-.9,9.9-12.9,17.7-20.1s10.2-7.2,13.8-2.7c3.9,4.5,8.7,27.3,7.5,37.2s-10.8,26.1-15.6,35.1c-5.1,9-9.9,20.1-15.3,18.9-5.7-1.2-13.2-13.8-17.1-23.1s-1.5-32.4,9-45.3Z"
      />
      <path
        id="SvgjsPath3373"
        class="male ear-outline"
        d="M414,278.7c5.7-7.2,11.4-15,17.7-21.6a26.89,26.89,0,0,1,5.4-4.5,11.09,11.09,0,0,1,3.3-1.5,5,5,0,0,1,3.6.9,19.41,19.41,0,0,1,2.7,2.4c.3.3.6.9,1.2,1.5l.9,1.8a46.64,46.64,0,0,1,2.4,6.9,80.18,80.18,0,0,1,2.4,14.4,62.44,62.44,0,0,1,.3,15,54.86,54.86,0,0,1-1.8,7.5c-.9,2.4-1.8,4.8-2.7,6.9-2.1,4.5-4.2,9-6.3,13.2-2.4,4.5-4.5,8.7-6.6,12.9-2.4,4.2-4.2,9-8.1,12.9a13.32,13.32,0,0,1-3.3,2.4,4.45,4.45,0,0,1-3.9,0,14.76,14.76,0,0,1-5.4-3.9,70.77,70.77,0,0,1-7.8-10.8,60,60,0,0,1-3-6.3,14.62,14.62,0,0,1-1.2-3.3,14.88,14.88,0,0,1-.9-3.9,51,51,0,0,1,0-15.6c1.2-10.2,5.1-20.1,11.1-27.3Zm.3.3a38.94,38.94,0,0,0-6.6,12.6A60.88,60.88,0,0,0,405,306a51.75,51.75,0,0,0,.9,13.8c0,.6.3.9.3,1.5l.6,1.5c.3.9.9,2.1,1.2,3a34.2,34.2,0,0,0,3,5.7,86.53,86.53,0,0,0,6.9,10.2,10.8,10.8,0,0,0,4.2,3.3c1.2.6,2.4,0,3.9-1.2a17.58,17.58,0,0,0,3.9-5.1c1.2-1.8,2.4-3.9,3.6-6,2.4-4.2,5.1-8.4,7.5-12.3,2.4-4.2,4.8-8.4,6.9-12.6a30.61,30.61,0,0,0,2.7-6.6,33.6,33.6,0,0,0,1.8-6.9,54.89,54.89,0,0,0-1.2-14.1c-.9-4.5-2.1-9-3.3-13.5a35.76,35.76,0,0,0-2.4-6c-.3-.3-.3-.9-.6-1.2s-.3-.6-.9-.9c-.6-.6-1.2-1.5-1.8-1.8-2.1-1.8-6,1.2-9.3,3.6C426.3,264.9,420,271.5,414.3,279Z"
      />
      <path
        id="SvgjsPath3374"
        class="male skin-details"
        d="M446.4,298.2c.9-6.9,1.5-23.4-2.4-28.8-6.6-8.7-18,19.2-20.7,27.9,0,.3-.3.6-.3.9a1.17,1.17,0,0,0,1.2,1.8c1.2-.6,2.7-1.8,3.9-2.4,3.3-1.5,4.8,1.5,3.9,5.4-1.2,5.4-4.2,8.7-6.6,12.9-.3.6,0,1.2.6.9,4.8-2.7,10.5-13.5,9.3-19.8-.9-6-5.7-5.4-9.3-2.4a81.91,81.91,0,0,1,7.5-14.4c1.8-2.7,3.6-6,6.6-6.6,3.6-.6,3,.9,3.6,5.4,2.4,14.4.9,31.2-7.5,43.5-.3.3,0,.6.3.3a45.22,45.22,0,0,0,9.9-24.6Z"
      />
    </g>
  </g>
</svg>
