<?xml-stylesheet type="text/css" href="../../../../female-colors.css" ?>
<svg
  width="70"
  height="70"
  style="transform: scale(3.5) translate(-7px, 5px)"
  id="Layer_1"
  data-name="Layer 1"
  xmlns="http://www.w3.org/2000/svg"
  viewBox="0 0 600 600"
>
  <g class="hidden" id="svga-group-eyebrows-left-move">
    <g id="svga-group-eyebrows-left-rotate">
      <g id="svga-group-eyebrows-left">
        <path
          id="SvgjsPath6309"
          class="female eyebrow"
          d="M207.3,256.2a10.12,10.12,0,0,1,3.6-1.2c1.2-.3,2.7-.6,4.2-.9a33.06,33.06,0,0,1,5.4-.6c4.8-1.8,11.1-1.8,15.9-1.5a32.61,32.61,0,0,1,5.4-.3,61.85,61.85,0,0,1,12.9.3h6c5.4,0,10.8-.3,15.9.9.3-.6.9,0,.9.6v.9c0,.3,0,.3-.3.6a30.82,30.82,0,0,1-2.1,7.5,1.55,1.55,0,0,1-2.1.9l-2.7-.9c-2.7.3-5.7-.3-8.4-.6a9.25,9.25,0,0,0-3-.3,1,1,0,0,1-.6.3,33.06,33.06,0,0,1-5.4-.6c-3.3.6-6.9,0-10.2-.6-.3,0-.6,0-.6-.3a.29.29,0,0,1-.3.3c-4.8.3-11.1.3-16.2-1.5a26.88,26.88,0,0,1-12-.6c-.3,0-.3-.3-.6-.6a6.59,6.59,0,0,1-4.2-.3,1.1,1.1,0,0,1-.9-.3c-1.2,0-1.2-.9-.6-1.2Z"
        />
        <path
          id="SvgjsPath6310"
          class="female eyebrow-details"
          d="M264.9,253.8c3.6,1.8,6,5.4,7.5,8.7a54.31,54.31,0,0,0,.9-6.9c0-.6.9-.6.9-.3.9,2.7,0,5.7-1.5,8.1-.3.3-.6.3-.6,0a.29.29,0,0,1-.3-.3,73,73,0,0,0-7.8-8.7c0-.3.3-.9.9-.6Zm-21-1.2a32.69,32.69,0,0,1,18,9.3c.3.3,0,.9-.6.6-5.4-4.2-11.1-6.6-17.7-8.7-.3-.6-.3-1.5.3-1.2Zm-4.2.6c5.7.3,11.1,4.2,14.4,8.4.3.3,0,.6-.3.3-4.2-3.9-8.7-6-14.1-7.8-.6-.3-.6-1.2,0-.9Zm-14.7-.9c5.4.6,10.5,3.6,14.7,6.9.3.3,0,.9-.6.6-4.5-3.3-9.3-4.8-14.4-6.6C224.4,253.2,224.4,252.3,225,252.3Zm-14.7,3c6.3-.6,12.3,1.8,18.3,3.9.6.3.3,1.2-.3.9a74.77,74.77,0,0,0-18-4.2c-.3,0-.3-.3,0-.6Z"
        />
        <path
          id="SvgjsPath6311"
          class="female eyebrow-outline"
          d="M276,258a41.41,41.41,0,0,0,.9-6c0-.6.6-.6.9,0,1.2,4.2-.3,9.3-3,12.6-.6.9-1.8-.3-1.5-.9A32,32,0,0,0,276,258Zm-76.2,0h.6a.65.65,0,0,0,.6.6c11.4,1.8,23.4,2.1,34.8,3.3,6,.6,11.7.9,17.7,1.5,5.7.6,12,1.5,17.7,1.2.3.3.6.3.6,0h.3c.6,0,.9-1.2.3-1.2-.3,0-.6-.3-.9-.3a35.58,35.58,0,0,0-10.2-9.9c4.5.3,8.7.6,13.2.6.3,0,.6-.6,0-.6-12-3.3-25.2-3-37.8-2.4-12,.6-26.1,1.5-37.2,6-.6,0-.6,1.5.3,1.2Zm70.2,4.5a29.56,29.56,0,0,0-5.1-.6c-3.9-4.5-8.7-8.1-14.4-9.6,3,0,6,.3,9,.6A53.3,53.3,0,0,1,270,262.5Zm-32.1-3a2.7,2.7,0,0,1-1.5-.3.29.29,0,0,0-.3-.3,47.39,47.39,0,0,0-10.8-6,73,73,0,0,1,11.4-.9,88.31,88.31,0,0,1,12.6,0,.56.56,0,0,0,0,.9,100.38,100.38,0,0,1,13.2,8.7c-2.4-.3-4.8-.3-7.2-.6-1.2,0-2.7-.3-3.9-.3a30.81,30.81,0,0,0-13.2-7.5c-.3,0-.6.6-.3.6a75,75,0,0,1,11.7,6.9c-3.6-.3-7.5-.6-11.7-1.2ZM207,256.8c3.6-.9,7.2-1.8,10.8-2.4a23.16,23.16,0,0,1,4.5-.6,59.09,59.09,0,0,1,12.6,5.4c-9.3-.9-18.6-2.1-27.9-2.4Z"
        />
      </g>
    </g>
  </g>
  <g id="svga-group-eyebrows-right-move">
    <g id="svga-group-eyebrows-right-rotate">
      <g id="svga-group-eyebrows-right">
        <path
          id="SvgjsPath6312"
          class="female eyebrow"
          d="M392.7,256.2a10.12,10.12,0,0,0-3.6-1.2c-1.2-.3-2.7-.6-4.2-.9a33.06,33.06,0,0,0-5.4-.6c-4.8-1.8-11.1-1.8-15.9-1.5a32.61,32.61,0,0,0-5.4-.3,61.85,61.85,0,0,0-12.9.3h-6c-5.4,0-10.8-.3-15.9.9-.3-.6-.9,0-.9.6v.9c0,.3,0,.3.3.6a30.82,30.82,0,0,0,2.1,7.5,1.55,1.55,0,0,0,2.1.9l2.7-.9c2.7.3,5.7-.3,8.4-.6a9.25,9.25,0,0,1,3-.3,1,1,0,0,0,.6.3,33.06,33.06,0,0,0,5.4-.6c3.3.6,6.9,0,10.2-.6.3,0,.6,0,.6-.3a.29.29,0,0,0,.3.3c4.8.3,11.1.3,16.2-1.5a26.88,26.88,0,0,0,12-.6c.3,0,.3-.3.6-.6a6.59,6.59,0,0,0,4.2-.3,1.1,1.1,0,0,0,.9-.3c1.2,0,1.2-.9.6-1.2Z"
        />
        <path
          id="SvgjsPath6313"
          class="female eyebrow-details"
          d="M335.1,253.8c-3.6,1.8-6,5.4-7.5,8.7a54.31,54.31,0,0,1-.9-6.9c0-.6-.9-.6-.9-.3-.9,2.7,0,5.7,1.5,8.1.3.3.6.3.6,0a.29.29,0,0,0,.3-.3,73,73,0,0,1,7.8-8.7c0-.3-.3-.9-.9-.6Zm21-1.2a32.69,32.69,0,0,0-18,9.3c-.3.3,0,.9.6.6,5.4-4.2,11.1-6.6,17.7-8.7.3-.6.3-1.5-.3-1.2Zm4.2.6c-5.7.3-11.1,4.2-14.4,8.4-.3.3,0,.6.3.3,4.2-3.9,8.7-6,14.1-7.8.6-.3.6-1.2,0-.9Zm14.7-.9c-5.4.6-10.5,3.6-14.7,6.9-.3.3,0,.9.6.6,4.5-3.3,9.3-4.8,14.4-6.6C375.6,253.2,375.6,252.3,375,252.3Zm14.7,3c-6.3-.6-12.3,1.8-18.3,3.9-.6.3-.3,1.2.3.9a74.77,74.77,0,0,1,18-4.2c.3,0,.3-.3,0-.6Z"
        />
        <path
          id="SvgjsPath6314"
          class="female eyebrow-outline"
          d="M324,258a41.41,41.41,0,0,1-.9-6c0-.6-.6-.6-.9,0-1.2,4.2.3,9.3,3,12.6.6.9,1.8-.3,1.5-.9A32,32,0,0,1,324,258Zm76.2-1.5c-11.4-4.5-25.2-5.4-37.2-6-12.3-.6-25.8-.9-37.8,2.4-.3,0-.3.6,0,.6,4.5,0,8.7-.3,13.2-.6a29.34,29.34,0,0,0-10.2,9.9,1.1,1.1,0,0,0-.9.3c-.9.3-.6,1.2.3,1.2h.3c.3.3.6.3.6,0,6,.3,12-.6,17.7-1.2,6-.6,11.7-.9,17.7-1.5,11.4-.9,23.4-1.5,34.8-3.3a.65.65,0,0,0,.6-.6h.6c1.2.6,1.2-.9.3-1.2Zm-59.7-3.9c3-.3,6-.3,9-.6a28,28,0,0,0-14.4,9.6c-1.8.3-3.6.3-5.1.6A81.52,81.52,0,0,1,340.5,252.6Zm9.6,8.1a92,92,0,0,1,11.7-6.9c.3-.3,0-.6-.3-.6a30.41,30.41,0,0,0-13.2,7.5c-1.2,0-2.7.3-3.9.3-2.4.3-4.8.3-7.2.6a100.38,100.38,0,0,1,13.2-8.7.56.56,0,0,0,0-.9,88.31,88.31,0,0,1,12.6,0l11.4.9a32,32,0,0,0-10.8,6,.29.29,0,0,1-.3.3,2.7,2.7,0,0,0-1.5.3c-3.9.6-7.8.9-11.7,1.2Zm15-1.5a47,47,0,0,1,12.6-5.4c1.5.3,3,.3,4.5.6,3.6.6,7.2,1.5,10.8,2.4-9.3.3-18.6,1.5-27.9,2.4Z"
        />
      </g>
    </g>
  </g>
</svg>
