<?xml-stylesheet type="text/css" href="../../../../female-colors.css" ?>
<svg
  width="70"
  height="70"
  style="transform: scale(3.5) translate(-7px, 5px)"
  id="Layer_1"
  data-name="Layer 1"
  xmlns="http://www.w3.org/2000/svg"
  viewBox="0 0 600 600"
>
  <g class="hidden" id="svga-group-eyebrows-left-move">
    <g id="svga-group-eyebrows-left-rotate">
      <g id="svga-group-eyebrows-left">
        <path
          id="SvgjsPath5685"
          class="female eyebrow"
          d="M212.1,255.9a1.8,1.8,0,0,1,1.2.3,4.14,4.14,0,0,1,2.7,0,1.8,1.8,0,0,0,1.2-.3,19.81,19.81,0,0,1,4.2-.3h1.5a12,12,0,0,1,4.5-.9,58.26,58.26,0,0,1,7.2-.6c.9-.3,1.5-.3,2.4-.6,1.5-.3,2.7-.9,4.2-1.2,1.2-.3,2.4-.3,3.9-.6,3.3-1.2,6.6-2.4,10.2-3.6h.6a32.37,32.37,0,0,1,8.1-3h.3a11.17,11.17,0,0,1,5.4-.6,3.23,3.23,0,0,1,2.4.6c.3,0,.6.3.9.3,3.3.9,3.6,5.4,2.1,7.8a13.45,13.45,0,0,1-4.8,4.2,10.78,10.78,0,0,1-5.4,2.1.29.29,0,0,0-.3.3,35.87,35.87,0,0,1-15,2.4c-3,0-6.9,0-9.9-1.2-3,.9-6.9.3-10.2-.3a45.51,45.51,0,0,1-6.3-.9,13,13,0,0,1-4.8-.3c-1.5-.3-3.9-.3-5.1-1.2l-.3-.3c-.6,0-.9-.3-1.5-.3C210.3,257.1,210.9,255.9,212.1,255.9Z"
        />
        <path
          id="SvgjsPath5686"
          class="female eyebrow-details"
          d="M263.1,244.8c5.7-.3,10.2,4.5,10.8,8.4.6-3.6-.6-7.2-6-8.4-.6,0-.6-.6,0-.9,7.5-.9,9.9,7.8,6,11.4h-.6c-.3,0-.6,0-.6-.3-.6-2.1-1.2-4.2-3.3-6-1.8-1.8-4.5-2.4-6.9-3.6,0-.3,0-.6.6-.6Zm-17.7,4.8c8.4-2.4,20.1,1.2,23.4,7.5,0,.3-.3.6-.3.3a22,22,0,0,0-8.7-5.7c-4.8-1.5-9.3-1.2-14.1-1.2-.9-.3-.9-.6-.3-.9Zm-13.5,3.3a62.19,62.19,0,0,0,13.2,4.5,72.67,72.67,0,0,0,14.1,2.1c.3,0,.3.6,0,.6-9.6.3-20.4-1.8-27.9-6.3-.6-.3,0-1.2.6-.9Zm-18,3c4.8.9,9.3,2.4,13.8,3,4.8.9,9.6,1.2,14.1,1.8.3,0,.3.3,0,.3a69.44,69.44,0,0,1-28.5-4.5c-.3-.3,0-.9.6-.6Z"
        />
        <path
          id="SvgjsPath5687"
          class="female eyebrow-outline"
          d="M247.2,262.2c10.5,0,27.9-.3,30.3-10.5a7.68,7.68,0,0,0-4.5-8.4c-4.8-2.4-9.9-.3-14.4,1.5-15.3,6-30.9,8.7-47.7,10.5a1,1,0,0,0-.9.9c-.3-.3-.9-.3-1.2-.6-.6-.3-1.2.3-.9.6,3.3,3.6,10.2,3.9,15.3,4.5a130.64,130.64,0,0,0,24,1.5Zm-36-5.7a97.42,97.42,0,0,0,20.7-2.4,65.07,65.07,0,0,0,16.2,6.3h-4.5c-10.2,0-22.8-.3-32.4-3.9Zm32.1-4.8c.3,0,.3,0,.6-.3l.3.3a51.39,51.39,0,0,1,17.4,8.1c-3.3.6-6.6.6-9.9.9h-.3a187.89,187.89,0,0,1-18.3-6.3C236.4,253.5,240,252.6,243.3,251.7Zm19.2,7.8c-4.2-4.2-10.5-7.2-17.1-8.4a82.76,82.76,0,0,0,8.1-2.4c3.6.9,6.9,1.5,9.9,3.3a29.52,29.52,0,0,1,6.6,5.1,31.3,31.3,0,0,1-7.5,2.4Zm10.5-4.8c-.9-3.9-5.4-8.1-10.2-8.7-.6,0-.9.3-.6.6a39.72,39.72,0,0,1,6,3.6,18.83,18.83,0,0,1,3.6,5.4c-.3.3-.6.3-.6.6-3-4.2-9.3-7.8-15.6-8.4.6-.3.9-.3,1.5-.6,6-2.1,16.2-6.3,18.3,1.5a6.52,6.52,0,0,1-2.4,6Z"
        />
      </g>
    </g>
  </g>
  <g id="svga-group-eyebrows-right-move">
    <g id="svga-group-eyebrows-right-rotate">
      <g id="svga-group-eyebrows-right">
        <path
          id="SvgjsPath5688"
          class="female eyebrow"
          d="M387.9,255.9a1.8,1.8,0,0,0-1.2.3,4.14,4.14,0,0,0-2.7,0,1.8,1.8,0,0,1-1.2-.3,19.81,19.81,0,0,0-4.2-.3h-1.5a12,12,0,0,0-4.5-.9,58.26,58.26,0,0,0-7.2-.6c-.9-.3-1.5-.3-2.4-.6-1.5-.3-2.7-.9-4.2-1.2-1.2-.3-2.4-.3-3.9-.6-3.3-1.2-6.6-2.4-10.2-3.6h-.6a32.37,32.37,0,0,0-8.1-3h-.3a11.17,11.17,0,0,0-5.4-.6,3.23,3.23,0,0,0-2.4.6c-.3,0-.6.3-.9.3-3.3.9-3.6,5.4-2.1,7.8a13.45,13.45,0,0,0,4.8,4.2,10.78,10.78,0,0,0,5.4,2.1.29.29,0,0,1,.3.3,35.87,35.87,0,0,0,15,2.4c3,0,6.9,0,9.9-1.2,3,.9,6.9.3,10.2-.3a45.51,45.51,0,0,0,6.3-.9,13,13,0,0,0,4.8-.3c1.5-.3,3.9-.3,5.1-1.2.3,0,.3-.3.6-.3a13,13,0,0,0,1.5-.3c.9-.6.3-1.8-.9-1.8Z"
        />
        <path
          id="SvgjsPath5689"
          class="female eyebrow-details"
          d="M336.9,244.8c-5.7-.3-10.2,4.5-10.8,8.4-.6-3.6.6-7.2,6-8.4.6,0,.6-.6,0-.9-7.5-.9-9.9,7.8-6,11.4h.6c.3,0,.6,0,.6-.3.6-2.1,1.2-4.2,3.3-6,1.8-1.8,4.5-2.4,6.9-3.6,0-.3,0-.6-.6-.6Zm17.7,4.8c-8.4-2.4-20.1,1.2-23.4,7.5,0,.3.3.6.3.3a22,22,0,0,1,8.7-5.7c4.8-1.5,9.3-1.2,14.1-1.2.9-.3.9-.6.3-.9Zm13.5,3.3a62.19,62.19,0,0,1-13.2,4.5,72.67,72.67,0,0,1-14.1,2.1c-.3,0-.3.6,0,.6,9.6.3,20.4-1.8,27.9-6.3.6-.3,0-1.2-.6-.9Zm18,3c-4.8.9-9.3,2.4-13.8,3-4.8.9-9.6,1.2-14.1,1.8-.3,0-.3.3,0,.3a69.44,69.44,0,0,0,28.5-4.5c.3-.3,0-.9-.6-.6Z"
        />
        <path
          id="SvgjsPath5690"
          class="female eyebrow-outline"
          d="M376.5,261c5.1-.6,12-.9,15.3-4.5.3-.3-.3-.9-.9-.6-.3.3-.6.3-1.2.6a1,1,0,0,0-.9-.9c-17.1-1.5-32.4-4.5-47.7-10.5-4.2-1.8-9.6-3.9-14.4-1.5-3.6,1.8-5.4,5.4-4.5,8.4,2.4,10.2,19.8,10.5,30.3,10.5A210.37,210.37,0,0,0,376.5,261Zm-20.1-.6h-4.5a58.72,58.72,0,0,0,16.2-6.3,162.08,162.08,0,0,0,20.7,2.4c-9.6,3.6-22.2,3.9-32.4,3.9Zm10.5-6.3a187.89,187.89,0,0,1-18.3,6.3h-.3a55.24,55.24,0,0,1-9.9-.9,58.24,58.24,0,0,1,17.4-8.1.29.29,0,0,0,.3-.3c.3,0,.3,0,.6.3A64.08,64.08,0,0,0,366.9,254.1Zm-29.7,5.4a29,29,0,0,1-7.2-2.4,38.47,38.47,0,0,1,6.6-5.1,54.78,54.78,0,0,1,9.9-3.3,82.76,82.76,0,0,0,8.1,2.4,36.41,36.41,0,0,0-17.4,8.4ZM324.9,249c2.1-7.8,12.3-3.6,18.3-1.5.6.3.9.3,1.5.6-6.3.6-12.9,4.2-15.6,8.4-.3-.3-.6-.3-.6-.6a13.18,13.18,0,0,1,3.6-5.4,39.72,39.72,0,0,1,6-3.6c.6-.3,0-.6-.6-.6-4.8.6-9.3,4.8-10.2,8.7-2.1-1.8-3-3.9-2.4-6Z"
        />
      </g>
    </g>
  </g>
</svg>
