<?xml-stylesheet type="text/css" href="../../../../female-colors.css" ?>
<svg
  width="70"
  height="70"
  style="transform: scale(3.5) translate(-7px, 5px)"
  id="Layer_1"
  data-name="Layer 1"
  xmlns="http://www.w3.org/2000/svg"
  viewBox="0 0 600 600"
>
  <g class="hidden" id="svga-group-eyebrows-left-move">
    <g id="svga-group-eyebrows-left-rotate">
      <g id="svga-group-eyebrows-left">
        <path
          id="SvgjsPath5449"
          class="female eyebrow"
          d="M208.2,253.2a5.38,5.38,0,0,1,2.1-1.5v-.6A4.51,4.51,0,0,1,213,249c.6-.3.9-.6,1.5-.9A15.2,15.2,0,0,1,219,246h.6a14,14,0,0,1,5.1-.9c2.7-1.8,7.5-1.8,10.2-.6a.29.29,0,0,1,.3.3c3.9-.9,8.4,0,12,.9,5.1,1.2,11.1,3,15.3,6a33.25,33.25,0,0,1,5.7,2.7,50.83,50.83,0,0,1,10.8,6.9c.9.3,1.8.3,2.7.6h.3c.6-.3,1.2.6.6,1.2a8.09,8.09,0,0,1-2.4,2.1.56.56,0,0,1,0,.9c-4.8,6.9-17.1,1.2-21.9-4.5l-9.9-5.4h-.3c-3,0-6-1.2-8.7-2.1-3.3-.9-6.6-1.5-9.9-2.4a.65.65,0,0,1-.6-.6,40.06,40.06,0,0,1-6,0,22.71,22.71,0,0,1-4.5-.3c-1.2.6-2.1.9-3.3,1.5a11.12,11.12,0,0,1-4.5,1.2l-1.8.9a1.1,1.1,0,0,1-.9-.3v-.3c-.3,0,0-.6.3-.6Z"
        />
        <path
          id="SvgjsPath5450"
          class="female eyebrow-details"
          d="M265.2,265.2a26.86,26.86,0,0,0,6.9-.6,42.82,42.82,0,0,0,6.6-2.4c.6-.3.9.3.6.6a16,16,0,0,1-14.1,3.6c-.9-.3-.9-1.2,0-1.2Zm-4.8-2.1c2.4-.3,4.8,0,7.2-.3a24.32,24.32,0,0,0,6.3-3c.6-.3.9.3.6.9-1.8,1.8-3.3,3.3-6,3.9a14.89,14.89,0,0,1-8.1-.3c-.3-.3-.3-1.2,0-1.2Zm-15-18.3c5.7,1.5,8.4,8.1,6.9,13.5-.3.6-.9.3-.9,0,.6-5.4-1.8-9.6-6.3-12.6C244.8,245.1,245.1,244.8,245.4,244.8Zm-19.8.6c6.6-.6,13.2,3.6,17.1,8.7.3.3,0,.6-.3.3-4.8-4.8-10.5-6.6-16.8-8.4C225,246,225.3,245.4,225.6,245.4ZM210,250.5c4.5-3,10.5-2.7,15.3-.6.3.3.3.6-.3.6-5.1-1.5-9.9-.6-14.7.9C209.7,251.4,209.7,250.8,210,250.5Z"
        />
        <path
          id="SvgjsPath5451"
          class="female eyebrow-outline"
          d="M198,260.4c-.9.9.3,2.1,1.5,1.5,15.9-13.5,36.6-10.5,53.7-.9,6.3,3.6,12.9,9.9,20.7,9.3,4.5-.3,9.9-3.6,9.6-8.7a.64.64,0,0,0-1.2-.3c-2.7,8.1-9.3,7.5-15.3,4.8,3.6.3,7.5-1.2,10.5-3.3a.34.34,0,1,0-.3-.6c-3.9,2.1-8.1,2.4-12.6,2.4h-.3c-.6-.3-1.5-.9-2.1-1.2a6.77,6.77,0,0,0,3.9-4.2c.3-.6-.6-.9-.9-.3a12.11,12.11,0,0,1-3.9,3.9,20.18,20.18,0,0,1-3.3-2.1,71.57,71.57,0,0,0-6.6-3.6,10.91,10.91,0,0,0-1.8-10.5c10.5,3,20.1,8.1,29.1,14.1.6.6,1.5-.6.6-1.2-13.2-9.6-29.4-17.1-45.9-17.4a41.39,41.39,0,0,0-17.1,3.3c-6,2.7-13.2,7.8-16.8,13.8a8.21,8.21,0,0,0-1.5,1.2Zm51.9-3.6c-1.5-.6-3-1.5-4.5-2.1-1.5-3.9-4.5-8.1-8.4-9.9a49.35,49.35,0,0,1,9.6,1.5,14.3,14.3,0,0,1,3.3,10.5Zm-13.2-5.1a10.66,10.66,0,0,0-3-.6v-.6a14.4,14.4,0,0,0-11.7-4.8,46.6,46.6,0,0,1,11.1-1.2,24.78,24.78,0,0,1,6.6,4.2,17.59,17.59,0,0,1,4.2,5.4c-2.1-.9-4.5-1.5-7.2-2.4Zm-27.6,1.5a22.16,22.16,0,0,1,7.5-5.1c1.5-.6,3-1.2,4.8-1.8-.3.3,0,.6.3.9a30.29,30.29,0,0,1,11.4,3.9c-8.1-1.5-16.8-.9-24,2.1Z"
        />
      </g>
    </g>
  </g>
  <g id="svga-group-eyebrows-right-move">
    <g id="svga-group-eyebrows-right-rotate">
      <g id="svga-group-eyebrows-right">
        <path
          id="SvgjsPath5452"
          class="female eyebrow"
          d="M391.8,253.2a5.38,5.38,0,0,0-2.1-1.5v-.6A4.51,4.51,0,0,0,387,249c-.6-.3-.9-.6-1.5-.9A15.2,15.2,0,0,0,381,246h-.6a14,14,0,0,0-5.1-.9c-2.7-1.8-7.5-1.8-10.2-.6a.29.29,0,0,0-.3.3c-3.9-.9-8.4,0-12,.9-5.1,1.2-11.1,3-15.3,6a33.25,33.25,0,0,0-5.7,2.7,50.83,50.83,0,0,0-10.8,6.9c-.9.3-1.8.3-2.7.6H318c-.6-.3-1.2.6-.6,1.2a8.09,8.09,0,0,0,2.4,2.1.56.56,0,0,0,0,.9c4.8,6.9,17.1,1.2,21.9-4.5l9.9-5.4h.3c3,0,6-1.2,8.7-2.1,3.3-.9,6.6-1.5,9.9-2.4a.65.65,0,0,0,.6-.6,40.06,40.06,0,0,0,6,0,22.71,22.71,0,0,0,4.5-.3c1.2.6,2.1.9,3.3,1.5a11.12,11.12,0,0,0,4.5,1.2l1.8.9a1.1,1.1,0,0,0,.9-.3v-.3c.3,0,0-.6-.3-.6Z"
        />
        <path
          id="SvgjsPath5453"
          class="female eyebrow-details"
          d="M334.8,265.2a26.86,26.86,0,0,1-6.9-.6,42.82,42.82,0,0,1-6.6-2.4c-.6-.3-.9.3-.6.6a16,16,0,0,0,14.1,3.6c.9-.3.9-1.2,0-1.2Zm4.8-2.1c-2.4-.3-4.8,0-7.2-.3a24.32,24.32,0,0,1-6.3-3c-.6-.3-.9.3-.6.9,1.8,1.8,3.3,3.3,6,3.9a14.89,14.89,0,0,0,8.1-.3c.3-.3.3-1.2,0-1.2Zm15-18.3c-5.7,1.5-8.4,8.1-6.9,13.5.3.6.9.3.9,0-.6-5.4,1.8-9.6,6.3-12.6C355.2,245.1,354.9,244.8,354.6,244.8Zm19.8.6c-6.6-.6-13.2,3.6-17.1,8.7-.3.3,0,.6.3.3,4.8-4.8,10.5-6.6,16.8-8.4C375,246,374.7,245.4,374.4,245.4Zm15.6,5.1c-4.5-3-10.5-2.7-15.3-.6-.3.3-.3.6.3.6,5.1-1.5,9.9-.6,14.7.9C390.3,251.4,390.3,250.8,390,250.5Z"
        />
        <path
          id="SvgjsPath5454"
          class="female eyebrow-outline"
          d="M401.1,259.5c-3.6-5.7-10.8-10.8-16.8-13.8a37.84,37.84,0,0,0-17.1-3.3c-16.8.3-32.7,7.8-45.9,17.4-.6.6,0,1.8.6,1.2,9-6,18.6-11.4,29.1-14.1a10.91,10.91,0,0,0-1.8,10.5c-2.4,1.2-4.5,2.4-6.6,3.6-.9.6-2.1,1.2-3.3,2.1a12.11,12.11,0,0,1-3.9-3.9c-.3-.3-.9-.3-.9.3a6.77,6.77,0,0,0,3.9,4.2c-.6.3-1.5.9-2.1,1.2H336c-4.5,0-8.4-.3-12.6-2.4-.6-.3-.9.3-.3.6,3,2.1,6.9,3.6,10.5,3.3-6,2.7-12.6,3.3-15.3-4.8-.3-.6-1.2-.6-1.2.3-.3,5.1,5.1,8.4,9.6,8.7,7.8.6,14.4-5.7,20.7-9.3,17.1-9.6,37.8-12.6,53.7.9.9.9,2.4-.6,1.5-1.5A8.21,8.21,0,0,1,401.1,259.5Zm-47.7-13.2c3.3-.6,6.3-1.2,9.6-1.5-3.9,1.8-6.9,6-8.4,9.9a30.28,30.28,0,0,0-4.5,2.1,14.3,14.3,0,0,1,3.3-10.5Zm2.4,8.1A18.68,18.68,0,0,1,360,249c2.1-1.8,4.5-2.7,6.6-4.2a45,45,0,0,1,11.1,1.2,14.4,14.4,0,0,0-11.7,4.8v.6c-.9.3-2.1.3-3,.6a33.83,33.83,0,0,0-7.2,2.4Zm11.4-3.3a21.66,21.66,0,0,1,11.4-3.9c.6,0,.6-.6.3-.9,1.5.6,3.3,1.2,4.8,1.8,2.7,1.2,5.1,3.3,7.5,5.1a43.75,43.75,0,0,0-24-2.1Z"
        />
      </g>
    </g>
  </g>
</svg>
