<?xml-stylesheet type="text/css" href="../../../../female-colors.css" ?>
<svg
  width="70"
  height="70"
  style="transform: scale(3.5) translate(-7px, 5px)"
  id="Layer_1"
  data-name="Layer 1"
  xmlns="http://www.w3.org/2000/svg"
  viewBox="0 0 600 600"
>
  <g class="hidden" id="svga-group-eyebrows-left-move">
    <g id="svga-group-eyebrows-left-rotate">
      <g id="svga-group-eyebrows-left">
        <path
          id="SvgjsPath3261"
          class="female eyebrow"
          d="M206.4,258h0c.3-.3.3-.3.3-.6a10.45,10.45,0,0,1,4.2-3.9c1.8-1.2,3.9-2.7,5.7-3.9h.3c4.5-3.3,12-3.9,18-2.4a57,57,0,0,1,15,3.9c.3,0,.6.3,1.2.3,4.8.9,9.9,1.8,14.4,3.6,4.5.9,9,1.5,13.2,3h.3a.81.81,0,0,1,1.2.6,2.54,2.54,0,0,1,0,2.1.8.8,0,0,1,.9.9,9.3,9.3,0,0,1-1.8,3.9v.3c-.9,2.4-2.7,3.3-5.4,3a2.27,2.27,0,0,1-1.2-.3,1.1,1.1,0,0,1-.9.3c-4.8-.3-9.6-2.4-13.8-4.2-2.7-1.2-5.7-2.4-8.4-3.9-4.2-.6-8.4-1.8-12.6-2.7-3.9-.9-8.4-.9-12-2.4-1.2.3-2.7.3-3.9.6a8.88,8.88,0,0,1-3,.6c-3,.9-6.6,2.4-9.6,2.7h-.3c-.3,0-.3.3-.6.3a5.38,5.38,0,0,1-2.1,1.5c-.3,0-.9-.3-.9-.6a3,3,0,0,1,1.8-2.7Z"
        />
        <path
          id="SvgjsPath3262"
          class="female eyebrow-details"
          d="M269.7,256.2c3.9,2.4,4.5,8.4,3.9,12.6,0,.9-1.5.9-1.8,0a45.51,45.51,0,0,1-.9-6.3,36.6,36.6,0,0,0-2.1-5.1c-.3-.9.3-1.8.9-1.2Zm-9.6-2.7c6.3,1.2,10.2,8.7,10.8,14.4,0,.6-.9.6-.9.3a19.79,19.79,0,0,0-3.6-8.1c-1.8-2.4-4.2-3.9-6.6-6-.3-.3,0-.9.3-.6ZM243,249.3c2.7.6,5.7,3,7.8,5.1a15.4,15.4,0,0,1,4.5,7.2c0,.6-.6.9-.9.6-1.5-2.4-2.7-4.8-5.1-6.6-2.1-1.8-4.8-3-6.6-5.4-.3-.6-.3-.9.3-.9ZM228.9,246c6.9,0,14.1,6.3,16.2,12.6.3.6-.6.9-.9.3a30,30,0,0,0-6.3-7.5c-2.7-2.1-5.7-3-9-4.2-.9-.3-.9-1.2,0-1.2Zm-16.8,7.2c6.3-8.1,18.6-5.4,23.7,2.4.3.6-.6,1.2-.9.6-3-2.7-6.3-5.7-10.5-6-4.5-.6-8.1,2.4-11.7,3.9C211.8,254.4,211.8,253.5,212.1,253.2Z"
        />
        <path
          id="SvgjsPath3263"
          class="female eyebrow-outline"
          d="M276.3,270.9c4.8-1.2,6-6.6,6-11.1,0-.9-1.2-.9-1.5-.3a28.87,28.87,0,0,1-2.1,5.4,7.77,7.77,0,0,1-3.3,3,12.37,12.37,0,0,0-1.8-11.1c1.8.3,3.3.9,5.1,1.2.6,0,.9-.6.3-.9-8.1-3-16.8-4.8-24.9-7.2-7.2-2.1-14.7-4.2-21.9-5.1-13.8-1.8-22.8,7.2-30.9,17.1-.3.3-.6.6-.9.6-1.2.9,0,2.7,1.2,1.8,7.5-4.5,15-7.2,23.7-7.2,9.3.3,18.6,3.3,27.6,6.3,4.8,1.8,9.3,3.6,13.8,5.4,3,1.8,6.3,3,9.6,2.1Zm-60-20.4a19.41,19.41,0,0,1,9.3-3.3,32.66,32.66,0,0,1,6.9,4.2,54.77,54.77,0,0,1,3.9,4.8c-.3,0-.6-.3-1.2-.3-10.2-2.1-19.8-1.2-28.5,3A64.22,64.22,0,0,1,216.3,250.5Zm57.9,18a16.64,16.64,0,0,1-5.1-.9c-3.6-1.2-7.2-3-10.8-4.5-.6-.3-1.2-.3-1.8-.6a10.22,10.22,0,0,0-2.7-7.2c-.3-.3-.9,0-.6.6a56.83,56.83,0,0,1,2.7,6.3,62.83,62.83,0,0,0-6.9-2.4c-2.1-4.5-6.3-9.3-10.8-11.4-.6-.3-.9.6-.6.9,1.8,1.8,3.9,3,5.7,5.1a32.75,32.75,0,0,1,3.9,5.1c-3-.9-5.7-1.8-8.7-2.4-.6-2.4-2.7-4.8-4.5-6.3a24.83,24.83,0,0,0-4.5-3.3,40,40,0,0,1,8.4.9c11.4,2.4,22.8,5.7,34.2,8.4a14.67,14.67,0,0,1,2.1,11.7Z"
        />
      </g>
    </g>
  </g>
  <g id="svga-group-eyebrows-right-move">
    <g id="svga-group-eyebrows-right-rotate">
      <g id="svga-group-eyebrows-right">
        <path
          id="SvgjsPath3264"
          class="female eyebrow"
          d="M393.6,258h0c-.3-.3-.3-.3-.3-.6a10.45,10.45,0,0,0-4.2-3.9c-1.8-1.2-3.9-2.7-5.7-3.9h-.3c-4.5-3.3-12-3.9-18-2.4a57,57,0,0,0-15,3.9c-.3,0-.6.3-1.2.3-4.8.9-9.9,1.8-14.4,3.6-4.5.9-9,1.5-13.2,3H321a.81.81,0,0,0-1.2.6,2.54,2.54,0,0,0,0,2.1.8.8,0,0,0-.9.9,9.3,9.3,0,0,0,1.8,3.9v.3c.9,2.4,2.7,3.3,5.4,3a2.27,2.27,0,0,0,1.2-.3,1.1,1.1,0,0,0,.9.3c4.8-.3,9.6-2.4,13.8-4.2,2.7-1.2,5.7-2.4,8.4-3.9,4.2-.6,8.4-1.8,12.6-2.7,3.9-.9,8.4-.9,12-2.4,1.2.3,2.7.3,3.9.6a8.88,8.88,0,0,0,3,.6c3,.9,6.6,2.4,9.6,2.7h.3c.3,0,.3.3.6.3a5.38,5.38,0,0,0,2.1,1.5c.3,0,.9-.3.9-.6a3,3,0,0,0-1.8-2.7Z"
        />
        <path
          id="SvgjsPath3265"
          class="female eyebrow-details"
          d="M330.3,256.2c-3.9,2.4-4.5,8.4-3.9,12.6,0,.9,1.5.9,1.8,0a45.51,45.51,0,0,0,.9-6.3,36.6,36.6,0,0,1,2.1-5.1c.3-.9-.3-1.8-.9-1.2Zm9.6-2.7c-6.3,1.2-10.2,8.7-10.8,14.4,0,.6.9.6.9.3a19.79,19.79,0,0,1,3.6-8.1c1.8-2.4,4.2-3.9,6.6-6,.3-.3,0-.9-.3-.6Zm17.1-4.2c-2.7.6-5.7,3-7.8,5.1a15.4,15.4,0,0,0-4.5,7.2c0,.6.6.9.9.6,1.5-2.4,2.7-4.8,5.1-6.6,2.1-1.8,4.8-3,6.6-5.4.3-.6.3-.9-.3-.9Zm14.1-3.3c-6.9,0-14.1,6.3-16.2,12.6-.3.6.6.9.9.3a30,30,0,0,1,6.3-7.5c2.7-2.1,5.7-3,9-4.2.9-.3.9-1.2,0-1.2Zm16.8,7.2c-6.3-8.1-18.6-5.4-23.7,2.4-.3.6.6,1.2.9.6,3-2.7,6.3-5.7,10.5-6,4.5-.6,8.1,2.4,12,3.9C388.2,254.4,388.2,253.5,387.9,253.2Z"
        />
        <path
          id="SvgjsPath3266"
          class="female eyebrow-outline"
          d="M333.3,269.4c4.5-1.8,9.3-3.6,13.8-5.4,8.7-3,18.3-6.3,27.6-6.3,8.7-.3,16.5,2.7,23.7,7.2,1.2.6,2.4-1.2,1.2-1.8a1.56,1.56,0,0,0-1.2-.6c-8.1-9.9-17.1-18.6-30.9-17.1-7.5.9-14.7,3.3-21.9,5.1-8.4,2.4-16.8,4.2-24.9,7.2-.6.3-.3.9.3.9a31.38,31.38,0,0,0,5.1-1.2,12.23,12.23,0,0,0-1.8,11.1,5.22,5.22,0,0,1-3.3-3c-.9-1.8-1.2-3.6-2.1-5.4-.3-.6-1.5-.6-1.5.3.3,4.2,1.5,9.6,6,11.1,3.6.3,6.9-.9,9.9-2.1ZM393,258.9a44.24,44.24,0,0,0-28.5-3c-.3,0-.6.3-1.2.3a54.77,54.77,0,0,1,3.9-4.8c2.1-1.8,4.5-2.7,6.9-4.2a21.72,21.72,0,0,1,9.3,3.3A43.87,43.87,0,0,1,393,258.9Zm-64.8-2.1c11.4-2.7,22.8-6,34.2-8.4a42.2,42.2,0,0,1,8.4-.9,17.48,17.48,0,0,0-4.5,3.3c-1.8,1.5-3.9,3.9-4.5,6.3a73.63,73.63,0,0,0-8.7,2.4,32.75,32.75,0,0,1,3.9-5.1c1.8-1.8,3.9-3.3,5.7-5.1.3-.3,0-.9-.6-.9-4.5,1.8-8.7,6.6-10.8,11.4a46.64,46.64,0,0,0-6.9,2.4,28.48,28.48,0,0,1,2.7-6.3c.3-.6-.3-.9-.6-.6a10.75,10.75,0,0,0-2.7,7.2c-.6.3-1.2.3-1.8.6-3.6,1.5-7.2,3.3-10.8,4.5-1.8.6-3.6,1.2-5.1.9a12.68,12.68,0,0,1,2.1-11.7Z"
        />
      </g>
    </g>
  </g>
</svg>
