<?xml-stylesheet type="text/css" href="../../../male-colors.css" ?>
<svg
                width="70"
                height="70"
                style="transform: scale(3.5) translate(-8px, 7px)"
                id="Layer_1"
                data-name="Layer 1"
                xmlns="http://www.w3.org/2000/svg"
                viewBox="0 0 600 600"
              >
                <g class="hidden" id="svga-group-eyebrows-left-move">
                  <g id="svga-group-eyebrows-left-rotate">
                    <g id="svga-group-eyebrows-left">
                      <path
                        id="SvgjsPath3496"
                        class="male eyebrow"
                        d="M196.12,241.68a6.89,6.89,0,0,1,1.58-2.52,9.41,9.41,0,0,1,1.57-2.21,13.54,13.54,0,0,1,2.21-1.89c1.57-2.83,5.35-5,7.87-6.61,2.84-1.58,5.67-2.84,9.14-2.84,3.15-.63,6.61-.63,9.13.63a5.31,5.31,0,0,1,3.15.95c3.47-.32,7.25.63,10.4,1.26a60.41,60.41,0,0,1,12.91,3.78A44,44,0,0,1,267,233.8h.63a1.11,1.11,0,0,1,.63.32h.31c.32,0,.63.31.95.63s0,.94,0,1.26v.31a3.94,3.94,0,0,1-.32,1.89,7.4,7.4,0,0,1-1.57,5,1.16,1.16,0,0,1-.32.95c-.31,1.57-.63,3.46-2.2,4.41a3.58,3.58,0,0,1-2.52.94,1.18,1.18,0,0,1-.95-.31h-1.89c-1.89.63-4.41,0-6-.32a15.37,15.37,0,0,1-5.36-1.89c-5.67-.94-11-2.52-16.69-3.78-5-1.26-12.6-1.26-17-4.09a43.52,43.52,0,0,1-6.3.63,13,13,0,0,1-3.47,0,3,3,0,0,1-2.2-.63.31.31,0,0,1-.32-.32h-.31l-1.26,1.26a8,8,0,0,1-3.78,2.52c-.32.63-.95,0-.95-.94Z"
                      />
                      <path
                        id="SvgjsPath3497"
                        class="male eyebrow-details"
                        d="M261.33,243.25a26.89,26.89,0,0,0-1.26-5.35c0-.63.63-1,.94-.32,2.21,3.15,2.84,8.82.63,12.29-.31.63-.94.31-.94-.32a54.08,54.08,0,0,0,.63-6.3Zm-10.71-10.08c4.09,2.52,6.61,8.19,6.61,12.6,0,.63-.94.95-.94.32a33.12,33.12,0,0,0-2.21-6c-.94-2.2-2.83-3.78-4.09-6-1-.63,0-1.26.63-1Zm-10.4-2.2c6.93,2.52,12,10.08,13.23,16.69,0,.63-.63.63-.94.32a25.55,25.55,0,0,0-5.36-8.82c-2.2-2.84-5-4.41-7.87-6.93C238.65,231.91,239.59,230.65,240.22,231Zm-15.43-2.52c7.56,1.89,15.12,8.19,18.27,14.8.31.63-.95,1.26-1.26.63a52.3,52.3,0,0,0-8.19-8.5c-2.84-2.21-6.3-3.78-9.45-5.67-.63-.32-.32-1.26.63-1.26ZM197.38,240.1c5-5.67,12-13.54,20.48-12.6a.48.48,0,0,1,0,.95c-8.19.63-13.55,7.87-19.85,12.28-.63.32-1.26-.31-.63-.63Z"
                      />
                      <path
                        id="SvgjsPath3498"
                        class="male eyebrow-outline"
                        d="M271.41,235.69a1,1,0,0,0-1.89,0c-.95,3.47-.95,7.56-3.78,10.4-1.89,2.2-4.72,2.52-7.56,2.2.95-4.72.63-11.65-2.52-15.43-.63-.63-1.58-.32-1.26.63,0,2.52,1.26,5,1.57,7.56a55.28,55.28,0,0,1,.63,7.24,1.16,1.16,0,0,1-.94-.31,30.68,30.68,0,0,0-8.82-17.33,172.23,172.23,0,0,0,21.73,3.47c.32,0,.63-.63.32-.63-8.19-2.84-16.7-4.41-25.2-6.3-7.56-1.58-16.07-4.41-23.94-4.73-6.62-.31-11.34,2.84-15.75,6.93-4.73,4.41-9.77,9.77-12.92,15.44l-.63.63c-.31.31-.63.94-.31,1.26a.31.31,0,0,1-.32.31,1.14,1.14,0,0,0,1.89,1.26,1.18,1.18,0,0,0,.95-.31c4.41-2.21,7.87-4.41,12.91-5a42.27,42.27,0,0,1,12.6.31c9.14,1.26,17.64,4.1,26.15,6.62,6.61,1.89,15.44,5.35,21.74.63C271.41,247.35,272,240.73,271.41,235.69Zm-42.21,4.1c-1.58-.32-3.47-.63-5.36-.95.32-3.46-.94-7.24-2.52-10.39a56.58,56.58,0,0,1,6.3,6c1.89,1.89,2.84,4.41,4.73,6.3-1.26-.31-2.21-.63-3.15-.94Zm-23.63-7.56a22.4,22.4,0,0,1,12.6-6c.63,2.52,1.89,5,2.21,7.56l.94,4.73c-.94,0-2.2-.32-3.15-.32-1.57-2.83-4.09-5.67-7.24-6.61-.63-.32-1,.63-.63,1.26,1.26,1.26,2.83,2.52,4.09,3.78a5.6,5.6,0,0,0,1.26,1.57c-6-.31-12,.32-17,2.52a35.79,35.79,0,0,1,6.93-8.5Zm47.88,15.12c-.63-.32-1.26-.32-1.89-.63-1.26-.32-2.83-.95-4.09-1.26a39.17,39.17,0,0,0-11.66-15.12c-.63-.32-1.26.31-.94.63,3.78,4.41,6.93,9.13,10.39,13.86-3.46-1.26-6.93-2.21-10.08-3.47-.63-3.46-3.78-6.93-6-9.45a35.41,35.41,0,0,0-7.56-6c1.26,0,2.52.31,4.09.31,6.3.95,12.6,2.52,18.9,3.78v.32c2.21,3.46,4.73,6.93,6.62,10.39a55.19,55.19,0,0,0,2.2,6.62Z"
                      />
                    </g>
                  </g>
                </g>
                <g id="svga-group-eyebrows-right-move">
                  <g id="svga-group-eyebrows-right-rotate">
                    <g id="svga-group-eyebrows-right">
                      <path
                        id="SvgjsPath3499"
                        class="male eyebrow"
                        d="M404,241.68a6.89,6.89,0,0,0-1.58-2.52,9.41,9.41,0,0,0-1.57-2.21,13.54,13.54,0,0,0-2.21-1.89c-1.57-2.83-5.35-5-7.87-6.61-2.84-1.58-5.67-2.84-9.14-2.84-3.15-.63-6.61-.63-9.13.63a5.31,5.31,0,0,0-3.15.95c-3.47-.32-7.25.63-10.4,1.26a60.41,60.41,0,0,0-12.91,3.78,44,44,0,0,0-12.92,1.57h-.63a1.11,1.11,0,0,0-.63.32h-.31c-.32,0-.63.31-.95.63s0,.94,0,1.26v.31a3.94,3.94,0,0,0,.32,1.89,7.4,7.4,0,0,0,1.57,5,1.16,1.16,0,0,0,.32.95c.31,1.57.63,3.46,2.2,4.41a3.58,3.58,0,0,0,2.52.94,1.18,1.18,0,0,0,.95-.31h1.89c1.89.63,4.41,0,6-.32a15.37,15.37,0,0,0,5.36-1.89c5.67-.94,11-2.52,16.69-3.78,5-1.26,12.6-1.26,17-4.09a48.27,48.27,0,0,0,6.3.63,13,13,0,0,0,3.47,0,3,3,0,0,0,2.2-.63.31.31,0,0,0,.32-.32H398l1.26,1.26a8,8,0,0,0,3.78,2.52c.32.63.95,0,.95-.94Z"
                      />
                      <path
                        id="SvgjsPath3500"
                        class="male eyebrow-details"
                        d="M338.82,243.25a26.89,26.89,0,0,1,1.26-5.35c0-.63-.63-1-.94-.32-2.21,3.15-2.84,8.82-.63,12.29.31.63.94.31.94-.32a54.08,54.08,0,0,1-.63-6.3Zm10.71-10.08c-4.09,2.52-6.61,8.19-6.61,12.6,0,.63.94.95.94.32a33.12,33.12,0,0,1,2.21-6c.94-2.2,2.83-3.78,4.09-6,.95-.63,0-1.26-.63-1Zm10.4-2.2c-6.93,2.52-12,10.08-13.23,16.69,0,.63.63.63.94.32a25.55,25.55,0,0,1,5.36-8.82c2.2-2.84,5-4.41,7.87-6.93C361.5,231.91,360.56,230.65,359.93,231Zm15.43-2.52c-7.56,1.89-15.12,8.19-18.27,14.8-.31.63,1,1.26,1.26.63a52.3,52.3,0,0,1,8.19-8.5c2.84-2.21,6.3-3.78,9.45-5.67.63-.32.32-1.26-.63-1.26Zm27.41,11.65c-5-5.67-12-13.54-20.48-12.6a.48.48,0,0,0,0,.95c8.19.63,13.55,7.87,19.85,12.28.63.32,1.26-.31.63-.63Z"
                      />
                      <path
                        id="SvgjsPath3501"
                        class="male eyebrow-outline"
                        d="M333.47,250.5c6.3,4.72,15.12,1.26,21.73-.63,8.82-2.52,17.33-5.67,26.15-6.62a42.27,42.27,0,0,1,12.6-.31c5,.63,8.5,2.83,12.91,5a1.18,1.18,0,0,0,.95.31A1.14,1.14,0,0,0,409.7,247a.31.31,0,0,0-.32-.31,1.9,1.9,0,0,0-.31-1.26l-.63-.63c-3.15-5.67-8.19-11-12.92-15.44-4.41-4.09-9.13-7.24-15.75-6.93-7.87.32-16.38,3.15-23.94,4.73-8.5,1.89-17,3.46-25.2,6.3-.63.31-.31.63.32.63a172.23,172.23,0,0,0,21.73-3.47A30.68,30.68,0,0,0,343.86,248a1.16,1.16,0,0,0-.94.31c.31-2.52.31-4.72.62-7.24s1.58-5,1.58-7.56c0-.63-.95-1-1.26-.63-3.15,3.78-3.47,10.71-2.52,15.43-2.84.32-5.36,0-7.56-2.2-2.52-2.84-2.84-6.93-3.78-10.71a1,1,0,0,0-1.89,0c0,5.35.63,12,5.35,15.12Zm34.33-10.08c1.58-1.89,2.84-4.41,4.73-6.3a55.77,55.77,0,0,1,6.3-6c-1.58,3.15-2.84,7.25-2.52,10.4-1.89.31-3.78.63-5.36.94a5.31,5.31,0,0,1-3.15.95Zm34,0c-5-2.21-11.34-2.84-17-2.52a5.63,5.63,0,0,1,1.26-1.58c1.26-1.57,2.84-2.52,4.1-3.78a.76.76,0,0,0-.63-1.26c-3.15.95-5.67,3.78-7.25,6.62-.94,0-2.2.31-3.15.31l.95-4.72c.63-2.52,1.57-5,2.2-7.56a24.52,24.52,0,0,1,12.6,6c2.52,2.84,4.73,5.67,6.93,8.51Zm-52.6.63c1.89-3.78,4.41-6.93,6.61-10.4v-.31c6.3-1.26,12.6-2.84,18.9-3.78a17.73,17.73,0,0,1,4.1-.32,35,35,0,0,0-7.56,6c-2.21,2.52-5.36,6-6,9.45a93.93,93.93,0,0,0-10.08,3.46c3.15-4.72,6.62-9.13,10.4-13.86.31-.63-.32-.94-1-.63A39.15,39.15,0,0,0,353,245.77c-1.26.32-2.84.95-4.1,1.26-.63.32-1.26.32-1.89.63a32.18,32.18,0,0,1,2.21-6.61Z"
                      />
                    </g>
                  </g>
                </g>
              </svg>