<?xml-stylesheet type="text/css" href="../../../../male-colors.css" ?>
<svg
                width="70"
                height="70"
                style="transform: scale(3.5) translate(-8px, 7px)"
                id="Layer_1"
                data-name="Layer 1"
                xmlns="http://www.w3.org/2000/svg"
                viewBox="0 0 600 600"
              >
                <g class="hidden" id="svga-group-eyebrows-left-move">
                  <g id="svga-group-eyebrows-left-rotate">
                    <g id="svga-group-eyebrows-left">
                      <path
                        id="SvgjsPath5072"
                        class="male eyebrow"
                        d="M196.5,255.9c.3-1.5,1.2-2.7,1.8-4.2a21.43,21.43,0,0,1,2.4-4.5,1.85,1.85,0,0,1,.3-2.1c1.2-1.8,2.4-3.3,3.6-5.4.9-1.8,1.5-3.9,2.7-5.4,1.5-2.1,5.4-1.8,8.4-1.2a12.91,12.91,0,0,1,4.8,0,11.75,11.75,0,0,1,3.9.9h.3c3.6-.6,7.2-.9,10.8.9a44.31,44.31,0,0,1,6.3.3c3.3.3,6.9.3,9.9,1.2h5.1c2.1-.3,4.2-.3,6.6-.6h.3c.9-.3,1.5-.6,2.4-.9.6-.3.9,0,1.2.3.3,0,.6-.3.9-.3s.6,0,.6.3a26.4,26.4,0,0,1,4.5-1.5h.3c.6-.6,1.5-.3,1.2.6a8.9,8.9,0,0,1-2.1,4.5,15.72,15.72,0,0,1-3,3.3c.9,0,2.1-.3,3-.3.3-.3.9-.6,1.2-.9a24.19,24.19,0,0,0,3.6-4.2c.3-.6,1.2.3.9.6a1.56,1.56,0,0,0-.6,1.2v.3a.29.29,0,0,1-.3.3v.6a16.92,16.92,0,0,1-3.3,6,1.1,1.1,0,0,1,.3.9c-1.2,3.3-4.8,6.3-8.1,8.1-.6.3-1.5.3-1.8-.3a135.65,135.65,0,0,1-15.9.6c-3.9,0-9,.3-12.6-1.8-2.4.3-5.1-.6-7.8-1.2-3,1.5-6.3.3-9.3-.6-1.2-.3-2.1-.9-3.3-1.2a11.25,11.25,0,0,1-3.3.3h-1.5a26.23,26.23,0,0,1-3,2.4c-1.5.9-3,2.1-4.8,2.4h-.6a12.16,12.16,0,0,1-2.7,1.5,6.28,6.28,0,0,1-1.2,1.8,1.1,1.1,0,0,1-.9.3,3,3,0,0,1-2.1,1.2,1,1,0,0,1-.9-.9,4.57,4.57,0,0,1,1.8-3.3Z"
                      />
                      <path
                        id="SvgjsPath5073"
                        class="male eyebrow-details"
                        d="M254.4,252.9c4.2-1.8,8.4-3,12.3-5.4,4.2-2.4,7.5-5.7,11.1-9.3.3-.3.9,0,.6.6-4.8,7.2-14.4,14.4-23.4,15-.9.3-1.2-.6-.6-.9Zm1.2,1.8c5.7-1.2,10.8-2.7,15.6-5.7.3-.3.6.3.3.6a26.1,26.1,0,0,1-15.9,6c-.3-.3-.3-.9,0-.9Zm-8.4-3.9c3.3-2.1,6.6-3.9,9.9-6.3s5.7-5.4,8.4-8.1c.3-.3.6,0,.6.3-3.3,6.3-11.4,12.9-18.6,14.4-.6.3-.6-.3-.3-.3Zm-16.8,2.1c7.8-4.2,15-7.5,19.5-15.6.3-.3.6,0,.6.3-3.6,7.8-11.4,13.8-19.8,15.9-.6,0-.9-.6-.3-.6Zm-10.5-3.3c2.1-2.1,4.8-3.9,6.6-6.3,2.1-2.7,3.3-5.7,5.1-8.4.3-.3.9-.3.6.3-.6,5.7-6.6,13.5-12,15.3-.3.3-.6-.3-.3-.9Zm-7.8-.3c4.8-4.5,9-8.4,11.7-14.4.3-.3.9,0,.6.3-2.1,6-5.7,12.3-11.7,15-.3,0-.9-.6-.6-.9Zm-16.8,5.4c2.7-1.8,5.7-2.7,8.7-3.9,2.4-.9,4.8-2.1,7.5-1.2.3,0,.3.6,0,.6-2.7-.3-5.4,1.2-8.1,2.4-2.4.9-5.1,2.4-7.8,2.7-.6.3-.9-.3-.3-.6Z"
                      />
                      <path
                        id="SvgjsPath5074"
                        class="male eyebrow-outline"
                        d="M192,261c-.6.6,0,1.2.6,1.2h.3a.91.91,0,0,0,1.2,0,.29.29,0,0,1,.3-.3c3.3-1.2,6.3-3.6,9-5.4a43.57,43.57,0,0,0,7.8-5.1c8.7,2.4,18.6,2.7,27.6,3.6,8.7.6,18,1.2,27,.6a1.1,1.1,0,0,0,.9.3.29.29,0,0,0,.3-.3h.9c.6,0,.6-.6.6-.9a25.55,25.55,0,0,0,11.1-18.9c0-.3,0-.3-.3-.3a.57.57,0,0,0-.9-.3l-3.6,3.6-.3.3a11.42,11.42,0,0,0,1.5-4.5c0-.9-.9-.9-1.2-.3a14.44,14.44,0,0,1-2.4,4.8c-.9,1.2-2.7,2.4-3.3,3.6-.3.3,0,.6.3.6a3.24,3.24,0,0,0,2.1-.9h.3a13.85,13.85,0,0,0,4.5-2.7,17.15,17.15,0,0,0,2.1-2.4,25.94,25.94,0,0,1-11.7,16.2c-4.8-.3-9.3-.3-14.1-.6a42.91,42.91,0,0,0,8.1-5.7,33.55,33.55,0,0,0,9-12.3,18.1,18.1,0,0,0,5.7-1.8c.3-.3.3-.6-.3-.6-3,0-5.7.9-8.7,1.2a73.11,73.11,0,0,1-8.1.3,146.59,146.59,0,0,1-16.2-.9c-10.8-.9-22.8-3.3-33.6-2.1-.6,0-.9.6-.9,1.2-3.3,4.2-5.7,9-8.1,13.8-2.1,4.2-4.8,9-6,13.5L192,261Zm4.5-3.3c1.8-3.6,3-7.2,4.8-10.8,2.4-4.5,4.8-8.7,6.9-13.5,6,.3,12,0,17.7.6s11.4,1.2,17.1,1.5a108.67,108.67,0,0,0,17.1.6,79.36,79.36,0,0,0,8.1-.6,41.4,41.4,0,0,1-9.6,10.8,49.33,49.33,0,0,1-6.6,4.2c-1.8.9-3.6,1.2-5.1,2.4h-2.7c4.8-2.7,9.3-7.2,10.8-12.3.3-.6-.6-.9-.9-.6-1.8,2.1-3.3,4.8-5.4,6.9a63.3,63.3,0,0,1-6.9,5.7h-2.1c-4.5-.3-9.3-.9-13.8-1.2a17.42,17.42,0,0,0,5.4-9.3c0-.3-.6-.6-.6-.3a28.49,28.49,0,0,1-3,5.1,22.23,22.23,0,0,1-3.6,3.9c-3.3-.6-6.6-1.2-9.9-1.5.3-.3,0-1.2-.6-.9a14.63,14.63,0,0,1-2.1.9.29.29,0,0,0-.3.3c-3,1.5-5.7,3.3-8.4,4.8-2.4,1.2-4.2,2.1-6.3,3.3Z"
                      />
                    </g>
                  </g>
                </g>
                <g id="svga-group-eyebrows-right-move">
                  <g id="svga-group-eyebrows-right-rotate">
                    <g id="svga-group-eyebrows-right">
                      <path
                        id="SvgjsPath5075"
                        class="male eyebrow"
                        d="M403.5,255.9c-.3-1.5-1.2-2.7-1.8-4.2a21.43,21.43,0,0,0-2.4-4.5,1.85,1.85,0,0,0-.3-2.1c-1.2-1.8-2.7-3.3-3.6-5.4-.9-1.8-1.5-3.9-2.7-5.4-1.5-2.1-5.4-1.8-8.4-1.2a12.91,12.91,0,0,0-4.8,0,11.75,11.75,0,0,0-3.9.9h-.3c-3.6-.6-7.2-.9-10.8.9a44.31,44.31,0,0,0-6.3.3c-3.3.3-6.9.3-9.9,1.2h-5.1c-2.1-.3-4.2-.3-6.6-.6h-.3c-.9-.3-1.5-.6-2.4-.9-.6-.3-.9,0-1.2.3-.3,0-.6-.3-.9-.3s-.6,0-.6.3a26.4,26.4,0,0,0-4.5-1.5h-.3c-.6-.6-1.5-.3-1.2.6a8.9,8.9,0,0,0,2.1,4.5,15.72,15.72,0,0,0,3,3.3c-.9,0-2.1-.3-3-.3-.3-.3-.9-.6-1.2-.9a24.19,24.19,0,0,1-3.6-4.2c-.3-.6-1.2.3-.9.6a1.56,1.56,0,0,1,.6,1.2v.3a.29.29,0,0,0,.3.3v.6a16.92,16.92,0,0,0,3.3,6,1.1,1.1,0,0,0-.3.9c1.2,3.3,4.8,6.3,8.1,8.1.6.3,1.5.3,1.8-.3,5.4.3,11.1.3,16.8.3,3.9,0,9,.3,12.6-1.8,2.4.3,5.1-.6,7.8-1.2,3,1.5,6.3.3,9.3-.6,1.2-.3,2.1-.9,3.3-1.2a12.31,12.31,0,0,0,3.3.3H390a26.23,26.23,0,0,0,3,2.4c1.5.9,3,2.1,4.8,2.4h.6a12.16,12.16,0,0,0,2.7,1.5,6.28,6.28,0,0,0,1.2,1.8,1.1,1.1,0,0,0,.9.3,3,3,0,0,0,2.1,1.2,1,1,0,0,0,.9-.9,27,27,0,0,0-2.7-3Z"
                      />
                      <path
                        id="SvgjsPath5076"
                        class="male eyebrow-details"
                        d="M345.6,252.9c-4.2-1.8-8.4-3-12.3-5.4-4.2-2.4-7.5-5.7-11.1-9.3-.3-.3-.9,0-.6.6,4.8,7.2,14.4,14.4,23.4,15,.9.3,1.2-.6.6-.9Zm-1.2,1.8c-5.7-1.2-10.8-2.7-15.6-5.7-.3-.3-.6.3-.3.6a26.1,26.1,0,0,0,15.9,6c.3-.3.3-.9,0-.9Zm8.4-3.9c-3.3-2.1-6.6-3.9-9.9-6.3s-5.7-5.4-8.4-8.1c-.3-.3-.6,0-.6.3,3.3,6.3,11.4,12.9,18.6,14.4.6.3.6-.3.3-.3Zm16.8,2.1c-7.8-4.2-15-7.5-19.5-15.6-.3-.3-.6,0-.6.3,3.6,7.8,11.4,13.8,19.8,15.9.6,0,.9-.6.3-.6Zm10.5-3.3c-2.1-2.1-4.8-3.9-6.6-6.3-2.1-2.7-3.3-5.7-5.1-8.4-.3-.3-.9-.3-.6.3.6,5.7,6.6,13.5,12,15.3.3.3.6-.3.3-.9Zm7.8-.3c-4.8-4.5-9-8.4-11.7-14.4-.3-.3-.9,0-.6.3,2.1,6,5.7,12.3,11.7,15,.3,0,.9-.6.6-.9Zm16.8,5.4c-2.7-1.8-5.7-2.7-8.7-3.9-2.4-.9-4.8-2.1-7.5-1.2-.3,0-.3.6,0,.6,2.7-.3,5.4,1.2,8.1,2.4,2.4.9,5.1,2.4,7.8,2.7.6.3.9-.3.3-.6Z"
                      />
                      <path
                        id="SvgjsPath5077"
                        class="male eyebrow-outline"
                        d="M406.8,260.1c-1.2-4.8-3.9-9.3-6-13.5-2.4-4.8-4.8-9.6-8.1-13.8,0-.6-.3-1.2-.9-1.2-11.1-1.5-22.8.9-33.6,2.1a146.59,146.59,0,0,1-16.2.9c-2.7,0-5.4-.3-8.1-.3-3-.3-5.7-1.2-8.7-1.2-.3,0-.6.6-.3.6a18.1,18.1,0,0,0,5.7,1.8,33.55,33.55,0,0,0,9,12.3,42.91,42.91,0,0,0,8.1,5.7c-4.8.3-9.3.3-14.1.6a25.64,25.64,0,0,1-11.7-16.2c.6.9,1.5,1.5,2.1,2.4a8.7,8.7,0,0,0,4.5,2.7h.3a2.72,2.72,0,0,0,2.1.9c.3,0,.6-.3.3-.6-.6-1.5-2.4-2.4-3.3-3.6a18,18,0,0,1-2.4-4.8c-.3-.6-1.2-.6-1.2.3a8.93,8.93,0,0,0,1.5,4.5l-.3-.3-3.6-3.6a.57.57,0,0,0-.9.3l-.3.3a25,25,0,0,0,11.1,18.9c0,.3,0,.9.6.9h.9a.29.29,0,0,1,.3.3c.3.3.6,0,.9-.3,9,.6,18,0,27-.6s18.9-.9,27.6-3.6c2.4,1.8,5.4,3.3,7.8,5.1a65,65,0,0,0,9,5.4.29.29,0,0,0,.3.3.62.62,0,0,0,1.2,0h.3c.6.3,1.2-.6.6-1.2a3.54,3.54,0,0,0-1.5-1.5Zm-9-5.7a46.71,46.71,0,0,0-8.4-4.8.29.29,0,0,1-.3-.3l-1.8-.9c-.6-.3-.9.6-.6.9-3.3.3-6.6.9-9.9,1.5a46.14,46.14,0,0,1-3.6-3.9,45.16,45.16,0,0,1-3-5.1c-.3-.3-.6,0-.6.3a17.42,17.42,0,0,0,5.4,9.3c-4.5.6-9.3.9-13.8,1.2h-2.1c-2.4-1.8-5.1-3.6-6.9-5.7a60.84,60.84,0,0,1-5.4-6.9c-.3-.6-1.2,0-.9.6,1.5,5.1,6,9.6,10.8,12.3H354a15.92,15.92,0,0,0-5.1-2.4,49.33,49.33,0,0,1-6.6-4.2,41.4,41.4,0,0,1-9.6-10.8,73.56,73.56,0,0,0,8.1.6,108.67,108.67,0,0,0,17.1-.6c5.7-.6,11.4-1.2,17.1-1.5,6-.6,12-.3,17.7-.6,1.8,4.8,4.5,9,6.9,13.5,1.8,3.3,3,7.2,4.8,10.8a33.52,33.52,0,0,1-6.6-3.3Z"
                      />
                    </g>
                  </g>
                </g>
              </svg>