<?xml-stylesheet type="text/css" href="../../../male-colors.css" ?>
<svg
                width="70"
                height="70"
                style="transform: scale(3.5) translate(-8px, 7px)"
                id="Layer_1"
                data-name="Layer 1"
                xmlns="http://www.w3.org/2000/svg"
                viewBox="0 0 600 600"
              >
                <g class="hidden" id="svga-group-eyebrows-left-move">
                  <g id="svga-group-eyebrows-left-rotate">
                    <g id="svga-group-eyebrows-left">
                      <path
                        id="SvgjsPath4797"
                        class="male eyebrow"
                        d="M204.3,233.7c3.3,0,7.2-.9,10.5-1.2,3.6-.3,6-1.5,9.6-.3,1.5-.3,3.3-.3,4.8-.6,2.4-.6,3.9-.9,6.3-.3a40.35,40.35,0,0,1,10.5-1.5c4.5-.3,9.6-1.2,14.1,0h.3c.3,0,.3-.3.6-.3a1.32,1.32,0,0,1,1.5.3.29.29,0,0,0,.3-.3.91.91,0,0,1,1.2,0h.6c.3-.3.3-.6.6-.9.9-.9,2.4.3,1.8,1.2-.3.3-.3.6-.6.9v.6a8.76,8.76,0,0,0-.6,2.7c1.5-1.2,2.7-2.4,4.2-3.6.6-.3,1.2.3.9.6,0,.3-.3.6-.6,1.2a1.8,1.8,0,0,1,1.2-.3,1.1,1.1,0,0,0,.9-.3c.9-.3,1.8,0,2.4-.3h.6c.3-.3.6-.6.9-.6.9-.6,1.8.6,1.5,1.5-.6.9-.9,1.8-1.5,2.7v.3c2.1,3.9.6,9.3-.9,13.5a2,2,0,0,1-.9,2.4,1.87,1.87,0,0,1-1.8,1.2c-.9.9-2.4,1.2-3.9,1.5a10.6,10.6,0,0,1-5.1,1.2,22.84,22.84,0,0,1-6.3.9h-3.6a2.27,2.27,0,0,1-1.2-.3,7.65,7.65,0,0,1-9.3,0,44.94,44.94,0,0,1-6.6-.6c-2.4-.3-5.4-.6-8.1-1.2a13.39,13.39,0,0,1-11.1-1.5c-1.8.9-4.2.3-6,0-.3,0-.6-.3-.9-.3h-.3c-2.1-.3-4.5-.6-6.6-.9a2.89,2.89,0,0,1-2.1-3c-.3-3.9-.6-7.8-.6-11.7a3.9,3.9,0,0,1,3.3-2.7Z"
                      />
                      <path
                        id="SvgjsPath4798"
                        class="male eyebrow-details"
                        d="M266.1,254.4c2.1-2.7,4.8-4.5,6.6-7.5a35.16,35.16,0,0,0,3.6-9.3c.3-.6,1.2-.6,1.2.3,0,6.3-3.9,15.6-10.5,17.7-.9.3-1.2-.6-.9-1.2Zm-5.4-.6c6-6.6,10.5-12.6,13.2-21.3.3-.9,1.5-.6,1.2.3-1.5,8.4-6.3,17.4-13.5,22.2C261,255.6,260.1,254.4,260.7,253.8Zm-6,.9a60.84,60.84,0,0,0,6-12.6c1.2-4.2,1.2-8.1,1.8-12.3,0-.6,1.2-.6,1.5,0,2.7,8.1-3.3,19.5-8.4,25.5-.3.3-1.2,0-.9-.6Zm-4.8.3c4.8-7.5,7.8-15.9,11.4-24,.3-.3.9,0,.6.3a64.83,64.83,0,0,1-4.8,14.7c-1.5,3.6-2.7,7.5-6,9.9C250.2,256.5,249.3,255.9,249.9,255Zm-5.1-.3a60.8,60.8,0,0,0,4.8-25.2,1.05,1.05,0,1,1,2.1,0,47.17,47.17,0,0,1-6,25.5c-.3.6-1.2.3-.9-.3Zm-9-22.5c5.4,4.8,6.9,15.9,4.5,22.5-.3.6-.9.3-.9,0,0-3.9.3-7.8-.6-11.7-.9-3.6-2.7-6.6-3.9-9.9-.3-.9.3-1.2.9-.9Zm-9,1.8c3.9,5.7,3.6,13.8,2.1,20.1,0,.6-.9.3-.9,0,0-6.9,0-12.9-2.4-19.5-.3-.6.9-1.2,1.2-.6Zm-20.7,2.7a33,33,0,0,1,8.7,8.4c1.5,2.1,5.1,5.7,4.8,8.4a.65.65,0,0,1-.6.6h-.3c-.3,0-.3-.3-.3-.6v-.3c0-.3.3-.3.3-.6a1,1,0,0,1-.6-.3c-.3-.6-.6-.9-.6-1.2l-.9-1.8c-1.2-1.8-2.4-3.3-3.6-4.8-1.5-1.8-3.3-3.3-4.8-4.8,2.7,3.6,6.3,8.1,6,12.6,0,.6-.6.6-.9,0-1.2-4.8-4.2-8.7-6.6-13.2-.3-.3,0-.6.3-.6-.3-.6-.9-.9-1.2-1.5-.3,0,0-.6.3-.3Z"
                      />
                      <path
                        id="SvgjsPath4799"
                        class="male eyebrow-outline"
                        d="M264.3,256.2a22.77,22.77,0,0,0,10.8-3.3v1.5a.64.64,0,0,0,1.2.3,40.51,40.51,0,0,0,1.8-10.5,92.53,92.53,0,0,0,0-12.9c.6-.3.3-1.5-.3-1.5a29.91,29.91,0,0,0-4.8.6,3.81,3.81,0,0,0-1.8.3l.9-1.8c.3-.9-.9-1.5-1.2-.6-.6,1.2-1.5,2.4-2.1,3.6-.9,1.2-1.8,2.1-2.4,3a.56.56,0,0,0,0,.9l.3.3c.3.3.9,0,1.2-.3a11.75,11.75,0,0,0,2.4-3,5.41,5.41,0,0,0,3-.3,21,21,0,0,0,4.2-.9v.6c-.3-.3-.9-.3-.9,0-2.1,3.9-3.3,8.4-5.4,12.3-2.1,3.6-5.1,6.6-7.8,9.9a25.81,25.81,0,0,0-4.8.3h-8.4c5.4-7.2,9-16.2,11.1-24.9,1.8-.3,3.6-.3,5.4-.6l-.9.9c-.9,1.2-2.1,2.4-2.1,3.9,0,.6.9.9,1.5.6.9-.9,1.2-2.4,2.1-3.3.6-1.2,1.8-2.1,2.7-3.3.6-.6-.3-1.5-.9-1.2-.3.3-.9.6-1.2.9h-.3c-10.8-1.2-22.5.3-33.3,1.2-10.5.9-21.3,2.1-31.8,3.6-.9,0-.9.9-.9,1.5a.65.65,0,0,0-.6.6,28.63,28.63,0,0,0,.9,15.9c-.3.6-.3,1.2.6,1.5a186.77,186.77,0,0,0,38.7,4.5v.3c-.3.6.9.9,1.2.6s.3-.6.6-.9h1.2a112.89,112.89,0,0,0,20.1-.3Zm10.8-5.1a19.69,19.69,0,0,1-9,3.6c5.1-3.9,9.3-11.1,10.8-17.4-.3,2.1-.3,3.9-.6,5.7-.3,2.4-.9,5.4-1.2,8.1Zm-39.3-19.8a.42.42,0,0,0,0,.6c.3,6.6-.6,12.9-.9,19.5a.64.64,0,0,0,1.2.3c2.7-6,2.7-13.8,1.5-20.1a.29.29,0,0,0-.3-.3c3.9-.3,7.8-.6,11.7-.6-.9,4.5-1.8,8.7-3,12.9-1.2,3.9-3,7.2-4.2,11.1h-.9c-12.9-.6-25.2-2.7-37.8-4.5a58.26,58.26,0,0,1-.6-7.2c0-2.7.3-5.4.3-8.1h.3c10.8-1.5,21.6-2.7,32.7-3.6ZM248.1,255h-4.2c3.9-6.9,5.7-16.2,6.3-24.3,3.3-.3,6.3-.3,9.6-.6-2.7,8.7-6.6,16.2-11.4,24a1.1,1.1,0,0,0-.3.9Z"
                      />
                    </g>
                  </g>
                </g>
                <g id="svga-group-eyebrows-right-move">
                  <g id="svga-group-eyebrows-right-rotate">
                    <g id="svga-group-eyebrows-right">
                      <path
                        id="SvgjsPath4800"
                        class="male eyebrow"
                        d="M395.7,233.7c-3.3,0-7.2-.9-10.5-1.2-3.6-.3-6-1.5-9.6-.3-1.5-.3-3.3-.3-4.8-.6-2.4-.6-3.9-.9-6.3-.3a40.35,40.35,0,0,0-10.5-1.5c-4.5-.3-9.6-1.2-14.1,0h-.3c-.3,0-.3-.3-.6-.3a1.32,1.32,0,0,0-1.5.3.29.29,0,0,1-.3-.3.91.91,0,0,0-1.2,0h-.6c-.3-.3-.3-.6-.6-.9-.9-.9-2.4.3-1.8,1.2.3.3.3.6.6.9v.6a8.76,8.76,0,0,1,.6,2.7c-1.5-1.2-2.7-2.4-4.2-3.6-.6-.3-1.2.3-.9.6,0,.3.3.6.6,1.2a1.8,1.8,0,0,0-1.2-.3,1.1,1.1,0,0,1-.9-.3c-.9-.3-1.8,0-2.4-.3h-.6c-.3-.3-.6-.6-.9-.6-.9-.6-1.8.6-1.5,1.5.6.9.9,1.8,1.5,2.7v.3c-2.1,3.9-.6,9.3.9,13.5a2,2,0,0,0,.9,2.4,1.87,1.87,0,0,0,1.8,1.2c.9.9,2.4,1.2,3.9,1.5a10,10,0,0,0,5.1.6,22.84,22.84,0,0,0,6.3.9h3.6a2.27,2.27,0,0,0,1.2-.3,7.65,7.65,0,0,0,9.3,0,44.94,44.94,0,0,0,6.6-.6c2.4-.3,5.4-.6,8.1-1.2a13.39,13.39,0,0,0,11.1-1.5c1.8.9,4.2.3,6,0,.3,0,.6-.3.9-.3h.3c2.1-.3,4.5-.6,6.6-.9a2.89,2.89,0,0,0,2.1-3c.3-3.9.6-7.8.6-11.7a4.58,4.58,0,0,0-3.3-2.1Z"
                      />
                      <path
                        id="SvgjsPath4801"
                        class="male eyebrow-details"
                        d="M333.9,254.4c-2.1-2.7-4.8-4.5-6.6-7.5a35.16,35.16,0,0,1-3.6-9.3c-.3-.6-1.2-.6-1.2.3,0,6.3,3.9,15.6,10.5,17.7.9.3,1.2-.6.9-1.2Zm5.4-.6c-6-6.6-10.5-12.6-13.2-21.3-.3-.9-1.5-.6-1.2.3,1.5,8.4,6.3,17.4,13.5,22.2C339,255.6,339.9,254.4,339.3,253.8Zm6,.9a60.84,60.84,0,0,1-6-12.6c-1.2-4.2-1.2-8.1-1.8-12.3,0-.6-1.2-.6-1.5,0-2.7,8.1,3.3,19.5,8.4,25.5.3.3,1.2,0,.9-.6Zm4.8.3c-4.8-7.5-7.8-15.9-11.4-24-.3-.3-.9,0-.6.3a64.83,64.83,0,0,0,4.8,14.7c1.5,3.6,2.7,7.5,6,9.9C349.8,256.5,350.7,255.9,350.1,255Zm5.1-.3a60.8,60.8,0,0,1-4.8-25.2,1.05,1.05,0,1,0-2.1,0,47.17,47.17,0,0,0,6,25.5c.3.6,1.2.3.9-.3Zm9-22.5c-5.4,4.8-6.9,15.9-4.5,22.5.3.6.9.3.9,0,0-3.9-.3-7.8.6-11.7.9-3.6,2.7-6.6,3.9-9.9.3-.9-.3-1.2-.9-.9Zm9,1.8c-3.9,5.7-3.6,13.8-2.1,20.1,0,.6.9.3.9,0,0-6.9,0-12.9,2.4-19.5.3-.6-.9-1.2-1.2-.6Zm20.7,2.7a33,33,0,0,0-8.7,8.4c-1.5,2.1-5.1,5.7-4.8,8.4a.65.65,0,0,0,.6.6h.3c.3,0,.3-.3.3-.6v-.3c0-.3-.3-.3-.3-.6a1,1,0,0,0,.6-.3c.3-.6.6-.9.6-1.2l.9-1.8c1.2-1.8,2.4-3.3,3.6-4.8,1.5-1.8,3.3-3.3,4.8-4.8-2.7,3.6-6.3,8.1-6,12.6,0,.6.6.6.9,0,1.2-4.8,4.2-8.7,6.3-13.2.3-.3,0-.6-.3-.6.3-.6.9-.9,1.2-1.5.6,0,.3-.6,0-.3Z"
                      />
                      <path
                        id="SvgjsPath4802"
                        class="male eyebrow-outline"
                        d="M356.1,256.8h1.2c.3.3.3.6.6.9a.67.67,0,0,0,1.2-.6v-.3c12.9-.3,26.4-1.5,38.7-4.5.9-.3.9-.9.6-1.5a28.78,28.78,0,0,0,.9-15.9.65.65,0,0,0-.6-.6c.3-.6,0-1.2-.9-1.5-10.5-1.5-21.3-2.7-31.8-3.6-10.8-.9-22.5-2.4-33.3-1.2h-.3a4.14,4.14,0,0,0-1.2-.9c-.6-.6-1.5.6-.9,1.2a31.88,31.88,0,0,1,2.7,3.3,20.18,20.18,0,0,0,2.1,3.3.84.84,0,0,0,1.5-.6c0-1.5-1.2-3-2.1-3.9l-.9-.9a33.06,33.06,0,0,0,5.4.6c2.1,8.7,5.7,17.7,11.1,24.9h-8.4a25.81,25.81,0,0,1-4.8-.3c-2.4-3.3-5.4-6.3-7.8-9.9-2.4-3.9-3.6-8.1-5.4-12.3a.56.56,0,0,0-.9,0v-.6c1.5.3,2.7.6,4.2.9a10.21,10.21,0,0,0,3,.3,11.75,11.75,0,0,0,2.4,3c.3.3.6.3,1.2.3l.3-.3a.56.56,0,0,0,0-.9c-.6-1.2-1.8-2.1-2.4-3a22.38,22.38,0,0,1-2.1-3.6.67.67,0,0,0-1.2.6l.9,1.8a3.81,3.81,0,0,1-1.8-.3,23.32,23.32,0,0,0-4.8-.6c-.9,0-.9.9-.3,1.5a92.53,92.53,0,0,0,0,12.9c.3,3.6.3,7.2,1.8,10.5a.64.64,0,0,0,1.2-.3v-1.5c3,2.1,6.6,3,10.8,3.3,6.6.3,13.2.6,20.1.3Zm-32.4-14.1c-.3-2.1-.3-3.9-.6-5.7,1.5,6.3,5.7,13.5,10.8,17.4a14.82,14.82,0,0,1-9-3.6c-.3-2.4-.9-5.4-1.2-8.1Zm73.5-7.8h.3c0,2.7.6,5.4.3,8.1a58.26,58.26,0,0,1-.6,7.2c-12.6,1.8-24.9,3.9-37.8,4.5h-.9c-1.5-3.6-3-7.2-4.2-11.1-1.2-4.2-2.1-8.7-3-12.9,3.9.3,7.8.3,11.7.6a.29.29,0,0,1-.3.3c-1.2,6.3-1.2,14.1,1.5,20.1a.64.64,0,0,0,1.2-.3c-.3-6.6-1.2-12.9-.9-19.5v-.6c10.8.9,21.6,2.1,32.7,3.6Zm-45.3,19.2a109.62,109.62,0,0,1-11.4-24c3.3.3,6.3.3,9.6.6.3,7.8,2.1,17.1,6.3,24.3h-4.2a1.1,1.1,0,0,1-.3-.9Z"
                      />
                    </g>
                  </g>
                </g>
              </svg>