<?xml-stylesheet type="text/css" href="../../../../male-colors.css" ?>
<svg
                width="70"
                height="70"
                style="transform: scale(3.5) translate(-8px, 7px)"
                id="Layer_1"
                data-name="Layer 1"
                xmlns="http://www.w3.org/2000/svg"
                viewBox="0 0 600 600"
              >
                <g class="hidden" id="svga-group-eyebrows-left-move">
                  <g id="svga-group-eyebrows-left-rotate">
                    <g id="svga-group-eyebrows-left">
                      <path
                        id="SvgjsPath5299"
                        class="male eyebrow"
                        d="M198.3,255c1.5-3.6,5.1-6.6,7.8-9.3a99.45,99.45,0,0,1,7.8-8.1c1.2-2.7,3.6-4.5,5.7-6.6l.3-.3c.3-.6.6-.9.9-1.5a15.79,15.79,0,0,1,3.6-4.2h.6l.3-.3a.29.29,0,0,0,.3-.3c.3-.3.6-.6.9-.6a.56.56,0,0,1,.9,0h.3c.9,0,1.2.6,1.5,1.2h.6a22.1,22.1,0,0,0,4.2,1.2,1.53,1.53,0,0,1,1.2,1.5l4.5,1.8a41.76,41.76,0,0,1,3.9,1.8c1.8.9,3.6,1.5,5.4,2.4.6.3.9.6.9,1.2.3,0,.3.3.6.3s.3.3.3.6c.3.3.6.3,1.2.6a51.76,51.76,0,0,1,11.1,4.8c.6.3.6.6.9.9s.6.3.9.6c.9.3,1.5.6,2.4.9a30.5,30.5,0,0,1,8.4,3.9,1.1,1.1,0,0,1,.3.9,5.27,5.27,0,0,1,1.5,1.2c.9.6.3,2.4-.9,2.1-.3,0-.6-.3-.9-.3a16.68,16.68,0,0,1-2.7,5.1v.3a3.81,3.81,0,0,1-.3,1.8c0,1.2-1.2,2.4-2.4,1.8l-10.8-7.2a95.82,95.82,0,0,1-11.4-7.8c-4.2-2.4-8.4-4.8-12.3-7.5a49.33,49.33,0,0,1-6.6-4.2,7.52,7.52,0,0,1-2.1,1.2c-1.8,1.5-3.3,2.7-5.1,4.2-2.4,1.8-4.8,3.9-7.8,4.8a36,36,0,0,1-3.3,3.6,26.89,26.89,0,0,1-5.4,4.5,6.28,6.28,0,0,1-1.8,1.2,17,17,0,0,1-4.5,3.6c-.6-.3-1.5-1.2-.9-1.8Z"
                      />
                      <path
                        id="SvgjsPath5300"
                        class="male eyebrow-details"
                        d="M268.5,258.9c0-.3.3-.6.6-.9-.3-.3-.6-.6-.6-.9a21.32,21.32,0,0,0,1.2-6c.3-2.7-.6-4.8-1.2-7.2-.3-.6.6-1.2,1.2-.9,4.2,2.7,2.7,8.7,1.2,12.9a5.27,5.27,0,0,0,1.2-1.5,34.2,34.2,0,0,0,3-5.7.81.81,0,1,1,1.5.6,18.15,18.15,0,0,1-2.4,6.3c-.9,1.5-2.7,4.2-4.5,4.8-.9,0-1.5-.6-1.2-1.5Zm-39.9-34.8c6.9,4.8,12.6,11.7,18.9,17.1,3.3,2.7,6.9,5.4,10.5,7.8a46.35,46.35,0,0,0-5.7-7.2c-3.6-3.9-7.8-6.9-11.4-10.5-.6-.6,0-2.1.9-1.5,9,4.2,15.3,13.2,19.8,21.9l3.6,2.7a81.54,81.54,0,0,0-3.3-7.5c-1.5-2.7-3.6-5.1-5.1-7.8a.66.66,0,0,1,.9-.9c5.7,3.3,9,11.4,9.6,18l.3.3a.57.57,0,0,1-.3.9.63.63,0,0,1-1.2,0,1,1,0,0,0-.3-.6c-7.2-3.6-13.8-8.7-20.1-13.5-6.3-5.1-14.4-10.8-18.6-17.7-.3-1.2.6-2.1,1.5-1.5Zm-12.3,9.6c1.2-1.5,3.6-1.8,5.4-1.8a11.14,11.14,0,0,1,6.3.6c.6.3.6,1.2-.3,1.2a40.06,40.06,0,0,1-6,0c-1.8.3-3.6,1.2-5.4.9C216.3,234.9,216,234.3,216.3,233.7Zm-6.9,7.8c2.1-1.8,5.1-2.7,7.5-3.6,3-1.2,6.3-2.4,9.6-3.6.6-.3.9.6.6.9a77.73,77.73,0,0,1-8.7,4.2c-2.7,1.2-5.4,2.7-8.4,3.3a.67.67,0,0,1-.6-1.2Z"
                      />
                      <path
                        id="SvgjsPath5301"
                        class="male eyebrow-outline"
                        d="M228,234.9c6.3,4.8,13.5,8.7,20.1,12.9,7.2,4.5,14.1,9,21.6,13.2v.3c-.3.6.6,1.2,1.2.9a1.1,1.1,0,0,0,.9.3c2.4-.9,4.5-3.9,6-6A26.6,26.6,0,0,0,282,249c.3-.9-.9-1.2-1.5-.6a25,25,0,0,0-2.4,3.6c.6-2.4,1.2-4.8.9-6.9a.65.65,0,0,0-.6-.6c-.3-.6-.9-.9-1.2-.3-.6.6-.9,1.2-1.5,1.8-15.3-8.7-32.1-15.6-48-23.4h-1.2a206.93,206.93,0,0,0-18,18.3c-5.7,6.3-12,12.6-16.2,19.8v.3c-.3.3-.6.9-1.2,1.2-.3.6,0,1.2.6.9,6.6-3,12.3-8.4,18-12.9C216,244.8,222,240,228,234.9Zm-.6-1.2c-6.6,4.2-12.9,9.3-19.2,14.1-2.1,1.8-4.8,3.3-6.9,5.1,2.7-3.3,5.4-6.9,8.4-10.2,5.7-6.3,11.4-12.3,16.8-18.6,15.9,7.5,31.5,16.2,47.7,22.8-.6.9-1.5,1.5-1.8,2.7-.3.6.3.9.9.9a4.84,4.84,0,0,0,2.1-1.2c-.6,1.5-.9,2.7-1.5,3.9-.9,2.4-2.4,4.2-3.9,6.3-6.9-4.8-13.8-9.3-21-13.8-6.6-4.2-13.2-9.3-20.4-12.9-.3-.3-.9,0-1.2.9Z"
                      />
                    </g>
                  </g>
                </g>
                <g id="svga-group-eyebrows-right-move">
                  <g id="svga-group-eyebrows-right-rotate">
                    <g id="svga-group-eyebrows-right">
                      <path
                        id="SvgjsPath5302"
                        class="male eyebrow"
                        d="M402,255c-1.5-3.6-5.1-6.3-7.8-9.3-2.7-2.7-5.1-5.7-7.8-8.1-1.2-2.4-3.6-4.5-5.7-6.6l-.3-.3c-.3-.6-.6-.9-.9-1.5a15.79,15.79,0,0,0-3.6-4.2c-.3-.3-.3-.3-.6-.3l-.3-.3a.29.29,0,0,1-.3-.3c-.3-.3-.6-.6-.9-.6a.56.56,0,0,0-.9,0h-.3c-.9,0-1.2.6-1.5,1.2h-.6a22.1,22.1,0,0,1-4.2,1.2,1.53,1.53,0,0,0-1.2,1.5l-4.5,1.8a41.76,41.76,0,0,0-3.9,1.8c-1.8.9-3.6,1.5-5.4,2.4-.6.3-.9.6-.9,1.2-.3,0-.3.3-.6.3-.3.3-.3.3-.3.6-.3.3-.6.3-1.2.6a51.76,51.76,0,0,0-11.1,4.8c-.6.3-.6.6-.9.9s-.6.3-.9.6c-.9.3-1.5.6-2.4.9a30.5,30.5,0,0,0-8.4,3.9,1.1,1.1,0,0,0-.3.9,5.27,5.27,0,0,0-1.5,1.2c-.9.6-.3,2.4.9,2.1.3,0,.6-.3.9-.3a16.68,16.68,0,0,0,2.7,5.1v.3a3.81,3.81,0,0,0,.3,1.8c0,1.2,1.2,2.4,2.4,1.8l10.8-7.2a73.55,73.55,0,0,0,11.1-7.8c4.2-2.4,8.4-4.8,12.3-7.5a49.33,49.33,0,0,0,6.6-4.2,7.52,7.52,0,0,0,2.1,1.2c1.8,1.5,3.3,2.7,5.1,4.2,2.4,1.8,4.8,3.9,7.5,4.8a18,18,0,0,0,3.3,3.6,26.89,26.89,0,0,0,5.4,4.5,6.28,6.28,0,0,0,1.8,1.2,17,17,0,0,0,4.5,3.6c.9,0,1.8-.9,1.5-1.5Z"
                      />
                      <path
                        id="SvgjsPath5303"
                        class="male eyebrow-details"
                        d="M331.5,258.9c0-.3-.3-.6-.6-.9.3-.3.6-.6.6-.9a21.32,21.32,0,0,1-1.2-6c-.3-2.7.6-4.8,1.2-7.2.3-.6-.6-1.2-1.2-.9-3.9,2.7-2.7,8.7-1.2,12.9a5.27,5.27,0,0,1-1.2-1.5,34.2,34.2,0,0,1-3-5.7c-.3-.9-1.8-.3-1.5.6a18.15,18.15,0,0,0,2.4,6.3c.9,1.5,2.7,4.2,4.5,4.8.9,0,1.5-.6,1.2-1.5Zm39.9-34.8c-6.9,4.8-12.6,11.7-18.9,17.1-3.3,2.7-6.9,5.4-10.5,8.1a46.35,46.35,0,0,1,5.7-7.2c3.6-3.9,7.8-6.9,11.4-10.5.6-.6,0-2.1-.9-1.5-9,4.2-15.3,13.2-19.8,21.9l-3.6,2.7a40.83,40.83,0,0,1,3.3-7.5c1.5-2.7,3.6-5.1,5.1-7.8a.66.66,0,0,0-.9-.9c-5.7,3.3-9,11.4-9.6,18l-.3.3a.57.57,0,0,0,.3.9.63.63,0,0,0,1.2,0,1,1,0,0,1,.3-.6c7.2-3.6,13.8-8.7,20.1-13.8s14.4-10.8,18.6-17.7c.3-1.2-.6-2.1-1.5-1.5Zm12.3,9.6c-1.2-1.5-3.6-1.8-5.4-1.8a11.14,11.14,0,0,0-6.3.6c-.6.3-.6,1.2.3,1.2a40.06,40.06,0,0,0,6,0c1.8.3,3.6,1.2,5.4.9C383.7,234.6,384,234.3,383.7,233.7Zm6.9,7.8c-2.1-1.8-5.1-2.7-7.5-3.6-3-1.2-6.3-2.4-9.6-3.6-.6-.3-.9.6-.6.9a77.73,77.73,0,0,0,8.7,4.2c2.7,1.2,5.4,2.7,8.4,3.3a.67.67,0,0,0,.6-1.2Z"
                      />
                      <path
                        id="SvgjsPath5304"
                        class="male eyebrow-outline"
                        d="M390.3,249.6c5.7,4.5,11.4,9.9,18,12.9.6.3,1.2-.6.6-.9-.3-.3-.6-.9-1.2-1.2v-.3c-4.2-7.2-10.5-13.5-16.2-19.8a206.93,206.93,0,0,0-18-18.3c-.3-.3-.6-.3-.6,0h-.6c-15.9,7.8-32.4,14.7-48,23.4a8,8,0,0,0-1.5-1.8c-.6-.3-.9,0-1.2.3a.65.65,0,0,0-.6.6c-.3,2.1.3,4.5.9,6.9a25,25,0,0,1-2.4-3.6c-.6-.6-1.8-.3-1.5.6a26.6,26.6,0,0,0,4.2,7.5c1.5,2.1,3.6,5.1,6,6a1.1,1.1,0,0,0,.9-.3c.6.3,1.5-.3,1.2-.9v-.3c7.2-4.2,14.4-8.7,21.6-13.2,6.6-4.2,13.8-8.1,20.1-12.9,5.7,5.7,12,10.5,18.3,15.3Zm-19.2-16.8c-7.2,3.6-13.8,8.4-20.4,12.9-6.9,4.5-14.1,9-21,13.8-1.2-2.1-2.7-3.9-3.9-6.3a20.83,20.83,0,0,1-1.5-3.9,3,3,0,0,0,2.1,1.2.8.8,0,0,0,.9-.9,14.09,14.09,0,0,0-1.8-2.7c16.2-6.6,32.1-15.3,47.7-22.8,5.4,6.3,11.4,12.3,16.8,18.6,3,3.3,5.7,6.6,8.4,10.2-2.4-1.8-4.8-3.3-7.2-5.1-6.3-4.8-12.6-9.6-19.2-13.8C372.3,232.8,371.7,232.2,371.1,232.8Z"
                      />
                    </g>
                  </g>
                </g>
              </svg>