<?xml-stylesheet type="text/css" href="../../../../female-colors.css" ?>
<svg
  width="70"
  height="70"
  style="transform: scale(4.5) translate(-7px, 1px)"
  id="Layer_1"
  data-name="Layer 1"
  xmlns="http://www.w3.org/2000/svg"
  viewBox="0 0 600 600"
>
  <g class="hidden" id="svga-group-eyes-left-move">
    <g id="svga-group-eyes-left">
      <g id="svga-group-eyesback-left">
        <path
          id="SvgjsPath6267"
          class="female eyes"
          d="M275.1,294a33.64,33.64,0,0,0-4.2-8.1c-2.1-3-8.7-7.2-12.9-8.1-3.9-.9-10.8-1.8-10.8-1.8s-13.2,4.5-20.1,12-8.1,12-8.1,12a23,23,0,0,0,10.5,3c6.3.6,17.7.6,26.4-2.4s11.4-5.7,13.5-5.7a31.5,31.5,0,0,0,5.7-.9Z"
        />
      </g>
      <g id="svga-group-eyesiriswrapper-left">
        <g id="svga-group-eyesiriscontrol-left">
          <g id="svga-group-eyesiris-left">
            <path
              class="female pupil"
              d="M234.36,280.24a14.18,14.18,0,0,0-1.86,3.17,13.78,13.78,0,0,0-.89,2.77,15.09,15.09,0,0,0-.31,3,14.71,14.71,0,0,0,7.39,12.74,14.45,14.45,0,0,0,6.27,1.92c.34,0,.69,0,1,0a15,15,0,0,0,8.83-2.95,14.87,14.87,0,0,0,2.21-2.06,14.66,14.66,0,0,0-1.47-20.83,15.41,15.41,0,0,0-1.27-1,14.62,14.62,0,0,0-8.14-2.57Z"
            />
            <path
              id="SvgjsPath3170"
              class="female pupil-inside"
              d="M246,281.4a7.8,7.8,0,1,1-7.8,7.8A7.94,7.94,0,0,1,246,281.4Z"
            />
            <path
              id="SvgjsPath3171"
              class="female eyes"
              d="M243.9,282.9l-1.5-1.5a3,3,0,1,0-4.2,4.2l1.5,1.5a2.72,2.72,0,0,0,2.1.9,3.24,3.24,0,0,0,2.1-.9c1.2-1.5,1.2-3,0-4.2Zm7.5,13.2c2.4,0,2.4-3.9,0-3.9S248.7,296.1,251.4,296.1Z"
            />
          </g>
        </g>
      </g>
      <g id="svga-group-eyesfront-left">
        <path
          id="SvgjsPath6276"
          class="female eyeliner"
          d="M207.18,306.72a12.38,12.38,0,0,0,7.08-2.34,31.85,31.85,0,0,0-.9,4.53c-.18,1.44,1.92,1.47,2.34.33a66,66,0,0,1,3.39-7.68,45.64,45.64,0,0,0,5.34,1.59,10,10,0,0,0-1.38,1.68,7.35,7.35,0,0,0-1.2,4.17c0,.48.6.51.78.09a21.22,21.22,0,0,1,1.8-3.48,18.13,18.13,0,0,1,1.86-2.16c.84.15,1.68.3,2.55.42a5.21,5.21,0,0,0-2.31,4.35.6.6,0,0,0,1.17.15,8.64,8.64,0,0,1,2.7-4.32c.78.09,1.56.15,2.37.21a5.52,5.52,0,0,0-.87,1.92.47.47,0,0,0,.78.45,7.76,7.76,0,0,0,1.23-2.31,66.22,66.22,0,0,0,12.27-.63,54.08,54.08,0,0,0,13-3.63c5.19-2.16,10.29-5.82,16.05-5.55.36,0,.39-.42.15-.57a.32.32,0,0,0,.06-.24c-1.32-10.53-12.54-17.82-22.95-18.33,3.81-1.41,7.65-2.73,11.49-4.26.48-.21.48-1.08-.15-1-14.94,1.77-33.42,9.39-43.44,22.26a23.55,23.55,0,0,1-6.84.48.52.52,0,0,0-.27,1,8.82,8.82,0,0,0,5.67.51c-.36.51-.69,1.05-1,1.59a20.86,20.86,0,0,1-2.61,1.5,47.42,47.42,0,0,1-5.61,1.89c-.51.18-.63,1.05,0,1.17a9.84,9.84,0,0,0,6.6-1.5,30.76,30.76,0,0,0-1.23,2.88,13,13,0,0,1-2.13,1.65,35.79,35.79,0,0,1-5.94,2.31.49.49,0,0,0,.21.93Zm13.08-7.23a47.42,47.42,0,0,1,14-15.27A66.25,66.25,0,0,1,248.13,277c5.37.36,10.5,1.38,15.21,4.35,5.13,3.24,7.56,7.8,11,12.51-8-.27-15.81,5.52-23.7,7.05-10.59,2.07-20.13.9-30.39-1.38Z"
        />
      </g>
    </g>
  </g>
  <g id="svga-group-eyes-right-move">
    <g id="svga-group-eyes-right">
      <g id="svga-group-eyesback-right">
        <path
          id="SvgjsPath6268"
          class="female eyes"
          d="M324.9,294a33.64,33.64,0,0,1,4.2-8.1c2.1-3,8.7-7.2,12.9-8.1,3.9-.9,10.8-1.8,10.8-1.8s13.2,4.5,20.1,12,8.1,12,8.1,12a23,23,0,0,1-10.5,3c-6.3.6-17.7.6-26.4-2.4s-11.4-5.7-13.5-5.7a31.5,31.5,0,0,1-5.7-.9Z"
        />
      </g>
      <g id="svga-group-eyesiriswrapper-right">
        <g id="svga-group-eyesiriscontrol-right">
          <g id="svga-group-eyesiris-right">
            <path
              class="female pupil"
              d="M353.89,274.5a14.62,14.62,0,0,0-8.19,2.57,15.14,15.14,0,0,0-1.26,1A14.66,14.66,0,0,0,343,298.91a14.36,14.36,0,0,0,4.4,3.41A14.59,14.59,0,0,0,354,303.9c.39,0,.78,0,1.16,0a14.23,14.23,0,0,0,3.41-.68,14.07,14.07,0,0,0,2.74-1.23,14.66,14.66,0,0,0,7.08-15.73,14.05,14.05,0,0,0-.89-2.8,14.51,14.51,0,0,0-1.87-3.19Z"
            />
            <path
              id="SvgjsPath3173"
              class="female pupil-inside"
              d="M354,281.4a7.8,7.8,0,1,1-7.8,7.8A7.94,7.94,0,0,1,354,281.4Z"
            />
            <path
              id="SvgjsPath3174"
              class="female eyes"
              d="M352.2,282.9l-1.5-1.5a3,3,0,1,0-4.2,4.2l1.5,1.5a2.72,2.72,0,0,0,2.1.9,3.24,3.24,0,0,0,2.1-.9c.9-1.5,1.2-3,0-4.2Zm7.2,13.2c2.4,0,2.4-3.9,0-3.9S357,296.1,359.4,296.1Z"
            />
          </g>
        </g>
      </g>
      <g id="svga-group-eyesfront-right">
        <path
          id="SvgjsPath6280"
          class="female eyeliner"
          d="M393,305.76a35.79,35.79,0,0,1-5.94-2.31,11.83,11.83,0,0,1-2.13-1.65,30.76,30.76,0,0,0-1.23-2.88,9.88,9.88,0,0,0,6.6,1.5c.63-.09.51-1,0-1.17a45.65,45.65,0,0,1-5.61-1.89,28,28,0,0,1-2.61-1.5c-.33-.54-.66-1.08-1-1.59a8.82,8.82,0,0,0,5.67-.51c.48-.21.24-1-.27-1a21.64,21.64,0,0,1-6.84-.48c-10-12.9-28.5-20.49-43.44-22.26-.63-.06-.63.81-.15,1,3.84,1.53,7.68,2.85,11.49,4.26-10.41.51-21.63,7.8-22.95,18.33a.46.46,0,0,0,.06.24c-.24.18-.21.6.15.57,5.76-.24,10.89,3.42,16.05,5.55a52.73,52.73,0,0,0,13,3.63,66.22,66.22,0,0,0,12.27.63,7.76,7.76,0,0,0,1.23,2.31.47.47,0,0,0,.78-.45,6.06,6.06,0,0,0-.87-1.92c.78-.06,1.59-.12,2.37-.21a9.07,9.07,0,0,1,2.7,4.32.6.6,0,0,0,1.17-.15,5.28,5.28,0,0,0-2.31-4.35c.84-.12,1.68-.24,2.55-.42.6.72,1.32,1.38,1.86,2.16a21.22,21.22,0,0,1,1.8,3.48.4.4,0,0,0,.78-.09,7.06,7.06,0,0,0-1.2-4.17,10,10,0,0,0-1.38-1.68,44,44,0,0,0,5.34-1.59,66.63,66.63,0,0,1,3.39,7.68c.42,1.17,2.52,1.11,2.34-.33a28.16,28.16,0,0,0-.9-4.53,12.67,12.67,0,0,0,7.08,2.34.48.48,0,0,0,.21-.93Zm-43.65-4.89c-7.92-1.53-15.66-7.35-23.7-7.05,3.45-4.71,5.88-9.24,11-12.51,4.71-3,9.84-4,15.21-4.35a65.53,65.53,0,0,1,13.92,7.26,47.12,47.12,0,0,1,13.95,15.27C369.48,301.77,359.94,302.94,349.32,300.87Z"
        />
      </g>
    </g>
  </g>
</svg>
