<?xml-stylesheet type="text/css" href="../../../../female-colors.css" ?>
<svg
  width="70"
  height="70"
  style="transform: scale(4.5) translate(-7px, 1px)"
  id="Layer_1"
  data-name="Layer 1"
  xmlns="http://www.w3.org/2000/svg"
  viewBox="0 0 600 600"
>
  <g class="hidden" id="svga-group-eyes-left-move">
    <g id="svga-group-eyes-left">
      <g id="svga-group-eyesback-left">
        <path
          id="SvgjsPath5647"
          class="female eyes"
          d="M270.9,296.4a66.31,66.31,0,0,1-15.6,6.3c-7.5,1.8-19.5,4.2-28.5.3s-6-9.3-6-9.3,9-9.9,20.1-12.9,20.4-2.1,23.7,3c3.3,4.5,6.3,9.6,6.3,12.6Z"
        />
      </g>
      <g id="svga-group-eyesiriswrapper-left">
        <g id="svga-group-eyesiriscontrol-left">
          <g id="svga-group-eyesiris-left">
            <path
              class="female pupil"
              d="M260.7,289.2a14.7,14.7,0,0,1-7.31,12.7h0a14.62,14.62,0,0,1-10.56,1.65h0a14.74,14.74,0,0,1-11.5-14.35,14.43,14.43,0,0,1,.33-3.1,13.8,13.8,0,0,1,.38-1.4h0a13.77,13.77,0,0,1,.94-2.24l.21.24c1.17-.63,2.37-1.23,3.6-1.83a6.58,6.58,0,0,1-.85-2.34,14.55,14.55,0,0,1,1.12-1c.17.41.32.82.48,1.23s.36,1,.51,1.5c1.41-.63,2.82-1.23,4.26-1.77a18.54,18.54,0,0,0,.1-3.57c.41-.1.82-.19,1.24-.25A7.15,7.15,0,0,1,244,278a35,35,0,0,1,7.2-1.62,17.15,17.15,0,0,1,1.74-.06l0,0a14.76,14.76,0,0,1,4.09,3.23,14.77,14.77,0,0,1,3.69,9.73Z"
            />
            <path
              id="SvgjsPath3170"
              class="female pupil-inside"
              d="M246,281.4a7.8,7.8,0,1,1-7.8,7.8A7.94,7.94,0,0,1,246,281.4Z"
            />
            <path
              id="SvgjsPath3171"
              class="female eyes"
              d="M252.82,292.9a1.69,1.69,0,0,0-1.42-.7,2,2,0,0,0-1.22,3.53,2,2,0,0,0,1.22.37C253.15,296.1,253.62,294,252.82,292.9Zm-8.92-10L243,282l-.54-.54-.08-.08a3.05,3.05,0,0,0-1-.72,2.87,2.87,0,0,0-1.06-.18,2.72,2.72,0,0,0-2.1.9,3.3,3.3,0,0,0-.36.41,2.56,2.56,0,0,0-.53,1.42,2.44,2.44,0,0,0,0,.27,2.72,2.72,0,0,0,.9,2.1l1.5,1.5a2.72,2.72,0,0,0,2.1.9,3.24,3.24,0,0,0,2.1-.9C245.1,285.6,245.1,284.1,243.9,282.9Z"
            />
          </g>
        </g>
      </g>
      <g id="svga-group-eyesfront-left">
        <path
          id="SvgjsPath5656"
          class="female eyeliner"
          d="M267.72,283.74a4.86,4.86,0,0,0,2.73-1.68.43.43,0,0,0-.48-.63c-1.08.42-2.1.84-3.15,1.17a16.81,16.81,0,0,0-2.31-2.31,7.81,7.81,0,0,0,1-.75,6,6,0,0,0,2-3.42.47.47,0,0,0-.81-.33c-.78.9-1.17,2-2,2.91-.3.33-.66.63-1,.93a14.79,14.79,0,0,0-3.15-1.8,5.69,5.69,0,0,0,1.83-4.62c-.06-.45-.75-.51-1-.12a16.64,16.64,0,0,1-1.74,3.51,6.55,6.55,0,0,1-.66.63,18.58,18.58,0,0,0-4.92-.93,2.58,2.58,0,0,0,.27-1.47c-.06-.36-.6-.39-.78-.09s-.33,1-.57,1.41a.35.35,0,0,1-.07.09l0,0a17.15,17.15,0,0,0-1.74.06A35,35,0,0,0,244,278a7.15,7.15,0,0,0-.34-3.25,5.77,5.77,0,0,0-.71-1.4c-.18-.24-.66-.18-.63.18s.07,1,.1,1.47a18.54,18.54,0,0,1-.1,3.57c-1.44.54-2.85,1.14-4.26,1.77-.15-.51-.33-1-.51-1.5s-.31-.82-.48-1.23a11.91,11.91,0,0,0-.51-1.08c-.18-.36-.63-.15-.66.18a6.16,6.16,0,0,0,0,1.86,6.58,6.58,0,0,0,.85,2.34c-1.23.6-2.43,1.2-3.6,1.83l-.21-.24a13.7,13.7,0,0,0-1.38-1.74.47.47,0,0,0-.78.33,2.65,2.65,0,0,0,1.32,2.22l-3,1.68c-.6.33-1.17.69-1.77,1.05a15.45,15.45,0,0,1-5.43-2.19c-.33-.21-.6.24-.39.51a7,7,0,0,0,4.47,2.58,26.18,26.18,0,0,0-2.31,1.77,20.34,20.34,0,0,1-8,.12.47.47,0,0,0-.36.87,9.59,9.59,0,0,0,6,1.35,14.51,14.51,0,0,0-3.24,6,.81.81,0,0,0,1.17.9l.18.63a13.27,13.27,0,0,0-2,1.5,8.67,8.67,0,0,0-2.49,3.09c-.09.24.21.42.42.3a31.68,31.68,0,0,0,3-2.25c.57-.39,1.17-.75,1.77-1.14a9.73,9.73,0,0,0,1.83,1.86c-.24.21-.48.45-.69.66a6.68,6.68,0,0,0-1.77,2.43c-.12.42.39.6.66.39a20.7,20.7,0,0,0,1.86-2.07,6.79,6.79,0,0,1,.84-.75,19.31,19.31,0,0,0,3,1.59,5.49,5.49,0,0,0-1.83,4,.37.37,0,0,0,.69.18c.78-1.23,1.41-2.55,2.22-3.78a29.67,29.67,0,0,0,8.79,1.83c11.94.24,24.63-3.6,34.86-9.63,0,0,0,0,.06-.06.09.27.21.51.3.78a.2.2,0,0,0,.39-.06A20.73,20.73,0,0,0,267.72,283.74Zm2.7,12.66a122.93,122.93,0,0,1-17,5.5h0a65.26,65.26,0,0,1-10.56,1.65h0c-8.9.56-17.11-1.4-21.07-8.95a37.29,37.29,0,0,1,9.9-8.5,40.31,40.31,0,0,1,5.68-2.87,40.83,40.83,0,0,1,5.17-1.75c1.06-.29,2.14-.54,3.22-.74a20.62,20.62,0,0,1,13.2,1.43c5.33,2.6,9.14,7.73,11.61,14.23C270.48,296.4,270.45,296.37,270.42,296.4Z"
        />
      </g>
    </g>
  </g>
  <g id="svga-group-eyes-right-move">
    <g id="svga-group-eyes-right">
      <g id="svga-group-eyesback-right">
        <path
          id="SvgjsPath5648"
          class="female eyes"
          d="M329.1,296.4a66.31,66.31,0,0,0,15.6,6.3c7.5,1.8,19.5,4.2,28.5.3s6-9.3,6-9.3-9-9.9-20.1-12.9-20.4-2.1-23.7,3c-3.3,4.5-6.3,9.6-6.3,12.6Z"
        />
      </g>
      <g id="svga-group-eyesiriswrapper-right">
        <g id="svga-group-eyesiriscontrol-right">
          <g id="svga-group-eyesiris-right">
            <path
              class="female pupil"
              d="M368.7,289.2a14.73,14.73,0,0,1-11.47,14.34,14.34,14.34,0,0,1-3.23.36,14.52,14.52,0,0,1-7.4-2,14.71,14.71,0,0,1-7.3-12.69,14.55,14.55,0,0,1,1.83-7.09,14.68,14.68,0,0,1,6-5.88h0s.06.06.09.12a17.15,17.15,0,0,1,1.74.06,33.13,33.13,0,0,1,7.2,1.62,7.09,7.09,0,0,1,.35-3.33c.42.07.83.16,1.23.26a19.24,19.24,0,0,0,.1,3.64c1.44.51,2.85,1.14,4.26,1.77.15-.51.33-1,.51-1.5s.32-.83.49-1.24c.39.31.76.63,1.11,1a6.58,6.58,0,0,1-.85,2.34c1.23.57,2.43,1.2,3.6,1.83l.18-.21a13.15,13.15,0,0,1,.88,2.12h0a13.2,13.2,0,0,1,.37,1.37A14.71,14.71,0,0,1,368.7,289.2Z"
            />
            <path
              id="SvgjsPath3173"
              class="female pupil-inside"
              d="M354,281.4a7.8,7.8,0,1,1-7.8,7.8A7.94,7.94,0,0,1,354,281.4Z"
            />
            <path
              id="SvgjsPath3174"
              class="female eyes"
              d="M360.82,292.9a1.69,1.69,0,0,0-1.42-.7c-1.92,0-2.3,2.48-1.16,3.49a1.74,1.74,0,0,0,1.16.41C361.15,296.1,361.62,294,360.82,292.9Zm-8.62-10-1-1-.53-.53a3,3,0,1,0-4.2,4.2l1.5,1.5a2.72,2.72,0,0,0,2.1.9,3.24,3.24,0,0,0,2.1-.9C353.1,285.6,353.4,284.1,352.2,282.9Z"
            />
          </g>
        </g>
      </g>
      <g id="svga-group-eyesfront-right">
        <path
          id="SvgjsPath5660"
          class="female eyeliner"
          d="M382.71,300.09a13.27,13.27,0,0,0-2-1.5,2.28,2.28,0,0,0,.18-.63.8.8,0,0,0,1.17-.9,14,14,0,0,0-3.24-6,9.54,9.54,0,0,0,6-1.35.48.48,0,0,0-.36-.87,20.34,20.34,0,0,1-8-.12c-.75-.63-1.53-1.2-2.31-1.77a7,7,0,0,0,4.47-2.58c.21-.27-.06-.72-.39-.51a15.23,15.23,0,0,1-5.43,2.19c-.6-.36-1.17-.72-1.77-1.05-1-.57-2-1.11-3-1.68a2.65,2.65,0,0,0,1.32-2.22.47.47,0,0,0-.78-.33,15.21,15.21,0,0,0-1.41,1.77l-.18.21c-1.17-.63-2.37-1.26-3.6-1.83a6.58,6.58,0,0,0,.85-2.34,6.16,6.16,0,0,0,.05-1.86c0-.33-.48-.54-.66-.18a11.67,11.67,0,0,0-.5,1.07c-.17.41-.33.83-.49,1.24s-.36,1-.51,1.5c-1.41-.63-2.82-1.26-4.26-1.77a19.24,19.24,0,0,1-.1-3.64c0-.46.07-.93.1-1.4s-.45-.42-.63-.18a6.22,6.22,0,0,0-.7,1.32,7.09,7.09,0,0,0-.35,3.33,33.13,33.13,0,0,0-7.2-1.62,17.15,17.15,0,0,0-1.74-.06c0-.06-.09-.09-.09-.12h0c-.24-.45-.3-1-.57-1.4a.43.43,0,0,0-.78.09,2.58,2.58,0,0,0,.27,1.47,17.45,17.45,0,0,0-4.92.93c-.21-.21-.45-.39-.66-.63a15.32,15.32,0,0,1-1.74-3.51c-.18-.36-.9-.33-1,.12a5.69,5.69,0,0,0,1.83,4.62,20.37,20.37,0,0,0-3.15,1.8c-.33-.3-.69-.6-1-.93-.84-.87-1.23-2-2-2.91a.48.48,0,0,0-.81.33,6,6,0,0,0,2,3.42,7.81,7.81,0,0,0,1,.75,16.81,16.81,0,0,0-2.31,2.31c-1-.3-2.07-.75-3.15-1.17a.43.43,0,0,0-.48.63,4.61,4.61,0,0,0,2.73,1.68,20.73,20.73,0,0,0-3.63,13.65.2.2,0,0,0,.39.06c.09-.27.21-.54.3-.78a.06.06,0,0,0,.06.06c10.23,6.06,22.89,9.87,34.86,9.63a29.67,29.67,0,0,0,8.79-1.83c.81,1.23,1.44,2.55,2.22,3.78a.37.37,0,0,0,.69-.18,5.49,5.49,0,0,0-1.83-4,19.31,19.31,0,0,0,3-1.59,10.58,10.58,0,0,1,.84.75,20.33,20.33,0,0,0,1.86,2.07.4.4,0,0,0,.66-.39,6.35,6.35,0,0,0-1.77-2.43c-.21-.21-.45-.45-.69-.66a9.73,9.73,0,0,0,1.83-1.86c.6.39,1.2.75,1.77,1.14a36,36,0,0,0,3,2.25c.18.12.51-.06.42-.3A9.06,9.06,0,0,0,382.71,300.09Zm-25.48,3.45a65.17,65.17,0,0,1-10.63-1.65,121.74,121.74,0,0,1-17.05-5.52h-.09c2.5-6.53,6.32-11.67,11.67-14.26a20.72,20.72,0,0,1,13.14-1.4,42.45,42.45,0,0,1,14.09,5.36,37.75,37.75,0,0,1,9.88,8.5C374.3,302.13,366.12,304.1,357.23,303.54Z"
        />
      </g>
    </g>
  </g>
</svg>
