<?xml-stylesheet type="text/css" href="../../../../female-colors.css" ?>
<svg
  width="70"
  height="70"
  style="transform: scale(4.5) translate(-7px, 1px)"
  id="Layer_1"
  data-name="Layer 1"
  xmlns="http://www.w3.org/2000/svg"
  viewBox="0 0 600 600"
>
  <g class="hidden" id="svga-group-eyes-left-move">
    <g id="svga-group-eyes-left">
      <g id="svga-group-eyesback-left">
        <path
          id="SvgjsPath5192"
          class="female eyes"
          d="M276.6,305.4a43.72,43.72,0,0,0-6-11.4c-4.2-5.7-9.9-11.7-19.8-13.5s-36.3,6.6-36.3,6.6a47.93,47.93,0,0,0,9.3,9.3c5.1,3.6,18.9,8.7,24.6,8.4s12.6-1.5,15.6-1.5c3.6,0,9.6,0,12.6,2.1Z"
        />
      </g>
      <g id="svga-group-eyesiriswrapper-left">
        <g id="svga-group-eyesiriscontrol-left">
          <g id="svga-group-eyesiris-left">
            <path
              class="female pupil"
              d="M237.05,277.55a14.75,14.75,0,0,0-4,4.64,13.3,13.3,0,0,0-.76,1.62,14.44,14.44,0,0,0-1,5.39A14.71,14.71,0,0,0,246,303.9a14.42,14.42,0,0,0,4.08-.58,14.71,14.71,0,0,0,10.1-18,13.58,13.58,0,0,0-.58-1.66,14.56,14.56,0,0,0-1.9-3.35Z"
            />
            <path
              id="SvgjsPath3170"
              class="female pupil-inside"
              d="M246,281.4a7.8,7.8,0,1,1-7.8,7.8A7.94,7.94,0,0,1,246,281.4Z"
            />
            <path
              id="SvgjsPath3171"
              class="female eyes"
              d="M243.9,282.9l-1.5-1.5a3,3,0,1,0-4.2,4.2l1.5,1.5a2.72,2.72,0,0,0,2.1.9,3.24,3.24,0,0,0,2.1-.9c1.2-1.5,1.2-3,0-4.2Zm7.5,13.2c2.4,0,2.4-3.9,0-3.9S248.7,296.1,251.4,296.1Z"
            />
          </g>
        </g>
      </g>
      <g id="svga-group-eyesfront-left">
        <path
          id="SvgjsPath5201"
          class="female eyeliner"
          d="M214.2,288a16.49,16.49,0,0,0,2.1,2.7,8.68,8.68,0,0,0-7.2,1.5c-.3.3,0,.6.3.6a14,14,0,0,1,5.1-.9,8.51,8.51,0,0,1,3.9,1.2,4.14,4.14,0,0,0,1.2.9,6.57,6.57,0,0,0-4.2,2.4c-.3.3,0,.9.3.6a33.33,33.33,0,0,1,4.8-2.1,50.9,50.9,0,0,0,16.8,9,39.16,39.16,0,0,0,15.6,1.8c8.1-.9,15.3-4.2,23.4,0,.3.3.6-.3.3-.6.3,0,.3-.3.3-.6-3.6-13.2-14.1-24.6-28.2-27.3-5.7-.9-11.1,0-16.5,1.5-3.6-.9-6.3-2.7-9.3-5.4-.3-.3-.9,0-.6.6a13.08,13.08,0,0,0,7.5,5.7,20.67,20.67,0,0,0-2.4.9c-5.4.3-9.6-1.8-13.8-5.1-.3-.3-.9.3-.6.6,2.7,3.3,6.9,5.1,11.1,5.7a22.1,22.1,0,0,1-4.2,1.2c-5.7,0-10.5-1.8-15.6-5.1-.3-.3-.6.3-.3.6a18.17,18.17,0,0,0,12,5.7c-6.9,1.5-13.2.9-20.4-3.6-.3-.3-.9.3-.6.6,6.6,5.7,12.9,7.2,19.2,6.9Zm1.5,0a54.43,54.43,0,0,0,12.6-3c9.6-3,21-5.7,30.3-.6,8.4,4.5,13.2,12.3,17.4,20.4-8.7-4.5-17.1-.9-26.4-1.5-13.5-.6-24-7.2-33.9-15.3Z"
        />
      </g>
    </g>
  </g>
  <g id="svga-group-eyes-right-move">
    <g id="svga-group-eyes-right">
      <g id="svga-group-eyesback-right">
        <path
          id="SvgjsPath5193"
          class="female eyes"
          d="M323.4,305.4a43.72,43.72,0,0,1,6-11.4c4.2-5.7,9.9-11.7,19.8-13.5s36.3,6.6,36.3,6.6a47.93,47.93,0,0,1-9.3,9.3c-5.1,3.6-18.9,8.7-24.6,8.4s-12.6-1.5-15.6-1.5c-3.6,0-9.6,0-12.6,2.1Z"
        />
      </g>
      <g id="svga-group-eyesiriswrapper-right">
        <g id="svga-group-eyesiriscontrol-right">
          <g id="svga-group-eyesiris-right">
            <path
              class="female pupil"
              d="M342.64,279.88a14.63,14.63,0,0,0-2.24,3.77,12.93,12.93,0,0,0-.67,2,14.7,14.7,0,1,0,29,3.53,14.87,14.87,0,0,0-.89-5.06,15.63,15.63,0,0,0-.9-1.95,14.63,14.63,0,0,0-3.76-4.48Z"
            />
            <path
              id="SvgjsPath3173"
              class="female pupil-inside"
              d="M354,281.4a7.8,7.8,0,1,1-7.8,7.8A7.94,7.94,0,0,1,354,281.4Z"
            />
            <path
              id="SvgjsPath3174"
              class="female eyes"
              d="M352.2,282.9l-1.5-1.5a3,3,0,1,0-4.2,4.2l1.5,1.5a2.72,2.72,0,0,0,2.1.9,3.24,3.24,0,0,0,2.1-.9c.9-1.5,1.2-3,0-4.2Zm7.2,13.2c2.4,0,2.4-3.9,0-3.9S357,296.1,359.4,296.1Z"
            />
          </g>
        </g>
      </g>
      <g id="svga-group-eyesfront-right">
        <path
          id="SvgjsPath5205"
          class="female eyeliner"
          d="M404.4,281.1c.3-.3,0-.9-.6-.6-7.2,4.5-13.5,5.1-20.4,3.6a18.85,18.85,0,0,0,12-5.7c.3-.3,0-.9-.3-.6a23.26,23.26,0,0,1-15.6,5.1c-1.2-.3-2.7-.9-4.2-1.2,4.2-.3,8.7-2.1,11.1-5.7.3-.3-.3-.9-.6-.6-4.5,3.3-8.4,5.4-13.8,5.1a20.67,20.67,0,0,1-2.4-.9,13.08,13.08,0,0,0,7.5-5.7c.3-.3-.3-.9-.6-.6-3,2.7-5.7,4.5-9.3,5.4-5.4-1.5-10.8-2.4-16.5-1.5-13.8,2.7-24.3,13.8-28.2,27.3,0,.3,0,.6.3.6-.3.3,0,.6.3.6,8.1-4.2,15.3-.9,23.4,0a39.16,39.16,0,0,0,15.6-1.8,57.11,57.11,0,0,0,16.8-9,23.22,23.22,0,0,1,4.8,2.1c.3.3.6-.3.3-.6a8.55,8.55,0,0,0-4.2-2.4,4.14,4.14,0,0,1,1.2-.9,8.51,8.51,0,0,1,3.9-1.2,15.24,15.24,0,0,1,5.1.9c.3,0,.6-.3.3-.6a8.46,8.46,0,0,0-7.2-1.5c.6-.9,1.5-1.8,2.1-2.7,6.9.3,13.2-1.2,19.2-6.9Zm-54,22.5c-9.3.6-17.7-3-26.4,1.5,3.9-8.1,9-15.9,17.4-20.4,9.6-5.1,20.7-2.4,30.3.6a75.9,75.9,0,0,0,12.6,3c-9.9,7.8-20.4,14.4-33.9,15.3Z"
        />
      </g>
    </g>
  </g>
</svg>
