<?xml-stylesheet type="text/css" href="../../../../female-colors.css" ?>
<svg
  width="70"
  height="70"
  style="transform: scale(4.5) translate(-7px, 1px)"
  id="Layer_1"
  data-name="Layer 1"
  xmlns="http://www.w3.org/2000/svg"
  viewBox="0 0 600 600"
>
  <g class="hidden" id="svga-group-eyes-left-move">
    <g id="svga-group-eyes-left">
      <g id="svga-group-eyesback-left">
        <path
          id="SvgjsPath3207"
          class="female eyes"
          d="M272.7,303.9s-.9-7.5-3-11.4-11.1-13.2-21-15c-14.7-3-27.9,5.1-27.9,5.1s0,7.2,4.5,12.3c4.2,5.1,11.7,7.8,14.7,8.1s13.8.9,19.5,0c3.9-.6,8.4-.6,10.2,0a19.42,19.42,0,0,0,3,.9Z"
        />
      </g>
      <g id="svga-group-eyesiriswrapper-left">
        <g id="svga-group-eyesiriscontrol-left">
          <g id="svga-group-eyesiris-left">
            <path
              class="female pupil"
              d="M243.5,274.72a14.69,14.69,0,0,0-5.6,26.74,14.33,14.33,0,0,0,3.33,1.64,14.66,14.66,0,0,0,8.3.37,13,13,0,0,0,1.71-.54,14.72,14.72,0,0,0,9.46-13.73,14.47,14.47,0,0,0-1.1-5.56,14.07,14.07,0,0,0-1-2,15.1,15.1,0,0,0-3.76-4.2Z"
            />
            <path
              id="SvgjsPath3170"
              class="female pupil-inside"
              d="M246,281.4a7.8,7.8,0,1,1-7.8,7.8A7.94,7.94,0,0,1,246,281.4Z"
            />
            <path
              id="SvgjsPath3171"
              class="female eyes"
              d="M243.9,282.9l-1.5-1.5a3,3,0,1,0-4.2,4.2l1.5,1.5a2.72,2.72,0,0,0,2.1.9,3.24,3.24,0,0,0,2.1-.9c1.2-1.5,1.2-3,0-4.2Zm7.5,13.2c2.4,0,2.4-3.9,0-3.9S248.7,296.1,251.4,296.1Z"
            />
          </g>
        </g>
      </g>
      <g id="svga-group-eyesfront-left">
        <path
          id="SvgjsPath3216"
          class="female eyeliner"
          d="M219.81,283.92a9.92,9.92,0,0,0-.18,3.75c-1.71-.09-3.63.15-4.77,1.32a.55.55,0,0,0,.54.9c.9-.15,1.74-.6,2.64-.81a6.71,6.71,0,0,1,1.89-.15,15.74,15.74,0,0,0,.66,1.89,14.11,14.11,0,0,0-1.5.63,7.2,7.2,0,0,0-3,2.28c-.33.45.27.84.66.66,1.05-.48,2-1.14,3.09-1.65.45-.21,1-.36,1.47-.54a18.22,18.22,0,0,0,1.68,2.4,5.45,5.45,0,0,0-2.7,3.09.4.4,0,0,0,.57.45,19.91,19.91,0,0,0,2.88-2.64,29.48,29.48,0,0,0,11.76,7.71c5.64,1.86,11.79,2.16,17.67,1.86,5.55-.27,14.16-3.42,19.29-.63a.4.4,0,0,0,.51-.06l.09-.09a.43.43,0,0,0,.06-.18s0,0,0-.09A29.63,29.63,0,0,0,254,277.11,38.47,38.47,0,0,0,234.24,275c-7.77,1.17-14.61,5-22.62,4.32a.77.77,0,0,0-.54,1.32,11,11,0,0,0,8.73,3.24Zm2-.21c6-1,12.33-4.62,18.27-5,15.39-1.08,30.15,9,32.1,24.72-7.17-2.46-15.39-.3-22.77-.45-6-.12-12.42-1-17.73-4C225.06,295.08,223.86,290.13,221.82,283.71Z"
        />
      </g>
    </g>
  </g>
  <g id="svga-group-eyes-right-move">
    <g id="svga-group-eyes-right">
      <g id="svga-group-eyesback-right">
        <path
          id="SvgjsPath3208"
          class="female eyes"
          d="M327.3,303.9s.9-7.5,3-11.4,11.1-13.2,21-15c14.7-3,27.9,5.1,27.9,5.1s0,7.2-4.5,12.3c-4.2,5.1-11.7,7.8-14.7,8.1s-13.8.9-19.5,0c-3.9-.6-8.4-.6-10.2,0a19.42,19.42,0,0,1-3,.9Z"
        />
      </g>
      <g id="svga-group-eyesiriswrapper-right">
        <g id="svga-group-eyesiriscontrol-right">
          <g id="svga-group-eyesiris-right">
            <path
              class="female pupil"
              d="M345,277.59a14.79,14.79,0,0,0-3.61,4.07,14,14,0,0,0-1,2,14.56,14.56,0,0,0-1.1,5.57,14.72,14.72,0,0,0,9.46,13.73,13,13,0,0,0,1.71.54,14.66,14.66,0,0,0,8.3-.37,14.71,14.71,0,0,0,9.93-13.9,14.72,14.72,0,0,0-11.95-14.44Z"
            />
            <path
              id="SvgjsPath3173"
              class="female pupil-inside"
              d="M354,281.4a7.8,7.8,0,1,1-7.8,7.8A7.94,7.94,0,0,1,354,281.4Z"
            />
            <path
              id="SvgjsPath3174"
              class="female eyes"
              d="M352.2,282.9l-1.5-1.5a3,3,0,1,0-4.2,4.2l1.5,1.5a2.72,2.72,0,0,0,2.1.9,3.24,3.24,0,0,0,2.1-.9c.9-1.5,1.2-3,0-4.2Zm7.2,13.2c2.4,0,2.4-3.9,0-3.9S357,296.1,359.4,296.1Z"
            />
          </g>
        </g>
      </g>
      <g id="svga-group-eyesfront-right">
        <path
          id="SvgjsPath3220"
          class="female eyeliner"
          d="M388.92,280.74a.78.78,0,0,0-.54-1.32c-8,.66-14.88-3.15-22.62-4.32A38.51,38.51,0,0,0,346,277.17c-11.28,4.44-18.93,14.73-19.2,26.91,0,0,0,.06,0,.09a.43.43,0,0,0,.06.18l.09.09a.4.4,0,0,0,.51.06c5.13-2.79,13.74.33,19.29.63a49.42,49.42,0,0,0,17.67-1.86,29.48,29.48,0,0,0,11.76-7.71,19.91,19.91,0,0,0,2.88,2.64.39.39,0,0,0,.57-.45,5.56,5.56,0,0,0-2.7-3.09,18.22,18.22,0,0,0,1.68-2.4c.51.18,1,.33,1.47.54,1.05.51,2,1.17,3.09,1.65.39.18,1-.21.66-.66a7.4,7.4,0,0,0-3-2.28,14.11,14.11,0,0,0-1.5-.63,11.81,11.81,0,0,0,.66-1.89,10,10,0,0,1,1.89.15c.9.21,1.74.63,2.64.81a.55.55,0,0,0,.54-.9c-1.14-1.17-3.06-1.44-4.77-1.32a9.92,9.92,0,0,0-.18-3.75,11.47,11.47,0,0,0,8.73-3.24Zm-20.61,18.18c-5.31,3.09-11.7,3.9-17.73,4-7.38.15-15.63-2-22.77.45,1.95-15.72,16.68-25.8,32.1-24.72,5.94.42,12.3,4.08,18.27,5C376.14,290.13,374.94,295.08,368.31,298.92Z"
        />
      </g>
    </g>
  </g>
</svg>
