<?xml-stylesheet type="text/css" href="../../../male-colors.css" ?>
<svg
  class="male-base"
  width="350"
  height="350"
  id="base-svg"
  data-name="Layer 1"
  xmlns="http://www.w3.org/2000/svg"
  viewBox="0 0 600 600"
>
  <defs>
    <style></style>
  </defs>
  <g id="svga-group-wrapper">
    <g id="svga-group-backs-single">
      <path id="SvgjsPath3581" class="male background" d="M0,0H600V600H0Z" />
    </g>
    <g id="svga-group-humanwrap-move">
      <g id="svga-group-humanwrap">
        <g id="svga-group-hair-back-move"></g>
        <g id="svga-group-humanbody-back">
          <path
            id="SvgjsPath3352"
            class="male skin"
            d="M499.5,543.3c-32.7-19.8-82.8-25.2-105-36.3-14.7-7.5-27.3-14.1-26.7-53.4s5.7-127.2,5.7-127.2H226.2s4.8,88.2,5.7,127.2-12.6,46.8-26.7,53.4c-22.2,10.5-72.3,16.2-105,36.3-32.4,19.8-30,56.7-30,56.7v59.1H530.1V600c-.3,0,2.1-36.9-30.6-56.7Z"
          />
        </g>
        <g id="svga-group-chinshadow-single">
          <path
            id="SvgjsPath3348"
            class="male neck-shadow"
            d="M373.5,326.7H226.2c.3,5.4,4.8,89.1,5.7,126.9,0,5.4,0,10.2-.3,14.7C251.7,490.2,275.4,504,300,504s48.3-13.8,68.4-35.7c-.3-4.2-.6-9.3-.6-14.7.6-38.1,5.4-121.5,5.7-126.9Z"
          />
        </g>
        <g id="svga-group-humanbody-front">
          <path
            id="SvgjsPath3353"
            class="male skin-details"
            d="M236.1,470.4c1.5,14.4,5.1,28.2,9.3,41.7,2.4,6.9,4.8,13.8,7.8,20.7,2.4,6,5.1,12.6,9.3,17.7.9,1.2,3,0,2.7-1.5-1.5-6.6-4.8-12.9-7.2-19.2-2.7-6.6-5.1-13.2-7.5-19.8-4.5-13.2-8.4-26.7-12.3-39.9-.6-1.2-2.4-.9-2.1.3Zm123.9-3c-3.9,24.6-11.7,48.3-16.2,72.6-.3,1.2,1.2,1.5,1.8.6,9.3-23.1,12.3-48.3,15.3-72.9-.3-.6-.9-.6-.9-.3Zm-77.4,35.7c-2.7,10.8,5.7,25.8,18.6,22.8,1.5-.3,1.2-2.4,0-3-4.2-1.5-8.7-2.7-11.7-6.3-3.3-3.6-4.5-8.7-4.2-13.5,0-1.2-2.4-1.5-2.7,0Z"
          />
          <path
            id="SvgjsPath3354"
            class="male face-outline"
            d="M531.9,659.1c-.3-19.8-.9-39.3-.9-59.1l-.9-.9c.3,0,.3,0,.6.3s.3.6.3.3v-4.2c0-1.5-.3-2.7-.3-4.2a82.23,82.23,0,0,0-1.5-8.4,78.58,78.58,0,0,0-6-15.9,58.18,58.18,0,0,0-23.1-24.3c-10.8-6.6-22.8-11.4-34.8-15.3S441,520.2,429,516.9c-12-3.6-24.3-6.6-35.4-12.6-5.7-3-10.8-6.3-14.4-10.8a40.33,40.33,0,0,1-6.9-16.5c-2.4-12-1.2-24.6-.9-37.2l2.1-37.8,4.5-75.6.3-4.2h-4.2c-24.6,0-49.2,0-73.8.3l-73.8.9h-2.7l.3,2.7c2.4,35.7,4.8,71.4,6.3,107.1.3,9,.9,18,.6,26.7s-1.2,17.7-4.8,25.8a36.33,36.33,0,0,1-7.2,10.5,37.78,37.78,0,0,1-10.8,7.2c-7.8,3.9-16.2,6.6-24.9,9-17.4,4.5-34.8,8.4-51.9,14.1a164.19,164.19,0,0,0-25.2,10.2,84.68,84.68,0,0,0-12,7.2,61.4,61.4,0,0,0-10.5,9.3,64.81,64.81,0,0,0-13.5,24.3,70.66,70.66,0,0,0-3,13.8,57.81,57.81,0,0,0-.3,7.2v6.9l-.6,53.7V663h4.2l114.9.6c38.4.3,76.5.3,114.9,0s76.8-.3,114.9-.9c38.4-.6,76.8-1.5,114.9-2.1h1.8v-1.5Zm-231.6-4.8H185.4l-111,.6-.3-49.8v-6.6a44.31,44.31,0,0,1,.3-6.3,62.19,62.19,0,0,1,2.4-12.6,64.55,64.55,0,0,1,11.7-22.5,50.85,50.85,0,0,1,9.3-8.7,69.05,69.05,0,0,1,11.1-6.9A174.62,174.62,0,0,1,133.2,531c16.8-6,34.2-10.2,51.3-15.3,8.7-2.4,17.4-5.1,25.5-9.3,3.9-2.1,8.1-4.5,11.4-7.8a34.8,34.8,0,0,0,7.8-11.7c3.6-8.7,4.5-17.7,4.8-26.7,0-9-.3-18-.6-27l-3.9-104.4L300,330c23.1.3,46.2.3,69.3.3-1.2,23.7-2.4,47.7-3.3,71.4-.6,12.6-.6,25.2-.9,37.8,0,12.6-.6,25.5,2.4,38.4,1.5,6.3,3.9,12.6,8.4,18,4.2,5.1,10.2,8.7,15.9,11.4,11.7,5.7,24,8.4,36.3,11.4s24.6,6,36.6,9.9,23.7,8.4,34.5,15a59.76,59.76,0,0,1,22.5,24,57.24,57.24,0,0,1,5.7,15.6,37.77,37.77,0,0,1,1.2,8.1,19.81,19.81,0,0,1,.3,4.2V600l-.9,57c-37.8-.6-75.3-1.5-113.1-2.1-38.1-.3-76.5-.3-114.6-.6Z"
          />
        </g>
        <g id="svga-group-clothes-single">
          <path
            id="SvgjsPath7371"
            class="male shirt"
            d="M537.9,660.3c0-52.5-4.8-80.1-4.8-80.1-9-42-65.7-54.6-92.1-60.3-45.6-9-60.3-21.6-60.3-21.6s-19.2,48-82.5,48-80.4-49.8-80.4-49.8-15.9,12.3-63.6,21.3c-26.1,5.7-78.9,20.7-87.9,62.7,0,0-4.8,27.6-4.8,80.1H537.9Z"
          />
          <path
            id="SvgjsPath7372"
            class="male shirt-outline"
            d="M538.8,627.6c-.3-10.8-.6-21.9-1.5-32.7l-.9-8.1c-.3-2.7-.6-5.4-1.2-8.4a51.82,51.82,0,0,0-6.3-15.9c-5.7-9.9-14.7-17.7-24-23.7a146.15,146.15,0,0,0-30.3-14.1,313.22,313.22,0,0,0-31.8-8.7,280.25,280.25,0,0,1-31.2-8.1c-5.1-1.8-9.9-3.6-14.7-5.7-2.4-1.2-4.8-2.1-7.2-3.3a32.72,32.72,0,0,1-3.3-1.8,15.89,15.89,0,0,0-3-1.8c-.3-.3-.6-.3-.9-.6a4.07,4.07,0,0,0-5.4,2.1,87,87,0,0,1-5.7,10.2,112.87,112.87,0,0,1-7.5,9.3,90.62,90.62,0,0,1-18.6,15c-13.8,8.1-30.3,12-46.5,12.3s-33-3-47.1-11.4-25.8-21.3-32.1-36.3a.29.29,0,0,0-.3-.3,1.48,1.48,0,0,0-2.1-.3,62.53,62.53,0,0,1-14.1,7.2,155.18,155.18,0,0,1-15.3,5.4,301.56,301.56,0,0,1-31.5,7.8c-21.3,4.5-42.9,10.5-61.8,22.8-9.3,6-18,13.8-23.7,23.7a57.41,57.41,0,0,0-6.6,15.9c-.3.6-.3,1.5-.6,2.1l-.3,2.1-.6,4.2-.9,8.1c-2.4,21.9-3.3,43.8-3.6,65.7a4.25,4.25,0,0,0,3.9,4.2l120,.6c39.9,0,80.1-.3,119.7-.6l119.4-.9,110.7-1.8,6.6-1.2c.3-11.4.3-21.9.3-33Zm-61.5,31.2-60-.9-119.1-1.5c-39.6-.3-78.9-.6-118.2-.6l-114,.6c0-20.4.3-40.8,2.1-60.9l.9-8.1.3-3.9.3-2.1c0-.6.3-1.2.3-1.8a64.38,64.38,0,0,1,5.4-14.4,70.23,70.23,0,0,1,21.3-22.8,142.31,142.31,0,0,1,28.5-14.7,178,178,0,0,1,31.2-9,290.43,290.43,0,0,0,31.8-8.1c5.1-1.8,10.5-3.6,15.6-5.7a93.21,93.21,0,0,0,13.5-6.6,89,89,0,0,0,12.6,20.4,75.12,75.12,0,0,0,19.5,16.8c14.7,9.3,32.1,13.2,49.2,13.5s34.8-3,50.1-11.4a82.74,82.74,0,0,0,20.7-15.9,81.83,81.83,0,0,0,12.9-17.4c1.2.6,2.4,1.5,3.6,2.1,2.4,1.2,5.1,2.7,7.5,3.6a139.59,139.59,0,0,0,15.6,6,295.59,295.59,0,0,0,32.1,8.1c21,4.2,42,9.9,60.3,20.7,9,5.4,17.1,12.3,22.8,21a59.56,59.56,0,0,1,6.3,14.1,60.71,60.71,0,0,1,1.2,7.8l.9,8.1c1.2,10.8,2.4,21.6,3,32.4s1.2,21.9,1.8,32.4l-60-1.8ZM114.9,565.5a171.52,171.52,0,0,1,9.6,29.7c1.2,5.1,2.4,10.2,3.3,15.3s1.8,10.2,2.7,15.6c1.5,9.6,3,19.2,4.2,28.8h.6a240.31,240.31,0,0,0,0-29.4,232.72,232.72,0,0,0-4.8-31.8,152.52,152.52,0,0,0-4.5-15.6,81.33,81.33,0,0,0-6.6-14.7,66.16,66.16,0,0,0-9-13.5,70.35,70.35,0,0,0-9.6-9.3c-.3,0-.3.3-.6.3a86.46,86.46,0,0,1,7.8,10.5C110.4,555.9,112.8,560.7,114.9,565.5Zm354.9,60.3c.9-5.1,1.8-10.5,2.7-15.6a139.33,139.33,0,0,1,3.3-15.3,171.52,171.52,0,0,1,9.6-29.7,120.53,120.53,0,0,1,7.2-13.8,75.61,75.61,0,0,1,7.2-9.9c-.3-.3-.6-.3-.6-.6a49.28,49.28,0,0,0-9,8.7,105.61,105.61,0,0,0-9,13.5,91.87,91.87,0,0,0-6.6,14.7,133.33,133.33,0,0,0-4.5,15.6,213.67,213.67,0,0,0-4.8,63.6c1.5-10.5,3-20.7,4.5-31.2ZM348,551.4c-15.6,8.7-33.9,11.7-51.9,10.5-4.5-.3-9-.6-13.5-1.2a103,103,0,0,1-13.2-2.7,105.69,105.69,0,0,1-12.6-4.5,87.91,87.91,0,0,1-11.7-6.3A93.26,93.26,0,0,1,225,529.8a97.88,97.88,0,0,1-15-21.9,90,90,0,0,0,32.7,42.9,85.56,85.56,0,0,0,25.2,12.3,113.49,113.49,0,0,0,13.8,3,111.76,111.76,0,0,0,14.1,1.2c9.3.3,18.9,0,28.2-2.1A91,91,0,0,0,350.4,555,101.79,101.79,0,0,0,372,537.6a141.7,141.7,0,0,0,16.8-21.3c-12,13.5-24.9,26.4-40.8,35.1Z"
          />
        </g>
        <g id="svga-group-head">
          <g id="svga-group-ears-left-move">
            <g id="svga-group-ears-left">
              <path
                id="SvgjsPath3369"
                class="male skin"
                d="M186,278.7c-.6-.9-9.9-12.9-17.7-20.1s-10.2-7.2-13.8-2.7c-3.9,4.5-8.7,27.3-7.5,37.2,1.2,10.2,10.8,26.1,15.6,35.1,5.1,9,9.9,20.1,15.3,18.9,5.7-1.2,13.2-13.8,17.1-23.1s1.5-32.4-9-45.3Z"
              />
              <path
                id="SvgjsPath3370"
                class="male ear-outline"
                d="M197.4,306a68.26,68.26,0,0,1,.6,7.8,34.21,34.21,0,0,1-.6,7.8c-.3,1.2-.6,2.7-.9,3.9s-.9,2.1-1.2,3.3a60,60,0,0,1-3,6.3,39.73,39.73,0,0,1-7.8,10.8,17.81,17.81,0,0,1-5.4,3.9,8.56,8.56,0,0,1-3.9,0,13.32,13.32,0,0,1-3.3-2.4c-3.6-3.9-5.7-8.4-8.1-12.9-2.1-4.5-4.5-8.7-6.6-12.9-2.1-4.5-4.5-8.7-6.3-13.2-.9-2.4-2.1-4.5-2.7-6.9a30.46,30.46,0,0,1-1.8-7.5c-.6-5.1,0-10.2.3-15,.6-4.8,1.5-9.6,2.4-14.4a26.86,26.86,0,0,1,2.4-6.9l.9-1.8a6.54,6.54,0,0,1,1.2-1.5,7.68,7.68,0,0,1,6.3-3.3,11.09,11.09,0,0,1,3.3,1.5c2.1,1.2,3.6,3,5.4,4.5,6.6,6.6,12,14.4,17.7,21.6s9.6,17.1,11.1,27.3Zm-30.3-46.8c-3.3-2.7-7.2-5.7-9.3-3.6-.6.3-1.2,1.2-1.8,1.8l-.9.9c-.3.3-.3.9-.6,1.2-.9,1.8-1.5,3.9-2.4,6a63.49,63.49,0,0,0-3.3,13.5,54.89,54.89,0,0,0-1.2,14.1,25.94,25.94,0,0,0,1.8,6.9c.9,2.4,1.8,4.5,2.7,6.6,2.1,4.5,4.5,8.4,6.9,12.6s5.1,8.1,7.5,12.3c1.2,2.1,2.4,4.2,3.6,6s2.4,3.9,3.9,5.1,2.7,1.8,3.9,1.2a13.49,13.49,0,0,0,4.2-3.3,50.64,50.64,0,0,0,6.9-10.2,52.13,52.13,0,0,0,3-5.7,12.54,12.54,0,0,0,1.2-3l.6-1.5c0-.6.3-.9.3-1.5a51.75,51.75,0,0,0,.9-13.8,60.88,60.88,0,0,0-2.7-14.4,36.11,36.11,0,0,0-6.6-12.6,217.64,217.64,0,0,0-18.6-18.6Z"
              />
              <path
                id="SvgjsPath3371"
                class="male skin-details"
                d="M153.6,298.2c-.9-6.9-1.5-23.4,2.4-28.8,6.6-8.7,18,19.2,20.7,27.9,0,.3.3.6.3.9a1.17,1.17,0,0,1-1.2,1.8c-1.2-.6-2.7-1.8-3.9-2.4-3.3-1.5-4.8,1.5-3.9,5.4,1.2,5.4,4.2,8.7,6.6,12.9.3.6,0,1.2-.6.9-4.8-2.7-10.5-13.5-9.3-19.8.9-6,5.7-5.4,9.3-2.4a81.91,81.91,0,0,0-7.5-14.4c-1.8-2.7-3.6-6-6.6-6.6-3.6-.6-3,.9-3.6,5.4-2.4,14.4-.9,31.2,7.5,43.5.3.3,0,.6-.3.3a45.22,45.22,0,0,1-9.9-24.6Z"
              />
            </g>
          </g>
          <g id="svga-group-ears-right-move">
            <g id="svga-group-ears-right">
              <path
                id="SvgjsPath3372"
                class="male skin"
                d="M414,278.7c.6-.9,9.9-12.9,17.7-20.1s10.2-7.2,13.8-2.7c3.9,4.5,8.7,27.3,7.5,37.2s-10.8,26.1-15.6,35.1c-5.1,9-9.9,20.1-15.3,18.9-5.7-1.2-13.2-13.8-17.1-23.1s-1.5-32.4,9-45.3Z"
              />
              <path
                id="SvgjsPath3373"
                class="male ear-outline"
                d="M414,278.7c5.7-7.2,11.4-15,17.7-21.6a26.89,26.89,0,0,1,5.4-4.5,11.09,11.09,0,0,1,3.3-1.5,5,5,0,0,1,3.6.9,19.41,19.41,0,0,1,2.7,2.4c.3.3.6.9,1.2,1.5l.9,1.8a46.64,46.64,0,0,1,2.4,6.9,80.18,80.18,0,0,1,2.4,14.4,62.44,62.44,0,0,1,.3,15,54.86,54.86,0,0,1-1.8,7.5c-.9,2.4-1.8,4.8-2.7,6.9-2.1,4.5-4.2,9-6.3,13.2-2.4,4.5-4.5,8.7-6.6,12.9-2.4,4.2-4.2,9-8.1,12.9a13.32,13.32,0,0,1-3.3,2.4,4.45,4.45,0,0,1-3.9,0,14.76,14.76,0,0,1-5.4-3.9,70.77,70.77,0,0,1-7.8-10.8,60,60,0,0,1-3-6.3,14.62,14.62,0,0,1-1.2-3.3,14.88,14.88,0,0,1-.9-3.9,51,51,0,0,1,0-15.6c1.2-10.2,5.1-20.1,11.1-27.3Zm.3.3a38.94,38.94,0,0,0-6.6,12.6A60.88,60.88,0,0,0,405,306a51.75,51.75,0,0,0,.9,13.8c0,.6.3.9.3,1.5l.6,1.5c.3.9.9,2.1,1.2,3a34.2,34.2,0,0,0,3,5.7,86.53,86.53,0,0,0,6.9,10.2,10.8,10.8,0,0,0,4.2,3.3c1.2.6,2.4,0,3.9-1.2a17.58,17.58,0,0,0,3.9-5.1c1.2-1.8,2.4-3.9,3.6-6,2.4-4.2,5.1-8.4,7.5-12.3,2.4-4.2,4.8-8.4,6.9-12.6a30.61,30.61,0,0,0,2.7-6.6,33.6,33.6,0,0,0,1.8-6.9,54.89,54.89,0,0,0-1.2-14.1c-.9-4.5-2.1-9-3.3-13.5a35.76,35.76,0,0,0-2.4-6c-.3-.3-.3-.9-.6-1.2s-.3-.6-.9-.9c-.6-.6-1.2-1.5-1.8-1.8-2.1-1.8-6,1.2-9.3,3.6C426.3,264.9,420,271.5,414.3,279Z"
              />
              <path
                id="SvgjsPath3374"
                class="male skin-details"
                d="M446.4,298.2c.9-6.9,1.5-23.4-2.4-28.8-6.6-8.7-18,19.2-20.7,27.9,0,.3-.3.6-.3.9a1.17,1.17,0,0,0,1.2,1.8c1.2-.6,2.7-1.8,3.9-2.4,3.3-1.5,4.8,1.5,3.9,5.4-1.2,5.4-4.2,8.7-6.6,12.9-.3.6,0,1.2.6.9,4.8-2.7,10.5-13.5,9.3-19.8-.9-6-5.7-5.4-9.3-2.4a81.91,81.91,0,0,1,7.5-14.4c1.8-2.7,3.6-6,6.6-6.6,3.6-.6,3,.9,3.6,5.4,2.4,14.4.9,31.2-7.5,43.5-.3.3,0,.6.3.3a45.22,45.22,0,0,0,9.9-24.6Z"
              />
            </g>
          </g>
          <g id="svga-group-faceshape-wrap">
            <g id="svga-group-faceshape-single">
              <path
                id="SvgjsPath3334"
                class="male skin"
                d="M430.8,246c-3.6-90.3-62.4-139.8-130.8-139.8S172.8,155.7,169.2,246c0,2.7-.3,5.7-.3,8.4,0,95.7,60.6,206.7,131.1,206.7s131.1-111,131.1-206.7a75.85,75.85,0,0,0-.3-8.4Z"
              />
              <path
                id="SvgjsPath3335"
                class="male face-outline"
                d="M300,461.1c70.5,0,131.1-111,131.1-206.7a75.85,75.85,0,0,0-.3-8.4c-3.6-90.3-62.4-139.8-130.8-139.8S172.8,155.7,169.2,246c0,2.7-.3,5.7-.3,8.4,0,95.7,60.6,206.7,131.1,206.7ZM198.3,361.5c-4.2-9-8.1-18.3-11.4-27.6a290.87,290.87,0,0,1-8.4-28.8c-9.3-38.7-10.2-81,5.4-118.2l3.3-6.6c1.2-2.1,2.1-4.5,3.3-6.6l3.9-6.3,2.1-3.3a21,21,0,0,1,2.4-3,113.64,113.64,0,0,1,9.6-11.4c1.8-1.8,3.3-3.6,5.1-5.4l5.7-4.8c15.3-12.6,33.6-20.4,52.5-24.3,4.8-1.2,9.6-1.5,14.4-2.1a57.81,57.81,0,0,1,7.2-.3l7.2-.3a157,157,0,0,1,28.8,3.3c2.4.6,4.8.9,6.9,1.5l6.9,2.1,3.6,1.2,3.3,1.5,6.6,2.7c2.1.9,4.2,2.4,6.3,3.3,2.1,1.2,4.5,2.1,6.3,3.6,3.9,2.7,8.4,5.1,12,8.4a124.83,124.83,0,0,1,36,46.5c8.1,18.3,12.3,38.4,13.2,58.8a202.56,202.56,0,0,1-6.6,60,271.57,271.57,0,0,1-21,56.4,264.43,264.43,0,0,1-32.1,49.5,163.78,163.78,0,0,1-20.4,20.4,99.26,99.26,0,0,1-24,14.7,64,64,0,0,1-52.8,0c-17.1-7.2-31.8-20.4-44.1-35.7-12.6-14.1-22.8-31.2-31.2-49.2Z"
              />
            </g>
          </g>
          <g id="svga-group-mouth-single-move">
            <g id="svga-group-mouth-single">
              <path
                id="SvgjsPath3520"
                class="male lips"
                d="M259.86,388.65A46.88,46.88,0,0,0,276.72,401c10.71,4.59,40.38,13.11,68.76-12,0,0-5.49-3-12.75-7.77s-11.37-7.17-17.61-8.13-9.69,1.74-13.8,1.92-8.64-2.4-13.53-2c-10.74.9-28.08,13.5-28.08,13.5l.15,2.1Z"
              />
              <path
                id="SvgjsPath3521"
                class="male lips-outline"
                d="M257.7,388.08c5.79,4.05,11.85,2.4,18.18.6a26.23,26.23,0,0,1,9.09-1.2c4.2.15,4.95,1,8.31,2.46a13.63,13.63,0,0,0,7.65,1.44c3.21-.45,5.67-2.46,8.67-3.57,7-2.61,12.51.63,19,2.58,6.18,1.83,13,3,18.54-.93a1.41,1.41,0,0,0-1.41-2.43c-8.58,3.69-16.86-.78-25.35-2-6.69-1-10.47,1.38-16.92,2.43-7.35,1.2-13.44-3.06-20.76-3.09-7.83-.06-15.51,4.8-22.86,0-2.34-1.59-4.44,2.13-2.19,3.72Z"
              />
            </g>
          </g>
          <g id="svga-group-eyes-left-move">
            <g id="svga-group-eyes-left">
              <g id="svga-group-eyesback-left">
                <path
                  id="SvgjsPath5420"
                  class="male eyes"
                  d="M267.6,294s-.3-7.2-3.9-12.6-11.1-14.1-25.2-14.7a53.57,53.57,0,0,0-25.5,5.7s1.5,10.5,6.6,14.7,13.8,10.5,27.9,9.9c14.4-.3,20.1-3,20.1-3Z"
                />
              </g>
              <g id="svga-group-eyesiriswrapper-left">
                <g id="svga-group-eyesiriscontrol-left">
                  <g id="svga-group-eyesiris-left">
                    <path
                      id="SvgjsPath3451"
                      class="male pupil"
                      d="M240.3,265.2a15.68,15.68,0,0,1,15.6,15.6,15.6,15.6,0,1,1-15.6-15.6Z"
                    />
                    <path
                      id="SvgjsPath3452"
                      d="M240.3,272.4a8.39,8.39,0,0,1,8.4,8.4,8.4,8.4,0,1,1-8.4-8.4Z"
                    />
                    <path
                      id="SvgjsPath3453"
                      class="male eyes"
                      d="M238.2,273.9l-1.8-1.8a2.72,2.72,0,0,0-2.1-.9,3.24,3.24,0,0,0-2.1.9,2.9,2.9,0,0,0,0,4.2l1.8,1.8a2.72,2.72,0,0,0,2.1.9,3.24,3.24,0,0,0,2.1-.9c.9-1.5,1.2-3.3,0-4.2Zm7.5,14.1c2.7,0,2.7-4.2,0-4.2S243.3,288,245.7,288Z"
                    />
                  </g>
                </g>
              </g>
              <g id="svga-group-eyesfront-left">
                <path
                  id="SvgjsPath5428"
                  class="male skin"
                  d="M208.2,283.8c0,19.2,14.1,34.5,31.8,34.5s31.8-15.6,31.8-34.5-14.1-34.5-31.8-34.5C222.6,249.3,208.2,264.6,208.2,283.8Zm4.8-11.4a52.27,52.27,0,0,1,25.5-5.7c14.4.6,21.9,9,25.2,14.7,3.6,5.4,3.9,12.6,3.9,12.6s-6,2.7-20.1,3a40.48,40.48,0,0,1-27.9-9.9c-5.1-4.2-6.6-14.7-6.6-14.7Z"
                />
                <path
                  id="SvgjsPath5429"
                  class="male ear-outline"
                  d="M271.8,287.7c-6-10.8-12.3-19.8-24.9-23.7-12.9-4.2-24.3-.6-35.7,5.7-.6.3-1.5-.6-.9-1.2,18.9-17.1,56.4-6.9,61.8,18.9.3.6,0,.6-.3.3Z"
                />
                <path
                  id="SvgjsPath5430"
                  d="M249.3,267.6c-14.4-6-31.8-2.7-43.8,7.2-1.5,1.2.3,3.3,1.8,2.4s3-1.8,4.8-2.7c3.9,24.9,35.4,28.2,54.6,20.4.3,1.2.3,2.4.6,3.6a1,1,0,0,0,1.8.3c2.1-13.5-7.5-26.1-19.8-31.2Zm-13.8,26.7c-10.5-2.7-18.6-10.2-20.1-21,0-.3,0-.3-.3-.3,9-4.5,18.6-6.9,29.1-3.9,12.6,3.6,20.1,12.6,22.5,24.6-10.8.6-20.7,3.6-31.2.6Z"
                />
              </g>
            </g>
          </g>
          <g id="svga-group-eyes-right-move">
            <g id="svga-group-eyes-right">
              <g id="svga-group-eyesback-right">
                <path
                  id="SvgjsPath5421"
                  class="male eyes"
                  d="M332.4,294s.3-7.2,3.9-12.6,11.1-14.1,25.2-14.7a53.57,53.57,0,0,1,25.5,5.7s-1.5,10.5-6.6,14.7-13.8,10.5-27.9,9.9c-14.4-.3-20.1-3-20.1-3Z"
                />
              </g>
              <g id="svga-group-eyesiriswrapper-right">
                <g id="svga-group-eyesiriscontrol-right">
                  <g id="svga-group-eyesiris-right">
                    <path
                      id="SvgjsPath3454"
                      class="male pupil"
                      d="M359.7,265.2a15.68,15.68,0,0,1,15.6,15.6,15.6,15.6,0,0,1-31.2,0A15.68,15.68,0,0,1,359.7,265.2Z"
                    />
                    <path
                      class="male"
                      id="SvgjsPath3455"
                      d="M359.7,272.4a8.39,8.39,0,0,1,8.4,8.4,8.4,8.4,0,0,1-16.8,0A8.39,8.39,0,0,1,359.7,272.4Z"
                    />
                    <path
                      id="SvgjsPath3456"
                      class="male eyes"
                      d="M357.9,273.9l-1.8-1.8a2.72,2.72,0,0,0-2.1-.9,3.24,3.24,0,0,0-2.1.9,2.9,2.9,0,0,0,0,4.2l1.8,1.8a2.72,2.72,0,0,0,2.1.9,3.24,3.24,0,0,0,2.1-.9c.9-1.5,1.2-3.3,0-4.2Zm7.5,14.1c2.7,0,2.7-4.2,0-4.2S362.7,288,365.4,288Z"
                    />
                  </g>
                </g>
              </g>
              <g id="svga-group-eyesfront-right">
                <path
                  id="SvgjsPath5431"
                  class="male skin"
                  d="M360,249.3c-17.7,0-31.8,15.6-31.8,34.5s14.1,34.5,31.8,34.5,31.8-15.6,31.8-34.5-14.4-34.5-31.8-34.5Zm20.4,37.8c-5.1,4.2-13.8,10.5-27.9,9.9-14.1-.3-20.1-3-20.1-3s.3-7.2,3.9-12.6,11.1-14.1,25.2-14.7a52.27,52.27,0,0,1,25.5,5.7s-1.5,10.5-6.6,14.7Z"
                />
                <path
                  id="SvgjsPath5434"
                  class="male ear-outline"
                  d="M328.2,287.7c6-10.8,12.3-19.8,24.9-23.7,12.9-4.2,24.3-.6,35.7,5.7.6.3,1.5-.6.9-1.2-18.9-17.1-56.4-6.9-61.8,18.9-.3.6,0,.6.3.3Z"
                />
                <path
                  id="SvgjsPath5435"
                  d="M394.5,274.8c-12-9.9-29.1-13.2-43.8-7.2-12,5.1-21.9,17.7-19.8,31.2.3.9,1.5.6,1.8-.3a15.06,15.06,0,0,1,.6-3.6c19.5,7.8,51,4.2,54.6-20.4,1.5.9,3,1.8,4.8,2.7,1.2.9,3-1.5,1.8-2.4Zm-9.6-1.5c-1.5,10.8-9.9,18.3-20.1,21-10.8,3-20.7,0-31.2-.9,2.4-11.7,9.9-21,22.5-24.6,10.5-3,20.1-.3,29.1,3.9A.93.93,0,0,0,384.9,273.3Z"
                />
              </g>
            </g>
          </g>
          <g id="svga-group-eyebrows-left-move">
            <g id="svga-group-eyebrows-left-rotate">
              <g id="svga-group-eyebrows-left">
                <path
                  id="SvgjsPath3496"
                  class="male eyebrow"
                  d="M201,247.5a6.53,6.53,0,0,1,1.5-2.4A9.12,9.12,0,0,1,204,243a13,13,0,0,1,2.1-1.8c1.5-2.7,5.1-4.8,7.5-6.3a17.48,17.48,0,0,1,8.7-2.7c3-.6,6.3-.6,8.7.6a5.07,5.07,0,0,1,3,.9c3.3-.3,6.9.6,9.9,1.2a57.93,57.93,0,0,1,12.3,3.6,41.92,41.92,0,0,1,12.3,1.5h.6a1,1,0,0,1,.6.3h.3c.3,0,.6.3.9.6s0,.9,0,1.2v.3a3.81,3.81,0,0,1-.3,1.8,7.06,7.06,0,0,1-1.5,4.8,1.1,1.1,0,0,1-.3.9c-.3,1.5-.6,3.3-2.1,4.2a3.41,3.41,0,0,1-2.4.9,1.1,1.1,0,0,1-.9-.3h-1.8c-1.8.6-4.2,0-5.7-.3a14.77,14.77,0,0,1-5.1-1.8c-5.4-.9-10.5-2.4-15.9-3.6-4.8-1.2-12-1.2-16.2-3.9a40.66,40.66,0,0,1-6,.6,12.1,12.1,0,0,1-3.3,0,2.86,2.86,0,0,1-2.1-.6.29.29,0,0,1-.3-.3h-.3l-1.2,1.2a7.65,7.65,0,0,1-3.6,2.4c-.3.6-.9,0-.9-.9Z"
                />
                <path
                  id="SvgjsPath3497"
                  class="male eyebrow-details"
                  d="M263.1,249a25.41,25.41,0,0,0-1.2-5.1c0-.6.6-.9.9-.3,2.1,3,2.7,8.4.6,11.7-.3.6-.9.3-.9-.3a50.49,50.49,0,0,0,.6-6Zm-10.2-9.6c3.9,2.4,6.3,7.8,6.3,12,0,.6-.9.9-.9.3a32,32,0,0,0-2.1-5.7c-.9-2.1-2.7-3.6-3.9-5.7-.9-.6,0-1.2.6-.9Zm-9.9-2.1c6.6,2.4,11.4,9.6,12.6,15.9,0,.6-.6.6-.9.3a24.32,24.32,0,0,0-5.1-8.4c-2.1-2.7-4.8-4.2-7.5-6.6C241.5,238.2,242.4,237,243,237.3Zm-14.7-2.4c7.2,1.8,14.4,7.8,17.4,14.1.3.6-.9,1.2-1.2.6a49.84,49.84,0,0,0-7.8-8.1c-2.7-2.1-6-3.6-9-5.4-.6-.3-.3-1.2.6-1.2ZM202.2,246c4.8-5.4,11.4-12.9,19.5-12a.45.45,0,1,1,0,.9c-7.8.6-12.9,7.5-18.9,11.7-.6.3-1.2-.3-.6-.6Z"
                />
                <path
                  id="SvgjsPath3498"
                  class="male eyebrow-outline"
                  d="M272.7,241.8a.94.94,0,0,0-1.8,0c-.9,3.3-.9,7.2-3.6,9.9-1.8,2.1-4.5,2.4-7.2,2.1.9-4.5.6-11.1-2.4-14.7-.6-.6-1.5-.3-1.2.6,0,2.4,1.2,4.8,1.5,7.2a53.56,53.56,0,0,1,.6,6.9,1.1,1.1,0,0,1-.9-.3,29.15,29.15,0,0,0-8.4-16.5,165,165,0,0,0,20.7,3.3c.3,0,.6-.6.3-.6-7.8-2.7-15.9-4.2-24-6-7.2-1.5-15.3-4.2-22.8-4.5-6.3-.3-10.8,2.7-15,6.6-4.5,4.2-9.3,9.3-12.3,14.7l-.6.6c-.3.3-.6.9-.3,1.2a.29.29,0,0,1-.3.3,1.09,1.09,0,0,0,1.8,1.2,1.1,1.1,0,0,0,.9-.3c4.2-2.1,7.5-4.2,12.3-4.8a40.26,40.26,0,0,1,12,.3c8.7,1.2,16.8,3.9,24.9,6.3,6.3,1.8,14.7,5.1,20.7.6C272.7,252.9,273.3,246.6,272.7,241.8Zm-40.2,3.9c-1.5-.3-3.3-.6-5.1-.9.3-3.3-.9-6.9-2.4-9.9a53.91,53.91,0,0,1,6,5.7c1.8,1.8,2.7,4.2,4.5,6-1.2-.3-2.1-.6-3-.9ZM210,238.5a21.35,21.35,0,0,1,12-5.7c.6,2.4,1.8,4.8,2.1,7.2l.9,4.5c-.9,0-2.1-.3-3-.3-1.5-2.7-3.9-5.4-6.9-6.3-.6-.3-.9.6-.6,1.2,1.2,1.2,2.7,2.4,3.9,3.6a5.27,5.27,0,0,0,1.2,1.5c-5.7-.3-11.4.3-16.2,2.4a34,34,0,0,1,6.6-8.1Zm45.6,14.4c-.6-.3-1.2-.3-1.8-.6-1.2-.3-2.7-.9-3.9-1.2a37.3,37.3,0,0,0-11.1-14.4c-.6-.3-1.2.3-.9.6,3.6,4.2,6.6,8.7,9.9,13.2-3.3-1.2-6.6-2.1-9.6-3.3-.6-3.3-3.6-6.6-5.7-9a33.51,33.51,0,0,0-7.2-5.7c1.2,0,2.4.3,3.9.3,6,.9,12,2.4,18,3.6v.3c2.1,3.3,4.5,6.6,6.3,9.9a51.7,51.7,0,0,0,2.1,6.3Z"
                />
              </g>
            </g>
          </g>
          <g id="svga-group-eyebrows-right-move">
            <g id="svga-group-eyebrows-right-rotate">
              <g id="svga-group-eyebrows-right">
                <path
                  id="SvgjsPath3499"
                  class="male eyebrow"
                  d="M399,247.5a6.53,6.53,0,0,0-1.5-2.4A9.12,9.12,0,0,0,396,243a13,13,0,0,0-2.1-1.8c-1.5-2.7-5.1-4.8-7.5-6.3a17.48,17.48,0,0,0-8.7-2.7c-3-.6-6.3-.6-8.7.6a5.07,5.07,0,0,0-3,.9c-3.3-.3-6.9.6-9.9,1.2a57.93,57.93,0,0,0-12.3,3.6,41.92,41.92,0,0,0-12.3,1.5h-.6a1,1,0,0,0-.6.3H330c-.3,0-.6.3-.9.6s0,.9,0,1.2v.3a3.81,3.81,0,0,0,.3,1.8,7.06,7.06,0,0,0,1.5,4.8,1.1,1.1,0,0,0,.3.9c.3,1.5.6,3.3,2.1,4.2a3.41,3.41,0,0,0,2.4.9,1.1,1.1,0,0,0,.9-.3h1.8c1.8.6,4.2,0,5.7-.3a14.77,14.77,0,0,0,5.1-1.8c5.4-.9,10.5-2.4,15.9-3.6,4.8-1.2,12-1.2,16.2-3.9a45.09,45.09,0,0,0,6,.6,12.1,12.1,0,0,0,3.3,0,2.86,2.86,0,0,0,2.1-.6.29.29,0,0,0,.3-.3h.3l1.2,1.2a7.65,7.65,0,0,0,3.6,2.4c.3.6.9,0,.9-.9Z"
                />
                <path
                  id="SvgjsPath3500"
                  class="male eyebrow-details"
                  d="M336.9,249a25.41,25.41,0,0,1,1.2-5.1c0-.6-.6-.9-.9-.3-2.1,3-2.7,8.4-.6,11.7.3.6.9.3.9-.3a50.49,50.49,0,0,1-.6-6Zm10.2-9.6c-3.9,2.4-6.3,7.8-6.3,12,0,.6.9.9.9.3a32,32,0,0,1,2.1-5.7c.9-2.1,2.7-3.6,3.9-5.7.9-.6,0-1.2-.6-.9Zm9.9-2.1c-6.6,2.4-11.4,9.6-12.6,15.9,0,.6.6.6.9.3a24.32,24.32,0,0,1,5.1-8.4c2.1-2.7,4.8-4.2,7.5-6.6C358.5,238.2,357.6,237,357,237.3Zm14.7-2.4c-7.2,1.8-14.4,7.8-17.4,14.1-.3.6.9,1.2,1.2.6a49.84,49.84,0,0,1,7.8-8.1c2.7-2.1,6-3.6,9-5.4.6-.3.3-1.2-.6-1.2ZM397.8,246c-4.8-5.4-11.4-12.9-19.5-12a.45.45,0,1,0,0,.9c7.8.6,12.9,7.5,18.9,11.7.6.3,1.2-.3.6-.6Z"
                />
                <path
                  id="SvgjsPath3501"
                  class="male eyebrow-outline"
                  d="M331.8,255.9c6,4.5,14.4,1.2,20.7-.6,8.4-2.4,16.5-5.4,24.9-6.3a40.26,40.26,0,0,1,12-.3c4.8.6,8.1,2.7,12.3,4.8a1.1,1.1,0,0,0,.9.3,1.09,1.09,0,0,0,1.8-1.2.29.29,0,0,0-.3-.3,1.8,1.8,0,0,0-.3-1.2l-.6-.6c-3-5.4-7.8-10.5-12.3-14.7-4.2-3.9-8.7-6.9-15-6.6-7.5.3-15.6,3-22.8,4.5-8.1,1.8-16.2,3.3-24,6-.6.3-.3.6.3.6a165,165,0,0,0,20.7-3.3,29.15,29.15,0,0,0-8.4,16.5,1.1,1.1,0,0,0-.9.3c.3-2.4.3-4.5.6-6.9s1.5-4.8,1.5-7.2a.81.81,0,0,0-1.2-.6c-3,3.6-3.3,10.2-2.4,14.7-2.7.3-5.1,0-7.2-2.1-2.4-2.7-2.7-6.6-3.6-10.2a.94.94,0,0,0-1.8,0c0,5.1.6,11.4,5.1,14.4Zm32.7-9.6c1.5-1.8,2.7-4.2,4.5-6a53.91,53.91,0,0,1,6-5.7c-1.5,3-2.7,6.9-2.4,9.9-1.8.3-3.6.6-5.1.9a5.07,5.07,0,0,1-3,.9Zm32.4,0c-4.8-2.1-10.8-2.7-16.2-2.4a5.27,5.27,0,0,1,1.2-1.5,42.6,42.6,0,0,1,3.9-3.6.72.72,0,0,0-.6-1.2c-3,.9-5.4,3.6-6.9,6.3-.9,0-2.1.3-3,.3l.9-4.5c.6-2.4,1.5-4.8,2.1-7.2a23.34,23.34,0,0,1,12,5.7c2.4,2.7,4.5,5.4,6.6,8.1Zm-50.1.6c1.8-3.6,4.2-6.6,6.3-9.9v-.3c6-1.2,12-2.7,18-3.6a17.11,17.11,0,0,1,3.9-.3,33.51,33.51,0,0,0-7.2,5.7c-2.1,2.4-5.1,5.7-5.7,9a90.16,90.16,0,0,0-9.6,3.3c3-4.5,6.3-8.7,9.9-13.2.3-.6-.3-.9-.9-.6a37.3,37.3,0,0,0-11.1,14.4c-1.2.3-2.7.9-3.9,1.2-.6.3-1.2.3-1.8.6a31,31,0,0,1,2.1-6.3Z"
                />
              </g>
            </g>
          </g>
          <g id="svga-group-beardwrap">
            <g id="svga-group-beard-single-move">
              <g id="svga-group-beard-single"></g>
            </g>
          </g>
          <g id="svga-group-mustache-single-move">
            <g id="svga-group-mustache-single"></g>
          </g>
          <g id="svga-group-nose-single-move">
            <g id="svga-group-nose-single">
              <path
                id="SvgjsPath3535"
                class="male skin"
                d="M315.18,323c1.68,2.76,7.92,10.83,9.27,14.7s-.39,9.66-4.44,10.83-10.83-1.17-11.79-.57-5.61,6.18-7.74,5.79-7.92-6.39-9.09-6.39-6.39,1.35-8.91,1.35-8.7-2.13-7.92-7.53,7.35-16.62,8.7-18.18a34.06,34.06,0,0,0,5.22-10.26c.78-3.3,1.74-21.09,2.13-25.14s4.05-8.91,7.74-9.27,10,2.31,10.65,8.7,1.74,19.14,2.31,24.36A24.85,24.85,0,0,0,315.18,323Z"
              ></path>
              <path
                id="SvgjsPath3536"
                class="male face-outline"
                d="M292.86,260.28c-2.52,10.5-2.88,21.72-4,32.43-1.2,11.49-3.42,23.34-3.27,34.89a.84.84,0,0,0,1.65.21c2.34-10.56,2.64-21.78,3.72-32.52,1.17-11.46,3.3-23.37,2.94-34.89a.52.52,0,0,0-1-.12Z"
              ></path>
              <path
                id="SvgjsPath3537"
                class="male face-outline"
                d="M283.38,321.57a81,81,0,0,0-7.95,13.23c-1.47,3-3.27,6.51-2.31,10,1.59,5.67,8.79,7.47,13.5,4.74a1.62,1.62,0,0,0-.81-3c-2.76,0-5.94.84-8.16-1.5-2.64-2.82,0-7.89,1.14-10.71,1.74-4.17,3.84-8.16,5.49-12.36C284.49,321.36,283.68,321.15,283.38,321.57Z"
              ></path>
              <path
                id="SvgjsPath3538"
                class="male face-outline"
                d="M282.93,344.94c8.52-.63,10.14,10.11,18.21,10.35,6.93.21,7.5-10.23,14.07-9.9a.76.76,0,0,0,.39-1.41c-7.47-4.41-8.85,8.58-15.72,7.77-4.08-.48-7-6.48-10.62-8.19a6.89,6.89,0,0,0-6.69.06c-.66.27-.33,1.38.36,1.32Z"
              ></path>
              <path
                id="SvgjsPath3539"
                class="male face-outline"
                d="M312.87,349.8c5.61,1.26,12.15-.48,13.47-6.72a12.22,12.22,0,0,0-2-8.85c-2.67-4.32-6.09-8-8.61-12.45a.83.83,0,0,0-1.53.42c-.33,5,3.39,8.49,6.06,12.36,2.46,3.57,4.59,8.49.45,12-1.89,1.62-5.49,1.32-7.8,1.77a.76.76,0,0,0,0,1.47Z"
              ></path>
              <path
                id="SvgjsPath3540"
                class="male nose-details"
                d="M307.35,332.94a4,4,0,0,0-6.18-.78c-.15.15-.72.87-.9,1.08s-.6.78-.69.87a9.91,9.91,0,0,0-.54,1l-.36.84s0,0-.09.15-.36.39-.54.6a12.24,12.24,0,0,0-1.5,1.8c-1.26,2-.24,4.26,1.44,5.52,2.61,1.95,6.39.39,8.22-1.83a7.86,7.86,0,0,0,1.14-9.21Z"
              ></path>
            </g>
          </g>
          <g id="svga-group-hair-front">
            <path
              id="SvgjsPath6778"
              class="male hair"
              d="M166.5,255.3s9.6,23.1,13.5,23.4c0,0,.3-15.6,1.2-26.4s2.1-38.4,24.3-64.8,38.7-35.1,38.7-35.1S273,171,292.5,171.9s50.7.3,77.4-20.1c0,0,20.1,22.2,30,48.3s16.2,50.4,16.5,68.1,1.8,19.2,8.4,11.4,8.4-24,8.4-24,.3-37.2-6.9-58.2-16.2-46.2-41.1-65.4-48.6-27.3-65.1-30c-16.5-3-47.4-.9-71.4,8.7S203.4,135.9,189,159a150.9,150.9,0,0,0-21.9,70.8C166.2,250.8,166.5,255.3,166.5,255.3Z"
            />
            <path
              id="SvgjsPath6779"
              class="male hair-outline"
              d="M407.1,152.1C385.2,121.5,345,100.8,307.5,99c-41.1-2.1-86.1,15.6-111.9,48-24.6,30.6-33,71.1-30,109.8,0,.6.3.9.6.9.6,2.1,1.5,3.9,2.4,6.3,1.2,3,2.4,6,3.9,9,1.5,3.6,4.2,8.4,8.7,7.2a2.37,2.37,0,0,0,2.4-2.4c0-24.3.9-50.7,12.6-72.3,11.4-21,30.6-36,48.9-51,16.5,14.1,39.6,21,60.6,21.3,21.3.3,49.2-6.3,64.8-22.2,27,38.7,44.7,79.8,44.1,127.8a1.56,1.56,0,0,0,.6,1.2c.6,6,8.7,2.4,11.1-.9,4.2-5.7,4.8-13.5,6.3-20.7a2,2,0,0,0,1.5-2.1c3-36.6-5.4-76.8-27-106.8Zm11.7,129c.9-45.6-14.4-96-46.2-129.6l.3-.3c1.2-1.5-.3-3.3-1.8-2.4-10.8,5.1-19.5,12-30.9,16.2a96.36,96.36,0,0,1-34.2,5.7c-24.6-.3-44.4-10.5-64.8-23.1-.9-.6-2.1.9-1.2,1.8a18.1,18.1,0,0,0,2.4,2.4c-19.5,15-39.9,30.9-51,53.4-10.8,21-12,46.2-12.3,69.6-4.8-5.4-5.7-14.7-11.1-19.5-1.8-36,6-73.2,27.6-102.3,25.2-33.9,70.5-51.9,112.2-49.8,38.4,2.1,80.1,25.5,100.2,58.2,17.7,28.8,24.6,64.5,22.5,98.1a32.87,32.87,0,0,0-3.3,8.7c-.9,2.4-3.6,13.5-8.4,12.9ZM275.4,157.8C260.1,150.3,249,141,240,126.3c-.6-.9-2.1-.3-1.8.6,5.1,15.6,19.8,29.4,36.3,32.4C275.7,159.6,276.6,158.4,275.4,157.8Zm16.5-.6c-9.3-2.7-18-6.6-24.9-13.5-.9-.9-2.4.6-1.5,1.5,6.9,7.8,15.9,12.9,26.4,13.5C292.5,159,292.8,157.5,291.9,157.2Zm28.2-.9c-5.1-.6-9.6-1.2-14.4-3-.9-.3-1.5,1.2-.6,1.5a35.53,35.53,0,0,0,14.7,2.7C321,157.5,321,156.3,320.1,156.3Zm-94.5,4.5c-4.5-1.2-7.8-3.6-11.4-6.3-.9-.6-1.8.6-1.2,1.5,3,3.6,7.8,5.4,12.3,6,.9.3,1.2-1.2.3-1.2Zm-10.8,7.5c-1.8-.6-3.6-1.8-5.4-2.1-.6,0-1.2.6-.6.9a15.92,15.92,0,0,0,5.1,2.4c.9.9,1.8-.6.9-1.2Zm187.8,4.5a1.2,1.2,0,0,0-1.5-1.5c-1.2.3-2.4,1.2-3.9,1.5a9.89,9.89,0,0,1-4.2,0c-1.8-.6-2.4,2.1-.9,3C395.4,177,401.1,176.7,402.6,172.8Zm1.5,9.9a27,27,0,0,0-4.8.9c-.9.3-.6,1.8.3,1.5a11.42,11.42,0,0,0,4.5-1.5C405,183.3,404.7,182.7,404.1,182.7Zm11.7,23.7a6.32,6.32,0,0,0-3.9,1.5c-1.5.6-.3,3,1.2,2.1a8.51,8.51,0,0,0,3.3-2.4c.6-.6,0-1.2-.6-1.2Z"
            />
            <path
              id="SvgjsPath6780"
              class="male hair-details"
              d="M303,144.6c-14.1-3.6-26.1-10.2-34.8-21.9-.6-.9-2.1,0-1.5.9,8.4,12,21,21,36,22.2C303.6,145.8,303.6,144.9,303,144.6Zm-41.4-11.1c-5.1-3.6-9.3-6.6-11.7-12.6-.3-.9-1.5-.6-1.2.3,1.8,5.7,6.3,12,12.6,13.5.6.3.9-.6.3-1.2Zm29.1,14.4c-4.8-2.4-9.6-4.5-13.8-7.5-.3-.3-.9.3-.6.6,4.2,3.3,9,6.6,14.1,7.8C291,149.1,291.6,148.2,290.7,147.9Zm35.7,15.6c-7.8,1.2-14.7,1.8-22.5.3a.64.64,0,0,0-.3,1.2c7.5,1.8,15.6,2.4,23.1,0C327.3,164.4,327,163.5,326.4,163.5ZM351,141.9c-11.4,3-23.1,6.6-35.1,4.5-.6,0-.9.9-.3.9,12.3,3,24,0,35.7-4.5.6-.3.3-1.2-.3-.9Zm-29.1-12c-6.6-.9-12.9-1.5-19.5-3.6-.9-.3-1.2.9-.3,1.2,6.3,2.4,12.9,3.9,19.8,3.3A.45.45,0,1,0,321.9,129.9Zm-95.1,24.6a61.79,61.79,0,0,1-12.3-9c-.6-.6-1.2.3-.6.6a32.17,32.17,0,0,0,12.6,9.3C227.1,155.7,227.4,154.8,226.8,154.5ZM206.1,168c-3.6-2.7-7.8-4.8-11.4-7.8-.6-.6-1.8.3-1.2,1.2,3.6,3,7.5,6.3,12.3,7.8.6.3.9-.6.3-1.2Zm-7.2,7.2c-2.1-1.5-4.8-2.1-7.2-3.3-.9-.3-1.8.9-.9,1.5a32.66,32.66,0,0,0,7.5,3,.67.67,0,0,0,.6-1.2Zm-10.5,12a17.19,17.19,0,0,0-3.3-3.3c-.6-.6-1.8.3-1.2,1.2a29.87,29.87,0,0,0,3.3,3c.9.6,1.8,0,1.2-.9ZM396,160.8c-2.4,1.5-4.5,2.7-7.5,2.4a.75.75,0,0,0,0,1.5,9.85,9.85,0,0,0,8.4-3C397.5,161.4,396.6,160.5,396,160.8Zm18.9,25.5c-1.8-.6-3.6-.3-5.4-.3a.9.9,0,1,0,0,1.8c1.8,0,3.6.3,5.4-.3C415.5,187.5,415.5,186.6,414.9,186.3Zm-.3,11.1a22.71,22.71,0,0,0-4.5-.3.75.75,0,0,0,0,1.5,22.71,22.71,0,0,0,4.5-.3C415.5,198.6,415.5,197.7,414.6,197.4ZM296.4,105.6c-14.4-1.5-30.6-2.1-43.5,6-.6.3-.3,1.8.6,1.5,14.1-6,27.9-5.7,42.9-6A.75.75,0,0,0,296.4,105.6Zm108.9,53.1c-.3-.6-1.2,0-.9.6,13.8,25.2,21.6,51.3,26.1,79.5,0,.9,1.5.6,1.5-.3-2.1-28.5-12-55.5-26.7-79.8Z"
            />
          </g>
          <g id="svga-group-glasses-single-move">
            <g id="svga-group-glasses-single"></g>
          </g>
        </g>
      </g>
    </g>
  </g>
</svg>
