<?xml-stylesheet type="text/css" href="../../../../male-colors.css" ?>
<svg
                width="70"
                height="70"
                id="Layer_1"
                data-name="Layer 1"
                xmlns="http://www.w3.org/2000/svg"
                viewBox="0 0 600 600"
              >
                <g id="svga-group-beardwrap">
                  <g id="svga-group-beard-single-move">
                    <g id="svga-group-beard-single">
                      <path
                        id="SvgjsPath5364"
                        class="male beard"
                        d="M299.4,428.1c-13.8-.6-46.2-9-56.4-13.5-6.3-2.7-16.8-11.7-23.7-9-7.5,3-9,21.3-8.4,27.6s9.6,19.2,18.6,24.3a12,12,0,0,1-1.2-5.7s6.3,10.2,15.3,16.2,24.6,10.5,24.6,10.5l-3.3-4.2s15.3,7.8,24.3,9.9l-1.5-2.7s8.7,4.2,9.6,5.1c0,0,6-2.4,9.3-3.9v2.1a48.07,48.07,0,0,0,24-5.7c12.3-6.6,18-10.8,18-10.8l-1.8,5.1s16.2-8.4,20.1-13.8,14.7-16.2,17.4-27c3-10.8-4.5-23.4-7.8-25.8-6.6-4.5-17.7,5.7-29.1,12.6-12,7.2-48,8.7-48,8.7Z"
                      />
                      <path
                        id="SvgjsPath5365"
                        class="male beard-details"
                        d="M234.9,440.1c-1.8-5.4-2.4-9.9-.3-15.3.3-.6-.6-.6-.9-.3-2.1,4.8-2.4,11.1.6,15.6,0,.6.6.6.6,0Zm1.5,15.3c-6.9-9.3-11.7-18.6-6.9-29.7.3-.3-.6-.6-.6-.3-5.1,10.5-1.2,22.2,7.2,30.3ZM255.3,471c.3,0,.6-.3.3-.3a43.11,43.11,0,0,1-5.4-7.5c-.3-.3-.6,0-.6.3C250.8,466.2,252.6,469.2,255.3,471Zm4.2,0a9.13,9.13,0,0,0-2.4-2.4c-.3-.3-.3,0-.3.3a21.15,21.15,0,0,0,2.7,2.1Zm26.4-3.9a80.81,80.81,0,0,0,4.8,8.7c0,.3.3,0,.3,0-1.2-3-3-6-4.5-9C286.2,466.2,285.6,466.5,285.9,467.1Zm-24.3-21c.9,2.1,1.2,4.2,2.1,6,0,.3.6.3.6,0a12.15,12.15,0,0,0-2.1-6.3C262.2,445.2,261.3,445.8,261.6,446.1Zm26.1,39.3c-.6-2.1-1.8-4.5-3.6-5.7-.3-.3-.6,0-.6.3a26.38,26.38,0,0,1,1.8,3c.3.3.3.6.6,1.2a36.82,36.82,0,0,0-7.8-3.6,58.23,58.23,0,0,1-16.8-9.6c-.6-.3-1.2.3-.6.6.3.3.6.3.6.6a.93.93,0,0,0-.6-.3c-.6-.3-.9.3-.6.6a12,12,0,0,1,3.6,3l.6.6c-5.1-2.7-11.4-3.6-16.5-6a39.7,39.7,0,0,1-18.6-19.8c-.3-.3-.9-.3-.6.3a34.69,34.69,0,0,0,13.8,17.7c7.2,4.8,15.6,6.6,23.4,10.2.3.3.3.6.6.9s.6,0,.6-.3,0-.6-.3-.6c0-.3.3-.3,0-.6h-.3a16.49,16.49,0,0,0-2.1-2.7c6.9,4.8,15,7.2,22.5,12a.29.29,0,0,1,.3.3c.6.3,1.2-.3.9-.6a1.19,1.19,0,0,0-.3-1.5Zm-69.6-51.6c-.6,5.1.3,11.1,4.2,15,.3.3.6,0,.6-.3-2.1-5.1-3.9-9.3-3.9-14.7-.3-.6-.9-.6-.9,0Zm7.2,6.6a51.07,51.07,0,0,1-.6-11.7c0-.3-.6-.6-.6,0-.6,4.2-.6,8.1.9,12,0,.3.6,0,.3-.3Zm2.7-24,.9-1.8a6.54,6.54,0,0,1,1.2-1.5c.3-.3-.3-.9-.6-.6a4.57,4.57,0,0,0-2.1,3.6c0,.3.6.6.6.3Zm-.3,37.2c-.3-1.2,0-2.4-.3-3.6a6.31,6.31,0,0,0-1.5-4.5c-.3-.3-.9,0-.6.3,1.8,2.4.6,5.1.9,7.8.3.9.3,1.8.6,2.4a45.69,45.69,0,0,1-9-11.1.29.29,0,0,0,.3.3c.3.3.6,0,.6-.3-3.3-9-4.2-16.8.6-25.8.3-.6-.6-.9-.9-.3-3.6,5.4-5.4,12.6-3.6,19.2-1.8-5.4-2.4-10.8-.9-16.2h.3c3-3,4.2-8.1,9.6-8.1.3,0,.6-.3.3-.6-1.8-.9-3.6-.3-5.1.6.6-.9,1.5-1.8,2.1-2.7.3-.3-.3-.6-.6-.6-.6.3-.9.9-1.5,1.2a.57.57,0,0,0-.9-.3c-.3.3-.6.3-.6.6a33.36,33.36,0,0,1,8.1-7.8c.3-.3,0-.6-.3-.6a23.27,23.27,0,0,0-9.9,10.2l-1.8,2.7c.3-1.2.6-2.4.9-3.3v-.3a29.4,29.4,0,0,1,3.9-6.6l.6-.6a18.21,18.21,0,0,1,3-2.1c.3-.3,0-.6-.3-.6a11.36,11.36,0,0,0-5.1,4.2c-2.7,2.7-4.8,6.3-4.8,10.2a.29.29,0,0,0,.3.3,27.28,27.28,0,0,0-1.8,10.8.29.29,0,0,0,.3.3c-.3,3.3,0,6.9,1.5,9.6,0,.3.6,0,.6,0v-.6A35.58,35.58,0,0,0,228,458.1h.6l.6.6c.3.3.6,0,.6-.3-.9-2.1-1.8-3.3-2.1-4.8Zm-3.6-36c-3.9,3.3-5.4,11.1-2.7,15.3.3.3.6,0,.6-.3-1.2-4.5-.9-11.1,2.7-14.7C225,417.9,224.4,417.3,224.1,417.6Zm11.1,34.2c3.3,4.8,6,9.9,9.3,14.4.3.3.6,0,.6-.3-1.2-3.6-3.6-6.9-5.7-9.9a5.38,5.38,0,0,0,2.1,1.5c.3.3.6-.3.3-.3-1.8-2.1-3.6-3.9-4.5-6.3-1.2-2.4-1.2-4.8-1.5-7.5,0-.3-.3-.3-.6,0-.9,3,0,6.3,1.5,9l-.9-.9c-.3-.3-.9,0-.6.3Zm21,12.6a9.77,9.77,0,0,0-2.4-5.7c-.3-.3-1.2,0-.9.3a45.32,45.32,0,0,1,2.7,5.4c0,.3.6.3.6,0Zm-3.6-.3c.3.3.6.3.6-.3,0-3-3-5.7-5.4-7.5-.3-.3-.9.3-.6.6a17.19,17.19,0,0,1,3.3,3.3c.9,1.5,1.5,3,2.1,3.9Zm-3,4.2a52,52,0,0,0-6.3-10.2c-.3-.3-.9,0-.6.3,2.1,3.3,3.6,7.2,6.6,10.2C249.3,468.9,249.6,468.6,249.6,468.3Zm10.5-8.1c.3.3.6,0,.6-.3-1.8-3.6-5.1-6.6-7.5-9.9-.3-.6-1.2,0-.9.6,2.4,3,4.8,6.9,7.8,9.6Zm-.6-11.7c.3.3.9,0,.6-.3-.9-2.4-2.7-4.8-4.2-7.2-.3-.6-1.2,0-.9.6,1.5,2.1,2.7,4.8,4.5,6.9Zm-4.8-2.1c.3.3.6,0,.6-.3-2.1-3.9-4.5-7.5-5.7-11.7-.3-.6-.9-.3-.9.3.9,3.9,2.4,8.7,6,11.7Zm-2.1,9.6c.3,0,.6-.3.3-.3-3.6-3.6-6.6-6.6-8.1-11.4-.3-.6-.9-.3-.9.3C244.8,448.8,247.8,453.9,252.6,456ZM240,450.3c-.3-.6-1.2-.3-.9.3,1.5,4.2,4.5,9,9.3,10.5.3,0,.6-.3.3-.6-1.5-1.5-3.3-2.7-4.8-4.2a25.73,25.73,0,0,1-3.9-6Zm6.9-9.6c.3.3.9-.3.6-.6-4.2-4.2-3.9-8.7-3.3-14.1,0-.6-.9-.9-.9-.3-1.2,5.1-2.4,12.6,3.6,15Zm-8.4-5.4c-1.5,6,.3,13.8,6.3,17.4.3.3.6-.3.3-.6-4.5-4.8-7.2-9.9-6-16.5C239.4,435,238.8,435,238.5,435.3Zm42.3,45.3c.3.3.6,0,.6-.3A13.32,13.32,0,0,0,279,477a36,36,0,0,0-3.6-3.3c-.6-.3-1.2.3-.6.6a15.72,15.72,0,0,1,3,3.3c.9.6,1.8,2.1,3,3Zm3-13.2c.3.3.6-.3.3-.3-3.3-3.6-6.3-7.2-7.8-11.4-.3-.6-.9-.3-.9.3C276.9,460.2,279.6,464.7,283.8,467.4Zm-17.4-3c-.3-3.3-2.7-6.6-5.4-8.7-.3-.3-.9.3-.6.3,2.7,2.4,3.6,5.4,5.4,8.4a.42.42,0,0,0,.6,0Zm-7.5-.9c-.3-.6-.9-.3-.9.3.6,3.3,3,5.4,6,7.5a137.07,137.07,0,0,0,14.1,8.7c.3.3.6-.3.3-.3a113.51,113.51,0,0,0-9.9-6.6c-3.6-2.7-8.1-5.1-9.6-9.6Zm110.4-50.4c.3.3.6,0,.6-.3.3-2.1-.9-4.8-2.1-6.6-.3-.3-.9,0-.6.3.3,1.2.9,2.1,1.2,3.3s.6,2.4.9,3.3Zm2.7-3.9c.9,1.2,1.5,2.7,2.4,3.6.3.3.6,0,.6-.3-.6-3-3-5.7-5.4-7.8-.3-.3-.9.3-.6.6a19.26,19.26,0,0,1,3,3.9Zm-1.2,5.7c-.6-.3-.6.6-.3.6,4.5,1.5,4.5,9.3,4.8,12.6,0,.3.6.3.6,0C376.8,424.5,375.9,416.4,370.8,414.9Zm5.4,23.4c0,.3.6.3.6,0a12.32,12.32,0,0,0,0-6.6c0-.3-.9-.3-.9,0a50.85,50.85,0,0,1,.3,6.6Zm5.4-11.7c0-.3-.6-.3-.6,0-.3,3.9.3,7.8-.9,11.7-.9,3.3-3.6,5.7-4.5,9,0,.3.6.6.6.3,1.8-3.6,4.5-6.3,5.4-10.2C382.5,434.1,382.2,430.2,381.6,426.6Zm2.7-.6a26.26,26.26,0,0,0-.6-4.8c.6-5.1-3.3-11.1-7.2-13.8h-.3c-1.2-1.2-2.4-2.4-4.2-2.7-.6,0-.6.6-.3.6,2.4.9,3.6,3,5.1,5.1.9,1.5,2.1,2.7,3,4.2a14.62,14.62,0,0,1,1.2,3.3,7.77,7.77,0,0,0-5.1-3.6c-.6,0-.6.6-.3.6,5.1,1.5,6.3,9.3,7.8,13.8l-.9,7.2c-.6,2.1-1.5,4.2-2.1,6.3,0,.3.3.6.6.3a19.24,19.24,0,0,0,3.3-9.3v.3c0,.3.3.3.6,0C385.8,430.8,384.9,428.1,384.3,426Zm-19.8,25.8c6-4.8,7.8-12.9,6.3-19.8,0-.3-.9-.3-.6,0,.9,7.2-1.5,13.5-6,19.5C363.6,451.8,364.2,452.1,364.5,451.8Zm0-10.5c1.5-3.3,1.2-7.5.6-11.1,0-.3-.9-.3-.9,0,.3,3.9-.3,7.2-.6,11.1C363.9,441.6,364.5,441.6,364.5,441.3Zm11.1-4.2c0-.3-.6-.3-.6,0-.9,9-3.6,15.3-9.9,22.2,1.8-2.7,3.3-5.4,3.6-8.4,0-.3-.6-.6-.6-.3-3,5.4-5.4,10.5-10.2,15-3.6,3.3-9.6,5.1-12.6,8.7-.3.3.3.6.6.3,4.8-3.6,10.5-5.7,15-10.2a54.77,54.77,0,0,0,3.9-4.8c-.3.3.3.9.6.6,6.9-5.4,11.4-14.7,10.2-23.1Zm-58.5,44.1c1.8-1.5,3.3-3.6,5.1-5.4.3-.3-.3-1.2-.6-.6-1.8,1.8-3.6,3.3-4.8,5.7C316.5,481.2,316.8,481.5,317.1,481.2Zm5.1-23.4c-3.6,3.6-6.6,7.2-10.8,10.2-.3.3,0,.6.3.6,4.2-2.7,8.4-6.3,10.8-10.8.3,0,0-.3-.3,0Zm26.1,9.3c.6-.6-.6-1.2-.9-.6-7.2,5.7-13.8,10.8-22.8,13.5-6.3,1.8-13.2,2.1-19.2,5.4-.3.3,0,.6.3.6,7.8-3,16.5-2.7,24.6-6,6.6-3,13.5-7.2,18-12.9Zm-28.8,13.5c2.7-2.1,4.5-4.8,6.6-7.5.3-.3-.3-.9-.6-.6-2.1,2.4-4.8,4.8-6.6,7.8a1,1,0,0,0,.6.3Zm5.1-2.4a32.3,32.3,0,0,0,7.2-5.4,21.84,21.84,0,0,0,5.4-5.1c.3-.6-.6-.9-.9-.3-2.7,4.2-8.4,6.9-12,10.5C324,477.9,324.3,478.5,324.6,478.2Zm13.2-18.6c1.8-2.4,3.9-5.1,4.2-7.8,0-.3-.3-.3-.6-.3-1.5,2.7-2.4,5.4-4.2,7.8C337.2,459.6,337.5,459.9,337.8,459.6Zm18-14.1a21.82,21.82,0,0,0,2.1-8.7c0-.3-.6-.3-.6,0a44.2,44.2,0,0,1-2.4,8.4c-.3.6.6.9.9.3Zm-14.7,2.1c2.7-2.4,3.3-6,3-9.3,0-.3-.6-.3-.6,0a13.89,13.89,0,0,1-2.7,9C340.5,447.6,340.8,447.9,341.1,447.6Zm3.3,8.7c6.9-5.1,11.4-10.5,11.1-18.9,0-.3-.6-.3-.6,0-.9,3.6-.9,7.2-3,10.8-1.8,3.3-5.1,5.7-8.1,7.8a1,1,0,0,0,.6.3Zm-15.9,21.3c8.7-4.8,20.7-12.3,22.2-22.2,0-.6-.6-.6-.9-.3-2.4,9.6-13.8,15.9-21.6,21.9C327.9,477.3,328.2,477.6,328.5,477.6Zm3.6-16.5c2.7-3,5.4-6.6,6.3-10.2,0-.3-.3-.3-.6-.3-2.4,3.3-3.9,6.9-6.3,10.2A1,1,0,0,0,332.1,461.1Zm-5.1,2.4c2.7-2.4,6.3-5.7,7.2-9.3,0-.3-.3-.6-.6-.3a36.4,36.4,0,0,0-3,4.2,32.11,32.11,0,0,1-4.2,4.8c-.3.3,0,.9.6.6Zm-8.7,5.7c2.4-2.4,5.1-4.8,7.2-7.2,1.8-1.8,3.6-3.9,3.9-6.3,0-.3-.3-.6-.6-.3-3,5.1-7.2,9-11.1,13.5-.3.3,0,.6.6.3ZM294,482.7c.9,1.5,1.5,3,2.4,4.5.3.3.6.3.6-.3a8.25,8.25,0,0,0-2.4-4.5A.34.34,0,1,0,294,482.7Zm15.9-.3c3-4.5,9.9-6,12.3-10.8,0-.3-.3-.6-.3-.3a46.35,46.35,0,0,1-7.2,5.7,21.84,21.84,0,0,0-5.4,5.1c-.3.3.3.6.6.3Zm-10.8,1.8c-.3.3.3.6.6.3,3-4.5,7.5-6.6,12-9.6.3-.3,0-.3-.3-.3C306.6,476.1,301.5,479.7,299.1,484.2Zm-33.9-27.9c1.8,2.4,2.4,4.8,3.6,7.5,0,.3.6.3.6,0a11.79,11.79,0,0,0-3.6-7.8C265.5,455.7,265.2,456,265.2,456.3Zm12.3-7.2a17.37,17.37,0,0,1,.9-8.7.29.29,0,0,0-.3-.3,10.55,10.55,0,0,0-.9,9C277.2,449.4,277.5,449.4,277.5,449.1Zm-8.7-4.5c-.3,7.2,2.4,14.7,9,19.2.3.3.6-.3.3-.3-4.8-5.7-8.4-11.7-8.1-18.9-.3-.6-1.2-.6-1.2,0Zm28.8,36.3c.6-2.7-.3-5.4-1.2-8.1-.3-.3-.9-.3-.6.3.9,2.7.9,5.1,1.2,7.8a.42.42,0,0,0,.6,0Zm4.8-7.2c0,.3.6.6.6.3a13.05,13.05,0,0,1,2.4-4.5,22.23,22.23,0,0,1,3.6-3.9c.3-.3,0-.6-.3-.3C305.1,466.8,303,470.7,302.4,473.7Zm-12.6-9.9c.3.3.6-.3.6-.3-1.2-1.8-2.7-3.3-3.6-5.4a15.32,15.32,0,0,1-.9-6.3c0-.3-.6-.3-.6,0-.9,3.9.3,9.6,4.5,12Zm10.2-3.6c-1.2-2.7-2.7-5.1-3.6-8.1,0-.6-.9-.3-.9.3.6,2.7,1.5,6,3.6,8.4.6.3,1.2,0,.9-.6Zm-2.7,8.4c0,.3.6.3.6,0,.3-3-1.2-6-2.7-8.7-.3-.6-1.2,0-.9.3,1.8,3,2.1,5.7,3,8.4Zm9,12c0-.3-.3-.6-.6-.3-.9.9-1.5,1.8-2.4,2.7a7.15,7.15,0,0,1-3.3,1.8c-1.5.6-2.7,1.2-3.3,2.7a27,27,0,0,0-3-2.7l.3-.3c-.6-2.7-2.7-5.7-4.2-7.8-.3-.3-.9,0-.6.3a24.79,24.79,0,0,1,2.1,3.9,22.38,22.38,0,0,0,2.1,3.6,4.14,4.14,0,0,1-1.2-.9,6.28,6.28,0,0,1-1.8-1.2v-.3c-1.5-3.9-5.1-7.5-8.1-10.5-.3-.3-.9.3-.6.6,1.5,1.8,3,3.6,4.5,5.7a34,34,0,0,0,3,3.9c-2.4-1.8-4.8-3.3-6.6-6-.3-.3-.6,0-.6.3v.3c-3.9-4.2-10.8-6.9-11.1-13.2,0-.3-.6-.3-.9,0-.3,7.2,8.4,10.8,12.9,15.3h.3A22.55,22.55,0,0,0,288,483c1.5.9,3,1.8,4.2,2.7,1.5,1.2,2.7,2.4,4.2,3.6.3.3.6,0,.6-.3s-.3-.6-.3-.9c.6-2.1,4.2-2.4,6-3.6,2.1-.9,3.3-2.1,3.6-3.9Zm48.6-25.8c.9-1.5.9-3.6.9-5.4,0-.3-.6-.3-.6,0a33.81,33.81,0,0,1-.9,5.4C354.3,455.1,354.9,455.1,354.9,454.8Zm-2.4,10.8c1.8-3.9,3.3-7.8,5.4-11.7.3-.3-.6-.9-.6-.3-2.4,3.6-4.5,7.8-5.1,11.7-.3.3.3.6.3.3Zm3.6-12.6c3-3.6,5.4-8.1,3.9-12.6,0-.3-.6-.3-.6.3.9,4.5-1.8,8.4-3.9,12.3Zm3.6.9a36.88,36.88,0,0,0-4.2,7.5c0,.3.3.3.6.3,2.1-3.3,4.2-6.6,6.6-9.9,1.2-1.8,3-4.5,2.4-6.9l-.3-.3c-.6,0-.6,0-.9.3s0,.6.3.3c.3,0-1.8,4.8-1.8,5.1l-2.7,3.6Zm-68.1,17.7c.6,2.4.9,5.1,2.1,7.2,0,.3.6,0,.6,0,0-2.4-1.2-5.1-1.8-7.2-.3-.6-.9-.3-.9,0Zm1.2-6.3c.3.3.6,0,.6-.3-.3-1.2-1.2-2.1-1.8-3.3a17.35,17.35,0,0,1-1.5-4.2c0-.3-.6-.3-.6.3C289.8,460.2,290.7,463.8,292.8,465.3Zm60.3-29.1a12.2,12.2,0,0,0,3.3-8.7.45.45,0,1,0-.9,0,21.77,21.77,0,0,1-3,8.4c0,.3.3.6.6.3Zm6.6-16.8c.3.9,0,2.1.3,3,0,.3.6.3.6,0,.9-2.1,0-4.8-1.2-6.6-.3-.3-.9,0-.6.3.3,1.2.6,2.1.9,3.3Zm-3,14.7c3-3.3,3.6-7.8,2.7-12,0-.6-.9-.3-.9.3.6,4.2-.6,7.8-2.4,11.4a1,1,0,0,0,.6.3ZM304.8,462c0-1.2-.3-2.1-.3-3.3a14.61,14.61,0,0,1-.3-3.6.45.45,0,1,0-.9,0c0,2.1-.3,5.4.9,7.2,0,.3.6,0,.6-.3Zm2.4-6v4.2c0,1.5-.3,2.7-.3,4.2,0,.3.6.6.9,0,1.2-2.4.6-5.7.6-8.4-.3-.6-1.2-.6-1.2,0Zm21-10.8c0,.3.3.3.6,0,1.8-3.3.3-7.2-2.1-9.9-.3-.3-.6,0-.6.3C328.8,438.9,328.8,441.9,328.2,445.2Zm-5.7,5.1a6.76,6.76,0,0,0,.9-6.3c0-.3-.9-.3-.6.3a13.7,13.7,0,0,1-.6,6c-.3,0,0,.3.3,0Zm-40.8-8.4a11.9,11.9,0,0,0,1.2,7.2c0,.3.6,0,.3-.3-.3-2.4-.9-4.5-.6-6.9a.45.45,0,0,0-.9,0Zm28.8,9.9c2.7-2.7,2.7-7.2,1.8-10.5-.3-.6-.9-.3-.9.3.9,3.6,0,6.6-1.2,9.9-.3.3,0,.6.3.3Zm-3.3,0a9.86,9.86,0,0,0,1.2-5.1.45.45,0,0,0-.9,0c0,1.8-.6,3.3-.6,4.8-.3.6.3.6.3.3Zm-70.5-26.1c0,.3.6.3.6,0,.6-1.5.6-3,1.5-4.2s1.8-2.7,2.7-3.9c.3-.3-.3-.6-.6-.3C238.2,418.8,236.1,422.7,236.7,425.7Zm-1.5-9.3a26.4,26.4,0,0,0-1.5,4.5c0,.3.3.3.3,0a28.15,28.15,0,0,0,1.8-4.5C236.1,416.1,235.5,416.1,235.2,416.4Zm27,15.3a17.33,17.33,0,0,1-.6-9.6c0-.3-.3-.3-.6,0a11.51,11.51,0,0,0,.6,9.9A1,1,0,0,0,262.2,431.7Zm3.6,4.2c-.6-2.1-1.8-3.9-2.4-6,0-.3-.6-.3-.6,0a21,21,0,0,0,2.4,6C265.5,436.2,265.8,436.2,265.8,435.9Zm4.8,3.3a21,21,0,0,0-2.4-6c-.3-.3-.9,0-.6.3.9,1.8,1.5,4.2,2.7,6C270.3,439.8,270.6,439.5,270.6,439.2Zm23.4-8.1c0-.9-.3-1.8-.3-2.7a12.31,12.31,0,0,1,.3-3.3c0-.3-.6-.6-.6-.3-.6,1.8-.9,4.5.3,6.3C293.4,431.7,294,431.4,294,431.1Zm3.6,2.1a62.36,62.36,0,0,0-.9-6.9c0-.3-.6-.3-.6,0,0,2.1,0,4.8.9,6.6C297.3,433.5,297.6,433.5,297.6,433.2Zm4.2,1.2a9.29,9.29,0,0,0,.3-7.5c0-.3-.6-.3-.6.3a17.78,17.78,0,0,1,0,6.9c0,.3.3.6.3.3Zm3.6-.6c1.5-2.4,1.8-5.4,1.8-8.1,0-.3-.6-.3-.9,0a59.91,59.91,0,0,1-1.5,7.8c.3.3.6.6.6.3Zm5.1-2.1a9.78,9.78,0,0,0,2.4-5.4c0-.3-.6-.6-.6-.3-.6,1.8-1.8,3.6-2.4,5.4C309.9,431.7,310.2,431.7,310.5,431.7Zm5.7-.3c1.5-1.5,2.4-3.6,3.6-5.4.3-.3-.6-.9-.6-.3-.9,1.8-2.4,3.6-3.3,5.4C315.6,431.4,315.9,431.7,316.2,431.4Zm-19.8,6c.3,2.7.6,5.4,2.1,7.8,0,.3.6,0,.3-.3-.6-2.7-1.5-5.1-2.1-7.8C297,436.8,296.4,436.8,296.4,437.4Zm4.2,9c0,.3.6.3.6.3,1.2-2.1,1.2-5.4.9-7.8a.45.45,0,0,0-.9,0,16.9,16.9,0,0,1,0,3.9A15.06,15.06,0,0,0,300.6,446.4Zm-13.2-15.6c0-1.8-.9-3.6-1.5-5.1,0-.3-.6-.3-.6.3.6,1.8.6,3.6,1.8,5.1C287.1,431.4,287.4,431.1,287.4,430.8Zm-3.6,0c0,.3.6,0,.3-.3a28,28,0,0,0-3-6c-.3-.3-.6,0-.6.3C281.7,426.9,282.6,429,283.8,430.8Zm56.7,5.1c0,.3.3.6.3.3a10.88,10.88,0,0,0,3.9-7.5c0-.3-.9-.6-.9,0C343.5,431.7,342,433.5,340.5,435.9Zm-.3-3.6c2.7-3,4.8-7.2,3.6-11.4,0-.3-.6-.3-.6.3.6,4.2-1.8,7.2-3.3,10.8-.6.3,0,.3.3.3Zm6.6,4.2c.6-.9.9-1.8,1.5-2.7.3-.3-.6-.6-.6-.3-.3.9-.9,1.8-1.2,2.7C346.5,436.5,346.8,436.8,346.8,436.5Zm18.9-15.3c0,.3.6.3.6.3,1.2-2.1.9-4.8,0-7.2-.3-.6-.9-.3-.9.3.6,2.1.3,4.2.3,6.6Zm-132.9-6.9c.6-.6,1.2-1.5,1.8-2.1a13,13,0,0,1,2.1-1.8c.3-.3,0-.6-.6-.3-1.2,1.2-3,2.4-3.6,4.2-.3,0,0,.3.3,0Zm3.6-.3a8,8,0,0,0,1.8-1.5A8,8,0,0,1,240,411c.3-.3,0-.9-.6-.6a6.49,6.49,0,0,0-3.6,3.3,1,1,0,0,0,.6.3Z"
                      />
                    </g>
                  </g>
                </g>
              </svg>