<?xml-stylesheet type="text/css" href="../../../../male-colors.css" ?>
<svg
                width="70"
                height="70"
                id="Layer_1"
                data-name="Layer 1"
                xmlns="http://www.w3.org/2000/svg"
                viewBox="0 0 600 600"
              >
                <g id="svga-group-beardwrap">
                  <g id="svga-group-beard-single-move">
                    <g id="svga-group-beard-single">
                      <path
                        id="SvgjsPath5289"
                        class="male beard"
                        d="M380.4,362.4l1.8,1.8a27.57,27.57,0,0,0-13.5-18.9c-12-6.9-30-3-39.9-.3s-18.9,8.1-27.6,8.1c-24.6,0-35.7-15-67.2-9.9s-20.4,61.2-9.9,81.6l1.8-2.7s9.3,24.9,23.1,36.3l.6-3a89.6,89.6,0,0,0,42.6,24.9,51.78,51.78,0,0,0,44.7-9.3v2.7s22.2-14.7,27.9-27.3c0,0,12.6-17.7,16.8-39.3,3.6-22.2-1.2-44.7-1.2-44.7Zm-26.7,45c-9.3,21.6-24,24.6-32.1,22.2s-4.5-15.9-4.5-15.9c-9,.9-29.1-.3-29.1-.3s7.8,17.1-15,16.2-39-36.9-40.5-47.1.6-24.9,13.2-29.4,41.4,7.8,54,7.2c23.1-.9,38.4-9.9,52.5-7.8s10.8,33.6,1.5,54.9Z"
                      />
                      <path
                        id="SvgjsPath5290"
                        class="male beard-details"
                        d="M239.1,403.5c-6.3-15.9-13.5-36.6,5.4-47.1,13.8-7.5,27.6.3,41.4,3,23.1,4.5,41.7-8.4,63.9-8.7a.45.45,0,0,0,0-.9c-16.8-2.4-33,7.5-50.1,7.5-15.9,0-30.9-9.6-47.1-7.8-28.2,3.3-26.7,35.4-15.9,54.6.9,1.2,2.7.6,2.4-.6Zm-16.5-52.8c.3-.3-.3-.6-.6-.3-14.4,21.6-9.9,50.4,1.2,72a1,1,0,0,0,1.8-.9C216,397.5,210.9,375.6,222.6,350.7Zm1.5,62.1c-.3-.6-1.2-.3-.9.3,3.9,17.1,12,36.3,25.5,48,.6.6,1.8-.3,1.2-.9C239.4,444.6,229.5,431.4,224.1,412.8Zm77.7,69c-14.7,0-24.6-8.1-33.9-18.3a.64.64,0,0,0-.9.9c3,3.9,6.6,8.4,10.8,11.7-6-3.9-12-7.5-17.4-12.6a77.92,77.92,0,0,1-13.8-19.2.67.67,0,0,0-1.2.6c5.1,14.7,18.3,30.3,33.6,34.8.9.3,1.2-.6,1.2-1.2,6.3,4.8,13.8,7.5,21.9,5.4.6-.9.3-2.1-.3-2.1Zm5.1-2.7c-9-.9-16.2-2.7-22.8-9a.85.85,0,0,0-1.2,1.2c6,6.3,15.3,11.4,24.3,9.6,1.2-.3.9-1.8-.3-1.8Zm7.8-.9a36.27,36.27,0,0,1-7.5-2.4c-.6-.3-1.2.6-.6.9a17.82,17.82,0,0,0,7.8,2.1C315,478.8,315,478.2,314.7,478.2Zm-68.1-40.8c.6.3.9-.3.6-.9-9.9-9.9-18.3-20.7-23.4-33.9-.3-.6-.9-.3-.9.3,4.8,13.5,12.3,25.8,23.7,34.5Zm42.9-23.1a1.07,1.07,0,0,0-2.1.3c-.3,3.3,0,6.6-.9,9.6a12.27,12.27,0,0,1-5.4,6.9c-.6.6-.6,2.1.6,1.8,8.4-.9,9.3-12.3,7.8-18.6Zm-36,26.7c-.3-.3-1.2,0-.9.6,2.1,3.6,6,6.9,9.3,9.6a.56.56,0,0,0,.9,0,41.56,41.56,0,0,0,18.6,12c.6,0,.9,0,.9-.3a45.14,45.14,0,0,0,11.7,6.6c.6.3,1.2-.9.6-1.2-7.5-4.5-14.7-8.7-20.4-15.3a.64.64,0,0,0-.9.9,47.19,47.19,0,0,0,5.4,5.7c-9-4.8-15.6-11.1-21.6-19.5-.3-.6-1.2-.3-.9.3a42.43,42.43,0,0,0,3.9,7.2,13,13,0,0,0-2.1-1.8c-1.5-1.5-2.7-3.3-4.5-4.8Zm79.2,28.5a63.71,63.71,0,0,1-11.4,8.7c-.9.3,0,1.5.6,1.2,4.5-2.1,8.7-4.8,11.7-9.3.3-.3-.6-.9-.9-.6Zm18.6-16.8c-4.5,7.8-8.7,14.4-15.9,20.1-.6.6.3,1.5.9,1.2,7.5-4.5,14.1-12,16.2-20.7C352.8,452.7,351.6,452.1,351.3,452.7Zm25.5-44.1a80.93,80.93,0,0,1-5.4,20.7,1,1,0,0,0-1.5.3c-2.1,5.7-3.9,11.4-7.2,16.5s-7.8,9.3-12,13.5c-.6.6.3,1.5.9,1.2,9.9-5.7,17.7-17.4,19.5-28.5a44.49,44.49,0,0,0,6.9-23.7C378,408,376.8,408,376.8,408.6Zm-15.9-12.3c-4.2,16.8-13.5,35.4-33,37.5a.77.77,0,0,0-.3,1.5c33.3,8.4,57.3-75.6,24.3-84.6-.6-.3-.9.6-.3.9C367.5,359.1,364.5,382.2,360.9,396.3Zm21.3-19.2c0-.6-.9-.3-.9,0,.9,6.6.6,12.9.6,19.5,0,.6.9.6.9.3C384.3,390.3,383.4,383.7,382.2,377.1Zm-3,11.7c1.2,9.3,0,17.7-1.2,27a.77.77,0,0,0,1.5.3c3.3-8.7,3-18.6.9-27.6,0-.6-1.2-.3-1.2.3Zm-54,70.2a82.28,82.28,0,0,1-11.7,17.1.85.85,0,0,0,1.2,1.2,36.26,36.26,0,0,0,11.4-17.7C326.4,459,325.5,458.4,325.2,459Zm6-.6-3.6,5.4a38.63,38.63,0,0,1-4.8,5.1c-.6.6.3,1.8,1.2,1.2,3.3-2.7,6.9-6.6,8.4-10.8,0-.9-.6-1.5-1.2-.9Zm6.6-5.1a28.16,28.16,0,0,1-4.2,7.8c-.3.6.6.9.9.3a21.72,21.72,0,0,0,3.6-8.1s-.3-.3-.3,0ZM278.4,444c-.6-.6-1.2.3-.9.9,2.7,3,5.1,6.6,8.1,9.3.3.3.9,0,.9-.6-2.1-3.6-5.4-6.9-8.1-9.6Zm18.3,18.6a22.23,22.23,0,0,0-3.6-3.9,29.72,29.72,0,0,1-3.3-5.1c-.3-.6-1.5,0-.9.6,1.8,3.3,3.9,7.2,7.5,8.7,0,.3.6,0,.3-.3Zm0-1.8a13.15,13.15,0,0,0,2.1,5.7c.3.3.9,0,.9-.6a38,38,0,0,1-1.8-5.4C297.9,459.9,296.7,460.2,296.7,460.8Z"
                      />
                    </g>
                  </g>
                </g>
              </svg>