<?xml-stylesheet type="text/css" href="../../../../male-colors.css" ?>
<svg
                width="70"
                height="70"
                id="Layer_1"
                data-name="Layer 1"
                xmlns="http://www.w3.org/2000/svg"
                viewBox="0 0 600 600"
              >
                <g id="svga-group-beardwrap">
                  <g id="svga-group-beard-single-move">
                    <g id="svga-group-beard-single">
                      <path
                        id="SvgjsPath5006"
                        class="male beard"
                        d="M179.1,308.4c-5.4-.9-14.7,38.1-16.2,47.7s-2.7,24-.6,29.4c2.4,6.9,15.9,24,18.3,26.4l1.2-4.8s6.6,13.8,12.9,21,47.1,38.4,52.8,42,25.2,12.3,30.3,14.7a47.89,47.89,0,0,0,12,3.3l-2.4-3.3s9.6,5.1,18.3,5.7,21.6-.6,26.7-4.8l-.6,1.8s34.2-15.9,60.6-50.4l-.3,7.2s10.8-6.6,33.9-42.3c5.7-9,14.1-31.2,15.9-41.1s-12.9-47.4-16.8-48.6-8.1-.9-16.2,16.8-10.8,23.4-20.4,37.5c-9.6,14.4-44.1,56.1-54.6,62.1-6.6,3.9-16.2,6.3-16.8.6a33.64,33.64,0,0,1,.6-10.5s-26.7-.6-36.6-.9c0,0,.6,6.6.6,11.4s-8.1,1.8-16.2-1.8c-8.1-3.9-54.3-55.8-59.1-65.4s-7.2-28.8-11.7-39.3c-5.1-10.5-12.3-14.1-15.6-14.4Z"
                      />
                      <path
                        id="SvgjsPath5007"
                        class="male beard-details"
                        d="M327.9,488.7c-6-1.2-12,.3-18,0-8.4-.6-15.9-4.2-24-5.7-.6-.3-1.2.9-.6,1.2,13.5,7.5,27.6,7.8,42.3,6.3C328.5,490.5,329.1,489,327.9,488.7ZM173.4,380.1c.3.6,1.2.3.9-.3a32.78,32.78,0,0,1-1.5-5.1c5.7,15.6,16.8,29.4,28.8,40.8.3.3.9,0,.6-.3-13.2-17.1-27.3-32.4-30.9-53.7,0-16.8,7.2-32.7,8.1-50.4,0-.3-.3-.3-.6,0C175.8,333,161.1,358.8,173.4,380.1Zm22.5,14.4c-.3-.3-.6,0-.6.3,5.1,10.8,13.8,19.2,23.1,26.4l.9,1.8c.6.9,1.8,0,1.2-.6-1.8-3-3-6.3-4.5-9.3-.3-.6-.9-.3-.9.3a14.77,14.77,0,0,0,1.8,5.1c-7.5-7.5-15.3-14.7-21-24ZM224.1,423c5.1,6.3,9,13.2,13.5,19.8l.3.3c0,.3,0,.3.3.6.3.6,1.2.6,1.2-.3-.3-1.5-.3-3.3-.9-4.5-.3-.6-1.2-.6-1.2.3-3-6.3-7.8-11.7-12.3-16.8-.6-.6-1.2,0-.9.6Zm-34.2-40.2c-8.7-14.4-12.9-29.1-8.4-45.6.3-.6-.9-.9-1.2-.3-4.5,15.9-2.7,34.2,8.7,46.8A.64.64,0,0,0,189.9,382.8ZM207.3,432c-.3-.3-.6,0-.6.3.9,1.8,1.8,3.3,2.7,5.4a12.54,12.54,0,0,1,1.2,3c-4.5-4.8-11.4-7.5-15.6-13.2-4.8-6.6-7.2-14.7-13.2-20.7-.3-.3-.6,0-.6.3,0-.3,0-.6-.3-.6,0-.3-.6-.3-.6,0-.6,1.2-.3,2.4-.3,3.6-4.5-8.4-12.6-15.9-15.9-24.9,4.8,9.3,13.5,17.4,19.8,23.7.6.6,1.8-.3,1.2-1.2-4.8-6.3-10.8-12-15-18.6-7.8-12-7.5-18.6-5.1-32.4,2.7-15.6,7.2-30.9,11.1-46.2.3-.6-.9-.9-.9-.3-7.5,18.6-14.4,41.7-14.7,62.1a33.06,33.06,0,0,0,.6,5.4c-.6,6.3,3.6,11.7,6.6,17.1,3.6,6.6,8.4,12.3,12.6,18.9.3.6,1.8.3,1.5-.6v-.3a8.16,8.16,0,0,0,0-2.7v-2.4c4.2,7.5,8.1,16.2,13.2,22.8,4.8,6,11.1,8.4,16.8,13.2,0,.3,0,.3.3.3.3.9,1.2.3,1.2-.3-.9-4.2-3-9-6-11.7Zm-21.9-66.6c1.8,6,4.5,12.3,8.4,17.1a12.21,12.21,0,0,0,4.2,6c.6.6,1.8-.3.9-.9l-.3-.3a.57.57,0,0,0,.3-.9,51.29,51.29,0,0,0-3.3-4.2l-.9-3.6c0-.6-1.2-.6-1.2,0v.3a52,52,0,0,1-7.2-14.1c0-.3-1.2,0-.9.6ZM219,407.7c-1.5-2.7-3-5.7-4.5-8.4-.3-.3-.9,0-.6.3,1.5,2.7,3.3,5.4,4.8,8.1C219,408.3,219.3,408,219,407.7Zm27.3,36.9c3.6,10.2,8.7,20.7,16.5,28.5.6.6,1.5-.3,1.2-.9-6.6-9-12.3-17.4-15.9-27.9C247.2,443.4,246,443.7,246.3,444.6Zm27,30c-2.1-2.1-3.9-4.2-5.7-6.3-.6-.9-2.1.3-1.2,1.2,1.8,2.1,3.6,4.2,5.7,6.3a48.53,48.53,0,0,0,5.7,5.4A.92.92,0,0,0,279,480C277.2,477.9,275.1,476.4,273.3,474.6Zm24.6,3.6c.6.3,1.2-.6.6-1.2-11.4-8.1-20.7-17.7-25.8-31.2-.3-.9-1.8-.6-1.5.3,4.8,13.5,13.5,25.8,26.7,32.1Zm0-5.1c1.8,3,4.5,6.9,8.1,8.4.6.3,1.2-.6.6-1.2-1.2-1.2-2.7-2.4-3.9-3.6a52.23,52.23,0,0,1-3.6-4.2c-.3-.9-1.5-.3-1.2.6Zm25.5,11.7c3-3.6,4.5-8.4,6-12.9,0-.3-.3-.6-.6-.3-1.8,4.5-4.2,8.4-6.3,12.6,0,.6.6,1.2.9.6Zm23.1-24.9c0-.6-.9-.6-1.2-.3-1.8,5.4-3.9,10.5-7.8,15.3-1.8,2.1-3.6,3.9-5.4,5.7-1.5,1.2-3.6,2.1-4.5,3.6a.81.81,0,0,0,.6,1.2h.3c.3,0,.9,0,.9-.6v-.6a4,4,0,0,0,2.4-.9c.3-.3.9-.6,1.2-.9a8.09,8.09,0,0,0,2.4-2.1,27.28,27.28,0,0,0,5.4-6.3,29.32,29.32,0,0,0,5.7-14.1Zm19.8-22.2c-4.8,16.2-15.6,27.3-27.3,38.7-.6.6.3,1.2.9.9,12-10.2,25.5-22.5,27.6-39.3,0-.6-.9-.6-1.2-.3Zm21.6-6.6c-5.4,7.8-12,13.8-18.3,21-.6.6.3,1.2.9.9,7.2-5.7,14.7-12.6,18.3-21.3C388.8,430.8,388.2,430.8,387.9,431.1Zm9-45.3c-7.2,18-22.2,33-25.8,52.5-.3.9.6,1.2,1.2.6h.3c2.1-.6,3.3-3.3,4.8-4.8,1.8-1.8,3.6-3,5.1-4.8.3-.3-.3-.9-.6-.9a13.94,13.94,0,0,0-6.3,3.9l-.9.9c6.9-16.2,18.6-30,23.4-47.1.3-.9-.9-.9-1.2-.3Zm-56.7,63.6c4.8-6,9-12.6,14.1-18.3a.85.85,0,0,0-1.2-1.2c-5.4,5.7-10.5,11.7-13.8,18.9C339,449.4,339.6,450,340.2,449.4ZM407.4,423c-3.3,2.7-4.5,6.9-6.6,10.2a22.05,22.05,0,0,1-4.8,5.7,18.1,18.1,0,0,0-2.4,2.4,22.13,22.13,0,0,0,0-6.3c-.3-.9-1.2-.6-1.2.3-.3,1.8,0,3.3-.3,5.1a9.53,9.53,0,0,0-.6,4.2c0,.3.3.6.6.3s.6-.9.9-1.2c2.4,0,6.3-5.4,7.8-7.2a62.67,62.67,0,0,0,7.5-12.9C408.3,423,407.7,422.7,407.4,423Zm-17.1,14.4c1.2-8.7,6.6-15.6,6.9-24.3a.75.75,0,0,0-1.5,0c-.9,9-9.9,17.4-7.2,26.7l.3.3c-14.4,20.4-36.6,34.8-57.6,47.1-.6.3,0,1.5.6,1.2,21.9-11.1,47.7-28.2,60.3-49.8.3-1.2-1.2-2.1-1.8-1.2Zm-57,6.3c-4.2,6-8.1,12.6-10.2,19.8-.3.6.9,1.2,1.2.3,3.3-6.6,6.3-13.2,10.5-19.2a.88.88,0,1,0-1.5-.9Zm-34.8,7.2c-1.2-2.7-2.7-5.1-3.6-8.1-.9-2.4-.9-4.8-1.8-6.9-.3-.3-.9-.3-.9,0-1.2,4.8,1.8,12.3,5.1,15.6C297.9,452.7,298.8,451.8,298.5,450.9Zm10.8,14.7c.6.6,1.5-.3,1.2-1.2-.6-1.2-1.5-2.4-2.1-3.6a12.57,12.57,0,0,1-1.2-4.5c-.3-1.2-2.1-1.2-2.1,0,.3,3.6,1.5,7.5,4.2,9.3Zm-72,0-.6-.6c-.9-1.5-1.8-3.3-2.7-4.8s-1.5-3.6-2.7-4.8c-.3-.3-.6,0-.6.3,0,1.8,1.2,3.3,2.1,4.8-3.3-3-6.9-6-9.9-9a66.25,66.25,0,0,1-13.2-18.3c-.3-.3-.6,0-.6.3,3.9,12.9,16.2,25.2,27.3,32.7a.29.29,0,0,0,.3.3s.3.3.3,0,.3-.6.3-.9Zm18-33.6c-5.7-5.4-11.7-10.2-16.5-16.8a1.08,1.08,0,0,0-1.8,1.2c4.8,6.3,10.2,12.9,17.4,16.8.6,0,1.2-.9.9-1.2Zm8.4,10.2c.6.6,1.2,0,.9-.9-1.5-3.3-3.6-6-5.1-9.3-.6-1.2-2.1,0-1.8.9,1.8,3.6,3.3,6.9,6,9.3ZM424.5,312.9a.67.67,0,0,0-1.2.6c4.2,12.3,10.8,24.6,13.8,37.2,4.5,19.5-8.4,31.5-17.1,47.1-.3.6.6,1.5,1.2.9,8.7-10.8,20.4-23.1,20.7-37.8C441.9,345,431.4,327,424.5,312.9Zm7.5,73.2c-3.9,8.4-7.5,16.5-12.9,24-4.8,6.6-11.4,12.3-14.7,19.8-.3.6.3.9.6.3,10.2-14.4,23.4-26.1,28.2-43.8C433.2,386.1,432.3,385.5,432,386.1Zm-24.9,33v-.6c.3.3,1.2,0,1.2-.3,5.1-15.3,15.9-29.4,18.3-45.6,0-.6-1.2-.9-1.2-.3-2.7,14.4-14.1,25.8-17.7,39.6a45.83,45.83,0,0,1,2.1-10.8c.3-.9-.9-1.2-1.2-.3-2.1,5.7-3.9,12.3-2.7,18.3,0,.9,1.2.6,1.2,0Zm-.9-46.2a.64.64,0,0,0,1.2.3c2.1-7.8,3.6-15.9,6.6-23.7,2.4-6.6,6-12,5.7-19.2a.75.75,0,0,0-1.5,0c0,7.8-5.4,15.6-8.1,22.8a77.18,77.18,0,0,0-3.9,19.8Zm4.8-6.3c-2.1,5.1-4.2,10.8-4.2,16.5,0,.9,1.2.9,1.5.3,1.5-5.4,2.4-10.8,3.9-16.2.6-1.2-.9-1.5-1.2-.6Zm-1.8-34.2a96.67,96.67,0,0,0-5.7,26.1.64.64,0,0,0,1.2.3c1.8-8.7,3.3-17.4,6.3-25.8C411,331.8,409.5,331.5,409.2,332.4ZM375,397.2c-11.4,6-13.8,16.2-18.3,27.3a.67.67,0,0,0,1.2.6c3-4.5,3.9-9.9,6.3-14.7a29.29,29.29,0,0,1,11.1-12.3C376.2,397.8,375.6,396.9,375,397.2Zm-26.7,33.9c5.4-5.7,9.3-12.9,12.9-19.5.3-.6-.6-.9-.9-.3-4.2,6.6-9.3,12.6-12.9,19.2,0,.3.6.9.9.6ZM285,441.3c.3-7.8-1.5-16.2-3.6-23.4-.3-.9-1.2-.3-1.2.3,1.5,7.8,2.1,15.6,3.3,23.1C283.5,442.8,284.7,442.5,285,441.3Zm3.6,13.8c-.6-6.6-1.5-13.5-2.1-20.1,0-.6-1.2-.9-1.2,0a77.5,77.5,0,0,0,2.4,20.4c0,.3.9.3.9-.3ZM317.7,441c0-7.5,0-14.4,1.2-21.6.3-.9-.9-1.2-1.2-.3-2.4,6.9-3.3,15-1.5,22.2,0,.9,1.2.6,1.5-.3ZM315,454.2c.3-2.4,0-4.5.3-6.6.3-.9-1.2-1.2-1.2-.3a19.37,19.37,0,0,0,0,7.2c0,.6.9.3.9-.3ZM184.8,356.4a.75.75,0,0,0,1.5,0c1.5-12.6,3.3-29.7-2.7-41.7a.67.67,0,0,0-1.2.6c5.1,12.3,2.7,27.9,2.4,41.1ZM289.2,487.8c-.3-.6-.3-1.2-.9-1.5-.3-.3-.6,0-.6.3a1.8,1.8,0,0,0,.3,1.2c-19.8-7.5-42.9-15.6-56.4-33.3-.3-.3-.9,0-.6.3,10.8,19.2,37.5,27.6,57.3,34.2v.3a.56.56,0,0,0,.9,0c.3,0,0-.9,0-1.5Zm-14.1-15.3c.6.6,1.5-.3,1.2-.9a6.28,6.28,0,0,0-1.2-1.8,6.9,6.9,0,0,0-.6-4.2.64.64,0,0,0-1.2.3,1.1,1.1,0,0,0,.3.9c-4.5-7.2-9.9-14.1-14.7-21-.6-.9-1.8,0-1.5.9,5.4,8.7,10.8,18.3,17.7,25.8ZM222,396.9c-16.2-21.9-20.7-45-27-70.8,0-.3-.3-.3-.3,0,2.7,24.6,8.7,53.1,26.4,71.4.3.6,1.5,0,.9-.6Zm23.7,21.3c.6.3,1.2-.3.6-.9-7.5-7.5-15-14.7-21.3-23.4-.6-.6-1.8,0-1.2.6,6,8.7,12.9,17.7,21.9,23.7Z"
                      />
                    </g>
                  </g>
                </g>
              </svg>