<?xml-stylesheet type="text/css" href="../../../../male-colors.css" ?>
<svg
                width="70"
                height="70"
                id="Layer_1"
                data-name="Layer 1"
                xmlns="http://www.w3.org/2000/svg"
                viewBox="0 0 600 600"
              >
                <defs></defs>
                <g id="svga-group-faceshape-wrap">
                  <g id="svga-group-faceshape-single">
                    <path
                      id="SvgjsPath3885"
                      class="male skin"
                      d="M430.8,246c-3.6-90.3-62.4-139.8-130.8-139.8S172.8,155.7,169.2,246c0,2.7-.3,5.7-.3,8.4,0,95.7,60.6,206.7,131.1,206.7s131.1-111,131.1-206.7a75.85,75.85,0,0,0-.3-8.4Z"
                    />
                    <path
                      id="SvgjsPath3886"
                      class="male face-outline"
                      d="M300,461.1c70.5,0,131.1-111,131.1-206.7a75.85,75.85,0,0,0-.3-8.4c-3.6-90.3-62.4-139.8-130.8-139.8S172.8,155.7,169.2,246c0,2.7-.3,5.7-.3,8.4,0,95.7,60.6,206.7,131.1,206.7ZM198.3,361.5c-4.2-9-8.1-18.3-11.4-27.6a290.87,290.87,0,0,1-8.4-28.8c-9.3-38.7-10.2-81,5.4-118.2l3.3-6.6c1.2-2.1,2.1-4.5,3.3-6.6l3.9-6.3,2.1-3.3a21,21,0,0,1,2.4-3,113.64,113.64,0,0,1,9.6-11.4c1.8-1.8,3.3-3.6,5.1-5.4l5.7-4.8c15.3-12.6,33.6-20.4,52.5-24.3,4.8-1.2,9.6-1.5,14.4-2.1a57.81,57.81,0,0,1,7.2-.3l7.2-.3a157,157,0,0,1,28.8,3.3c2.4.6,4.8.9,6.9,1.5l6.9,2.1,3.6,1.2,3.3,1.5,6.6,2.7c2.1.9,4.2,2.4,6.3,3.3,2.1,1.2,4.5,2.1,6.3,3.6,3.9,2.7,8.4,5.1,12,8.4a124.83,124.83,0,0,1,36,46.5c8.1,18.3,12.3,38.4,13.2,58.8a202.56,202.56,0,0,1-6.6,60,271.57,271.57,0,0,1-21,56.4,264.43,264.43,0,0,1-32.1,49.5,163.78,163.78,0,0,1-20.4,20.4,99.26,99.26,0,0,1-24,14.7,64,64,0,0,1-52.8,0c-17.1-7.2-31.8-20.4-44.1-35.7-12.6-14.1-22.8-31.2-31.2-49.2Z"
                    />
                  </g>
                </g>
              </svg>