<?xml-stylesheet type="text/css" href="../../../../male-colors.css" ?>
<svg
                width="70"
                height="70"
                id="Layer_1"
                data-name="Layer 1"
                xmlns="http://www.w3.org/2000/svg"
                viewBox="0 0 600 600"
              >
                <defs></defs>
                <g id="svga-group-faceshape-wrap">
                  <g id="svga-group-faceshape-single">
                    <path
                      id="SvgjsPath3823"
                      class="male skin"
                      d="M428.1,317.1c-1.5-13.8-1.8-17.1-.3-36.9,1.2-14.7,1.8-30.3,1.8-34.5v-.9c-3.9-89.7-62.1-139.2-129.6-139.2S174.3,155.4,170.7,245.1v.9c0,4.2.6,19.8,1.8,34.5,1.5,19.5,1.2,22.8-.3,36.9-1.5,15.6-6.9,46.5-4.8,59.7,2.7,16.8,8.7,28.5,42.9,48,44.1,25.2,55.2,48,90,48,34.5,0,45.9-22.8,90-48,33.9-19.5,40.2-31.2,42.9-48,1.8-13.5-3.6-44.4-5.1-60Z"
                    />
                    <path
                      id="SvgjsPath3824"
                      class="male face-outline"
                      d="M427.8,280.2c1.2-14.7,1.8-35.4,1.8-35.4-3.9-89.7-62.1-139.2-129.6-139.2S174.3,155.4,170.7,245.1v.9c0,4.2.6,19.8,1.8,34.5,1.5,19.5,1.2,22.8-.3,36.9-1.5,15.6-6.9,46.5-4.8,59.7,2.7,16.8,8.7,28.5,42.9,48,44.1,25.2,55.2,48,90,48,34.5,0,45.9-22.8,90-48,33.9-19.5,40.2-31.2,42.9-48,1.8-13.5-3.6-44.4-5.1-60-1.5-13.8-1.8-17.1-.3-36.9Zm3,80.1a64.9,64.9,0,0,1,.6,13.2,20.89,20.89,0,0,1-1.5,7.5,36.7,36.7,0,0,1-3,7.2,41.14,41.14,0,0,1-9.9,11.7c-7.8,6.9-14.4,12.3-23.7,17.4l-14.7,7.8c-4.8,2.7-9.6,5.7-14.4,8.4-4.8,3-9.3,6-14.1,9-4.5,3-9,6-13.5,8.7-9,5.4-18,9.3-27.6,10.2a83,83,0,0,1-15,.3,73.65,73.65,0,0,1-14.1-3,136.14,136.14,0,0,1-13.5-6.3c-4.5-2.7-8.7-5.7-13.2-8.7-9-6.3-18-12.9-27.9-18.6-2.4-1.5-4.8-3-7.2-4.2l-7.2-4.2c-4.8-2.7-9.3-5.4-13.8-8.4-8.7-5.7-14.1-12.3-18.9-19.8a31.54,31.54,0,0,1-4.5-12.9s-.3-2.7-.3-3.3v-3.6a73.87,73.87,0,0,1,.6-7.8c.9-10.5,2.4-34.2,3-39.9a106.59,106.59,0,0,0,.9-13.8c.3-11.4-1.5-22.5-2.1-33.6l-1.2-16.2-.3-8.4c0-1.2-.3-2.7-.3-3.9l.3-3.9a164.74,164.74,0,0,1,3.9-32.1c4.8-21,13.8-41.4,27.9-57.9,3.6-3.9,7.2-8.1,11.4-11.4l3-2.7a21,21,0,0,1,3-2.4l6.6-4.5c9-5.7,18.6-10.5,29.1-13.2a90.64,90.64,0,0,1,15.6-3.6,77.92,77.92,0,0,1,7.8-.9,68.26,68.26,0,0,1,7.8-.6h7.8a63.35,63.35,0,0,1,7.8.6c5.4.3,10.5,1.5,15.6,2.1,10.2,2.1,20.4,5.1,29.7,9.9,4.8,2.1,9,5.1,13.5,7.5l6.3,4.5,3.3,2.4c1.2.9,2.1,1.8,3,2.4l5.7,5.1c1.8,1.8,3.6,3.9,5.4,5.7,3.9,3.6,6.6,8.1,9.9,12,1.5,2.1,2.7,4.5,4.2,6.6,1.2,2.4,3,4.5,4.2,6.9l3.6,7.2c.6,1.2,3.3,7.2,3.3,7.2l3,7.5c.9,2.4,6.6,23.1,6.6,23.1a96.92,96.92,0,0,1,3.3,24.3V255c0,5.4-.3,11.1-.3,16.5s-.3,11.1-.6,16.5a151.44,151.44,0,0,0-.3,16.5c.3,5.4,1.8,25.5,5.4,55.8Z"
                    />
                  </g>
                </g>
              </svg>