<?xml-stylesheet type="text/css" href="../../../../male-colors.css" ?>
<svg
                width="70"
                height="70"
                id="Layer_1"
                data-name="Layer 1"
                xmlns="http://www.w3.org/2000/svg"
                viewBox="0 0 600 600"
              >
                <defs></defs>
                <g id="svga-group-faceshape-wrap">
                  <g id="svga-group-faceshape-single">
                    <path
                      id="SvgjsPath3929"
                      class="male skin"
                      d="M300,105.9c-67.5,0-127.2,49.5-131.1,139.5v.9c0,7.8,2.1,83.1,10.2,101.7,4.5,10.2,96,124.8,120.6,125.1,24.6,0,116.4-114.9,120.6-125.1,8.1-18.9,10.8-94.2,10.8-101.7v-.9c-3.3-89.7-63.6-139.5-131.1-139.5Z"
                    />
                    <path
                      id="SvgjsPath3930"
                      class="male face-outline"
                      d="M300,105.9c-67.5,0-127.2,49.5-131.1,139.5v.9c0,7.8,2.1,83.1,10.2,101.7,4.5,10.2,96,124.8,120.6,125.1,24.6,0,116.4-114.9,120.6-125.1,8.1-18.9,10.8-94.2,10.8-101.7v-.9c-3.3-89.7-63.6-139.5-131.1-139.5ZM418.8,219a237.85,237.85,0,0,1,2.4,29.1c-.3,10.2-.6,20.4-.9,30.3-.6,10.2-.9,20.4-1.8,30.3s-1.2,33.9-15.3,51.3c-6,8.1-13.8,17.7-20.1,25.5-12.9,15.9-25.8,31.2-39.6,46.2-6.9,7.5-13.8,14.7-21,21.6-3.6,3.3-7.5,6.6-11.4,9.6a26,26,0,0,1-3,2.1c-.9.6-2.1,1.2-3,1.8a17.89,17.89,0,0,1-5.4,2.1c-3.9-.3-10.5-4.5-11.4-5.1a113.76,113.76,0,0,1-12-9,241.67,241.67,0,0,1-22.2-20.7,579,579,0,0,1-40.5-45.6c-6.3-8.1-12.6-15.9-18.6-24.3-3-4.2-6-8.4-8.7-12.6-1.2-2.1-2.7-4.2-3.3-6-.3-1.2-1.5-6.9-1.5-6.9-1.8-9.6-2.1-19.8-2.7-30-.3-10.2-.6-20.4-.6-30.6-.3-10.2,0-20.4-.3-30.6a191.46,191.46,0,0,1,3-29.1c3.3-19.5,9.3-38.4,19.8-55.2a121.5,121.5,0,0,1,42-41.7,119.27,119.27,0,0,1,58.2-15c10.2.6,20.4,1.2,30,3.9a113.67,113.67,0,0,1,27.9,11.4,120.63,120.63,0,0,1,41.7,41.7c9.6,17.1,15.3,36.3,18.3,55.5Z"
                    />
                  </g>
                </g>
              </svg>