<?xml-stylesheet type="text/css" href="../../../../male-colors.css" ?>
 <svg
                width="70"
                height="70"
                id="Layer_1"
                data-name="Layer 1"
                xmlns="http://www.w3.org/2000/svg"
                viewBox="0 0 600 600"
              >
                <defs></defs>
                <g id="svga-group-faceshape-wrap">
                  <g id="svga-group-faceshape-single">
                    <path
                      id="SvgjsPath3915"
                      class="male skin"
                      d="M429.6,318c.3-20.1,0-48-.3-72.3v-.9c-3.9-89.7-62.1-139.2-129.6-139.2S174.3,155.4,170.4,245.1v.9c0,24-.6,51.9-.3,72.3.9,51.3-3.6,55.2,11.1,71.7,6.6,7.5,29.7,28.2,42.3,36.6s33.9,45,48.3,45c15.9,0,19.5-4.2,27.9-4.2s12,4.2,27.9,4.2c14.4,0,35.7-36.6,48.3-45s35.7-29.1,42.3-36.6c15-16.8,10.5-20.7,11.4-72Z"
                    />
                    <path
                      id="SvgjsPath3916"
                      class="male face-outline"
                      d="M271.8,471.6c15.9,0,19.5-4.2,27.9-4.2s12,4.2,27.9,4.2c14.4,0,35.7-36.6,48.3-45s35.7-29.1,42.3-36.6c15-16.8,10.5-20.7,11.4-72,.3-20.1,0-48-.3-72.3v-.9c-3.9-89.7-62.1-139.2-129.6-139.2S174.3,155.4,170.4,245.1v.9c0,24-.6,51.9-.3,72.3.9,51.3-3.6,55.2,11.1,71.7,6.6,7.5,29.7,28.2,42.3,36.6S257.4,471.6,271.8,471.6Zm-90.6-93.3c-2.4-3.6-3.3-7.2-3.9-12-.3-4.8-.6-10.2-.6-15.6,0-10.8-.3-21.6-.6-32.4-.3-21.6-1.2-36.9-1.8-58.5,0-5.4-.3-10.8-.3-15.9.3-5.1.6-10.5.9-15.9.9-5.1,1.2-10.5,2.4-15.6l1.8-7.8a75.13,75.13,0,0,1,2.1-7.8c6.3-20.1,17.1-39.3,32.4-54,15.3-14.4,34.5-24.9,54.9-29.1,33.3-7.5,52.2-1.8,62.1,1.2,20.4,6,37.5,16.8,52.2,30.6,14.7,14.1,25.8,32.1,33.3,51.6a55.23,55.23,0,0,1,2.7,7.5l2.4,7.5c1.5,5.1,2.4,10.2,3.6,15.6.9,5.1,1.5,10.5,2.1,15.6s.6,10.8.9,16.2c.9,21.6,1.5,37.2,1.5,58.5-.3,10.8-.3,21.6-.3,32.4,0,5.4-.3,10.8-.6,15.9a32.81,32.81,0,0,1-4.8,14.4c-6,8.4-14.4,15-22.8,21.9-8.4,6.6-16.8,13.2-25.5,18.9,0,0-6.3,4.5-7.5,5.7-2.1,2.1-4.2,3.9-6,6-3.9,3.9-7.5,8.1-11.1,12s-7.2,7.8-10.8,11.4c-1.8,1.8-3.6,3.3-5.4,4.8s-4.5,5.1-24.3.3a33.42,33.42,0,0,0-19.8,0c-2.7.6-11.7,2.4-14.1,2.4-1.2,0-4.8.3-9.6-3.3-5.1-3.6-12.3-12.3-15.6-16.5s-6.9-8.4-10.5-12.6c-1.8-2.1-3.9-4.2-6-6.3-1.2-1.2-7.5-6-7.5-6-8.4-5.7-16.5-12.6-24.6-19.5-8.1-7.2-16.5-14.1-21.3-21.6Z"
                    />
                  </g>
                </g>
              </svg>