<?xml-stylesheet type="text/css" href="../../../../male-colors.css" ?>
 <svg
                width="70"
                height="70"
                id="Layer_1"
                data-name="Layer 1"
                xmlns="http://www.w3.org/2000/svg"
                viewBox="0 0 600 600"
              >
                <defs></defs>
                <g id="svga-group-faceshape-wrap">
                  <g id="svga-group-faceshape-single">
                    <path
                      id="SvgjsPath3899"
                      class="male skin"
                      d="M429.3,246v-.9c-3.9-89.7-62.1-139.2-129.6-139.2S174,155.1,170.1,245.1v.9c0,6.6-1.2,56.4,4.2,75.9,6,21,23.1,42.3,33.6,57s36.3,56.1,40.8,63.9,28.5,17.7,50.4,17.7c22.2,0,45.9-9.9,50.4-17.7s30.3-49.2,40.8-63.9,27.6-36,33.6-57C430.5,302.4,429.6,252.3,429.3,246Z"
                    />
                    <path
                      id="SvgjsPath3900"
                      class="male face-outline"
                      d="M349.5,442.8c4.5-7.8,30.3-49.2,40.8-63.9s27.6-36,33.6-57c6.6-19.5,5.7-69.6,5.4-75.9v-.9c-3.9-89.7-62.1-139.2-129.6-139.2S174,155.1,170.1,245.1v.9c0,6.6-1.2,56.4,4.2,75.9,6,21,23.1,42.3,33.6,57s36.3,56.1,40.8,63.9,28.5,17.7,50.4,17.7C321.3,460.5,345,450.6,349.5,442.8Zm-89.1,0a19.42,19.42,0,0,1-4.5-3.3c-.3,0-1.8-3-3.3-5.1-5.1-8.7-10.5-14.4-15.9-23.1s-10.8-17.4-16.5-26.1c-2.7-4.2-6-8.7-9-12.9l-9.3-12a251.52,251.52,0,0,1-16.5-24.6,74.45,74.45,0,0,1-6-13.2,97,97,0,0,1-3.3-14.1c-1.5-9.9-2.1-20.1-2.7-30-.3-5.1-.6-10.2-.6-15.3l-.3-15.3c.3-20.1,3.6-40.2,11.1-58.8a16.91,16.91,0,0,0,1.2-3.6l1.8-3.3,3.3-6.6c.9-2.4,2.7-4.2,3.9-6.3s2.7-4.2,3.9-6.3c6-7.8,12.3-15.6,20.1-21.9,1.8-1.5,3.6-3.3,5.7-4.8l6-4.2,3-2.1,3.3-1.8,6.3-3.6c2.1-1.2,4.5-1.8,6.6-3,2.4-.9,4.5-2.1,6.9-2.7a108.49,108.49,0,0,1,14.1-3.9,61.44,61.44,0,0,1,7.2-1.5l7.2-.9,3.6-.3h3.6l7.2-.3c2.4,0,4.8.3,7.2.3,2.4.3,4.8,0,7.2.6,4.8.9,9.6.9,14.4,2.4l7.2,1.5,6.9,2.1c4.8,1.2,9,3.6,13.5,5.4,2.4.9,4.2,2.4,6.3,3.3,2.1,1.2,4.5,2.1,6.3,3.6,3.9,2.7,8.4,5.1,12,8.4a125.84,125.84,0,0,1,36,46.8c8.1,18.3,12.3,38.7,13.2,58.8.3,20.4-.3,40.8-3.6,60.6-.9,4.8-1.8,9.9-3.6,14.4a77.22,77.22,0,0,1-6,13.5c-4.8,8.7-10.8,16.8-16.8,24.6l-9.6,12c-3.3,3.9-6.3,8.4-9.3,12.6s-5.7,8.4-8.7,12.9l-8.4,12.9c-5.4,8.7-10.8,14.4-15.9,23.1l-3.9,6.3a8.25,8.25,0,0,1-3.3,2.7,63.5,63.5,0,0,1-12,5.7c-8.7,3-18.3,5.1-27.3,5.1a94.2,94.2,0,0,1-27.3-4.2,33.15,33.15,0,0,1-12.6-4.5Z"
                    />
                  </g>
                </g>
              </svg>