<?xml-stylesheet type="text/css" href="../../../../male-colors.css" ?>
<svg
                width="70"
                height="70"
                id="Layer_1"
                data-name="Layer 1"
                xmlns="http://www.w3.org/2000/svg"
                viewBox="0 0 600 600"
              >
                <defs></defs>
                <g id="svga-group-faceshape-wrap">
                  <g id="svga-group-faceshape-single">
                    <path
                      id="SvgjsPath3943"
                      class="male skin"
                      d="M430.8,246v-.9c-3.9-89.7-63.3-139.2-130.8-139.2S173.1,155.4,169.2,245.1v.9c0,7.2.9,67.8,11.1,98.1,10.8,32.4,26.7,44.7,48.6,64.2,22.2,19.5,28.5,42.6,34.5,49.8s26.7,7.2,36.6,4.5c9.9,2.7,30.6,2.7,36.6-4.5s12.3-30.6,34.5-49.8c22.2-19.5,37.8-31.8,48.6-64.2,9.9-30.3,11.1-90.9,11.1-98.1Z"
                    />
                    <path
                      id="SvgjsPath3944"
                      class="male face-outline"
                      d="M336.6,458.1c6-7.2,12.3-30.6,34.5-49.8,22.2-19.5,37.8-31.8,48.6-64.2,9.9-30.3,11.1-90.9,11.1-98.1v-.9c-3.9-89.7-63.3-139.2-130.8-139.2S173.1,155.4,169.2,245.1v.9c0,7.2.9,67.8,11.1,98.1,10.8,32.4,26.7,44.7,48.6,64.2,22.2,19.5,28.5,42.6,34.5,49.8s26.7,7.2,36.6,4.5C309.9,465.3,330.6,465.3,336.6,458.1Zm-34.5-3.3-2.1-.6-2.1.6c-5.4,1.5-12.6,1.8-18.9,1.2-3-.3-7.8-.3-12-6.6-3.3-6-6.6-13.2-10.8-19.5C247.2,414,225,396,225,396c-5.4-4.8-10.8-9.6-15.9-14.4-4.8-5.1-9.3-10.2-12.9-16.2-3.6-5.7-14.4-18-19.5-60-6.6-57-1.8-80.4-1.8-80.4,7.2-43.5,24.6-67.5,40.2-81.9,0,0,8.7-10.5,36.3-21.9a128.57,128.57,0,0,1,40.8-8.4c26.4-1.5,41.7,4.5,41.7,4.5,27.6,8.1,51.6,23.7,68.4,46.8l6,9c1.8,3,3.3,6.3,5.1,9.6s9,16.5,13.2,41.4c.3,1.8,1.5,12,1.5,12,.3,3.9.6,10.5.6,14.4-.3,21.9-1.8,43.5-5.7,64.8-2.1,11.4-4.8,22.5-9.3,33a98.37,98.37,0,0,1-18,28.2c-7.5,8.1-16.2,15.3-25.2,22.8A167.14,167.14,0,0,0,357,411.6a87.89,87.89,0,0,0-11.4,14.7,166.22,166.22,0,0,0-9,15.9c-1.5,2.7-2.7,5.1-3.9,7.5-3.9,7.2-13.2,6.6-15.9,6.6-4.8,0-10.5-.3-14.7-1.5Z"
                    />
                  </g>
                </g>
              </svg>