<?xml-stylesheet type="text/css" href="../../../male-colors.css" ?>
<svg
                width="70"
                height="70"
                style="transform: scale(4) translateY(-10px)"
                id="Layer_1"
                data-name="Layer 1"
                xmlns="http://www.w3.org/2000/svg"
                viewBox="0 0 600 600"
              >
                <g id="svga-group-mouth-single-move">
                  <g id="svga-group-mouth-single">
                    <path
                      id="SvgjsPath6296"
                      class="male upperLips"
                      d="M268.26,393.19S268,380.91,289.36,374a2.46,2.46,0,0,1,2.53.63,11,11,0,0,0,6.92,2.52c3.78,0,6-1.58,6.93-2.84a3.27,3.27,0,0,1,2.52-1.26c2.53,0,8.83,1.26,14.49,5,8.19,5.67,10.08,11.34,11,15.75,0,0-6.61,1.26-12-1.57-5-2.84-11.34-3.15-15.12-3.47s-14.49-.63-15.12-.31c-.63,0-16.07,2.83-17,3.78s-6.3.94-6.3.94Z"
                    />
                    <path
                      id="SvgjsPath6297"
                      class="male lips"
                      d="M269.52,395.71s5,10.08,6.93,12.6c2.2,2.52,6.93,4.41,21.42,4.41s24.57-.31,27.72-2.2,7.25-15.12,6.93-16.7A131,131,0,0,1,317.09,390c-6.62-2.2-21.11-4.41-31.19-1.26A82.83,82.83,0,0,0,269.52,395.71Z"
                    />
                    <path
                      id="SvgjsPath6298"
                      class="male lips-outline"
                      d="M261.33,391c1.89,2.83,4.41,3.78,7.24,5.67a2.74,2.74,0,0,0,2.21,0c8.82-5.36,15.43-7.56,29.61-6.93A66.35,66.35,0,0,1,318,392.56c7.56,2.84,22.36,8.82,25.51-3.46a1.45,1.45,0,0,0-2.52-1.26c-6.3,6.61-13.54,4.41-21.42,1.57-4.72-2.2-12.6-2.52-19.21-2.52-6.3-.31-12.92-.63-18.59.95a43.34,43.34,0,0,0-8.82,3.78c-4.09,2.2-6.3.63-10.08-2.21a1.26,1.26,0,0,0-1.57,1.58Z"
                    />
                  </g>
                </g>
              </svg>