<?xml-stylesheet type="text/css" href="../../../male-colors.css" ?>
<svg
                width="70"
                height="70"
                style="transform: scale(4) translateY(-10px)"
                id="Layer_1"
                data-name="Layer 1"
                xmlns="http://www.w3.org/2000/svg"
                viewBox="0 0 600 600"
              >
                <g id="svga-group-mouth-single-move">
                  <g id="svga-group-mouth-single">
                    <path
                      id="SvgjsPath6007"
                      class="male lips"
                      d="M264.35,391.3s22.31-16.95,26.12-17.2c2-.12,10.33,4.32,10.33,4.32s7.84-3.88,10.17-3.85c4.48,0,24.86,19.35,28.51,22.05,0,0-10.9,1.61-14.27-.53s-15.34-3.37-18.68-4.85-17.07-.54-24.19.66-15.47,1-18-.6Z"
                    />
                    <path
                      id="SvgjsPath6008"
                      class="male lips-outline"
                      d="M258.68,392.5c13.17,5.86,28.17-.76,41.87-.47,8.22.18,15.72,3.55,23.59,5.48,5.61,1.35,12.54,2.8,17.67-.48.6-.37,2.9-1.85,2.24-1.92-4.69,1.36-10.11.51-13.92-.22a87.39,87.39,0,0,1-9.86-2.8c-6.11-1.92-12.26-4-18.71-4.19-14.56-.47-30.72,5.51-45.46,2.11C255.31,389.82,257.83,392.15,258.68,392.5Z"
                    />
                    <path
                      id="SvgjsPath6009"
                      class="male face-outline"
                      d="M273.87,404.94c3,4.6,5.57,8.13,11.21,10.52,5.1,2.21,11.62.66,17,.73,4.95,0,10.3,1.44,15.06-.19,5.29-1.83,6.8-5.52,10.14-9.2,1.33-2.05,3.31-5.77,2.18-4.79-3.41,3-9.61,8.57-14.34,9.86-4,1.1-8.19.09-12.34,0s-8.35.72-12.48.35c-8-.73-14.33-8.76-19.81-13-.51-.44,1.29,2.67,1.67,3.24l1.67,2.49Z"
                    />
                  </g>
                </g>
              </svg>