<?xml-stylesheet type="text/css" href="../../../../male-colors.css" ?>
<svg
                width="70"
                height="70"
                style="transform: scale(4) translateY(-10px)"
                id="Layer_1"
                data-name="Layer 1"
                xmlns="http://www.w3.org/2000/svg"
                viewBox="0 0 600 600"
              >
                <g id="svga-group-mouth-single-move">
                  <g id="svga-group-mouth-single">
                    <path
                      id="SvgjsPath3520"
                      class="male lips"
                      d="M259.86,388.65A46.88,46.88,0,0,0,276.72,401c10.71,4.59,40.38,13.11,68.76-12,0,0-5.49-3-12.75-7.77s-11.37-7.17-17.61-8.13-9.69,1.74-13.8,1.92-8.64-2.4-13.53-2c-10.74.9-28.08,13.5-28.08,13.5l.15,2.1Z"
                    />
                    <path
                      id="SvgjsPath3521"
                      class="male lips-outline"
                      d="M257.7,388.08c5.79,4.05,11.85,2.4,18.18.6a26.23,26.23,0,0,1,9.09-1.2c4.2.15,4.95,1,8.31,2.46a13.63,13.63,0,0,0,7.65,1.44c3.21-.45,5.67-2.46,8.67-3.57,7-2.61,12.51.63,19,2.58,6.18,1.83,13,3,18.54-.93a1.41,1.41,0,0,0-1.41-2.43c-8.58,3.69-16.86-.78-25.35-2-6.69-1-10.47,1.38-16.92,2.43-7.35,1.2-13.44-3.06-20.76-3.09-7.83-.06-15.51,4.8-22.86,0-2.34-1.59-4.44,2.13-2.19,3.72Z"
                    />
                  </g>
                </g>
              </svg>