<?xml-stylesheet type="text/css" href="../../../../male-colors.css" ?>
<svg
                width="70"
                height="70"
                style="transform: scale(4) translateY(-10px)"
                id="Layer_1"
                data-name="Layer 1"
                xmlns="http://www.w3.org/2000/svg"
                viewBox="0 0 600 600"
              >
                <g id="svga-group-mouth-single-move">
                  <g id="svga-group-mouth-single">
                    <path
                      id="SvgjsPath6531"
                      class="male inner-mouth"
                      d="M250.08,370.45s.07,7.87,3.5,13.73a228.07,228.07,0,0,0,31.19,26.46c.59.44,26,3.66,32.63,1.29,0,0,26.33-16.35,32.1-28.72,0,0,2.08-6.12,1.29-10.31,0,0-20,5.55-29.39,6.93S288,379.83,276,378a101.84,101.84,0,0,1-25.93-7.59Z"
                    />
                    <path
                      id="SvgjsPath6532"
                      class="male teeth"
                      d="M321.34,379.8c-9.42,1.42-33.46,0-45.39-1.79a101.91,101.91,0,0,1-25.9-7.59s.07,7.87,3.5,13.73l.6.6a62.25,62.25,0,0,0,19.53,9.42c15.91,4.28,47.78,6,69.74-6.05,1.83-1,3.43-2,4.94-3a12.41,12.41,0,0,0,1.08-2s2.07-6.11,1.29-10.3c0,.06-20,5.64-29.39,7Z"
                    />
                    <path
                      id="SvgjsPath6533"
                      class="male lips"
                      d="M352.33,372a1,1,0,0,0-.88-1.51c-5.38,1.64-8.69,2.3-12.85,3.43-3.72,1-28.7,3.19-37.45,3.12-28.89-.63-42.18-5.26-50.72-7.56-.69-.19-1.39.57-1.07,1.07-.66,4,3.34,14,3.34,14,7.59,10.46,19.37,19.53,30.24,26.62,7.72,5,29.07,4.19,34.3,2.39,7.44-2.8,15.06-10,20-14.74A114.28,114.28,0,0,0,350.6,382.8a14,14,0,0,0,1.8-4.67c.41-1.63.94-4.34-.07-6.11ZM334.88,398.1a63.28,63.28,0,0,1-18.33,11.41,144.32,144.32,0,0,1-18,.6A111.59,111.59,0,0,1,285,408.59a87,87,0,0,1-16.56-11.12c-5-4.22-11.09-9.19-14.37-13.92a18.09,18.09,0,0,1-2.71-11.72c14.81,7.78,33.64,11.15,50.15,11.28a128.19,128.19,0,0,0,26.46-2.9c6.71-1.35,15.88-2.8,22.05-6.55-.09,1-.06,2.08-.22,3.06C349.47,378.48,350.48,383.87,334.88,398.1Z"
                    />
                  </g>
                </g>
              </svg>