<?xml-stylesheet type="text/css" href="../../../../female-colors.css" ?>
<svg
  width="70"
  height="70"
  id="Layer_1"
  data-name="Layer 1"
  xmlns="http://www.w3.org/2000/svg"
  viewBox="0 0 600 600"
>
  <g id="svga-group-faceshape-wrap">
    <g id="svga-group-faceshape-single">
      <path
        id="SvgjsPath5904"
        class="female skin"
        d="M420.39,292.14c2.4-15.6,2-35.94,2-35.94-3.6-85.5-58.65-131-122.55-131s-118,45.75-121.65,131c0,0,.18,20.34,2.28,35.94,2.1,14.7,4.62,27.9,5.52,38.4s-1.35,45.78-.75,53.58,5.88,15.09,38,34.59c36.6,22.2,55.95,41.61,76.65,41.61s40.5-19,77.1-41.16c31.8-19.2,38.28-28.38,38.88-36.18s-1.65-41.79-.75-52.29S418.29,306.84,420.39,292.14Z"
      />
      <path
        id="SvgjsPath5905"
        class="female face-outline"
        d="M300,123.9c-64.2,0-119.4,46.8-123,132.3,0,0,0,20.7,2.1,36.3,2.1,14.7,4.2,27,5.1,37.5s-1.5,46.2-.9,54,7.2,16.8,39.3,36.3c36.6,22.2,56.7,41.4,77.4,41.4s40.8-19.2,77.4-41.4c31.8-19.2,38.7-28.5,39.3-36.3s-1.8-43.5-.9-54,3-22.8,5.1-37.5c2.4-15.6,2.1-36.3,2.1-36.3-3.6-85.2-58.8-132.3-123-132.3ZM417.36,308.13c-.9,4.89-1.32,9.75-2.22,14.94-.3,2.46-.84,14.07-1.14,16.5-.3,5.22-.3,10.11-.3,15v15c0,3.72.6,10.95.75,14.94A13.48,13.48,0,0,1,413.1,390a27.22,27.22,0,0,1-4.2,5.58,60.83,60.83,0,0,1-10.5,8.88,290.15,290.15,0,0,1-24.9,15.33c-4.5,2.46-8.7,5.22-12.9,7.65-4.2,2.76-8.4,5.22-12.6,7.95l-12.3,7.95c-4.2,2.76-8.1,5.22-12.3,7.65a73.54,73.54,0,0,1-12.3,5.82,26.19,26.19,0,0,1-11.7,1.83,40.45,40.45,0,0,1-11.7-2.76,113.24,113.24,0,0,1-12-6.12c-4.2-2.46-8.1-5.22-12.3-7.65l-12.3-8.28c-8.4-5.52-16.8-11-25.2-16.23-4.2-2.46-8.4-5.22-12.3-7.65-3.9-2.76-8.1-5.52-11.7-8.28-1.8-1.53-3.6-3.06-5.1-4.59a58.3,58.3,0,0,1-4.2-4.59c-1.2-1.53-2.79-5.61-2.85-10.14,0-2.28.06-4.62.21-7l.54-23c0-5.31,0-10.32-.3-15.63,0,0-1.5-13.17-2.1-15.63-.9-4.89-1.8-10.11-2.7-15l-1.2-7.35c-.3-2.46-.9-4.89-1.2-7.35-.9-4.89-1.2-9.81-1.8-14.7a122.11,122.11,0,0,1-.9-15v-7.35c0-2.37.21-6.21.42-8.58.18-2,.21-4.08.48-6.15l.9-7.35a139.42,139.42,0,0,1,20.7-55.14A111,111,0,0,1,222,155.1a113.89,113.89,0,0,1,24-15.93l6.6-2.76,6.6-2.46,6.33-2c1.23-.33,12.27-2.61,14.67-2.91,1.2,0,7.2-.6,7.2-.6h14.4a119.28,119.28,0,0,1,27.6,4c2.1.6,4.5,1.23,6.6,1.83,1.2.3,6.6,2.46,6.6,2.46a56.08,56.08,0,0,1,6.6,2.76l4.5,2.46s17.4,10.71,24.3,17.16c.9.93,1.8,1.53,2.7,2.46l7.2,7.65c.9.93,1.5,1.83,2.4,2.76.6.93,4.5,5.52,4.5,5.52l2.1,3.06c11.1,15.93,18.6,34.62,22.5,53.91l1.2,7.35.9,7.35c.33,2.7-.51,29.34-.51,29.34s-2.73,24.42-3.63,29.61Z"
      />
    </g>
  </g>
</svg>
