<?xml-stylesheet type="text/css" href="../../../../female-colors.css" ?>
<svg
  id="Layer_1"
  data-name="Layer 1"
  xmlns="http://www.w3.org/2000/svg"
  viewBox="0 0 600 600"
>
  <g id="svga-group-faceshape-wrap">
    <g id="svga-group-faceshape-single">
      <path
        id="SvgjsPath4107"
        class="female skin"
        d="M423,265.2c0,90.9-56.7,195.6-123,195.6S177,356.1,177,265.2s56.7-141,123-141,123,49.8,123,141Z"
      />
      <path
        id="SvgjsPath4108"
        class="female face-outline"
        d="M300,123.9c-66.3,0-123.3,50.1-123.3,141s57,196.5,123.3,196.5S423.3,355.8,423.3,264.9s-57-141-123.3-141Zm84.6,40.8,2.4,2.4c.9.9,1.5,1.8,2.4,2.7s1.5,1.8,2.4,2.7l2.1,2.7c.6.9,1.5,1.8,2.1,2.7l2.1,3,.9,1.5.9,1.5c1.2,2.1,2.7,3.9,3.6,6l1.8,3a14,14,0,0,1,1.5,3l1.5,3.3,1.5,3.3c.6,1.2.9,2.1,1.5,3.3l1.2,3.3c6.9,17.7,9.6,37.2,9.9,56.1a212,212,0,0,1-7.8,56.7,204.63,204.63,0,0,1-9.3,27c-3.6,8.7-7.5,17.4-12,25.8S384,391.2,378.9,399c-2.7,3.9-5.4,7.8-8.1,11.4s-5.7,7.2-9,10.8a149.91,149.91,0,0,1-20.1,18.9A89.27,89.27,0,0,1,318.3,453a47.51,47.51,0,0,1-12.9,3,64.75,64.75,0,0,1-13.2.3c-9-.6-17.7-3.6-25.8-7.8a108.78,108.78,0,0,1-22.8-16.2A143.12,143.12,0,0,1,224.7,411a171.08,171.08,0,0,1-15-24.3A203.69,203.69,0,0,1,198,360.6c-1.8-4.5-3.3-9-4.8-13.5s-2.7-9-3.9-13.8a228.7,228.7,0,0,1-5.4-27.9c-1.2-9.3-2.1-18.9-2.4-28.2,0-4.8,0-9.3.3-14.1,0-2.4.3-4.8.3-6.9l.6-6.9a162.53,162.53,0,0,1,5.1-27.3,126.62,126.62,0,0,1,9.6-25.8,27.88,27.88,0,0,1,1.5-3l1.5-3c1.2-2.1,2.4-3.9,3.6-6a64.24,64.24,0,0,1,3.9-5.7l2.1-2.7.9-1.5,1.2-1.2a105.65,105.65,0,0,1,19.5-18.9A113.09,113.09,0,0,1,255,140.7a115,115,0,0,1,25.8-7.5,49.81,49.81,0,0,1,6.6-.9,13.45,13.45,0,0,1,3.3-.3l3.3-.3c2.4,0,4.5-.3,6.9-.3h6.9l3.3.3c1.2,0,2.4.3,3.3.3,1.2,0,2.4.3,3.3.3l3.3.6,1.8.3,1.8.3,3.3.6c1.2.3,2.1.6,3.3.9s2.1.6,3.3.9a109.92,109.92,0,0,1,12.9,4.5,93.2,93.2,0,0,1,12.3,6,108.11,108.11,0,0,1,22.2,16.2l1.2,1.2,1.5.9Z"
      />
    </g>
  </g>
</svg>
