<?xml-stylesheet type="text/css" href="../../../../female-colors.css" ?>
<svg
  id="Layer_1"
  data-name="Layer 1"
  xmlns="http://www.w3.org/2000/svg"
  viewBox="0 0 600 600"
>
  <defs>
    <style>
      .skin {
        fill: #f3d4cf;
      }
      .face-outline {
        fill: #c5796e;
      }
    </style>
  </defs>
  <g id="svga-group-faceshape-wrap">
    <g id="svga-group-faceshape-single">
      <path
        id="SvgjsPath4154"
        class="female skin"
        d="M300,124.08c-64.2,0-119.43,46.62-123,132.12,0,0,.6,62.4,8.4,104.4,4.5,24,12,35.1,31.5,51C236.4,427.8,273,458.52,300,458.52S363.6,427.8,383.1,411.6s27-27,31.5-51c7.8-42,8.4-104.4,8.4-104.4-3.6-85.2-58.77-132.12-123-132.12Z"
      />
      <path
        id="SvgjsPath4155"
        class="female face-outline"
        d="M300,123.9c-64.2,0-119.4,46.8-123,132.3,0,0,.6,62.4,8.4,104.4,4.5,24,12,35.1,31.5,51C236.4,427.8,273,459,300,459s63.6-31.2,83.1-47.4,27-27,31.5-51c7.8-42,8.4-104.4,8.4-104.4-3.6-85.2-58.8-132.3-123-132.3Zm106.5,79.8c.6,2.1,1.5,4.5,2.1,6.6l.9,3.3c.3,1.2.6,2.4.9,3.3l.9,3.3.6,3.3.6,3.3.6,3.3.6,3.3.3,3.6.3,3.6c0,1.2.3,2.4.3,3.6.3,2.4.3,4.8.6,6.9l.3,3.3V258c-.3,9.6-.6,19.2-1.2,28.8-.9,19.2-2.4,38.4-4.8,57.3l-.9,7.2-1.2,6.9c-.9,4.5-1.8,9-3,13.2a59,59,0,0,1-4.8,12,61.36,61.36,0,0,1-7.5,10.5,100.24,100.24,0,0,1-9.9,9.6c-3.6,3-7.2,6.3-10.8,9.3-7.2,6.3-14.7,12.3-22.2,18a101.77,101.77,0,0,1-11.7,8.1,97.73,97.73,0,0,1-12,7.2,116.7,116.7,0,0,1-12.6,5.7,49.51,49.51,0,0,1-12.9,2.7,51.69,51.69,0,0,1-13.2-1.8,79.64,79.64,0,0,1-13.2-5.1c-4.2-2.1-8.4-4.2-12.6-6.6s-8.1-5.1-12-7.8-7.8-5.7-11.7-8.4c-3.9-3-7.5-6-11.4-9-7.5-6.3-15-12-21.3-19.2-3-3.6-6-7.2-8.1-11.4a67.89,67.89,0,0,1-5.1-12.9,112,112,0,0,1-2.7-13.8l-.9-7.2-.6-7.2c-1.8-19.2-2.4-38.4-3-57.6l-.3-14.4-.3-14.4v-3.6l.3-3.3a53.56,53.56,0,0,1,.6-6.9c0-1.2.3-2.4.3-3.6l.6-3.6.6-3.6.6-3.3.6-3.3.6-3.3.6-3.3.9-3.3c.3-1.2.6-2.4.9-3.3l.9-3.3c.6-2.1,1.5-4.5,2.1-6.6a128.29,128.29,0,0,1,11.7-25.2A112.23,112.23,0,0,1,222,156a107.26,107.26,0,0,1,22.5-17.4,102.54,102.54,0,0,1,12.9-6.3,58.36,58.36,0,0,1,6.6-2.4c1.2-.3,2.4-.6,3.3-.9l3.6-.9,3.6-.9,1.8-.3,1.8-.3,3.9-.6c1.2-.3,2.4-.3,3.6-.6a115.65,115.65,0,0,1,28.8,0c1.2.3,2.4.3,3.6.6l3.6.6,1.8.3,1.8.3,3.6.9,3.6.9c1.2.3,2.4.6,3.3.9,2.4.9,4.5,1.5,6.6,2.4a102.54,102.54,0,0,1,12.9,6.3A98.14,98.14,0,0,1,377.7,156a112.23,112.23,0,0,1,17.1,22.2,149.29,149.29,0,0,1,11.7,25.5Z"
      />
    </g>
  </g>
</svg>
