<?xml-stylesheet type="text/css" href="../../../../female-colors.css" ?>
<svg
  width="70"
  height="70"
  style="transform: scale(4) translateY(-10px)"
  id="Layer_1"
  data-name="Layer 1"
  xmlns="http://www.w3.org/2000/svg"
  viewBox="0 0 600 600"
>
  <g id="svga-group-mouth-single-move">
    <g id="svga-group-mouth-single">
      <path
        id="SvgjsPath6219"
        class="female lips"
        d="M267.3,391.5a12.06,12.06,0,0,1,3.9,4.5c1.5,2.7,3,13.5,8.4,15.6S294,411,300,411a46.74,46.74,0,0,1,15.3,2.7c3,1.2,8.7.6,11.1-2.1a27.7,27.7,0,0,0,6-15c.3-6,3.3-6,3.3-6s-33.9,3.6-34.5,3.3c-.3,0-24.6-2.4-24.6-2.4Z"
      />
      <path
        id="SvgjsPath6220"
        class="female upperLips"
        d="M261.9,387.6c-.3,1.2,1.8,3.3,5.1,4.8,2.4,1.2,21.6,3.9,25.2,4.5s8.4,2.1,15,.3,17.1-3.3,21.3-3.9c4.2-.3,10.2-2.7,10.8-4.2.6-1.2,0-3-2.1-2.4s-3.9,2.1-6,2.1-8.7-3.6-12.3-7.2c-3.6-3.3-8.7-3-13.5-.9-5.1,2.1-7.8.6-14.1-1.8-5.7-2.1-11.4,5.1-15.9,7.2-4.2,2.1-6.9,2.4-8.1,1.5-1.5-.9-4.8-3-5.4,0Z"
      />
      <path
        id="SvgjsPath6221"
        class="female lips-details"
        d="M296.1,396a13.78,13.78,0,0,0,11.4-.3c3-1.2,6.6-3.6,6.9-6.9,0-.6-.6-.9-1.2-.6-2.7,1.2-4.2,3.9-7.2,5.1a22.61,22.61,0,0,1-9.9,2.1c-.3,0-.3.3,0,.6Z"
      />
    </g>
  </g>
</svg>
