<?xml-stylesheet type="text/css" href="../../../../female-colors.css" ?>
<svg
  width="70"
  height="70"
  style="transform: scale(4) translateY(-10px)"
  id="Layer_1"
  data-name="Layer 1"
  xmlns="http://www.w3.org/2000/svg"
  viewBox="0 0 600 600"
>
  <g id="svga-group-mouth-single-move">
    <g id="svga-group-mouth-single">
      <path
        id="SvgjsPath5779"
        class="female lips"
        d="M285.6,409.8c11.1,5.7,16.2,4.5,21.6,3.9s18.6-7.5,27-15.6c8.1-8.1,9.6-12.6,9.6-12.6-7.5-1.5-28.8-7.8-32.1-7.2-2.4.3-8.7,5.7-10.8,5.7s-9.3-4.5-11.7-4.8c-2.7-.3-6.9,1.2-13.2,3.3s-18,3.3-18,3.3,16.5,18.3,27.6,24Z"
      />
      <path
        id="SvgjsPath5780"
        class="female lips-outline"
        d="M256.5,386.1a236,236,0,0,0,45.6,6.9c5.4.3,11.1-.9,16.5-1.8,9-1.5,18.9-2.4,27.6-5.4.9-.3.9-2.1-.3-1.8-14.4,1.8-29.1,7.2-43.8,6.6-15.3-.6-30.3-4.2-45.6-5.7C255.9,385.2,255.9,386.1,256.5,386.1Z"
      />
    </g>
  </g>
</svg>
