<?xml-stylesheet type="text/css" href="../../../../female-colors.css" ?>
<svg
  width="70"
  height="70"
  style="transform: scale(4) translateY(-10px)"
  id="Layer_1"
  data-name="Layer 1"
  xmlns="http://www.w3.org/2000/svg"
  viewBox="0 0 600 600"
>
  <g id="svga-group-mouth-single-move">
    <g id="svga-group-mouth-single">
      <path
        id="SvgjsPath4716"
        class="female lips"
        d="M261.9,392.7s8.7-2.4,14.1-4.5,11.7-3.9,15.3-2.7,8.7,4.5,11.1,4.5c2.4-.3,6.6-2.7,9.9-3.9s9.6-.3,17.4,3a81.7,81.7,0,0,0,13.5,4.5s-18.6,12.9-25.5,15.3c-5.1,1.8-24.3.3-29.1-.3s-16.5-7.8-20.1-10.5-6.6-5.4-6.6-5.4Z"
      />
      <path
        id="SvgjsPath4717"
        class="female lips-outline"
        d="M255.3,393c6.3,3.6,13.5,3,20.4,2.1,5.1-.6,9.9-.9,14.7,1.2,3,1.2,5.7,3.6,9,4.2,6.3.9,12-4.8,18-6,9.3-1.5,19.2.6,28.5.3,3,0,2.4-4.5-.6-4.2-8.1,1.2-16.2-.6-24.3.6s-16.8,9.6-24.9,6.3c-5.7-2.4-9.6-5.1-16.2-5.7-8.1-.9-15.9,0-23.7-2.1-1.5-.3-2.4,2.4-.9,3.3Z"
      />
      <path
        id="SvgjsPath4718"
        class="female lips-details"
        d="M331.2,397.8c-3.9,2.1-7.5,4.5-11.7,6a70.18,70.18,0,0,1-11.4,2.7c-.6,0-.3.9,0,.9,8.4.6,18-2.4,24-8.4.3-.6-.3-1.5-.9-1.2Z"
      />
      <path
        id="SvgjsPath4719"
        class="female lips-details"
        d="M311.7,388.5a29.16,29.16,0,0,1,10.2.3c.6,0,.6-.6.3-.9-3.3-1.8-7.2-1.5-10.5-.3C310.8,387.6,311.1,388.5,311.7,388.5Z"
      />
    </g>
  </g>
</svg>
