<?xml-stylesheet type="text/css" href="../../../../female-colors.css" ?>
<svg
  width="70"
  height="70"
  style="transform: scale(4) translateY(-10px)"
  id="Layer_1"
  data-name="Layer 1"
  xmlns="http://www.w3.org/2000/svg"
  viewBox="0 0 600 600"
>
  <g id="svga-group-mouth-single-move">
    <g id="svga-group-mouth-single">
      <path
        id="SvgjsPath3090"
        class="female lips"
        d="M260.7,394.8a25.46,25.46,0,0,0,11.1-6.9c5.4-5.4,6.9-6.6,9.6-7.8,3-1.2,9.6-3,14.7,1.2,4.8,3.9,6,1.5,8.1,0s6-4.2,12.6-1.8,12.9,10.2,16.8,12.3a28.64,28.64,0,0,0,6.6,2.7,109.56,109.56,0,0,1-9.3,11.4c-5.7,6-12.9,8.1-25.8,9s-21.6-1.5-27-5.1c-5.7-3.6-10.5-9.6-11.7-10.8a50.05,50.05,0,0,0-5.7-4.2Z"
      />
      <path
        id="SvgjsPath3091"
        class="female lips-outline"
        d="M258.6,394.8c5.4,2.7,10.8,2.4,16.5,1.2,4.2-.9,8.7-1.8,12.9-1.5s8.1,2.4,12.6,2.7c3.3,0,6-1.2,9-2.1,5.7-1.8,10.5-.9,16.2.3s12,3,17.1-.6a1,1,0,0,0-.6-1.8c-8.1,1.5-14.1-.6-22.2-1.8-7.2-1.2-13.2,3.3-20.4,2.4-6-.6-10.5-3-16.5-2.1-8.1.9-15.6,4.2-23.7,1.2-1.2,0-1.8,1.8-.9,2.1Z"
      />
      <path
        id="SvgjsPath3092"
        class="female lips-details"
        d="M329.4,399.9c-13.2.9-25.8,5.4-39,4.8a.64.64,0,0,0-.3,1.2c12.9,3.3,28.8,4.2,39.6-5.4C330,400.2,329.7,399.9,329.4,399.9Z"
      />
    </g>
  </g>
</svg>
